<svg xmlns="http://www.w3.org/2000/svg" xmlns:xlink="http://www.w3.org/1999/xlink" version="1.1" id="Layer_1" x="0px" y="0px" width="94.604px" height="269.458px" viewBox="0 0 94.604 269.458" enable-background="new 0 0 94.604 269.458" xml:space="preserve"><style>.style0{fill:	#0E0E0E;}.style1{stroke:	#FFFFFF;fill:	none;}</style><g class="hitbox" style="cursor:pointer"><path d="M31.179 268.958h29.666c0 0 31.334-204.667 32.667-211s0-8 0-8L49.179 1.292v6c0 0-8.666 2-18-0.667 l-6.667-5.333c0 0-3.333-0.333-3.333 1.667L0.512 206.292L31.179 268.958z" class="style0"></path><line x1="63.8" y1="53" x2="93.5" y2="53" class="style1"></line><path d="M31.179 268.958h29.666c0 0 31.334-204.667 32.667-211s0-8 0-8L49.179 1.292v6 c0 0-8.666 2-18-0.667l-6.667-5.333c0 0-3.333-0.333-3.333 1.667L0.512 206.292L31.179 268.958z" class="style1"></path><polyline points="22.2,1.6 63.8,53 31.2,269" class="style1"></polyline><line x1="49.3" y1="7.3" x2="93.5" y2="53" class="style1"></line></g></svg>