<svg xmlns="http://www.w3.org/2000/svg" xmlns:xlink="http://www.w3.org/1999/xlink" version="1.1" id="Layer_1" x="0px" y="0px" width="92.58px" height="329.682px" viewBox="0 0 92.58 329.682" enable-background="new 0 0 92.58 329.682" xml:space="preserve"><style>.style0{fill:	#0E0E0E;}.style1{stroke:	#FFFFFF;fill:	none;}.style2{stroke:	#FFFFFF;stroke-width:	0.5;fill:	none;}</style><g class="hitbox" style="cursor:pointer"><polygon points="40.1,2.3 40.1,7 42.4,4 66.1,4 67.7,2.3 71.7,2.3 71.7,14.3 85.1,0.7 92.1,200.7 70.1,328.7 40.1,328.7 0.6,55.7" class="style0"></polygon><path d="M30.578 56.182h-30l39.5 273h30l22-128l-7-200L34.411 52.8 C34.411 52.8 33.4 56.2 30.6 56.182z" class="style1"></path><polyline points="0.6,56.2 40.1,2.8 40.1,7.5" class="style1"></polyline><polyline points="4.4,56.2 42.4,4.5 66.1,4.5 67.7,2.8 71.7,2.8 71.7,4.5 71.7,14.8" class="style2"></polyline><polyline points="71.7,2.8 30.6,56.2 70.1,329.2" class="style2"></polyline></g>
</svg>