<svg xmlns="http://www.w3.org/2000/svg" xmlns:xlink="http://www.w3.org/1999/xlink" version="1.1" id="Layer_1" x="0px" y="0px" width="50.52px" height="219.096px" viewBox="0 0 50.52 219.096" enable-background="new 0 0 50.52 219.096" xml:space="preserve"><style>.style0{fill:	#0E0E0E;}.style1{stroke:	#FFFFFF;fill:	none;}</style><g class="hitbox" style="cursor:pointer"><path d="M18.266 0.846h12.5c0 0 1.2 0 1.8 1.75s17.5 145 17.5 145l-8.75 71h-14.25l-26.5-176L18.266 0.846z" class="style0"></path><path d="M18.266 0.846h12.5c0 0 1.2 0 1.8 1.75s17.5 145 17.5 145l-8.75 71h-14.25l-26.5-176 L18.266 0.846z" class="style1"></path><path d="M30.766 0.846c0 0-1.25-1.5-1.75 1.75s-14.25 40-14.25 40H0.516" class="style1"></path><line x1="14.8" y1="42.6" x2="41.3" y2="218.6" class="style1"></line></g>
</svg>