<svg xmlns="http://www.w3.org/2000/svg" xmlns:xlink="http://www.w3.org/1999/xlink" version="1.1" id="Layer_1" x="0px" y="0px" width="103.793px" height="295.63px" viewBox="0 0 103.793 295.63" enable-background="new 0 0 103.793 295.63" xml:space="preserve"><style>.style0{fill:	#0E0E0E;}.style1{stroke:	#FFFFFF;stroke-width:	1.0971;fill:	none;}</style><g class="hitbox" style="cursor:pointer"><path d="M34.207 295.082h32.548c0 0 34.377-224.545 35.84-231.494c1.462-6.949 0-8.777 0-8.777L53.955 1.417V8 c0 0-9.508 2.195-19.748-0.731l-7.314-5.852c0 0-3.656-0.366-3.656 1.829L0.562 226.329L34.207 295.082z" class="style0"></path><line x1="70" y1="58.1" x2="102.6" y2="58.1" class="style1"></line><path d="M34.207 295.082h32.548c0 0 34.377-224.545 35.84-231.494 c1.462-6.949 0-8.777 0-8.777L53.955 1.417V8c0 0-9.508 2.195-19.748-0.731l-7.314-5.852c0 0-3.656-0.366-3.656 1.829L0.562 226.3 L34.207 295.082z" class="style1"></path><polyline points="24.3,1.7 70,58.1 34.2,295.1" class="style1"></polyline><line x1="54.1" y1="8" x2="102.6" y2="58.1" class="style1"></line><path d="M102.595 58.1" class="style1"></path></g></svg>