<svg xmlns="http://www.w3.org/2000/svg" xmlns:xlink="http://www.w3.org/1999/xlink" version="1.1" id="Layer_1" x="0px" y="0px" width="57.754px" height="185.273px" viewBox="0 0 57.754 185.273" enable-background="new 0 0 57.754 185.273" xml:space="preserve"><style>.style0{fill:	#0E0E0E;}.style1{stroke:	#FFFFFF;fill:	none;}</style><g class="hitbox" style="cursor:pointer"><path d="M7.979 0.5l-7.5 35.25c0 0 0.5 6 1.5 12S17.79 182.8 19.3 184.758l33.75-1.996l1.219-11.262 c0 0 3-25.25 3-30.5L45.729 0.5H7.979z" class="style0"></path><path d="M45.754 0.5c0.5 40.25-8.25 43.004-8.25 43.004L3.754 45.5c0 0-2.5-3-3.25-9.75" class="style1"></path><path d="M8.004 0.5l-7.5 35.25c0 0 0.5 6 1.5 12s15.811 135 17.3 137.008l33.75-1.996 l1.22-11.262c0 0 3-25.25 3-30.5L45.754 0.5H8.004z" class="style1"></path><line x1="37.5" y1="43.5" x2="53" y2="182.8" class="style1"></line><line x1="3.8" y1="45.5" x2="19.3" y2="184.8" class="style1"></line></g>
</svg>