<svg xmlns="http://www.w3.org/2000/svg" xmlns:xlink="http://www.w3.org/1999/xlink" version="1.1" id="Layer_1" x="0px" y="0px" width="94.485px" height="206.382px" viewBox="0 0 94.485 206.382" enable-background="new 0 0 94.485 206.382" xml:space="preserve"><style>.style0{fill:	#0E0E0E;}.style1{stroke:	#FFFFFF;stroke-width:	0.8752;fill:	none;}.style2{stroke:	#FFFFFF;fill:	none;}</style><g class="hitbox" style="cursor:pointer"><path d="M31.122 205.945h29.666c0 0 31.334-156.754 32.667-161.605c1.333-4.851 0-6.127 0-6.127L49.122 0.939v4.595 c0 0-8.666 1.532-18-0.51l-6.667-4.085c0 0-3.333-0.255-3.333 1.276L0.455 157.949L31.122 205.945z" class="style0"></path><line x1="63.8" y1="40.5" x2="93.5" y2="40.5" class="style1"></line><path d="M31.122 205.945h29.666c0 0 31.334-156.754 32.667-161.605 c1.333-4.851 0-6.127 0-6.127L49.122 0.939v4.595c0 0-8.666 1.532-18-0.51l-6.667-4.085c0 0-3.333-0.255-3.333 1.276L0.455 157.9 L31.122 205.945z" class="style1"></path><polyline points="22.1,1.2 63.8,40.5 31.1,205.9" class="style1"></polyline><line x1="49.1" y1="5.5" x2="92" y2="40.5" class="style2"></line></g></svg>