<svg width="429" height="375" xmlns="http://www.w3.org/2000/svg">
 <g>
  <title>Layer 1</title>
  <g id="svg_layer1" class="hitbox">
   <style>.style0_sect04_1{fill:  #0E0E0E;}.style1_sect04_1{stroke: #FFFFFF;fill: none;}.style2_sect04_1{stroke:  #FFFFFF;stroke-width: 0.5;fill: none;}</style>
   <polygon points="62.1 23.3 62.1 28 64.4 25 88.1 25 89.7 23.3 93.7 23.3 93.7 35.3 107.1 21.7 114.1 221.7 92.1 349.7 62.1 349.7 22.6 76.7" class="style0_sect04_1" id="svg_1"/>
   <path d="m52.577999,77.181999l-30,0l39.5,273.000008l29.999996,0l22,-128.000015l-7,-199.999992l-50.666996,51.618004c0,0 -1.010998,3.399994 -3.811001,3.381996l-0.021999,0z" class="style1_sect04_1" id="svg_2"/>
   <polyline points="22.6 77.2 62.1 23.8 62.1 28.5" class="style1_sect04_1" id="svg_3"/>
   <polyline points="26.4 77.2 64.4 25.5 88.1 25.5 89.7 23.8 93.7 23.8 93.7 25.5 93.7 35.8" class="style2_sect04_1" id="svg_4"/>
   <polyline points="93.7 23.8 52.6 77.2 92.1 350.2" class="style2_sect04_1" id="svg_5"/>
  </g>
  <g id="svg_layer2" class="hitbox">
   <style>.style0_sect04_2{fill:  #0E0E0E;}.style1_sect04_2{stroke: #FFFFFF;fill: none;}</style>
   <path d="m94.265999,104.846001l12.5,0c0,0 1.200005,0 1.800003,1.75s17.5,144.999977 17.5,144.999977l-8.75,71.000031l-14.25,0l-26.5,-176l17.699997,-41.750015l0,0.000008z" class="style0_sect04_2" id="svg_6"/>
   <path d="m94.265999,104.846001l12.5,0c0,0 1.200005,0 1.800003,1.75s17.5,144.999977 17.5,144.999977l-8.75,71.000031l-14.25,0l-26.5,-176l17.699997,-41.750015l0,0.000008z" class="style1_sect04_2" id="svg_7"/>
   <path d="m106.765999,104.846001c0,0 -1.25,-1.5 -1.75,1.75s-14.25,40.000008 -14.25,40.000008l-14.25,0" class="style1_sect04_2" id="svg_8"/>
   <line x1="90.8" y1="146.6" x2="117.3" y2="322.6" class="style1_sect04_2" id="svg_9"/>
  </g>
  <g id="svg_layer3" class="hitbox">
   <style>.style0_sect04_3{fill:  #0E0E0E;}.style1_sect04_3{stroke: #FFFFFF;fill: none;}</style>
   <path d="m108.979004,150.5l-7.500008,35.25c0,0 0.500008,6 1.500008,12s15.810997,135.049988 17.320999,137.007996l33.75,-1.996002l1.218994,-11.261993c0,0 3,-25.25 3,-30.5l-11.539993,-140.5l-37.75,0z" class="style0_sect04_3" id="svg_10"/>
   <path d="m146.753998,150.5c0.5,40.25 -8.25,43.003998 -8.25,43.003998l-33.75,1.996002c0,0 -2.5,-3 -3.25,-9.75" class="style1_sect04_3" id="svg_11"/>
   <path d="m109.003998,150.5l-7.5,35.25c0,0 0.5,6 1.5,12s15.811005,135 17.300003,137.007996l33.75,-1.996002l1.220001,-11.261993c0,0 3,-25.25 3,-30.5l-11.520004,-140.5l-37.75,0z" class="style1_sect04_3" id="svg_12"/>
   <line x1="138.5" y1="193.5" x2="154" y2="332.8" class="style1_sect04_3" id="svg_13"/>
   <line x1="104.8" y1="195.5" x2="120.3" y2="334.8" class="style1_sect04_3" id="svg_14"/>
  </g>
  <g id="svg_layer6" class="hitbox">
   <style>.style0_sect04_6{fill:  #0E0E0E;}.style1_sect04_6{stroke: #FFFFFF;stroke-width: 1.0971;fill:  none;}</style>
   <path d="m341.207001,340.082001l32.548004,0c0,0 34.377014,-224.544998 35.839996,-231.494003c1.462006,-6.948997 0,-8.777 0,-8.777l-48.639984,-53.393997l0,6.583c0,0 -9.508026,2.195 -19.748016,-0.730999l-7.313995,-5.852001c0,0 -3.656006,-0.365997 -3.656006,1.829002l-22.674988,223.082977l33.644989,68.753021z" class="style0_sect04_6" id="svg_15"/>
   <line x1="377" y1="103.1" x2="409.6" y2="103.1" class="style1_sect04_6" id="svg_16"/>
   <path d="m341.207001,340.082001l32.548004,0c0,0 34.377014,-224.544998 35.839996,-231.494003c1.462006,-6.948997 0,-8.777 0,-8.777l-48.639984,-53.393997l0,6.583c0,0 -9.508026,2.195 -19.748016,-0.730999l-7.313995,-5.852001c0,0 -3.656006,-0.365997 -3.656006,1.829002l-22.674988,223.054016l33.644989,68.781982z" class="style1_sect04_6" id="svg_17"/>
   <polyline points="331.3 46.7 377 103.1 341.2 340.1" class="style1_sect04_6" id="svg_18"/>
   <line x1="361.1" y1="53" x2="409.6" y2="103.1" class="style1_sect04_6" id="svg_19"/>
   <path d="m409.595001,103.099998" class="style1_sect04_6" id="svg_20"/>
  </g>
  <g id="svg_layer5" class="hitbox">
   <style>.style0_sect04_5{fill:  #0E0E0E;}.style1_sect04_5{stroke: #FFFFFF;fill: none;}</style>
   <path d="m306.179016,335.958008l29.665985,0c0,0 31.334015,-204.667007 32.666992,-211s0,-8 0,-8l-44.332977,-48.666008l0,6c0,0 -8.666016,2 -18,-0.667l-6.667023,-5.333c0,0 -3.332977,-0.333 -3.332977,1.667l-20.667023,203.332993l30.667023,62.666016z" class="style0_sect04_5" id="svg_21"/>
   <line x1="338.8" y1="120" x2="368.5" y2="120" class="style1_sect04_5" id="svg_22"/>
   <path d="m306.179016,335.958008l29.665985,0c0,0 31.334015,-204.667007 32.666992,-211s0,-8 0,-8l-44.332977,-48.666008l0,6c0,0 -8.666016,2 -18,-0.667l-6.667023,-5.333c0,0 -3.332977,-0.333 -3.332977,1.667l-20.667023,203.332993l30.667023,62.666016z" class="style1_sect04_5" id="svg_23"/>
   <polyline points="297.2 68.6 338.8 120 306.2 336" class="style1_sect04_5" id="svg_24"/>
   <line x1="324.3" y1="74.3" x2="368.5" y2="120" class="style1_sect04_5" id="svg_25"/>
  </g>
  <g id="svg_layer4" class="hitbox">
   <style>.style0_sect04_4{fill:  #0E0E0E;}.style1_sect04_4{stroke: #FFFFFF;stroke-width: 0.8752;fill:  none;}.style2_sect04_4{stroke:  #FFFFFF;fill: none;}</style>
   <path d="m272.122009,332.945007l29.665985,0c0,0 31.334015,-156.753998 32.667023,-161.604996c1.332977,-4.850998 0,-6.126999 0,-6.126999l-44.333008,-37.27401l0,4.594994c0,0 -8.666016,1.531998 -18,-0.509995l-6.666992,-4.084999c0,0 -3.333008,-0.255005 -3.333008,1.275993l-20.667007,155.734009l30.667007,47.996002z" class="style0_sect04_4" id="svg_26"/>
   <line x1="304.8" y1="167.5" x2="334.5" y2="167.5" class="style1_sect04_4" id="svg_27"/>
   <path d="m272.122009,332.945007l29.665985,0c0,0 31.334015,-156.753998 32.667023,-161.604996c1.332977,-4.850998 0,-6.126999 0,-6.126999l-44.333008,-37.27401l0,4.594994c0,0 -8.666016,1.531998 -18,-0.509995l-6.666992,-4.084999c0,0 -3.333008,-0.255005 -3.333008,1.275993l-20.667007,155.684998l30.667007,48.045013z" class="style1_sect04_4" id="svg_28"/>
   <polyline points="263.1 128.2 304.8 167.5 272.1 332.9" class="style1_sect04_4" id="svg_29"/>
   <line x1="290.1" y1="132.5" x2="333" y2="167.5" class="style2_sect04_4" id="svg_30"/>
  </g>
 </g>
</svg>