<?xml version="1.0" encoding="utf-8"?>
<!-- Generator: Adobe Illustrator 17.0.2, SVG Export Plug-In . SVG Version: 6.00 Build 0)  -->
<!DOCTYPE svg PUBLIC "-//W3C//DTD SVG 1.1//EN" "http://www.w3.org/Graphics/SVG/1.1/DTD/svg11.dtd">
<svg version="1.1" id="Layer_1" xmlns="http://www.w3.org/2000/svg" xmlns:xlink="http://www.w3.org/1999/xlink" x="0px" y="0px"
	 width="50.52px" height="219.096px" viewBox="0 0 50.52 219.096" enable-background="new 0 0 50.52 219.096" xml:space="preserve">
<path fill="#0E0E0E" d="M18.266,0.846h12.5c0,0,1.25,0,1.75,1.75s17.5,145,17.5,145l-8.75,71h-14.25l-26.5-176L18.266,0.846z"/>
<path fill="none" stroke="#FFFFFF" d="M18.266,0.846h12.5c0,0,1.25,0,1.75,1.75s17.5,145,17.5,145l-8.75,71h-14.25l-26.5-176
	L18.266,0.846z"/>
<path fill="none" stroke="#FFFFFF" d="M30.766,0.846c0,0-1.25-1.5-1.75,1.75s-14.25,40-14.25,40H0.516"/>
<line fill="none" stroke="#FFFFFF" x1="14.766" y1="42.596" x2="41.266" y2="218.596"/>
<g>
	<path fill="#FFFFFF" d="M15.636,65.137l0.127,0.874c0.014,0.094,0.001,0.175-0.037,0.245c-0.039,0.067-0.092,0.118-0.161,0.15
		l-5.179,2.392c-0.093,0.043-0.195,0.085-0.304,0.125c-0.108,0.04-0.224,0.079-0.343,0.12c0.126,0.006,0.25,0.015,0.367,0.024
		c0.118,0.009,0.226,0.022,0.325,0.042l5.677,1.046c0.065,0.014,0.128,0.048,0.189,0.103c0.062,0.056,0.1,0.128,0.113,0.219
		l0.044,0.305c0.014,0.094,0.001,0.174-0.038,0.242c-0.039,0.066-0.092,0.118-0.161,0.153l-5.148,2.604
		c-0.178,0.093-0.386,0.183-0.621,0.268c0.123,0.005,0.24,0.008,0.351,0.01c0.111,0.002,0.216,0.011,0.314,0.027l5.646,0.83
		c0.068,0.009,0.131,0.042,0.191,0.098c0.06,0.055,0.097,0.13,0.11,0.221l0.119,0.819l-8.138-1.301l-0.137-0.945l5.653-2.833
		c0.106-0.057,0.232-0.11,0.375-0.165c-0.075-0.008-0.147-0.015-0.216-0.021c-0.069-0.006-0.133-0.015-0.189-0.025l-6.227-1.123
		l-0.137-0.945L15.636,65.137z"/>
	<path fill="#FFFFFF" d="M10.494,84.52l-0.153-1.059l3.542-0.513l-0.607-4.194l-3.543,0.513l-0.153-1.061l7.787-1.127l0.154,1.061
		l-3.473,0.503l0.608,4.194l3.472-0.503l0.153,1.059L10.494,84.52z"/>
	<path fill="#FFFFFF" d="M11.697,92.829l-0.118-0.816c-0.013-0.094,0-0.173,0.038-0.238c0.039-0.065,0.092-0.117,0.161-0.157
		l1.775-1l-0.506-3.494l-1.986-0.456c-0.069-0.017-0.134-0.051-0.193-0.104c-0.06-0.055-0.096-0.128-0.109-0.218l-0.118-0.815
		l8.238,1.986l0.155,1.07L11.697,92.829z M13.849,87.308l0.421,2.906l2.991-1.682c0.184-0.107,0.417-0.221,0.7-0.338
		c-0.154-0.02-0.296-0.038-0.427-0.058c-0.131-0.021-0.246-0.041-0.345-0.063L13.849,87.308z"/>
	<path fill="#FFFFFF" d="M20.29,97.27l-0.886,0.128l-0.364-2.516l-6.901,1l-0.153-1.054l6.901-1l-0.366-2.527l0.886-0.128
		L20.29,97.27z"/>
	<path fill="#FFFFFF" d="M13.896,108.01l-0.118-0.816c-0.013-0.094,0-0.173,0.038-0.238c0.039-0.065,0.092-0.117,0.16-0.157l1.775-1
		l-0.506-3.494l-1.986-0.456c-0.069-0.017-0.134-0.051-0.193-0.105c-0.06-0.054-0.096-0.127-0.109-0.217l-0.118-0.816l8.237,1.987
		l0.155,1.07L13.896,108.01z M16.048,102.489l0.421,2.906l2.991-1.682c0.184-0.107,0.417-0.221,0.7-0.338
		c-0.155-0.02-0.297-0.039-0.427-0.058c-0.131-0.021-0.246-0.041-0.345-0.063L16.048,102.489z"/>
	<path fill="#FFFFFF" d="M17.455,109.681l-3.249,0.471l-0.152-1.049l7.787-1.127l0.318,2.2c0.071,0.492,0.083,0.926,0.036,1.299
		c-0.048,0.373-0.149,0.689-0.303,0.95c-0.155,0.262-0.357,0.468-0.607,0.618c-0.25,0.15-0.54,0.25-0.87,0.298
		c-0.275,0.04-0.539,0.033-0.791-0.02c-0.251-0.052-0.484-0.146-0.698-0.283c-0.214-0.138-0.405-0.315-0.575-0.533
		c-0.168-0.218-0.308-0.472-0.42-0.763c-0.058,0.142-0.151,0.273-0.282,0.396l-2.763,2.719l-0.135-0.935
		c-0.028-0.191,0.026-0.343,0.161-0.455l2.49-2.425c0.078-0.074,0.13-0.15,0.158-0.228c0.028-0.079,0.031-0.189,0.01-0.335
		L17.455,109.681z M18.221,109.569l0.16,1.103c0.044,0.309,0.121,0.574,0.229,0.797c0.107,0.223,0.241,0.403,0.4,0.541
		s0.338,0.232,0.538,0.285c0.2,0.052,0.414,0.062,0.643,0.029c0.464-0.067,0.791-0.272,0.982-0.61
		c0.191-0.341,0.243-0.813,0.155-1.419l-0.167-1.151L18.221,109.569z"/>
	<path fill="#FFFFFF" d="M23.533,119.662l-0.859,0.124l-0.542-3.738l-2.586,0.375l0.438,3.026l-0.826,0.119l-0.438-3.026
		l-2.656,0.385l0.541,3.738l-0.859,0.125l-0.695-4.799l7.787-1.128L23.533,119.662z"/>
	<path fill="#FFFFFF" d="M24.824,128.578l-0.885,0.128l-0.364-2.516l-6.901,1l-0.153-1.054l6.901-1l-0.366-2.527l0.886-0.128
		L24.824,128.578z"/>
	<path fill="#FFFFFF" d="M18.114,137.128l-0.153-1.059l3.542-0.514l-0.607-4.194l-3.542,0.514l-0.153-1.061l7.787-1.128l0.153,1.061
		l-3.472,0.503l0.608,4.194l3.472-0.503L25.9,136L18.114,137.128z"/>
	<path fill="#FFFFFF" d="M26.87,142.701l-0.858,0.124l-0.542-3.738l-2.586,0.375l0.438,3.025l-0.826,0.119l-0.438-3.025
		l-2.656,0.385l0.541,3.738l-0.859,0.125l-0.695-4.799l7.787-1.128L26.87,142.701z"/>
	<path fill="#FFFFFF" d="M26.754,150.478c-0.059-0.025-0.105-0.054-0.138-0.085c-0.032-0.032-0.053-0.077-0.061-0.136
		c-0.009-0.062,0.011-0.138,0.061-0.229s0.104-0.203,0.159-0.339s0.103-0.296,0.139-0.48c0.036-0.186,0.036-0.401,0-0.652
		c-0.034-0.235-0.096-0.439-0.186-0.61c-0.09-0.173-0.198-0.311-0.324-0.417s-0.268-0.179-0.423-0.219
		c-0.156-0.04-0.318-0.048-0.489-0.023c-0.217,0.032-0.39,0.11-0.517,0.238c-0.128,0.128-0.229,0.287-0.306,0.478
		s-0.135,0.402-0.177,0.635c-0.042,0.234-0.086,0.474-0.132,0.719s-0.103,0.486-0.17,0.724s-0.164,0.455-0.291,0.652
		c-0.126,0.197-0.293,0.366-0.498,0.505c-0.206,0.14-0.47,0.231-0.792,0.278c-0.34,0.05-0.668,0.038-0.984-0.035
		c-0.315-0.072-0.6-0.204-0.853-0.396c-0.253-0.189-0.467-0.438-0.641-0.745c-0.174-0.305-0.291-0.664-0.351-1.077
		c-0.073-0.504-0.048-0.977,0.075-1.417c0.123-0.441,0.319-0.831,0.588-1.17l0.544,0.232c0.044,0.022,0.083,0.053,0.116,0.092
		c0.033,0.037,0.054,0.081,0.062,0.132c0.011,0.076-0.018,0.169-0.085,0.278c-0.067,0.109-0.14,0.244-0.216,0.405
		c-0.077,0.161-0.141,0.353-0.192,0.572c-0.051,0.22-0.055,0.48-0.012,0.781c0.036,0.25,0.104,0.467,0.2,0.653
		c0.097,0.185,0.219,0.338,0.363,0.454c0.144,0.119,0.309,0.2,0.493,0.248c0.185,0.047,0.383,0.056,0.597,0.025
		c0.236-0.034,0.421-0.117,0.556-0.245c0.134-0.129,0.24-0.287,0.316-0.476c0.076-0.188,0.134-0.399,0.172-0.632
		c0.039-0.233,0.078-0.473,0.118-0.718c0.041-0.244,0.093-0.484,0.159-0.721c0.066-0.237,0.164-0.454,0.294-0.65
		s0.305-0.365,0.523-0.506c0.219-0.141,0.499-0.235,0.844-0.285c0.275-0.04,0.549-0.025,0.822,0.044
		c0.272,0.069,0.522,0.191,0.752,0.366c0.229,0.173,0.424,0.401,0.587,0.684c0.163,0.28,0.272,0.615,0.328,1.003
		c0.063,0.435,0.052,0.841-0.034,1.22c-0.085,0.379-0.239,0.722-0.461,1.026L26.754,150.478z"/>
	<path fill="#FFFFFF" d="M28.923,156.871l-0.859,0.124l-0.541-3.738l-2.587,0.375l0.438,3.026l-0.826,0.119l-0.438-3.026
		l-2.657,0.385l0.542,3.738l-0.859,0.125l-0.695-4.798l7.787-1.128L28.923,156.871z"/>
	<path fill="#FFFFFF" d="M29.012,157.486l0.122,0.842c0.014,0.095,0.001,0.174-0.038,0.238s-0.092,0.116-0.16,0.156l-5.175,2.996
		c-0.116,0.069-0.243,0.135-0.382,0.197c-0.139,0.063-0.284,0.125-0.434,0.188c0.161,0.01,0.316,0.024,0.467,0.041
		c0.15,0.017,0.291,0.042,0.421,0.075l5.811,1.394c0.065,0.016,0.129,0.051,0.19,0.105c0.061,0.055,0.099,0.127,0.111,0.217
		l0.123,0.848l-8.246-2.045l-0.138-0.951L29.012,157.486z"/>
	<path fill="#FFFFFF" d="M30.907,170.574l-0.858,0.124l-0.542-3.738l-2.586,0.375l0.438,3.026l-0.826,0.119l-0.438-3.026
		l-2.657,0.385l0.542,3.738l-0.859,0.125l-0.695-4.799l7.787-1.128L30.907,170.574z"/>
	<path fill="#FFFFFF" d="M31.201,172.848c-0.018,0.049-0.059,0.107-0.122,0.175l-5.216,5.36c0.093-0.024,0.184-0.045,0.271-0.062
		c0.089-0.017,0.174-0.031,0.258-0.043l5.515-0.799l0.134,0.924l-7.786,1.128l-0.077-0.532c-0.012-0.083-0.008-0.154,0.013-0.216
		c0.021-0.06,0.062-0.123,0.123-0.187l5.211-5.354c-0.09,0.02-0.178,0.039-0.265,0.054c-0.086,0.017-0.166,0.03-0.238,0.041
		l-5.547,0.804l-0.134-0.924l7.787-1.128l0.078,0.543C31.219,172.728,31.217,172.799,31.201,172.848z"/>
	<path fill="#FFFFFF" d="M31.678,184.47c-0.06-0.024-0.105-0.053-0.138-0.085c-0.032-0.031-0.053-0.077-0.062-0.135
		c-0.009-0.062,0.012-0.139,0.062-0.229c0.05-0.091,0.103-0.203,0.159-0.339c0.056-0.136,0.103-0.296,0.139-0.481
		c0.035-0.185,0.035-0.4-0.001-0.651c-0.034-0.235-0.096-0.439-0.185-0.61c-0.091-0.173-0.198-0.312-0.324-0.417
		c-0.127-0.106-0.268-0.179-0.423-0.219c-0.156-0.041-0.318-0.048-0.489-0.023c-0.217,0.032-0.39,0.11-0.518,0.238
		c-0.127,0.128-0.229,0.286-0.305,0.477c-0.076,0.191-0.136,0.402-0.177,0.636c-0.043,0.234-0.086,0.474-0.133,0.719
		c-0.046,0.245-0.102,0.486-0.17,0.723c-0.067,0.238-0.163,0.456-0.29,0.653s-0.293,0.367-0.499,0.504
		c-0.205,0.14-0.469,0.232-0.791,0.279c-0.341,0.05-0.669,0.037-0.984-0.035s-0.601-0.204-0.854-0.396
		c-0.253-0.19-0.467-0.438-0.641-0.745c-0.174-0.306-0.29-0.664-0.351-1.077c-0.073-0.504-0.048-0.977,0.075-1.418
		c0.122-0.44,0.319-0.83,0.588-1.169l0.544,0.231c0.045,0.023,0.083,0.054,0.115,0.092c0.034,0.038,0.055,0.081,0.062,0.133
		c0.012,0.076-0.018,0.169-0.084,0.278c-0.067,0.109-0.14,0.244-0.217,0.405c-0.076,0.161-0.14,0.353-0.191,0.571
		c-0.052,0.221-0.056,0.481-0.012,0.781c0.036,0.251,0.104,0.468,0.2,0.654c0.097,0.185,0.219,0.337,0.363,0.454
		c0.144,0.118,0.309,0.2,0.492,0.248c0.186,0.047,0.384,0.055,0.598,0.024c0.236-0.034,0.421-0.116,0.556-0.244
		c0.135-0.129,0.24-0.287,0.316-0.476c0.076-0.189,0.134-0.399,0.172-0.632c0.038-0.234,0.078-0.473,0.118-0.718
		c0.041-0.244,0.094-0.484,0.159-0.721c0.065-0.237,0.163-0.454,0.294-0.65s0.306-0.365,0.523-0.507
		c0.218-0.14,0.499-0.234,0.844-0.285c0.275-0.039,0.549-0.024,0.821,0.044c0.273,0.07,0.523,0.192,0.752,0.366
		s0.425,0.402,0.588,0.684c0.162,0.281,0.272,0.616,0.328,1.003c0.063,0.436,0.051,0.842-0.035,1.221
		c-0.085,0.379-0.238,0.721-0.461,1.026L31.678,184.47z"/>
	<path fill="#FFFFFF" d="M26.006,187.41c0.095-0.014,0.186-0.009,0.274,0.014c0.088,0.021,0.167,0.06,0.237,0.109
		c0.07,0.051,0.13,0.115,0.178,0.194c0.049,0.077,0.08,0.164,0.094,0.258s0.008,0.185-0.017,0.274
		c-0.023,0.088-0.062,0.167-0.114,0.238c-0.054,0.069-0.119,0.129-0.197,0.176c-0.079,0.046-0.164,0.076-0.259,0.09
		c-0.099,0.015-0.19,0.01-0.276-0.013s-0.165-0.061-0.235-0.112c-0.07-0.054-0.129-0.119-0.176-0.197
		c-0.046-0.079-0.076-0.164-0.09-0.259c-0.014-0.094-0.009-0.186,0.013-0.273c0.022-0.089,0.061-0.167,0.113-0.235
		s0.117-0.127,0.193-0.173C25.822,187.455,25.908,187.425,26.006,187.41z M32.346,185.405c0.121,0.096,0.238,0.207,0.352,0.329
		c0.114,0.122,0.219,0.258,0.315,0.409c0.095,0.15,0.178,0.315,0.246,0.496c0.069,0.181,0.119,0.38,0.15,0.598
		c0.042,0.286,0.038,0.557-0.01,0.813s-0.135,0.484-0.262,0.685c-0.126,0.199-0.291,0.365-0.493,0.498s-0.439,0.22-0.712,0.259
		c-0.274,0.04-0.518,0.034-0.729-0.019c-0.211-0.053-0.4-0.131-0.569-0.234c-0.168-0.103-0.318-0.221-0.45-0.354
		c-0.132-0.131-0.256-0.256-0.373-0.369c-0.116-0.115-0.23-0.211-0.341-0.29c-0.111-0.077-0.228-0.115-0.35-0.113l-0.846,0.023
		l-0.096-0.663l0.893-0.195l0.06-0.009c0.152-0.021,0.293,0,0.423,0.063c0.129,0.065,0.255,0.152,0.376,0.262
		c0.122,0.11,0.244,0.229,0.368,0.357s0.258,0.246,0.4,0.353c0.144,0.106,0.301,0.189,0.472,0.247
		c0.171,0.06,0.365,0.072,0.583,0.041c0.155-0.022,0.292-0.074,0.41-0.154c0.118-0.079,0.214-0.179,0.287-0.296
		c0.073-0.118,0.123-0.252,0.149-0.401c0.026-0.151,0.028-0.307,0.005-0.469c-0.032-0.222-0.087-0.407-0.164-0.557
		c-0.077-0.15-0.156-0.274-0.237-0.374s-0.153-0.179-0.218-0.237c-0.063-0.059-0.099-0.11-0.104-0.153
		c-0.014-0.091,0.018-0.168,0.094-0.23L32.346,185.405z"/>
</g>
</svg>
