<?xml version="1.0" encoding="utf-8"?>
<!-- Generator: Adobe Illustrator 17.0.2, SVG Export Plug-In . SVG Version: 6.00 Build 0)  -->
<!DOCTYPE svg PUBLIC "-//W3C//DTD SVG 1.1//EN" "http://www.w3.org/Graphics/SVG/1.1/DTD/svg11.dtd">
<svg version="1.1" id="Layer_1" xmlns="http://www.w3.org/2000/svg" xmlns:xlink="http://www.w3.org/1999/xlink" x="0px" y="0px"
	 width="94.485px" height="206.382px" viewBox="0 0 94.485 206.382" enable-background="new 0 0 94.485 206.382"
	 xml:space="preserve">
<path fill="#0E0E0E" d="M31.122,205.945h29.666c0,0,31.334-156.754,32.667-161.605s0-6.127,0-6.127L49.122,0.939v4.595
	c0,0-8.666,1.532-18-0.51l-6.667-4.085c0,0-3.333-0.255-3.333,1.276L0.455,157.949L31.122,205.945z"/>
<line fill="none" stroke="#FFFFFF" stroke-width="0.8752" x1="63.789" y1="40.511" x2="93.455" y2="40.511"/>
<path fill="none" stroke="#FFFFFF" stroke-width="0.8752" d="M31.122,205.945h29.666c0,0,31.334-156.754,32.667-161.605
	s0-6.127,0-6.127L49.122,0.939v4.595c0,0-8.666,1.532-18-0.51l-6.667-4.085c0,0-3.333-0.255-3.333,1.276L0.455,157.949
	L31.122,205.945z"/>
<polyline fill="none" stroke="#FFFFFF" stroke-width="0.8752" points="22.118,1.16 63.789,40.511 31.122,205.945 "/>
<line fill="none" stroke="#FFFFFF" x1="49.122" y1="5.535" x2="92.048" y2="40.511"/>
<g>
	<path fill="#FFFFFF" d="M60.203,171.22l-12.525-2.35l0.811-4.322c0.153-0.82,0.363-1.506,0.627-2.058
		c0.266-0.551,0.577-0.985,0.936-1.304s0.76-0.526,1.202-0.623c0.442-0.096,0.921-0.096,1.435,0.001
		c0.295,0.056,0.568,0.151,0.82,0.288s0.479,0.318,0.678,0.545c0.199,0.225,0.368,0.496,0.507,0.812
		c0.138,0.315,0.237,0.681,0.297,1.092c0.71-1.648,1.802-2.335,3.274-2.059c0.531,0.1,1.002,0.293,1.416,0.579
		c0.412,0.287,0.745,0.654,0.998,1.103c0.255,0.448,0.421,0.973,0.499,1.573c0.079,0.601,0.05,1.265-0.086,1.992L60.203,171.22z
		 M53.537,167.557l0.35-1.863c0.148-0.79,0.116-1.418-0.096-1.882c-0.213-0.465-0.632-0.756-1.262-0.874
		c-0.652-0.122-1.152-0.024-1.499,0.294c-0.347,0.316-0.593,0.868-0.74,1.654l-0.374,1.992L53.537,167.557z M55.149,167.859
		l3.673,0.689l0.443-2.365c0.081-0.434,0.098-0.805,0.048-1.117c-0.049-0.311-0.144-0.57-0.284-0.779
		c-0.14-0.208-0.318-0.373-0.535-0.494c-0.216-0.121-0.454-0.207-0.715-0.256c-0.271-0.051-0.522-0.053-0.755-0.007
		c-0.233,0.046-0.443,0.146-0.632,0.304c-0.187,0.156-0.349,0.371-0.483,0.645c-0.136,0.273-0.241,0.615-0.318,1.025L55.149,167.859
		z"/>
	<path fill="#FFFFFF" d="M58.311,146.743c0.918,0.173,1.74,0.485,2.465,0.938c0.725,0.453,1.32,1.01,1.789,1.672
		c0.469,0.661,0.789,1.412,0.964,2.252c0.173,0.84,0.171,1.733-0.007,2.681c-0.177,0.946-0.5,1.781-0.965,2.504
		c-0.468,0.723-1.039,1.309-1.717,1.758c-0.677,0.451-1.434,0.756-2.273,0.915s-1.719,0.153-2.637-0.02
		c-0.92-0.172-1.741-0.484-2.466-0.937c-0.726-0.453-1.322-1.012-1.788-1.677c-0.467-0.665-0.788-1.418-0.963-2.261
		c-0.173-0.843-0.171-1.738,0.006-2.685c0.178-0.947,0.502-1.78,0.972-2.499s1.041-1.303,1.713-1.75
		c0.674-0.448,1.43-0.751,2.27-0.911C56.513,146.564,57.392,146.571,58.311,146.743z M57.863,149.133
		c-0.688-0.129-1.32-0.153-1.9-0.073c-0.581,0.079-1.092,0.254-1.539,0.523c-0.444,0.269-0.813,0.629-1.106,1.078
		c-0.294,0.45-0.499,0.981-0.613,1.594c-0.115,0.611-0.117,1.183-0.007,1.711c0.11,0.529,0.322,1.002,0.64,1.416
		c0.318,0.416,0.73,0.767,1.242,1.053c0.512,0.288,1.11,0.496,1.798,0.625c0.687,0.129,1.32,0.152,1.901,0.069
		c0.58-0.083,1.092-0.26,1.535-0.532c0.441-0.272,0.811-0.636,1.104-1.089c0.294-0.452,0.499-0.985,0.614-1.598
		c0.114-0.612,0.116-1.181,0.006-1.707c-0.111-0.525-0.323-0.995-0.638-1.406c-0.313-0.411-0.728-0.76-1.238-1.044
		C59.149,149.468,58.549,149.262,57.863,149.133z"/>
	<path fill="#FFFFFF" d="M61.527,138.652c0.216-0.046,0.432-0.091,0.649-0.134c-0.193-0.119-0.383-0.242-0.568-0.366
		c-0.187-0.125-0.361-0.253-0.528-0.387l-6.243-5.008c-0.078-0.062-0.139-0.123-0.183-0.182c-0.042-0.06-0.069-0.121-0.081-0.187
		c-0.012-0.064-0.014-0.136-0.005-0.211c0.008-0.076,0.022-0.166,0.042-0.271l0.329-1.759l12.526,2.349l-0.385,2.054l-8.091-1.518
		c-0.15-0.028-0.313-0.063-0.492-0.105c-0.177-0.042-0.356-0.089-0.537-0.141l6.393,5.117c0.146,0.116,0.251,0.253,0.313,0.408
		c0.064,0.155,0.078,0.325,0.044,0.51l-0.06,0.321c-0.035,0.185-0.11,0.338-0.227,0.46c-0.115,0.121-0.262,0.21-0.439,0.267
		l-7.85,2.5c0.195,0.014,0.385,0.033,0.568,0.059c0.183,0.024,0.353,0.053,0.509,0.082l8.091,1.517l-0.385,2.053l-12.526-2.349
		l0.33-1.759c0.019-0.104,0.039-0.192,0.059-0.267c0.021-0.074,0.048-0.139,0.081-0.195c0.035-0.057,0.083-0.105,0.145-0.147
		c0.062-0.043,0.141-0.079,0.236-0.108l7.658-2.438C61.103,138.754,61.313,138.699,61.527,138.652z"/>
	<path fill="#FFFFFF" d="M67.94,129.968l-12.526-2.349l0.811-4.322c0.153-0.82,0.363-1.506,0.627-2.058
		c0.266-0.551,0.577-0.985,0.936-1.304s0.76-0.526,1.202-0.622c0.442-0.097,0.921-0.097,1.435,0c0.295,0.055,0.569,0.151,0.82,0.289
		c0.252,0.137,0.479,0.318,0.679,0.543c0.199,0.227,0.367,0.497,0.506,0.813c0.139,0.315,0.238,0.68,0.297,1.091
		c0.71-1.648,1.802-2.334,3.274-2.059c0.531,0.1,1.003,0.293,1.416,0.58c0.412,0.286,0.745,0.653,0.998,1.102
		c0.255,0.448,0.421,0.973,0.5,1.573c0.078,0.601,0.05,1.265-0.087,1.992L67.94,129.968z M61.273,126.306l0.35-1.862
		c0.148-0.791,0.116-1.418-0.096-1.883c-0.212-0.464-0.632-0.756-1.262-0.874c-0.652-0.122-1.151-0.023-1.498,0.294
		s-0.594,0.868-0.741,1.654l-0.374,1.992L61.273,126.306z M62.885,126.609l3.672,0.688L67,124.932
		c0.082-0.433,0.098-0.805,0.048-1.116c-0.049-0.311-0.144-0.57-0.284-0.779c-0.139-0.209-0.318-0.374-0.535-0.495
		c-0.216-0.122-0.453-0.206-0.715-0.255c-0.271-0.051-0.522-0.053-0.754-0.008c-0.234,0.047-0.444,0.147-0.633,0.304
		c-0.187,0.156-0.348,0.371-0.483,0.644c-0.136,0.274-0.241,0.616-0.317,1.026L62.885,126.609z"/>
	<path fill="#FFFFFF" d="M70.046,109.264c0.099-0.524,0.136-0.992,0.114-1.399c-0.021-0.408-0.084-0.804-0.186-1.188l-2.277-0.427
		l-0.294,1.567c-0.028,0.15-0.093,0.261-0.192,0.332s-0.211,0.096-0.332,0.072l-1.316-0.247l0.781-4.167l5.066,0.95
		c0.172,0.361,0.311,0.729,0.418,1.105c0.105,0.376,0.176,0.769,0.213,1.179s0.041,0.844,0.013,1.298
		c-0.028,0.455-0.093,0.94-0.188,1.454c-0.171,0.912-0.486,1.723-0.948,2.432c-0.462,0.708-1.028,1.289-1.699,1.743
		c-0.67,0.454-1.428,0.765-2.272,0.933c-0.845,0.167-1.732,0.164-2.662-0.011c-0.941-0.177-1.775-0.491-2.504-0.945
		c-0.729-0.452-1.322-1.014-1.782-1.683c-0.461-0.67-0.771-1.435-0.933-2.296c-0.161-0.862-0.148-1.792,0.039-2.791
		c0.191-1.022,0.509-1.879,0.952-2.569c0.443-0.691,0.957-1.251,1.54-1.68l0.93,0.874c0.188,0.173,0.262,0.369,0.221,0.588
		c-0.025,0.139-0.098,0.272-0.217,0.398c-0.145,0.164-0.291,0.333-0.437,0.507c-0.147,0.172-0.281,0.368-0.405,0.587
		c-0.125,0.219-0.242,0.469-0.349,0.751c-0.106,0.281-0.195,0.612-0.267,0.994c-0.116,0.617-0.116,1.196-0.002,1.734
		c0.114,0.539,0.332,1.021,0.652,1.445c0.321,0.425,0.734,0.783,1.242,1.076c0.506,0.292,1.096,0.501,1.766,0.627
		c0.722,0.135,1.383,0.154,1.984,0.058c0.601-0.097,1.129-0.29,1.584-0.581c0.455-0.292,0.832-0.669,1.132-1.133
		C69.729,110.388,69.934,109.859,70.046,109.264z"/>
	<path fill="#FFFFFF" d="M73.525,100.187l-0.438,2.339l-12.526-2.349l0.438-2.339L73.525,100.187z"/>
	<path fill="#FFFFFF" d="M69.61,94.046l4.895,0.917l-0.438,2.33L61.54,94.945l0.717-3.82c0.16-0.854,0.386-1.57,0.677-2.146
		s0.631-1.029,1.021-1.359s0.823-0.545,1.299-0.644c0.477-0.1,0.98-0.099,1.512,0.001c0.422,0.078,0.809,0.216,1.161,0.41
		c0.352,0.194,0.659,0.438,0.921,0.729s0.476,0.631,0.643,1.018s0.278,0.812,0.335,1.277c0.222-0.264,0.51-0.473,0.861-0.627
		l5.214-2.269l-0.393,2.096c-0.038,0.202-0.11,0.367-0.218,0.493c-0.108,0.127-0.246,0.224-0.414,0.295l-4.505,1.881
		c-0.169,0.07-0.297,0.158-0.382,0.265s-0.149,0.275-0.193,0.507L69.61,94.046z M67.938,93.732l0.273-1.455
		c0.082-0.438,0.099-0.832,0.051-1.178c-0.049-0.348-0.15-0.645-0.305-0.892c-0.153-0.247-0.354-0.447-0.601-0.602
		c-0.245-0.153-0.527-0.261-0.845-0.32c-0.636-0.119-1.162,0-1.582,0.354s-0.71,0.962-0.871,1.822l-0.279,1.49L67.938,93.732z"/>
	<path fill="#FFFFFF" d="M74.694,83.334l0.94-5.016l1.924,0.36l-1.378,7.346l-12.525-2.349l0.437-2.33L74.694,83.334z"/>
	<path fill="#FFFFFF" d="M68.871,68.432c0.115,0.087,0.19,0.178,0.227,0.271c0.036,0.093,0.044,0.197,0.022,0.313
		c-0.022,0.115-0.091,0.236-0.208,0.364c-0.116,0.128-0.248,0.279-0.395,0.455s-0.289,0.387-0.428,0.633s-0.242,0.548-0.309,0.905
		c-0.061,0.324-0.076,0.613-0.041,0.867c0.033,0.254,0.104,0.477,0.21,0.667c0.108,0.19,0.252,0.345,0.429,0.462
		c0.18,0.117,0.384,0.197,0.614,0.24c0.295,0.056,0.556,0.02,0.784-0.108c0.226-0.128,0.435-0.314,0.624-0.561
		c0.188-0.245,0.372-0.53,0.546-0.856c0.175-0.326,0.357-0.658,0.551-0.995c0.191-0.338,0.401-0.665,0.631-0.979
		c0.229-0.316,0.496-0.586,0.799-0.811c0.302-0.225,0.65-0.385,1.045-0.481c0.395-0.096,0.852-0.096,1.372,0.002
		c0.565,0.106,1.076,0.303,1.534,0.589c0.458,0.285,0.834,0.649,1.131,1.09c0.299,0.441,0.501,0.951,0.611,1.527
		c0.11,0.577,0.1,1.211-0.031,1.904c-0.074,0.398-0.186,0.784-0.336,1.156c-0.151,0.373-0.331,0.723-0.543,1.051
		c-0.211,0.328-0.447,0.628-0.705,0.898c-0.262,0.271-0.539,0.505-0.832,0.701l-0.991-0.886c-0.069-0.079-0.122-0.168-0.161-0.268
		c-0.037-0.1-0.045-0.204-0.024-0.314c0.026-0.144,0.114-0.289,0.265-0.434c0.148-0.146,0.318-0.318,0.506-0.521
		c0.187-0.201,0.369-0.444,0.545-0.731c0.176-0.286,0.305-0.646,0.386-1.08c0.124-0.664,0.063-1.208-0.183-1.631
		c-0.247-0.423-0.665-0.688-1.253-0.799c-0.329-0.062-0.613-0.03-0.853,0.095c-0.238,0.126-0.454,0.312-0.646,0.557
		s-0.371,0.531-0.533,0.859c-0.164,0.327-0.336,0.66-0.519,0.997c-0.184,0.336-0.388,0.662-0.614,0.979s-0.496,0.586-0.806,0.808
		c-0.312,0.223-0.677,0.381-1.099,0.472c-0.42,0.092-0.916,0.083-1.487-0.023c-0.456-0.086-0.884-0.26-1.282-0.522
		c-0.4-0.264-0.734-0.602-1.004-1.014s-0.457-0.891-0.564-1.438c-0.106-0.546-0.1-1.146,0.023-1.798
		c0.139-0.739,0.383-1.399,0.73-1.979c0.348-0.581,0.771-1.051,1.268-1.412L68.871,68.432z"/>
</g>
</svg>
