<?xml version="1.0" encoding="utf-8"?>
<!-- Generator: Adobe Illustrator 17.0.2, SVG Export Plug-In . SVG Version: 6.00 Build 0)  -->
<!DOCTYPE svg PUBLIC "-//W3C//DTD SVG 1.1//EN" "http://www.w3.org/Graphics/SVG/1.1/DTD/svg11.dtd">
<svg version="1.1" id="Layer_1" xmlns="http://www.w3.org/2000/svg" xmlns:xlink="http://www.w3.org/1999/xlink" x="0px" y="0px"
	 width="57.754px" height="185.273px" viewBox="0 0 57.754 185.273" enable-background="new 0 0 57.754 185.273"
	 xml:space="preserve">
<path fill="#0E0E0E" d="M7.979,0.5l-7.5,35.25c0,0,0.5,6,1.5,12S17.79,182.766,19.26,184.758l33.75-1.996l1.219-11.262
	c0,0,3-25.25,3-30.5L45.729,0.5H7.979z"/>
<path fill="none" stroke="#FFFFFF" d="M45.754,0.5c0.5,40.25-8.25,43.004-8.25,43.004L3.754,45.5c0,0-2.5-3-3.25-9.75"/>
<path fill="none" stroke="#FFFFFF" d="M8.004,0.5l-7.5,35.25c0,0,0.5,6,1.5,12s15.811,135.016,17.28,137.008l33.75-1.996
	l1.22-11.262c0,0,3-25.25,3-30.5L45.754,0.5H8.004z"/>
<line fill="none" stroke="#FFFFFF" x1="37.504" y1="43.504" x2="53.035" y2="182.762"/>
<line fill="none" stroke="#FFFFFF" x1="3.754" y1="45.5" x2="19.285" y2="184.758"/>
<g>
	<path fill="#FFFFFF" d="M34.424,72.018l-1.251-0.002l-0.427-3.467l-2.484,0.005l0.335,2.721l-1.204-0.003l-0.335-2.721h-2.551
		l0.429,3.478l-1.252-0.003L25.064,67l8.742-0.003L34.424,72.018z"/>
	<path fill="#FFFFFF" d="M34.69,74.238c0,0.046-0.008,0.088-0.021,0.127c-0.014,0.037-0.034,0.072-0.062,0.104
		c-0.028,0.032-0.068,0.067-0.12,0.106l-5.463,4.077c0.116-0.007,0.229-0.011,0.339-0.015c0.112-0.005,0.215-0.006,0.311-0.006
		l5.568-0.003l0.168,1.363l-8.743-0.004l-0.098-0.792c-0.015-0.119-0.008-0.223,0.019-0.311s0.09-0.167,0.186-0.234l5.466-4.06
		c-0.096,0.004-0.189,0.007-0.279,0.01c-0.09,0.004-0.176,0.006-0.256,0.008l-5.699,0.014l-0.168-1.364l8.741-0.002l0.101,0.811
		C34.686,74.134,34.69,74.192,34.69,74.238z"/>
	<path fill="#FFFFFF" d="M32.684,88.591c-0.714,0.088-1.385,0.054-2.014-0.103c-0.628-0.156-1.183-0.413-1.664-0.771
		c-0.481-0.357-0.877-0.805-1.187-1.338c-0.31-0.534-0.505-1.135-0.588-1.802l-0.374-3.031l8.742-0.002l0.374,3.037
		c0.067,0.548,0.035,1.053-0.097,1.515c-0.133,0.462-0.346,0.865-0.637,1.212c-0.293,0.347-0.656,0.63-1.093,0.851
		C33.711,88.381,33.224,88.525,32.684,88.591z M32.453,87.012c0.385-0.048,0.729-0.139,1.03-0.272s0.552-0.305,0.749-0.513
		c0.199-0.208,0.341-0.45,0.428-0.727s0.109-0.584,0.068-0.921l-0.184-1.483l-6.244,0.003l0.183,1.482
		c0.054,0.433,0.186,0.815,0.396,1.147c0.21,0.333,0.487,0.606,0.829,0.82c0.343,0.214,0.746,0.361,1.21,0.443
		C31.381,87.074,31.893,87.08,32.453,87.012z"/>
	<path fill="#FFFFFF" d="M29.756,95.68c0.039,0.321,0.104,0.602,0.197,0.841c0.092,0.238,0.207,0.464,0.346,0.676h1.669
		l-0.118-0.952c-0.011-0.092,0.004-0.165,0.043-0.22c0.039-0.056,0.096-0.088,0.166-0.097l0.931-0.012l0.33,2.68l-3.513-0.002
		c-0.372-0.397-0.664-0.839-0.877-1.325c-0.213-0.485-0.359-1.052-0.439-1.698c-0.065-0.528-0.029-1.02,0.108-1.474
		s0.357-0.856,0.659-1.206c0.301-0.35,0.674-0.637,1.121-0.86c0.445-0.225,0.944-0.371,1.496-0.438
		c0.484-0.06,0.951-0.062,1.398-0.01c0.447,0.054,0.869,0.156,1.262,0.307c0.395,0.151,0.755,0.347,1.085,0.586
		c0.329,0.24,0.62,0.519,0.871,0.835c0.251,0.318,0.456,0.668,0.616,1.052c0.16,0.383,0.268,0.793,0.32,1.229
		c0.043,0.35,0.053,0.671,0.026,0.965c-0.026,0.293-0.079,0.562-0.159,0.806c-0.078,0.243-0.178,0.465-0.298,0.665
		s-0.251,0.382-0.393,0.544l-0.705-0.421c-0.152-0.09-0.237-0.208-0.255-0.355c-0.012-0.092,0.006-0.182,0.051-0.272
		c0.071-0.142,0.137-0.278,0.197-0.411c0.061-0.132,0.109-0.271,0.148-0.417c0.038-0.146,0.062-0.303,0.074-0.472
		s0.004-0.362-0.022-0.581c-0.054-0.429-0.188-0.811-0.404-1.146c-0.218-0.336-0.499-0.613-0.847-0.833
		c-0.348-0.219-0.751-0.373-1.211-0.461c-0.461-0.088-0.963-0.099-1.506-0.032c-0.414,0.051-0.776,0.149-1.089,0.295
		c-0.313,0.145-0.571,0.327-0.773,0.545c-0.202,0.219-0.348,0.47-0.437,0.752C29.738,95.045,29.715,95.351,29.756,95.68z"/>
	<path fill="#FFFFFF" d="M29.982,106.879l-0.147-1.196c-0.017-0.135,0.002-0.246,0.057-0.334c0.053-0.087,0.132-0.147,0.236-0.18
		l1.755-0.58l-0.396-3.209l-1.896-0.576c-0.098-0.033-0.188-0.094-0.271-0.185s-0.133-0.197-0.149-0.32l-0.149-1.215l9.124,3.101
		l0.194,1.578L29.982,106.879z M32.635,101.727l0.31,2.508l2.876-0.948c0.139-0.049,0.285-0.1,0.44-0.15
		c0.155-0.052,0.329-0.104,0.524-0.155c-0.207-0.051-0.4-0.104-0.578-0.155c-0.178-0.053-0.334-0.104-0.469-0.151L32.635,101.727z"
		/>
	<path fill="#FFFFFF" d="M33.76,111.775c-0.104,0.041-0.21,0.083-0.318,0.124c0.117,0.034,0.232,0.072,0.348,0.114
		c0.113,0.042,0.226,0.09,0.337,0.141l5.287,2.383c0.064,0.028,0.116,0.059,0.153,0.092c0.039,0.034,0.068,0.07,0.09,0.11
		s0.037,0.085,0.047,0.137c0.011,0.051,0.02,0.11,0.028,0.178l0.145,1.173l-8.741,0.002l-0.168-1.357l5.695-0.001
		c0.104-0.001,0.22,0.003,0.346,0.011c0.126,0.01,0.254,0.021,0.385,0.032l-5.284-2.354c-0.119-0.054-0.214-0.128-0.28-0.222
		c-0.068-0.095-0.109-0.202-0.125-0.32l-0.025-0.215c-0.016-0.119,0-0.227,0.044-0.323c0.044-0.096,0.12-0.17,0.226-0.224
		l4.683-2.379c-0.124,0.011-0.243,0.021-0.358,0.029c-0.116,0.008-0.223,0.012-0.319,0.012l-5.718,0.016l-0.168-1.363l8.742-0.002
		l0.143,1.161c0.009,0.067,0.014,0.128,0.017,0.18s-0.003,0.099-0.013,0.141c-0.012,0.041-0.031,0.078-0.062,0.11
		c-0.03,0.032-0.074,0.062-0.131,0.094l-4.699,2.388C33.964,111.69,33.863,111.734,33.76,111.775z"/>
	<path fill="#FFFFFF" d="M40.687,122.801l-1.251-0.003l-0.428-3.466l-2.484,0.004l0.336,2.722l-1.204-0.003l-0.335-2.721H32.77
		l0.428,3.478l-1.252-0.003l-0.619-5.026l8.741-0.002L40.687,122.801z"/>
	<path fill="#FFFFFF" d="M10.916,69.923l-0.073-0.595l8.553-0.01l0.073,0.596L10.916,69.923z"/>
	<path fill="#FFFFFF" d="M19.805,72.814c-0.011,0.027-0.039,0.059-0.083,0.092l-6.833,4.99c0.056-0.003,0.109-0.007,0.159-0.011
		s0.097-0.005,0.142-0.003h7.26l0.064,0.518l-8.554,0.003l-0.034-0.273c-0.012-0.1,0.022-0.179,0.104-0.236l6.832-4.996
		l-0.271,0.015l-7.308,0.007l-0.064-0.518l8.554-0.003l0.036,0.292C19.818,72.745,19.815,72.786,19.805,72.814z"/>
	<path fill="#FFFFFF" d="M21.422,85.754l-0.508,0.003l-0.334-2.716l-8.045,0.006l-0.073-0.589l8.045-0.007l-0.336-2.728l0.508-0.002
		L21.422,85.754z"/>
	<path fill="#FFFFFF" d="M21.665,91.741l-0.5-4.056h-3.488l0.417,3.377l-0.479-0.008l-0.416-3.37l-3.597,0.002l0.502,4.073
		l-0.497-0.005l-0.575-4.663l8.554-0.003l0.574,4.657L21.665,91.741z"/>
	<path fill="#FFFFFF" d="M17.799,94.313h-3.875l-0.073-0.589l8.553-0.01l0.247,2.001c0.101,0.814,0.014,1.442-0.26,1.886
		c-0.274,0.443-0.718,0.702-1.333,0.778c-0.366,0.045-0.708,0.026-1.026-0.056c-0.318-0.082-0.605-0.217-0.86-0.408
		c-0.255-0.189-0.473-0.43-0.654-0.72c-0.181-0.29-0.318-0.618-0.412-0.986c-0.05,0.091-0.119,0.17-0.207,0.237l-3.386,2.648
		l-0.062-0.506c-0.015-0.119,0.023-0.215,0.116-0.286l3.179-2.454c0.081-0.066,0.135-0.135,0.162-0.204
		c0.028-0.07,0.033-0.179,0.015-0.326L17.799,94.313z M22,94.315l-3.754-0.003l0.164,1.328c0.046,0.378,0.139,0.709,0.279,0.997
		c0.141,0.286,0.319,0.523,0.536,0.71c0.216,0.188,0.466,0.319,0.75,0.397s0.59,0.097,0.92,0.056
		c0.508-0.062,0.867-0.271,1.078-0.622c0.21-0.353,0.277-0.839,0.201-1.458L22,94.315z"/>
	<path fill="#FFFFFF" d="M15.404,106.325l-0.056-0.453c-0.007-0.055,0.003-0.103,0.028-0.139c0.026-0.038,0.06-0.065,0.102-0.082
		l2.392-0.906l-0.466-3.774l-2.614-0.899c-0.046-0.015-0.086-0.042-0.122-0.082c-0.034-0.04-0.056-0.087-0.062-0.144l-0.056-0.452
		l8.945,3.171l0.072,0.584L15.404,106.325z M17.865,101.131l0.426,3.46l4.159-1.571c0.065-0.028,0.138-0.056,0.219-0.084
		s0.167-0.054,0.257-0.077c-0.024-0.005-0.063-0.016-0.116-0.031c-0.052-0.016-0.105-0.032-0.16-0.05
		c-0.055-0.017-0.104-0.033-0.15-0.048c-0.047-0.014-0.078-0.024-0.095-0.03L17.865,101.131z"/>
	<path fill="#FFFFFF" d="M16.339,110.526c0.036,0.289,0.093,0.546,0.17,0.771c0.079,0.224,0.166,0.421,0.26,0.591
		c0.096,0.17,0.194,0.313,0.295,0.432s0.194,0.219,0.279,0.302c0.085,0.082,0.156,0.148,0.212,0.2
		c0.057,0.052,0.087,0.093,0.091,0.125c0.004,0.035-0.005,0.062-0.026,0.081l-0.225,0.24c-0.209-0.16-0.4-0.335-0.575-0.525
		c-0.174-0.189-0.329-0.397-0.464-0.622c-0.134-0.226-0.248-0.473-0.339-0.742c-0.092-0.268-0.157-0.562-0.197-0.879
		c-0.06-0.484-0.026-0.933,0.101-1.345c0.126-0.413,0.334-0.777,0.621-1.093c0.288-0.315,0.646-0.575,1.077-0.779
		c0.431-0.205,0.919-0.34,1.467-0.407c0.734-0.091,1.42-0.062,2.057,0.084c0.637,0.147,1.198,0.39,1.683,0.727
		s0.88,0.757,1.186,1.257c0.306,0.5,0.497,1.058,0.572,1.673c0.036,0.29,0.045,0.553,0.028,0.789
		c-0.018,0.235-0.058,0.455-0.122,0.659c-0.063,0.203-0.15,0.393-0.262,0.57c-0.111,0.177-0.241,0.351-0.389,0.522L23.579,113
		c-0.054-0.037-0.083-0.088-0.091-0.151c-0.006-0.048,0.03-0.117,0.107-0.21c0.077-0.092,0.159-0.222,0.245-0.39
		s0.157-0.381,0.214-0.64c0.056-0.26,0.062-0.579,0.015-0.961c-0.065-0.523-0.229-0.999-0.491-1.426
		c-0.262-0.428-0.604-0.784-1.026-1.071c-0.422-0.286-0.917-0.492-1.484-0.617c-0.568-0.126-1.189-0.146-1.864-0.063
		c-0.492,0.061-0.928,0.181-1.307,0.36c-0.379,0.18-0.692,0.403-0.939,0.673c-0.247,0.268-0.423,0.575-0.53,0.921
		C16.32,109.769,16.292,110.137,16.339,110.526z"/>
	<path fill="#FFFFFF" d="M25.637,119.935l-0.508,0.002l-0.335-2.716l-8.045,0.007l-0.073-0.59l8.045-0.006l-0.336-2.728l0.508-0.003
		L25.637,119.935z"/>
	<path fill="#FFFFFF" d="M17.346,122.069l-0.073-0.595l8.553-0.01l0.074,0.596L17.346,122.069z"/>
	<path fill="#FFFFFF" d="M26.075,123.484l0.058,0.47c0.007,0.056-0.003,0.101-0.029,0.134s-0.06,0.059-0.102,0.076l-6.817,2.617
		c-0.081,0.03-0.168,0.062-0.261,0.093c-0.093,0.032-0.19,0.061-0.292,0.085c0.107,0.022,0.211,0.047,0.312,0.073
		c0.1,0.025,0.194,0.056,0.283,0.089l7.461,2.604c0.045,0.015,0.086,0.041,0.121,0.079c0.035,0.038,0.056,0.084,0.063,0.14
		l0.057,0.465l-8.948-3.188l-0.065-0.53L26.075,123.484z"/>
	<path fill="#FFFFFF" d="M27.158,136.287l-0.5-4.055h-3.488l0.417,3.377l-0.479-0.008l-0.416-3.37l-3.597,0.002l0.502,4.073
		l-0.497-0.005l-0.575-4.663l8.554-0.003l0.574,4.657L27.158,136.287z"/>
</g>
</svg>
