<?xml version="1.0" encoding="utf-8"?>
<!-- Generator: Adobe Illustrator 17.0.2, SVG Export Plug-In . SVG Version: 6.00 Build 0)  -->
<!DOCTYPE svg PUBLIC "-//W3C//DTD SVG 1.1//EN" "http://www.w3.org/Graphics/SVG/1.1/DTD/svg11.dtd">
<svg version="1.1" id="Layer_1" xmlns="http://www.w3.org/2000/svg" xmlns:xlink="http://www.w3.org/1999/xlink" x="0px" y="0px"
	 width="92.58px" height="329.682px" viewBox="0 0 92.58 329.682" enable-background="new 0 0 92.58 329.682" xml:space="preserve">
<polygon fill="#0E0E0E" points="40.078,2.349 40.078,7.016 42.411,4.016 66.078,4.016 67.744,2.349 71.744,2.349 71.744,14.279 
	85.078,0.682 92.078,200.682 70.078,328.682 40.078,328.682 0.578,55.682 "/>
<path fill="none" stroke="#FFFFFF" d="M30.578,56.182h-30l39.5,273h30l22-128l-7-200L34.411,52.849
	C34.411,52.849,33.411,56.182,30.578,56.182z"/>
<polyline fill="none" stroke="#FFFFFF" points="0.578,56.182 40.078,2.849 40.078,7.516 "/>
<polyline fill="none" stroke="#FFFFFF" stroke-width="0.5" points="4.411,56.182 42.411,4.516 66.078,4.516 67.744,2.849 
	71.744,2.849 71.744,4.516 71.744,14.779 "/>
<polyline fill="none" stroke="#FFFFFF" stroke-width="0.5" points="71.744,2.849 30.578,56.182 70.078,329.182 "/>
<g>
	<path fill="#FFFFFF" d="M20.921,102.076c-1.184,0.179-2.29,0.153-3.317-0.075c-1.028-0.229-1.938-0.634-2.733-1.214
		c-0.794-0.58-1.453-1.319-1.976-2.218s-0.872-1.93-1.047-3.093l-0.891-5.914l15.812-2.382l0.891,5.914
		c0.175,1.163,0.146,2.251-0.089,3.264s-0.648,1.915-1.24,2.703c-0.592,0.79-1.345,1.444-2.259,1.967
		C23.155,101.548,22.105,101.898,20.921,102.076z M20.59,99.881c0.971-0.146,1.819-0.411,2.544-0.791
		c0.725-0.38,1.315-0.853,1.772-1.418c0.457-0.565,0.772-1.215,0.948-1.948s0.199-1.523,0.072-2.37l-0.567-3.762l-12.348,1.861
		l0.567,3.762c0.127,0.847,0.383,1.594,0.767,2.243c0.383,0.649,0.875,1.178,1.474,1.583c0.599,0.406,1.301,0.684,2.106,0.833
		S19.62,100.027,20.59,99.881z"/>
	<path fill="#FFFFFF" d="M23.425,118.694c-1.184,0.179-2.29,0.152-3.317-0.075c-1.028-0.229-1.939-0.634-2.733-1.214
		c-0.794-0.58-1.453-1.319-1.976-2.218s-0.872-1.93-1.047-3.093l-0.891-5.914l15.812-2.382l0.891,5.914
		c0.175,1.163,0.146,2.251-0.089,3.264s-0.648,1.915-1.24,2.703c-0.592,0.79-1.345,1.444-2.259,1.967
		C25.659,118.165,24.609,118.516,23.425,118.694z M23.094,116.499c0.971-0.146,1.819-0.411,2.544-0.791
		c0.725-0.38,1.315-0.853,1.772-1.418c0.457-0.565,0.772-1.215,0.948-1.948s0.199-1.523,0.072-2.37l-0.567-3.762l-12.348,1.861
		l0.567,3.762c0.127,0.847,0.383,1.594,0.767,2.243c0.383,0.649,0.875,1.178,1.474,1.583c0.599,0.406,1.301,0.684,2.106,0.833
		S22.124,116.645,23.094,116.499z"/>
	<path fill="#FFFFFF" d="M17.853,135.344l-0.249-1.655c-0.029-0.192-0.004-0.354,0.074-0.485c0.078-0.132,0.186-0.24,0.324-0.32
		l3.596-2.054l-1.069-7.095l-4.041-0.904c-0.14-0.031-0.271-0.101-0.393-0.211c-0.122-0.108-0.196-0.255-0.224-0.44l-0.249-1.655
		l16.765,3.941l0.328,2.174L17.853,135.344z M22.163,124.098l0.89,5.903l6.059-3.452c0.373-0.222,0.846-0.454,1.418-0.699
		c-0.314-0.036-0.604-0.073-0.869-0.112c-0.266-0.039-0.5-0.081-0.702-0.125L22.163,124.098z"/>
	<path fill="#FFFFFF" d="M25.089,140.674l-6.29,0.948l-0.321-2.129l6.29-0.948l8.65-7.229l0.283,1.876
		c0.029,0.191,0.003,0.349-0.076,0.474c-0.079,0.125-0.182,0.238-0.31,0.34l-5.601,4.546c-0.236,0.185-0.46,0.345-0.673,0.478
		c-0.213,0.134-0.424,0.258-0.633,0.372c0.24,0.047,0.482,0.102,0.725,0.163c0.242,0.062,0.5,0.146,0.772,0.256l6.689,2.681
		c0.128,0.049,0.254,0.122,0.377,0.22c0.124,0.098,0.2,0.24,0.228,0.423l0.286,1.898L25.089,140.674z"/>
	<path fill="#FFFFFF" d="M38.05,162.059l-1.799,0.271l-0.77-5.109l-14.014,2.111l-0.322-2.141l14.014-2.111l-0.773-5.131
		l1.799-0.271L38.05,162.059z"/>
	<path fill="#FFFFFF" d="M32.527,179.109c-1.184,0.178-2.299,0.153-3.345-0.071c-1.046-0.228-1.978-0.628-2.794-1.205
		c-0.817-0.576-1.494-1.316-2.032-2.217c-0.538-0.899-0.895-1.932-1.07-3.094c-0.175-1.162-0.138-2.251,0.111-3.267
		c0.25-1.017,0.679-1.92,1.29-2.711c0.61-0.792,1.382-1.45,2.315-1.974c0.933-0.524,1.991-0.877,3.175-1.055
		c1.185-0.179,2.3-0.154,3.346,0.072c1.046,0.226,1.979,0.626,2.799,1.203c0.82,0.575,1.5,1.312,2.042,2.209
		c0.542,0.896,0.899,1.926,1.075,3.088c0.175,1.162,0.137,2.253-0.116,3.272s-0.686,1.927-1.3,2.719
		c-0.615,0.792-1.388,1.45-2.32,1.976C34.77,178.577,33.712,178.93,32.527,179.109z M32.197,176.912
		c0.971-0.146,1.823-0.411,2.556-0.792c0.732-0.381,1.328-0.855,1.789-1.42c0.46-0.565,0.781-1.218,0.964-1.952
		c0.183-0.734,0.21-1.528,0.082-2.381c-0.127-0.846-0.387-1.594-0.778-2.242c-0.391-0.648-0.89-1.176-1.497-1.586
		c-0.607-0.408-1.317-0.688-2.128-0.836c-0.812-0.148-1.705-0.148-2.676-0.002c-0.971,0.146-1.821,0.409-2.549,0.789
		c-0.729,0.381-1.323,0.856-1.783,1.426c-0.459,0.57-0.779,1.222-0.958,1.956c-0.179,0.733-0.205,1.524-0.077,2.37
		c0.128,0.853,0.386,1.604,0.774,2.253c0.387,0.648,0.884,1.177,1.491,1.582c0.606,0.403,1.313,0.682,2.123,0.83
		C30.336,177.057,31.226,177.058,32.197,176.912z"/>
	<path fill="#FFFFFF" d="M41.246,183.267l0.258,1.711c0.028,0.191,0.003,0.353-0.074,0.485c-0.078,0.132-0.186,0.239-0.324,0.319
		l-10.482,6.15c-0.234,0.14-0.493,0.274-0.774,0.404c-0.282,0.129-0.575,0.257-0.878,0.386c0.326,0.019,0.642,0.045,0.948,0.077
		c0.306,0.033,0.592,0.082,0.857,0.148l11.826,2.765c0.133,0.033,0.263,0.104,0.388,0.213c0.126,0.109,0.202,0.256,0.23,0.439
		l0.259,1.722l-16.783-4.062l-0.291-1.93L41.246,183.267z"/>
	<path fill="#FFFFFF" d="M28.353,205.026l-0.322-2.14l15.812-2.383l0.322,2.14L28.353,205.026z"/>
	<path fill="#FFFFFF" d="M33.936,219.915c0.018,0.118-0.015,0.232-0.095,0.343l-0.79,0.976c-0.848-0.533-1.551-1.23-2.109-2.091
		c-0.558-0.86-0.936-1.941-1.132-3.243c-0.172-1.141-0.131-2.203,0.123-3.189c0.254-0.987,0.687-1.86,1.298-2.623
		c0.611-0.761,1.386-1.396,2.325-1.907c0.938-0.51,2.004-0.854,3.195-1.034c1.192-0.18,2.313-0.151,3.364,0.085
		c1.052,0.237,1.987,0.651,2.806,1.242s1.499,1.346,2.039,2.26c0.54,0.916,0.899,1.963,1.076,3.14
		c0.175,1.162,0.146,2.191-0.087,3.088c-0.234,0.897-0.61,1.719-1.129,2.467l-1.087-0.548c-0.082-0.04-0.15-0.089-0.208-0.148
		c-0.058-0.059-0.097-0.151-0.115-0.276c-0.015-0.096,0.005-0.202,0.059-0.319c0.054-0.117,0.121-0.257,0.202-0.419
		c0.081-0.164,0.165-0.354,0.253-0.568c0.087-0.217,0.163-0.469,0.225-0.757c0.062-0.288,0.1-0.616,0.116-0.987
		c0.015-0.372-0.013-0.792-0.083-1.264c-0.127-0.846-0.39-1.599-0.786-2.257c-0.396-0.659-0.901-1.201-1.515-1.628
		s-1.328-0.724-2.143-0.89c-0.815-0.167-1.701-0.179-2.657-0.034c-0.985,0.148-1.843,0.422-2.573,0.822
		c-0.729,0.399-1.324,0.883-1.784,1.453c-0.459,0.569-0.779,1.21-0.958,1.921c-0.179,0.713-0.21,1.454-0.094,2.227
		c0.071,0.472,0.163,0.89,0.274,1.257c0.112,0.366,0.251,0.701,0.417,1.004c0.166,0.302,0.359,0.577,0.582,0.826
		c0.222,0.248,0.479,0.494,0.771,0.735C33.845,219.685,33.919,219.799,33.936,219.915z"/>
	<path fill="#FFFFFF" d="M48.704,232.768l-1.799,0.271l-0.77-5.109l-14.014,2.111l-0.322-2.141l14.014-2.111l-0.773-5.131
		l1.799-0.271L48.704,232.768z"/>
	<path fill="#FFFFFF" d="M43.181,249.818c-1.184,0.178-2.299,0.153-3.345-0.072c-1.046-0.227-1.978-0.627-2.794-1.204
		c-0.817-0.576-1.494-1.316-2.032-2.217s-0.895-1.932-1.07-3.094c-0.175-1.163-0.138-2.251,0.111-3.267
		c0.25-1.017,0.679-1.92,1.29-2.711c0.61-0.792,1.382-1.45,2.315-1.974c0.933-0.524,1.991-0.877,3.176-1.055
		c1.185-0.179,2.3-0.154,3.346,0.072c1.046,0.226,1.979,0.626,2.8,1.203c0.819,0.575,1.5,1.312,2.042,2.209
		c0.542,0.896,0.899,1.925,1.074,3.088c0.176,1.162,0.137,2.252-0.116,3.272c-0.252,1.02-0.686,1.927-1.3,2.719
		s-1.388,1.45-2.32,1.975C45.424,249.286,44.366,249.639,43.181,249.818z M42.851,247.621c0.971-0.146,1.823-0.411,2.556-0.792
		c0.732-0.381,1.328-0.855,1.789-1.42c0.46-0.566,0.781-1.218,0.964-1.952s0.21-1.528,0.081-2.381
		c-0.127-0.846-0.387-1.594-0.778-2.242c-0.391-0.648-0.89-1.177-1.497-1.586c-0.607-0.408-1.317-0.688-2.128-0.836
		c-0.812-0.148-1.705-0.148-2.676-0.002c-0.971,0.146-1.821,0.409-2.55,0.789c-0.729,0.381-1.323,0.856-1.783,1.426
		s-0.779,1.222-0.958,1.956c-0.179,0.733-0.205,1.524-0.077,2.37c0.128,0.853,0.386,1.604,0.773,2.253
		c0.387,0.648,0.884,1.176,1.491,1.582c0.606,0.403,1.313,0.682,2.123,0.83C40.989,247.766,41.88,247.767,42.851,247.621z"/>
	<path fill="#FFFFFF" d="M42.674,255.287l-6.599,0.994l-0.321-2.13l15.813-2.383l0.673,4.47c0.151,1,0.18,1.88,0.087,2.639
		c-0.092,0.758-0.294,1.403-0.605,1.936c-0.311,0.532-0.72,0.952-1.226,1.264c-0.507,0.309-1.095,0.515-1.764,0.615
		c-0.559,0.084-1.095,0.074-1.606-0.028c-0.513-0.104-0.987-0.294-1.424-0.571c-0.437-0.275-0.827-0.635-1.172-1.075
		c-0.345-0.441-0.633-0.956-0.865-1.546c-0.115,0.288-0.304,0.558-0.566,0.808l-5.584,5.559l-0.286-1.897
		c-0.059-0.39,0.048-0.7,0.322-0.93l5.031-4.956c0.158-0.151,0.265-0.307,0.319-0.466c0.055-0.159,0.061-0.384,0.016-0.679
		L42.674,255.287z M44.229,255.052l0.338,2.24c0.094,0.625,0.252,1.164,0.475,1.616c0.223,0.451,0.496,0.816,0.819,1.095
		c0.324,0.278,0.689,0.471,1.097,0.575c0.407,0.104,0.843,0.12,1.306,0.051c0.941-0.143,1.604-0.56,1.989-1.253
		c0.385-0.694,0.484-1.654,0.299-2.883l-0.353-2.34L44.229,255.052z"/>
	<path fill="#FFFFFF" d="M45.07,273.286l-6.29,0.948l-0.321-2.129l6.29-0.948l8.65-7.229l0.282,1.876
		c0.029,0.191,0.003,0.349-0.075,0.474c-0.079,0.126-0.183,0.239-0.31,0.342l-5.601,4.545c-0.236,0.186-0.461,0.346-0.673,0.479
		c-0.214,0.133-0.425,0.257-0.633,0.371c0.24,0.048,0.482,0.102,0.725,0.163c0.242,0.061,0.499,0.146,0.772,0.256l6.689,2.682
		c0.127,0.049,0.253,0.122,0.377,0.22s0.199,0.239,0.228,0.423l0.286,1.898L45.07,273.286z"/>
</g>
</svg>
