<svg xmlns="http://www.w3.org/2000/svg" xmlns:xlink="http://www.w3.org/1999/xlink" version="1.1" id="Layer_1" x="0px" y="0px" width="119.104px" height="266.08px" viewBox="0 0 119.104 266.08" enable-background="new 0 0 119.104 266.08" xml:space="preserve"><style>.style0{fill:	#0E0E0E;}.style1{stroke:	#FFFFFF;stroke-width:	0.967;fill:	none;}.style2{stroke:	#FFFFFF;stroke-width:	0.4835;fill:	none;}</style><g style="
    cursor: pointer;
" class="hitbox"><path d="M81.072 0.672v4.703c0 0 8.6 3.2 19.4 3.163l15.924-6.299h2.189v197.522L55.518 265.57l-45.661-2.354 L0.504 27.678L81.072 0.672z" class="style0"></path><polygon points="9.9,263.2 55.5,265.6 46.2,30 0.5,27.7" class="style1"></polygon><polyline points="81.1,5.4 81.1,0.7 0.5,27.7" class="style1"></polyline><polyline points="46.2,30 116.4,2.2 118.6,2.2 118.6,199.8 55.5,265.6" class="style1"></polyline><polyline points="46.2,30 116.4,2.2 118.6,2.2 118.6,199.8 55.5,265.6" class="style1"></polyline><path d="M12.535 27.7" class="style2"></path><path d="M13.417 28.343L81.072 5.375c0 0 10.1 3.3 19.4 3.2" class="style2"></path><polygon points="9.9,263.2 55.5,265.6 46.2,30 0.5,27.7" class="style1"></polygon><polyline points="81.1,5.4 81.1,0.7 0.5,27.7" class="style1"></polyline><polyline points="46.2,30 116.4,2.2 118.6,2.2 118.6,199.8 55.5,265.6" class="style1"></polyline><path d="M100.508 8.538c-9.363 0.1-19.437-3.163-19.437-3.163L13.417 28.3" class="style2"></path></g></svg>