<svg xmlns="http://www.w3.org/2000/svg" xmlns:xlink="http://www.w3.org/1999/xlink" version="1.1" id="Layer_1" x="0px" y="0px" width="70.747px" height="272.003px" viewBox="0 0 70.747 272.003" enable-background="new 0 0 70.747 272.003" xml:space="preserve"><style>.style0{fill:	#0E0E0E;}.style1{stroke:	#FFFFFF;stroke-width:	0.7528;fill:	none;}.style2{stroke:	#FFFFFF;stroke-width:	0.3764;fill:	none;}</style><g class="hitbox" style="cursor:pointer"><path d="M48.123 0.653v4.81c0 0 5.1 3.3 11.5 3.235l9.437-6.442h1.296v202.026l-37.389 67.309l-27.054-2.404 L0.386 28.274L48.123 0.653z" class="style0"></path><polygon points="5.9,269.2 33,271.6 27.4,30.7 0.4,28.3" class="style1"></polygon><polyline points="48.1,5.5 48.1,0.7 0.4,28.3" class="style1"></polyline><polyline points="27.4,30.7 69.1,2.3 70.4,2.3 70.4,204.3 33,271.6" class="style1"></polyline><polyline points="27.4,30.7 69.1,2.3 70.4,2.3 70.4,204.3 33,271.6" class="style1"></polyline><path d="M7.515 28.3" class="style2"></path><path d="M8.037 28.955L48.123 5.463c0 0 6 3.3 11.5 3.2" class="style2"></path><polygon points="5.9,269.2 33,271.6 27.4,30.7 0.4,28.3" class="style1"></polygon><polyline points="48.1,5.5 48.1,0.7 0.4,28.3" class="style1"></polyline><polyline points="27.4,30.7 69.1,2.3 70.4,2.3 70.4,204.3 33,271.6" class="style1"></polyline><path d="M59.638 8.698C54.09 8.8 48.1 5.5 48.1 5.463L8.037 29" class="style2"></path></g></svg>