<svg xmlns="http://www.w3.org/2000/svg" xmlns:xlink="http://www.w3.org/1999/xlink" version="1.1" id="Layer_1" x="0px" y="0px" width="81.464px" height="313.206px" viewBox="0 0 81.464 313.206" enable-background="new 0 0 81.464 313.206" xml:space="preserve"><style>.style0{fill:	#0E0E0E;}.style1{stroke:	#FFFFFF;stroke-width:	0.8668;fill:	none;}.style2{stroke:	#FFFFFF;stroke-width:	0.4334;fill:	none;}</style><g class="hitbox" style="cursor:pointer"><path d="M55.412 0.751V6.29c0 0 5.9 3.8 13.3 3.726l10.866-7.418h1.492v232.629l-43.053 77.505l-31.151-2.769 L0.444 32.557L55.412 0.751z" class="style0"></path><polygon points="6.8,310 38,312.7 31.6,35.3 0.4,32.6" class="style1"></polygon><polyline points="55.4,6.3 55.4,0.8 0.4,32.6" class="style1"></polyline><polyline points="31.6,35.3 79.5,2.6 81,2.6 81,235.2 38,312.7" class="style1"></polyline><polyline points="31.6,35.3 79.5,2.6 81,2.6 81,235.2 38,312.7" class="style1"></polyline><path d="M8.652 32.6" class="style2"></path><path d="M9.255 33.34L55.412 6.29c0 0 6.9 3.8 13.3 3.7" class="style2"></path><polygon points="6.8,310 38,312.7 31.6,35.3 0.4,32.6" class="style1"></polygon><polyline points="55.4,6.3 55.4,0.8 0.4,32.6" class="style1"></polyline><polyline points="31.6,35.3 79.5,2.6 81,2.6 81,235.2 38,312.7" class="style1"></polyline><path d="M68.672 10.016c-6.389 0.117-13.26-3.726-13.26-3.726L9.255 33.3" class="style2"></path></g></svg>