<svg xmlns="http://www.w3.org/2000/svg" xmlns:xlink="http://www.w3.org/1999/xlink" version="1.1" id="Layer_1" x="0px" y="0px" width="104.912px" height="292.78px" viewBox="0 0 104.912 292.78" enable-background="new 0 0 104.912 292.78" xml:space="preserve"><style>.style0{fill:	#0E0E0E;}.style1{stroke:	#FFFFFF;stroke-width:	0.9517;fill:	none;}.style2{stroke:	#FFFFFF;stroke-width:	0.4759;fill:	none;}</style><g class="hitbox" style="cursor:pointer"><path d="M71.392 0.715v5.176c0 0 7.6 3.5 17.1 3.481l14.015-6.933h1.925v217.399l-55.531 72.432l-40.182-2.59 L0.492 30.439L71.392 0.715z" class="style0"></path><polygon points="8.7,289.7 48.9,292.3 40.7,33 0.5,30.4" class="style1"></polygon><polyline points="71.4,5.9 71.4,0.7 0.5,30.4" class="style1"></polyline><polyline points="40.7,33 102.5,2.4 104.4,2.4 104.4,219.8 48.9,292.3" class="style1"></polyline><polyline points="40.7,33 102.5,2.4 104.4,2.4 104.4,219.8 48.9,292.3" class="style1"></polyline><path d="M11.079 30.4" class="style2"></path><path d="M11.855 31.171L71.392 5.892c0 0 8.9 3.6 17.1 3.5" class="style2"></path><polygon points="8.7,289.7 48.9,292.3 40.7,33 0.5,30.4" class="style1"></polygon><polyline points="71.4,5.9 71.4,0.7 0.5,30.4" class="style1"></polyline><polyline points="40.7,33 102.5,2.4 104.4,2.4 104.4,219.8 48.9,292.3" class="style1"></polyline><path d="M88.497 9.373c-8.24 0.109-17.104-3.481-17.104-3.481L11.855 31.2" class="style2"></path></g></svg>