<svg xmlns="http://www.w3.org/2000/svg" xmlns:xlink="http://www.w3.org/1999/xlink" version="1.1" id="Layer_1" x="0px" y="0px" width="76.51px" height="239.884px" viewBox="0 0 76.51 239.884" enable-background="new 0 0 76.51 239.884" xml:space="preserve"><style>.style0{fill:	#0E0E0E;}.style1{stroke:	#FFFFFF;stroke-width:	0.7355;fill:	none;}.style2{stroke:	#FFFFFF;stroke-width:	0.3678;fill:	none;}</style><g class="hitbox" style="
    cursor: pointer;
"><path d="M52.057 0.58v4.242c0 0 5.5 2.9 12.5 2.853l10.215-5.681h1.404v178.142l-40.477 59.352l-29.289-2.123 L0.379 24.936L52.057 0.58z" class="style0"></path><polygon points="6.4,237.4 35.7,239.5 29.7,27.1 0.4,24.9" class="style1"></polygon><polyline points="52.1,4.8 52.1,0.6 0.4,24.9" class="style1"></polyline><polyline points="29.7,27.1 74.7,2 76.1,2 76.1,180.1 35.7,239.5" class="style1"></polyline><polyline points="29.7,27.1 74.7,2 76.1,2 76.1,180.1 35.7,239.5" class="style1"></polyline><path d="M8.096 24.9" class="style2"></path><path d="M8.661 25.536L52.057 4.822c0 0 6.5 2.9 12.5 2.9" class="style2"></path><polygon points="6.4,237.4 35.7,239.5 29.7,27.1 0.4,24.9" class="style1"></polygon><polyline points="52.1,4.8 52.1,0.6 0.4,24.9" class="style1"></polyline><polyline points="29.7,27.1 74.7,2 76.1,2 76.1,180.1 35.7,239.5" class="style1"></polyline><path d="M64.524 7.674c-6.006 0.09-12.467-2.853-12.467-2.853L8.661 25.5" class="style2"></path></g></svg>