<svg xmlns="http://www.w3.org/2000/svg" xmlns:xlink="http://www.w3.org/1999/xlink" version="1.1" id="Layer_1" x="0px" y="0px" width="119.002px" height="311.869px" viewBox="0 0 119.002 311.869" enable-background="new 0 0 119.002 311.869" xml:space="preserve"><style>.style0{fill:	#0E0E0E;}.style1{stroke:	#FFFFFF;fill:	none;}.style2{stroke:	#FFFFFF;stroke-width:	0.5;fill:	none;}</style><g class="hitbox" style="cursor:pointer"><path d="M72.535 0.783l0.275 5.493c0 0 12.5 4.3 24.4 2.177l4.13-2.127l1.997-0.1l15.173 225.4 l-53.77 79.758l-41.835-0.656L0.543 36.018L72.535 0.783z" class="style0"></path><polygon points="22.9,310.7 64.7,311.4 42.4,36.7 0.5,36" class="style1"></polygon><polyline points="72.8,6.3 72.5,0.8 0.5,36" class="style1"></polyline><polyline points="42.4,36.7 101.3,6.3 103.3,6.2 118.5,231.6 64.7,311.4" class="style1"></polyline><polyline points="42.4,36.7 101.3,6.3 103.3,6.2 118.5,231.6 64.7,311.4" class="style1"></polyline><path d="M11.529 35.5" class="style2"></path><path d="M12.374 36.203L72.811 6.276c0 0 9.4 3.3 17.9 2.8" class="style2"></path><polygon points="22.9,310.7 64.7,311.4 42.4,36.7 0.5,36" class="style1"></polygon><polyline points="72.8,6.3 72.5,0.8 0.5,36" class="style1"></polyline><polyline points="42.4,36.7 101.3,6.3 103.3,6.2 118.5,231.6 64.7,311.4" class="style1"></polyline><path d="M99.125 7.457c-10.808 4.428-26.314-1.181-26.314-1.181L12.374 36.2" class="style2"></path></g></svg>