<svg xmlns="http://www.w3.org/2000/svg" xmlns:xlink="http://www.w3.org/1999/xlink" version="1.1" id="Layer_1" x="0px" y="0px" width="109.017px" height="311.088px" viewBox="0 0 109.017 311.088" enable-background="new 0 0 109.017 311.088" xml:space="preserve"><style>.style0{fill:	#0E0E0E;}.style1{stroke:	#FFFFFF;fill:	none;}.style2{stroke:	#FFFFFF;stroke-width:	0.5;fill:	none;}</style><g class="hitbox" style="cursor:pointer"><path d="M74.184 0.758v5.5c0 0 7.9 3.7 17.8 3.699l14.562-7.366h2v231l-57.698 76.962l-41.75-2.75 L0.517 32.341L74.184 0.758z" class="style0"></path><polygon points="9.1,307.8 50.8,310.6 42.3,35.1 0.5,32.3" class="style1"></polygon><polyline points="74.2,6.3 74.2,0.8 0.5,32.3" class="style1"></polyline><polyline points="42.3,35.1 106.5,2.6 108.5,2.6 108.5,233.6 50.8,310.6" class="style1"></polyline><polyline points="42.3,35.1 106.5,2.6 108.5,2.6 108.5,233.6 50.8,310.6" class="style1"></polyline><path d="M11.517 32.3" class="style2"></path><path d="M12.324 33.119l61.86-26.861c0 0 9.2 3.8 17.8 3.7" class="style2"></path><polygon points="9.1,307.8 50.8,310.6 42.3,35.1 0.5,32.3" class="style1"></polygon><polyline points="74.2,6.3 74.2,0.8 0.5,32.3" class="style1"></polyline><polyline points="42.3,35.1 106.5,2.6 108.5,2.6 108.5,233.6 50.8,310.6" class="style1"></polyline><path d="M91.956 9.958c-8.562 0.116-17.771-3.699-17.771-3.699l-61.86 26.9" class="style2"></path></g></svg>