<?xml version="1.0" encoding="utf-8"?>
<!-- Generator: Adobe Illustrator 17.0.2, SVG Export Plug-In . SVG Version: 6.00 Build 0)  -->
<!DOCTYPE svg PUBLIC "-//W3C//DTD SVG 1.1//EN" "http://www.w3.org/Graphics/SVG/1.1/DTD/svg11.dtd">
<svg version="1.1" id="Layer_1" xmlns="http://www.w3.org/2000/svg" xmlns:xlink="http://www.w3.org/1999/xlink" x="0px" y="0px"
	 width="335.731px" height="171.833px" viewBox="0 0 335.731 171.833" enable-background="new 0 0 335.731 171.833"
	 xml:space="preserve">
<g id="Layer_3">
	<path fill="#231F20" stroke="#FFFFFF" d="M0.71,21.22l22.174,129.13l2.174,20.435l310-45.217l-2.114-19.195
		c0,0-64.408-86.131-94.843-105.859L0.71,21.22z"/>
</g>
<path fill="none" stroke="#FFFFFF" d="M332.944,106.373c0,0-74.951-97.359-94.451-105.859l-238,20.5"/>
<polyline fill="none" stroke="#FFFFFF" points="22.743,152.263 332.928,106.552 335.178,125.552 24.993,171.263 22.743,152.263 
	0.493,21.013 "/>
<line fill="none" stroke="#FFFFFF" stroke-width="0.5" x1="329.334" y1="102.025" x2="21.72" y2="146.225"/>
<g enable-background="new    ">
	<path fill="#FFFFFF" d="M53.516,161.578l-1.358,0.207c-0.152,0.022-0.282,0.006-0.392-0.05s-0.191-0.136-0.246-0.241l-0.647-1.247
		l-2.871,0.437l-0.245,1.384c-0.02,0.102-0.075,0.2-0.163,0.292c-0.088,0.094-0.205,0.151-0.35,0.174l-1.368,0.208l1.772-7.996
		l1.793-0.272L53.516,161.578z M48.225,159.429l2.062-0.313l-1.01-1.963c-0.065-0.124-0.141-0.271-0.229-0.438
		c-0.087-0.169-0.176-0.354-0.267-0.551c-0.023,0.219-0.05,0.423-0.082,0.611c-0.031,0.188-0.062,0.353-0.095,0.491L48.225,159.429z
		"/>
	<path fill="#FFFFFF" d="M55.453,158.424l0.426,2.793l-1.751,0.267l-1.15-7.551l2.457-0.374c0.546-0.083,1.02-0.099,1.422-0.044
		c0.402,0.054,0.74,0.162,1.014,0.325c0.275,0.163,0.487,0.373,0.64,0.629c0.152,0.257,0.253,0.544,0.302,0.866
		c0.037,0.245,0.04,0.482,0.007,0.709c-0.032,0.229-0.099,0.443-0.201,0.648s-0.235,0.394-0.401,0.567
		c-0.166,0.175-0.365,0.326-0.596,0.457c0.126,0.042,0.247,0.098,0.362,0.168c0.116,0.071,0.221,0.162,0.315,0.275l2.007,2.383
		l-1.586,0.241c-0.293,0.045-0.521-0.033-0.683-0.235l-1.587-2.001c-0.07-0.088-0.146-0.147-0.226-0.178s-0.188-0.034-0.323-0.014
		L55.453,158.424z M55.269,157.216l0.705-0.107c0.238-0.036,0.437-0.098,0.595-0.184c0.158-0.085,0.283-0.189,0.374-0.313
		s0.149-0.261,0.176-0.411c0.026-0.151,0.027-0.31,0.001-0.476c-0.05-0.331-0.198-0.574-0.442-0.728
		c-0.244-0.154-0.593-0.195-1.045-0.127l-0.705,0.107L55.269,157.216z"/>
	<path fill="#FFFFFF" d="M64.73,152.143l0.206,1.348l-3.099,0.472l0.268,1.762l2.374-0.361l0.197,1.296l-2.374,0.361l0.274,1.798
		l3.099-0.472l0.206,1.348l-4.861,0.74l-1.15-7.551L64.73,152.143z"/>
	<path fill="#FFFFFF" d="M72.2,155.793l0.438,2.871l-1.751,0.267l-0.438-2.871l-3.45-4.263l1.544-0.235
		c0.152-0.023,0.278-0.006,0.379,0.051c0.101,0.058,0.187,0.138,0.259,0.239l1.402,2.035c0.113,0.162,0.217,0.313,0.312,0.451
		c0.095,0.136,0.182,0.272,0.259,0.411c0.03-0.157,0.069-0.315,0.119-0.475c0.05-0.16,0.104-0.332,0.16-0.518l0.722-2.358
		c0.014-0.048,0.036-0.097,0.065-0.148c0.029-0.05,0.065-0.097,0.106-0.14c0.041-0.044,0.09-0.082,0.147-0.112
		c0.057-0.032,0.122-0.054,0.194-0.065l1.555-0.236L72.2,155.793z"/>
	<path fill="#FFFFFF" d="M82.354,153.318c0.083,0.546,0.066,1.068-0.05,1.566c-0.117,0.5-0.319,0.948-0.608,1.348
		c-0.29,0.399-0.66,0.734-1.112,1.004c-0.452,0.271-0.972,0.451-1.559,0.541c-0.587,0.089-1.138,0.072-1.651-0.052
		c-0.514-0.122-0.969-0.332-1.366-0.626c-0.397-0.296-0.726-0.663-0.985-1.105c-0.26-0.44-0.431-0.935-0.514-1.48
		c-0.083-0.545-0.066-1.066,0.05-1.566c0.116-0.498,0.32-0.946,0.612-1.344c0.291-0.398,0.663-0.732,1.117-1.003
		c0.453-0.271,0.974-0.451,1.561-0.54c0.587-0.09,1.137-0.072,1.649,0.054c0.513,0.125,0.966,0.335,1.361,0.628
		c0.395,0.293,0.722,0.661,0.982,1.101C82.1,152.285,82.271,152.776,82.354,153.318z M80.561,153.591
		c-0.057-0.373-0.156-0.701-0.298-0.985c-0.143-0.284-0.32-0.517-0.533-0.695c-0.213-0.18-0.459-0.305-0.739-0.375
		c-0.279-0.071-0.587-0.081-0.922-0.03c-0.339,0.052-0.631,0.152-0.879,0.305c-0.248,0.15-0.446,0.344-0.596,0.578
		c-0.15,0.234-0.251,0.509-0.302,0.822c-0.051,0.313-0.048,0.657,0.008,1.03c0.058,0.377,0.157,0.707,0.299,0.991
		c0.143,0.284,0.32,0.516,0.533,0.696c0.213,0.179,0.459,0.303,0.741,0.372c0.281,0.068,0.59,0.076,0.929,0.025
		c0.335-0.052,0.625-0.15,0.872-0.3c0.246-0.149,0.444-0.342,0.594-0.575c0.15-0.236,0.25-0.51,0.301-0.823
		S80.618,153.968,80.561,153.591z"/>
	<path fill="#FFFFFF" d="M86.698,155.107c0.235-0.036,0.439-0.106,0.612-0.213c0.173-0.105,0.312-0.241,0.418-0.405
		c0.105-0.165,0.176-0.357,0.211-0.575c0.036-0.221,0.034-0.463-0.007-0.729l-0.682-4.473l1.751-0.267l0.682,4.473
		c0.07,0.463,0.06,0.898-0.032,1.309s-0.255,0.776-0.493,1.098c-0.237,0.323-0.544,0.592-0.921,0.81
		c-0.376,0.216-0.816,0.362-1.317,0.439c-0.504,0.076-0.969,0.067-1.394-0.027c-0.424-0.095-0.797-0.26-1.121-0.497
		c-0.322-0.237-0.587-0.537-0.794-0.902c-0.208-0.364-0.346-0.777-0.417-1.24l-0.682-4.473l1.751-0.268l0.681,4.467
		c0.041,0.267,0.111,0.499,0.209,0.698c0.1,0.198,0.224,0.361,0.375,0.489c0.15,0.127,0.324,0.216,0.521,0.266
		C86.247,155.136,86.463,155.142,86.698,155.107z"/>
	<path fill="#FFFFFF" d="M100.17,150.604c0.083,0.546,0.066,1.068-0.05,1.566c-0.117,0.5-0.32,0.948-0.609,1.348
		c-0.29,0.399-0.66,0.734-1.112,1.004c-0.452,0.271-0.972,0.451-1.559,0.54c-0.587,0.09-1.138,0.072-1.651-0.051
		c-0.514-0.123-0.969-0.332-1.366-0.626c-0.397-0.296-0.726-0.663-0.985-1.105c-0.26-0.441-0.432-0.935-0.515-1.48
		c-0.083-0.545-0.066-1.067,0.05-1.566c0.116-0.498,0.32-0.946,0.612-1.344c0.291-0.398,0.664-0.733,1.117-1.003
		c0.454-0.271,0.974-0.451,1.562-0.541c0.587-0.089,1.137-0.071,1.649,0.055c0.513,0.125,0.966,0.335,1.36,0.627
		c0.395,0.294,0.722,0.662,0.981,1.102C99.916,149.571,100.087,150.062,100.17,150.604z M98.377,150.877
		c-0.057-0.373-0.156-0.702-0.298-0.985c-0.143-0.284-0.32-0.517-0.533-0.695c-0.213-0.18-0.459-0.305-0.739-0.375
		c-0.279-0.072-0.586-0.081-0.921-0.03c-0.339,0.052-0.632,0.152-0.879,0.304s-0.446,0.344-0.596,0.579
		c-0.15,0.234-0.25,0.509-0.302,0.822s-0.048,0.656,0.008,1.029c0.058,0.377,0.157,0.708,0.299,0.992
		c0.143,0.284,0.32,0.516,0.533,0.696c0.213,0.178,0.459,0.303,0.741,0.371c0.281,0.069,0.59,0.077,0.929,0.025
		c0.335-0.051,0.625-0.15,0.872-0.299c0.246-0.149,0.444-0.342,0.594-0.575c0.149-0.236,0.25-0.51,0.301-0.823
		C98.437,151.599,98.434,151.254,98.377,150.877z"/>
	<path fill="#FFFFFF" d="M101.55,146.545c0.054-0.002,0.102,0.005,0.146,0.017c0.044,0.013,0.088,0.034,0.131,0.062
		c0.044,0.028,0.094,0.069,0.151,0.12l4.277,3.987c-0.036-0.142-0.068-0.281-0.095-0.417c-0.028-0.136-0.051-0.264-0.069-0.384
		l-0.609-3.996l1.544-0.235l1.15,7.551l-0.913,0.139c-0.135,0.021-0.251,0.018-0.351-0.009c-0.1-0.028-0.201-0.091-0.304-0.188
		l-4.246-3.956c0.031,0.13,0.059,0.258,0.085,0.383c0.026,0.125,0.047,0.242,0.064,0.354l0.617,4.047l-1.544,0.235l-1.15-7.551
		l0.923-0.141C101.433,146.552,101.497,146.546,101.55,146.545z"/>
	<path fill="#FFFFFF" d="M115.752,144.371l0.212,1.39l-2.124,0.323l0.938,6.161l-1.752,0.267l-0.938-6.161l-2.125,0.324l-0.212-1.39
		L115.752,144.371z"/>
	<path fill="#FFFFFF" d="M124.22,150.806l-1.762,0.269l-0.486-3.192l-3.068,0.468l0.486,3.192l-1.762,0.269l-1.15-7.551l1.762-0.269
		l0.481,3.156l3.068-0.468l-0.481-3.156l1.762-0.269L124.22,150.806z"/>
	<path fill="#FFFFFF" d="M129.174,142.326l0.206,1.348l-3.099,0.473l0.269,1.762l2.373-0.362l0.197,1.296l-2.373,0.361l0.273,1.799
		l3.099-0.473l0.206,1.348l-4.861,0.74l-1.15-7.551L129.174,142.326z"/>
	<path fill="#FFFFFF" d="M133.32,149.42l-1.15-7.551l2.777-0.423c0.522-0.08,0.973-0.1,1.355-0.059
		c0.38,0.042,0.7,0.133,0.958,0.274c0.258,0.14,0.459,0.329,0.603,0.564c0.144,0.236,0.24,0.511,0.287,0.821
		c0.026,0.168,0.026,0.336,0.002,0.5s-0.078,0.324-0.161,0.478s-0.196,0.3-0.342,0.437c-0.145,0.138-0.325,0.265-0.541,0.383
		c0.516,0.045,0.914,0.185,1.193,0.42c0.28,0.235,0.452,0.564,0.517,0.99c0.049,0.32,0.033,0.629-0.05,0.924
		c-0.082,0.297-0.228,0.564-0.437,0.807c-0.209,0.242-0.48,0.447-0.815,0.617c-0.335,0.17-0.729,0.289-1.182,0.357L133.32,149.42z
		 M134.405,144.781l0.912-0.14c0.193-0.029,0.366-0.07,0.517-0.121c0.152-0.052,0.276-0.12,0.375-0.206
		c0.098-0.085,0.167-0.193,0.205-0.323c0.039-0.129,0.044-0.285,0.016-0.469c-0.027-0.179-0.072-0.326-0.135-0.438
		s-0.147-0.197-0.251-0.255c-0.104-0.06-0.23-0.092-0.378-0.102c-0.148-0.011-0.321,0.001-0.518,0.031l-1.026,0.156L134.405,144.781
		z M134.583,145.952l0.287,1.88l1.233-0.188c0.231-0.035,0.416-0.092,0.554-0.173c0.138-0.082,0.241-0.176,0.31-0.281
		c0.069-0.106,0.109-0.22,0.123-0.343c0.014-0.122,0.011-0.243-0.008-0.364c-0.021-0.138-0.058-0.26-0.11-0.363
		c-0.054-0.106-0.13-0.19-0.23-0.252c-0.099-0.063-0.225-0.105-0.377-0.124c-0.151-0.02-0.337-0.012-0.559,0.022L134.583,145.952z"
		/>
	<path fill="#FFFFFF" d="M141.657,146.718l2.798-0.426l0.213,1.398l-4.55,0.693l-1.15-7.551l1.752-0.267L141.657,146.718z"/>
	<path fill="#FFFFFF" d="M152.525,146.495l-1.358,0.207c-0.152,0.022-0.283,0.006-0.392-0.05c-0.109-0.055-0.192-0.136-0.246-0.241
		l-0.647-1.247l-2.871,0.438l-0.245,1.383c-0.021,0.103-0.074,0.2-0.163,0.293c-0.088,0.093-0.205,0.15-0.35,0.173l-1.369,0.209
		l1.772-7.996l1.793-0.273L152.525,146.495z M147.234,144.347l2.063-0.314l-1.01-1.963c-0.065-0.124-0.141-0.27-0.228-0.438
		c-0.088-0.169-0.177-0.353-0.267-0.55c-0.024,0.218-0.051,0.422-0.083,0.611c-0.031,0.188-0.063,0.352-0.094,0.49L147.234,144.347z
		"/>
	<path fill="#FFFFFF" d="M157.601,143.722c0.042-0.007,0.084-0.005,0.128,0.005c0.044,0.009,0.087,0.029,0.131,0.062l0.806,0.624
		c-0.244,0.443-0.579,0.802-1.006,1.073s-0.953,0.456-1.578,0.551c-0.573,0.087-1.102,0.068-1.586-0.058
		c-0.484-0.127-0.91-0.338-1.279-0.633c-0.369-0.296-0.673-0.666-0.915-1.113c-0.241-0.444-0.404-0.943-0.488-1.497
		c-0.085-0.562-0.067-1.095,0.054-1.596s0.33-0.95,0.625-1.345s0.67-0.725,1.125-0.986c0.454-0.265,0.973-0.441,1.557-0.53
		c0.283-0.043,0.554-0.059,0.812-0.047c0.257,0.013,0.502,0.047,0.733,0.102c0.231,0.055,0.448,0.128,0.65,0.224
		c0.202,0.095,0.385,0.206,0.549,0.333l-0.47,0.883c-0.03,0.054-0.068,0.105-0.114,0.152c-0.046,0.048-0.116,0.079-0.208,0.094
		c-0.062,0.01-0.124,0.004-0.183-0.015c-0.06-0.021-0.124-0.045-0.192-0.075c-0.068-0.029-0.143-0.063-0.224-0.098
		c-0.082-0.036-0.177-0.065-0.285-0.09s-0.232-0.039-0.373-0.047c-0.141-0.007-0.303,0.004-0.486,0.032
		c-0.317,0.048-0.599,0.148-0.844,0.301c-0.246,0.152-0.447,0.348-0.603,0.585s-0.265,0.513-0.325,0.826
		c-0.06,0.313-0.062,0.654-0.005,1.023c0.059,0.388,0.164,0.724,0.315,1.008s0.333,0.517,0.546,0.693
		c0.212,0.178,0.448,0.302,0.707,0.372c0.257,0.071,0.525,0.085,0.801,0.043c0.159-0.023,0.303-0.054,0.432-0.091
		c0.129-0.035,0.247-0.079,0.353-0.136c0.107-0.054,0.207-0.12,0.299-0.196c0.092-0.075,0.184-0.167,0.274-0.271
		c0.036-0.041,0.077-0.076,0.121-0.106C157.501,143.75,157.549,143.73,157.601,143.722z"/>
	<path fill="#FFFFFF" d="M160.701,140.652l0.28-0.043c0.259-0.039,0.433-0.148,0.522-0.328l1.324-2.726
		c0.072-0.149,0.166-0.257,0.277-0.324c0.112-0.066,0.254-0.112,0.427-0.14l1.523-0.231l-1.774,3.394
		c-0.063,0.123-0.131,0.227-0.207,0.312c-0.075,0.085-0.154,0.159-0.236,0.222c0.139,0.028,0.269,0.076,0.39,0.145
		c0.123,0.068,0.239,0.167,0.35,0.294l2.813,3.156l-1.565,0.238c-0.1,0.016-0.187,0.021-0.26,0.019
		c-0.073-0.004-0.137-0.014-0.193-0.034c-0.056-0.02-0.106-0.046-0.15-0.081c-0.044-0.033-0.087-0.074-0.131-0.12l-2.11-2.367
		c-0.077-0.087-0.166-0.144-0.267-0.169c-0.101-0.024-0.232-0.025-0.396-0.001l-0.425,0.065l0.49,3.213l-1.751,0.267l-1.15-7.551
		l1.751-0.267L160.701,140.652z"/>
	<path fill="#FFFFFF" d="M168.574,142.618l2.799-0.426l0.213,1.399l-4.551,0.693l-1.15-7.551l1.752-0.268L168.574,142.618z"/>
	<path fill="#FFFFFF" d="M174.331,143.173l-1.763,0.268l-1.15-7.551l1.763-0.268L174.331,143.173z"/>
	<path fill="#FFFFFF" d="M179.022,136.302c-0.039,0.091-0.084,0.16-0.135,0.211c-0.051,0.05-0.121,0.082-0.211,0.097
		c-0.079,0.012-0.169-0.001-0.268-0.036c-0.1-0.037-0.212-0.077-0.336-0.122c-0.126-0.044-0.267-0.08-0.423-0.107
		c-0.156-0.028-0.329-0.026-0.52,0.002c-0.328,0.05-0.562,0.157-0.701,0.321c-0.14,0.165-0.19,0.365-0.154,0.604
		c0.023,0.152,0.091,0.271,0.202,0.356c0.112,0.085,0.252,0.152,0.421,0.201c0.168,0.049,0.358,0.088,0.569,0.117
		c0.212,0.029,0.428,0.065,0.65,0.107c0.222,0.043,0.441,0.098,0.659,0.168c0.217,0.068,0.416,0.17,0.597,0.302
		c0.181,0.131,0.337,0.301,0.468,0.509c0.131,0.207,0.22,0.47,0.268,0.783c0.053,0.35,0.043,0.685-0.032,1.008
		c-0.074,0.322-0.21,0.613-0.404,0.875c-0.195,0.262-0.452,0.482-0.769,0.664c-0.317,0.181-0.69,0.304-1.119,0.369
		c-0.234,0.035-0.477,0.048-0.729,0.037c-0.251-0.012-0.497-0.045-0.738-0.098c-0.242-0.055-0.472-0.126-0.69-0.216
		c-0.219-0.091-0.414-0.198-0.585-0.324l0.394-0.898c0.028-0.067,0.074-0.125,0.138-0.174s0.135-0.079,0.214-0.092
		c0.104-0.016,0.213,0.002,0.329,0.051c0.114,0.05,0.245,0.104,0.391,0.163c0.145,0.06,0.309,0.108,0.492,0.147
		c0.182,0.04,0.392,0.041,0.626,0.006c0.318-0.049,0.555-0.156,0.71-0.322c0.154-0.167,0.208-0.402,0.162-0.706
		c-0.027-0.176-0.098-0.313-0.211-0.408c-0.113-0.096-0.254-0.169-0.423-0.217c-0.168-0.049-0.356-0.085-0.565-0.109
		c-0.209-0.025-0.424-0.055-0.645-0.091c-0.222-0.036-0.439-0.087-0.654-0.155c-0.216-0.067-0.414-0.17-0.596-0.307
		c-0.183-0.137-0.34-0.317-0.473-0.543s-0.227-0.514-0.28-0.865c-0.044-0.284-0.028-0.569,0.045-0.856
		c0.072-0.286,0.203-0.553,0.393-0.796c0.188-0.246,0.435-0.455,0.737-0.631c0.301-0.174,0.659-0.294,1.073-0.357
		c0.232-0.035,0.461-0.051,0.686-0.048s0.441,0.024,0.649,0.065c0.207,0.041,0.404,0.098,0.59,0.17
		c0.187,0.072,0.355,0.16,0.51,0.265L179.022,136.302z"/>
	<path fill="#FFFFFF" d="M185.68,133.718l0.212,1.39l-2.124,0.323l0.938,6.161l-1.752,0.267l-0.938-6.161l-2.125,0.324l-0.211-1.39
		L185.68,133.718z"/>
	<path fill="#FFFFFF" d="M186.086,134.362c0.111-0.127,0.235-0.249,0.371-0.364c0.136-0.116,0.285-0.223,0.447-0.32
		c0.162-0.097,0.339-0.181,0.532-0.251c0.191-0.069,0.404-0.122,0.636-0.157c0.324-0.05,0.624-0.051,0.897-0.004
		c0.274,0.046,0.515,0.136,0.723,0.269s0.378,0.305,0.511,0.516c0.134,0.212,0.221,0.456,0.263,0.731
		c0.041,0.267,0.038,0.5-0.005,0.701s-0.11,0.381-0.201,0.539c-0.091,0.16-0.195,0.3-0.312,0.422
		c-0.118,0.122-0.229,0.238-0.334,0.346c-0.105,0.108-0.196,0.212-0.271,0.312c-0.075,0.101-0.115,0.204-0.119,0.314l-0.035,0.749
		l-1.099,0.167l-0.241-0.818c-0.006-0.019-0.012-0.04-0.017-0.061s-0.01-0.04-0.013-0.062c-0.023-0.151-0.007-0.291,0.048-0.415
		c0.056-0.126,0.131-0.244,0.228-0.356c0.096-0.111,0.201-0.221,0.315-0.328s0.219-0.221,0.314-0.34
		c0.095-0.119,0.169-0.247,0.222-0.385c0.055-0.137,0.067-0.291,0.041-0.465c-0.031-0.207-0.125-0.36-0.279-0.463
		c-0.155-0.101-0.353-0.135-0.591-0.099c-0.183,0.028-0.333,0.071-0.45,0.128c-0.116,0.056-0.216,0.114-0.297,0.174
		c-0.08,0.062-0.151,0.115-0.211,0.163c-0.061,0.047-0.123,0.077-0.188,0.087c-0.148,0.022-0.269-0.024-0.36-0.143L186.086,134.362z
		 M187.96,140.263c-0.019-0.124-0.013-0.243,0.018-0.356c0.03-0.114,0.08-0.218,0.148-0.31c0.069-0.092,0.156-0.169,0.26-0.233
		c0.104-0.062,0.221-0.105,0.352-0.125c0.128-0.02,0.25-0.014,0.368,0.016c0.118,0.03,0.225,0.078,0.319,0.146
		c0.095,0.066,0.174,0.15,0.236,0.25c0.063,0.1,0.104,0.211,0.123,0.336c0.02,0.125,0.014,0.245-0.017,0.36
		c-0.03,0.116-0.08,0.221-0.15,0.312c-0.071,0.092-0.159,0.169-0.263,0.23s-0.22,0.103-0.347,0.122
		c-0.132,0.02-0.256,0.016-0.373-0.013c-0.118-0.027-0.224-0.075-0.316-0.143c-0.094-0.066-0.171-0.151-0.234-0.253
		S187.98,140.388,187.96,140.263z"/>
</g>
</svg>
