<svg width="424" height="383" xmlns="http://www.w3.org/2000/svg">
 <g>
  <title>Portfolio Highlights 2011</title>
  <g id="svg_layer4" class="hitbox">
   <style>.style0_sect03_4{stroke: #FFFFFF;fill: #0E0E0E;}.style1_sect03_4{fill: #0E0E0E;}.style2_sect03_4{stroke:  #FFFFFF;stroke-width: 0.5;fill: #0E0E0E;}</style>
   <path class="style1_sect03_4" d="m288.127106,279.971924l59.954254,49.876678l33.212982,2.063385l11.305267,-268.829926l-33.214569,-2.063381l-0.044342,0.805618c0,0 -2.115936,-0.131699 -3.16626,-0.14901l-69.62738,-1.041229" id="svg_53"/>
   <polygon class="style2_sect03_4" points="359.408 60.6176 392.621 62.6793 381.317 331.512 348.104 329.448" id="svg_54"/>
   <path class="style2_sect03_4" d="m356.195343,61.273781" id="svg_56"/>
  </g>
  <g id="svg_layer5" class="hitbox">
   <style>.style0_sect03_5{stroke: #FFFFFF;fill: #0E0E0E;}.style1_sect03_5{fill: #0E0E0E;}.style2_sect03_5{stroke:  #FFFFFF;stroke-width: 0.5;fill: #0E0E0E;}</style>
   <g id="svg_62" transform="matrix(0.848598 0 0 0.989368 -197.686 -376.922)">
    <path class="style2_sect03_5" d="m557.861877,664.25061l62.987061,49.240051l10.843994,-0.276062l-11.092041,-290.544006l-10.844971,0.276001l0.021973,0.871033c0,0 -2.087952,0.016998 -3.120972,0.07901l-68.453003,4.113983" id="svg_63"/>
    <polygon class="style2_sect03_5" points="609.746 422.511 620.589 422.235 631.681 712.779 620.838 713.055" id="svg_64"/>
    <line class="style2_sect03_5" x1="606.645957" y1="423.460585" x2="618.556957" y2="711.272585" id="svg_65"/>
   </g>
  </g>
  <g id="svg_layer3" class="hitbox">
   <style>.style0_sect03_3{stroke: #FFFFFF;fill: #0E0E0E;}.style1_sect03_3{fill: #0E0E0E;}.style2_sect03_3{stroke:  #FFFFFF;stroke-width: 0.5;fill: #0E0E0E;}</style>
   <path d="m300.393005,23.917999c-1.166992,0.918001 -3.165985,0 -3.165985,0l-69.500015,2.5l13.832993,249.498993l62.583008,53.583008" class="style0_sect03_3" id="svg_9"/>
   <path d="m241.559998,276.376007l62.583008,53.583008l11,0l-3.75,-306.500004l-11,0l0,0.917999c0,0 -2.115997,-0.038012 -3.165985,0l-69.500015,2.5" class="style1_sect03_3" id="svg_10"/>
   <polygon points="300.4 23 311.4 23 315.1 329.5 304.1 329.5" class="style0_sect03_3" id="svg_11"/>
   <line x1="297.200001" y1="23.9" x2="301.900001" y2="327.6" class="style2_sect03_3" id="svg_12"/>
  </g>
  <g id="svg_layer2" class="hitbox">
   <style>.style0_sect03_2{stroke: #FFFFFF;fill: #0E0E0E;}.style1_sect03_2{stroke: #FFFFFF;stroke-width: 1.0687;fill:  #0E0E0E;}.style2_sect03_2{stroke: #FFFFFF;stroke-width: 0.9794;fill:  #0E0E0E;}.style3_sect03_2{stroke: #FFFFFF;stroke-width: 1.2049;fill:  #0E0E0E;}</style>
   <polygon class="style0_sect03_2" points="178.9 139.1 262.2 132.1 303 154.4 302.4 157.4 304.3 159.6 304.3 338.5 284.6 340.3 284.6 341.1 271.7 342.9 271.6 344.2 256.2 346.7 256.6 344.7 241.2 346.7 238.6 346 238.6 347 223.2 349 223.1 347.5 207.7 350.7 197.4 322.9" id="svg_13"/>
   <polygon points="208.6 350 222.1 348 215.4 168.2 201.9 170.2" class="style0_sect03_2" id="svg_14"/>
   <polygon points="223.2 349 238.6 347 230.9 167.2 215.5 169.2" class="style1_sect03_2" id="svg_15"/>
   <polygon points="256.2 346.7 271.6 344.9 266.2 165 250.7 166.9" class="style1_sect03_2" id="svg_16"/>
   <polygon points="271.7 342.9 284.6 341.1 280.4 161.3 267.5 163.1" class="style2_sect03_2" id="svg_17"/>
   <polygon points="284.6 340.3 304.3 338.5 304.3 159.6 284.6 161.3" class="style3_sect03_2" id="svg_18"/>
   <line x1="304.300001" y1="159.6" x2="300.600001" y2="157.4" class="style3_sect03_2" id="svg_19"/>
   <line x1="284.600001" y1="161.3" x2="282.600001" y2="159.6" class="style3_sect03_2" id="svg_20"/>
   <path d="m302.437012,157.365997c0,0 -90.076019,8.625 -101.951019,9.899994c0,0 6.5,181.600006 7.200012,183.416016l-10.375015,-27.791016l-18.449982,-183.774994l83.375015,-7l40.75,22.25l-0.549011,3z" class="style3_sect03_2" id="svg_21"/>
   <line x1="178.900001" y1="139.1" x2="200.500001" y2="167.2" class="style3_sect03_2" id="svg_22"/>
   <line x1="280.400001" y1="161.3" x2="278.700001" y2="159.6" class="style3_sect03_2" id="svg_23"/>
   <line x1="267.500001" y1="163.1" x2="265.900001" y2="160.9" class="style3_sect03_2" id="svg_24"/>
   <line x1="266.200001" y1="165" x2="263.400001" y2="161.3" class="style3_sect03_2" id="svg_25"/>
   <polyline points="250.7 166.9 248.9 165 247.2 163.1" class="style3_sect03_2" id="svg_26"/>
   <line x1="233.500001" y1="167" x2="230.800001" y2="164.3" class="style3_sect03_2" id="svg_27"/>
   <polygon points="241.2 346.7 256.6 344.7 248.9 165 233.5 167" class="style1_sect03_2" id="svg_28"/>
   <path d="m230.884995,167.199997" class="style1_sect03_2" id="svg_29"/>
   <line x1="228.400001" y1="164.5" x2="230.900001" y2="167.2" class="style1_sect03_2" id="svg_30"/>
   <line x1="215.500001" y1="167.7" x2="213.900001" y2="165.6" class="style1_sect03_2" id="svg_31"/>
   <line x1="201.900001" y1="170.2" x2="200.500001" y2="169" class="style0_sect03_2" id="svg_32"/>
   <line x1="241.200001" y1="346.7" x2="238.600001" y2="346" class="style0_sect03_2" id="svg_33"/>
  </g>
  <g id="svg_layer1" class="hitbox">
   <style>.style0_sect03_1{stroke: #FFFFFF;fill: #0E0E0E;}.style1_sect03_1{fill: #0E0E0E;}.style2_sect03_1{stroke:  #FFFFFF;stroke-width: 0.942;fill: #0E0E0E;}</style>
   <polygon points="48.8 46.1 153 41 186 56.3 200.2 343.6 40.3 355.6 19 65.6" class="style0_sect03_1" id="svg_34"/>
   <polygon points="48.8 46.1 153 41 186 56.3 200.2 343.6 40.3 355.6 19 65.6" class="style1_sect03_1" id="svg_35"/>
   <path d="m185.772995,56.130001c0,0 -116.554993,7.369999 -166.729006,9.799999c0,0 3.6,6.200005 6.300001,7.5" class="style0_sect03_1" id="svg_36"/>
   <path d="m25.377001,73.255005l153.167006,-9.680004l16.891998,274.263012c0,0 -0.125,2.375 -2.5,3.099976s-146.225006,9.490967 -146.225006,9.490967s-3,-0.375 -3.499996,-2.25s-17.834002,-274.878975 -17.811003,-274.923965l-0.022999,0l0,0.000015z" class="style0_sect03_1" id="svg_37"/>
   <rect x="34.32526" y="74.162826" transform="matrix(0.998 -0.0627 0.0627 0.998 -10.5419 2.9986)" width="47.6" height="273.9" class="style2_sect03_1" id="svg_38"/>
   <rect x="83.82526" y="71.562826" transform="matrix(0.998 -0.0627 0.0627 0.998 -10.2828 6.0933)" width="47.6" height="273.9" class="style2_sect03_1" id="svg_39"/>
   <rect x="134.229506" y="68.061526" transform="matrix(0.998 -0.0626 0.0626 0.998 -9.9501 9.2328)" width="47.6" height="273.9" class="style2_sect03_1" id="svg_40"/>
   <line x1="44.500001" y1="349.7" x2="40.300001" y2="355.6" class="style0_sect03_1" id="svg_41"/>
   <line x1="195.400001" y1="340.3" x2="200.200001" y2="343.6" class="style0_sect03_1" id="svg_42"/>
   <path d="m178.543991,63.599998" class="style0_sect03_1" id="svg_43"/>
  </g>
 </g>
</svg>