<svg xmlns="http://www.w3.org/2000/svg" xmlns:xlink="http://www.w3.org/1999/xlink" version="1.1" id="Layer_1" x="0px" y="0px" width="182.509px" height="315.616px" viewBox="0 0 182.509 315.616" enable-background="new 0 0 182.509 315.616" xml:space="preserve"><style>.style0{stroke:	#FFFFFF;fill:	none;}.style1{fill:	#0E0E0E;}.style2{stroke:	#FFFFFF;stroke-width:	0.942;fill:	none;}</style><g class="hitbox" style="cursor:pointer"><polygon points="30.6,5.6 134.8,0.5 167.8,15.8 182,303.1 22.1,315.1 0.8,25.1" class="style0"></polygon><polygon points="30.6,5.6 134.8,0.5 167.8,15.8 182,303.1 22.1,315.1 0.8,25.1" class="style1"></polygon><path d="M167.573 15.63c0 0-116.555 7.37-166.729 9.8c0 0 3.6 6.2 6.3 7.5" class="style0"></path><path d="M7.177 32.755l153.167-9.68l16.892 274.263c0 0-0.125 2.375-2.5 3.1 s-146.225 9.491-146.225 9.491s-3-0.375-3.5-2.25S7.177 32.8 7.2 32.755z" class="style0"></path><rect x="18.7" y="32.6" transform="matrix(0.998 -0.0627 0.0627 0.998 -10.5419 2.9986)" width="47.6" height="273.9" class="style2"></rect><rect x="68.2" y="30" transform="matrix(0.998 -0.0627 0.0627 0.998 -10.2828 6.0933)" width="47.6" height="273.9" class="style2"></rect><rect x="118.6" y="26.5" transform="matrix(0.998 -0.0626 0.0626 0.998 -9.9501 9.2328)" width="47.6" height="273.9" class="style2"></rect><line x1="26.3" y1="309.2" x2="22.1" y2="315.1" class="style0"></line><line x1="177.2" y1="299.8" x2="182" y2="303.1" class="style0"></line><path d="M160.344 23.1" class="style0"></path></g>
</svg>