<svg xmlns="http://www.w3.org/2000/svg" xmlns:xlink="http://www.w3.org/1999/xlink" version="1.1" id="Layer_1" x="0px" y="0px" width="126.668px" height="219.385px" viewBox="0 0 126.668 219.385" enable-background="new 0 0 126.668 219.385" xml:space="preserve"><style>.style0{stroke:	#FFFFFF;fill:	none;}.style1{stroke:	#FFFFFF;stroke-width:	1.0687;fill:	none;}.style2{stroke:	#FFFFFF;stroke-width:	0.9794;fill:	none;}.style3{stroke:	#FFFFFF;stroke-width:	1.2049;fill:	none;}</style><g class="hitbox" style="cursor:pointer"><polygon points="0.7,7.6 84,0.6 124.8,22.9 124.2,25.9 126.1,28.1 126.1,207 106.4,208.8 106.4,209.6 93.5,211.4 93.4,212.7 78,215.2 78.4,213.2 63,215.2 60.4,214.5 60.4,215.5 45,217.5 44.9,216 29.5,219.2 19.2,191.4"></polygon><polygon points="30.4,218.5 43.9,216.5 37.2,36.7 23.7,38.7" class="style0"></polygon><polygon points="45,217.5 60.4,215.5 52.7,35.7 37.3,37.7" class="style1"></polygon><polygon points="78,215.2 93.4,213.4 88,33.5 72.5,35.4" class="style1"></polygon><polygon points="93.5,211.4 106.4,209.6 102.2,29.8 89.3,31.6" class="style2"></polygon><polygon points="106.4,208.8 126.1,207 126.1,28.1 106.4,29.8" class="style3"></polygon><line x1="126.1" y1="28.1" x2="122.4" y2="25.9" class="style3"></line><line x1="106.4" y1="29.8" x2="104.4" y2="28.1" class="style3"></line><path d="M124.237 25.866c0 0-90.076 8.625-101.951 9.9 c0 0 6.5 181.6 7.2 183.416l-10.375-27.791L0.661 7.616l83.375-7l40.75 22.25L124.237 25.866z" class="style3"></path><line x1="0.7" y1="7.6" x2="22.3" y2="35.7" class="style3"></line><line x1="102.2" y1="29.8" x2="100.5" y2="28.1" class="style3"></line><line x1="89.3" y1="31.6" x2="87.7" y2="29.4" class="style3"></line><line x1="88" y1="33.5" x2="85.2" y2="29.8" class="style3"></line><polyline points="72.5,35.4 70.7,33.5 69,31.6" class="style3"></polyline><line x1="55.3" y1="35.5" x2="52.6" y2="32.8" class="style3"></line><polygon points="63,215.2 78.4,213.2 70.7,33.5 55.3,35.5" class="style1"></polygon><path d="M52.685 35.7" class="style1"></path><line x1="50.2" y1="33" x2="52.7" y2="35.7" class="style1"></line><line x1="37.3" y1="36.2" x2="35.7" y2="34.1" class="style1"></line><line x1="23.7" y1="38.7" x2="22.3" y2="37.5" class="style0"></line><line x1="63" y1="215.2" x2="60.4" y2="214.5" class="style0"></line></g>
</svg>