<svg width="386" height="372" xmlns="http://www.w3.org/2000/svg">
 <g>
  <title>Layer 1</title>
  <g id="svg_layer1" class="hitbox">
   <style>.style0_sect02_1{fill:  #0E0E0E;}.style1_sect02_1{stroke: #FFFFFF;stroke-width: 0.967;fill: none;}.style2_sect02_1{stroke:  #FFFFFF;stroke-width: 0.4835;fill:  none;}</style>
   <path d="m102.071999,49.914001l0,4.702999c0,0 8.599998,3.200001 19.400002,3.162998l15.924011,-6.298996l2.18898,0l0,197.522003l-63.066986,65.809006l-45.661005,-2.354004l-9.353001,-235.53801l80.567999,-27.005997z" class="style0_sect02_1" id="svg_1"/>
   <polygon points="30.9 312.442 76.5 314.842 67.2 79.242 21.5 76.942" class="style1_sect02_1" id="svg_2"/>
   <polyline points="102.1 54.642 102.1 49.942 21.5 76.942" class="style1_sect02_1" id="svg_3"/>
   <polyline points="67.2 79.242 137.4 51.442 139.6 51.442 139.6 249.042 76.5 314.842" class="style1_sect02_1" id="svg_4"/>
   <polyline points="67.2 79.242 137.4 51.442 139.6 51.442 139.6 249.042 76.5 314.842" class="style1_sect02_1" id="svg_5"/>
   <path d="m33.535,76.942001" class="style2_sect02_1" id="svg_6"/>
   <path d="m34.417,77.584999l67.654999,-22.967999c0,0 10.099998,3.299999 19.400002,3.200001" class="style2_sect02_1" id="svg_7"/>
   <polygon points="30.9 312.442 76.5 314.842 67.2 79.242 21.5 76.942" class="style1_sect02_1" id="svg_8"/>
   <polyline points="102.1 54.642 102.1 49.942 21.5 76.942" class="style1_sect02_1" id="svg_9"/>
   <polyline points="67.2 79.242 137.4 51.442 139.6 51.442 139.6 249.042 76.5 314.842" class="style1_sect02_1" id="svg_10"/>
   <path d="m121.508003,57.779999c-9.363007,0.100002 -19.437004,-3.162998 -19.437004,-3.162998l-67.653999,22.924999" class="style2_sect02_1" id="svg_11"/>
  </g>
  <g id="svg_layer2" class="hitbox">
   <style>.style0_sect02_2{fill:  #0E0E0E;}.style1_sect02_2{stroke: #FFFFFF;stroke-width: 0.7355;fill:  none;}.style2_sect02_2{stroke:  #FFFFFF;stroke-width: 0.3678;fill:  none;}</style>
   <path d="m117.056999,84.821999l0,4.242004c0,0 5.5,2.899994 12.499992,2.852997l10.215012,-5.681l1.403992,0l0,178.141991l-40.476997,59.35202l-29.288994,-2.123016l-6.031006,-212.428978l51.678001,-24.355995l0,-0.000023z" class="style0_sect02_2" id="svg_12"/>
   <polygon points="71.4 321.642 100.7 323.742 94.7 111.342 65.4 109.142" class="style1_sect02_2" id="svg_13"/>
   <polyline points="117.1 89.042 117.1 84.842 65.4 109.142" class="style1_sect02_2" id="svg_14"/>
   <polyline points="94.7 111.342 139.7 86.242 141.1 86.242 141.1 264.342 100.7 323.742" class="style1_sect02_2" id="svg_15"/>
   <polyline points="94.7 111.342 139.7 86.242 141.1 86.242 141.1 264.342 100.7 323.742" class="style1_sect02_2" id="svg_16"/>
   <path d="m73.096001,109.141998" class="style2_sect02_2" id="svg_17"/>
   <path d="m73.660995,109.778l43.396004,-20.713997c0,0 6.5,2.899994 12.499992,2.899994" class="style2_sect02_2" id="svg_18"/>
   <polygon points="71.4 321.642 100.7 323.742 94.7 111.342 65.4 109.142" class="style1_sect02_2" id="svg_19"/>
   <polyline points="117.1 89.042 117.1 84.842 65.4 109.142" class="style1_sect02_2" id="svg_20"/>
   <polyline points="94.7 111.342 139.7 86.242 141.1 86.242 141.1 264.342 100.7 323.742" class="style1_sect02_2" id="svg_21"/>
   <path d="m129.524002,91.916c-6.006004,0.089996 -12.467003,-2.852997 -12.467003,-2.852997l-43.396004,20.678993" class="style2_sect02_2" id="svg_22"/>
  </g>
  <g id="svg_layer3" class="hitbox">
   <style>.style0_sect02_3{fill:  #0E0E0E;}.style1_sect02_3{stroke: #FFFFFF;stroke-width: 0.9517;fill:  none;}.style2_sect02_3{stroke:  #FFFFFF;stroke-width: 0.4759;fill:  none;}</style>
   <path d="m162.391998,40.957001l0,5.175999c0,0 7.600006,3.5 17.099991,3.480999l14.015015,-6.932999l1.925003,0l0,217.399017l-55.531006,72.431976l-40.181999,-2.589996l-8.227005,-259.240997l70.900002,-29.723999z" class="style0_sect02_3" id="svg_23"/>
   <polygon points="99.7 329.942 139.9 332.542 131.7 73.242 91.5 70.642" class="style1_sect02_3" id="svg_24"/>
   <polyline points="162.4 46.142 162.4 40.942 91.5 70.642" class="style1_sect02_3" id="svg_25"/>
   <polyline points="131.7 73.242 193.5 42.642 195.4 42.642 195.4 260.042 139.9 332.542" class="style1_sect02_3" id="svg_26"/>
   <polyline points="131.7 73.242 193.5 42.642 195.4 42.642 195.4 260.042 139.9 332.542" class="style1_sect02_3" id="svg_27"/>
   <path d="m102.079002,70.641998" class="style2_sect02_3" id="svg_28"/>
   <path d="m102.855003,71.412994l59.536995,-25.278992c0,0 8.899994,3.599998 17.099991,3.5" class="style2_sect02_3" id="svg_29"/>
   <polygon points="99.7 329.942 139.9 332.542 131.7 73.242 91.5 70.642" class="style1_sect02_3" id="svg_30"/>
   <polyline points="162.4 46.142 162.4 40.942 91.5 70.642" class="style1_sect02_3" id="svg_31"/>
   <polyline points="131.7 73.242 193.5 42.642 195.4 42.642 195.4 260.042 139.9 332.542" class="style1_sect02_3" id="svg_32"/>
   <path d="m179.497009,49.614998c-8.240005,0.109001 -17.104004,-3.480995 -17.104004,-3.480995l-59.538002,25.307999" class="style2_sect02_3" id="svg_33"/>
  </g>
  <g id="svg_layer4" class="hitbox">
   <style>.style0_sect02_4{fill:  #0E0E0E;}.style1_sect02_4{stroke: #FFFFFF;fill: none;}.style2_sect02_4{stroke:  #FFFFFF;stroke-width: 0.5;fill: none;}</style>
   <path d="m206.184006,24l0,5.5c0,0 7.899994,3.700001 17.800003,3.699001l14.561981,-7.366001l2,0l0,231.000038l-57.697998,76.961975l-41.75,-2.75l-8.580994,-275.461994l73.667007,-31.583l0,-0.000019z" class="style0_sect02_4" id="svg_34"/>
   <polygon points="141.1 331.042 182.8 333.842 174.3 58.342 132.5 55.542" class="style1_sect02_4" id="svg_35"/>
   <polyline points="206.2 29.542 206.2 24.042 132.5 55.542" class="style1_sect02_4" id="svg_36"/>
   <polyline points="174.3 58.342 238.5 25.842 240.5 25.842 240.5 256.842 182.8 333.842" class="style1_sect02_4" id="svg_37"/>
   <polyline points="174.3 58.342 238.5 25.842 240.5 25.842 240.5 256.842 182.8 333.842" class="style1_sect02_4" id="svg_38"/>
   <path d="m143.516998,55.542" class="style2_sect02_4" id="svg_39"/>
   <path d="m144.324005,56.361l61.860001,-26.861c0,0 9.199997,3.799999 17.800003,3.700001" class="style2_sect02_4" id="svg_40"/>
   <polygon points="141.1 331.042 182.8 333.842 174.3 58.342 132.5 55.542" class="style1_sect02_4" id="svg_41"/>
   <polyline points="206.2 29.542 206.2 24.042 132.5 55.542" class="style1_sect02_4" id="svg_42"/>
   <polyline points="174.3 58.342 238.5 25.842 240.5 25.842 240.5 256.842 182.8 333.842" class="style1_sect02_4" id="svg_43"/>
   <path d="m223.955994,33.200001c-8.561996,0.116001 -17.770996,-3.699001 -17.770996,-3.699001l-61.860001,26.900002" class="style2_sect02_4" id="svg_44"/>
  </g>
  <g id="svg_layer5" class="hitbox">
   <style>.style0_sect02_5{fill:  #0E0E0E;}.style1_sect02_5{stroke: #FFFFFF;stroke-width: 0.7528;fill:  none;}.style2_sect02_5{stroke:  #FFFFFF;stroke-width: 0.3764;fill:  none;}</style>
   <path d="m225.123001,66.895004l0,4.809998c0,0 5.100006,3.300003 11.5,3.235001l9.436996,-6.442001l1.296005,0l0,202.025986l-37.389008,67.309021l-27.054001,-2.403992l-5.526993,-240.91301l47.737,-27.621002z" class="style0_sect02_5" id="svg_45"/>
   <polygon points="182.9 335.442 210 337.842 204.4 96.942 177.4 94.542" class="style1_sect02_5" id="svg_46"/>
   <polyline points="225.1 71.742 225.1 66.942 177.4 94.542" class="style1_sect02_5" id="svg_47"/>
   <polyline points="204.4 96.942 246.1 68.542 247.4 68.542 247.4 270.542 210 337.842" class="style1_sect02_5" id="svg_48"/>
   <polyline points="204.4 96.942 246.1 68.542 247.4 68.542 247.4 270.542 210 337.842" class="style1_sect02_5" id="svg_49"/>
   <path d="m184.514999,94.542" class="style2_sect02_5" id="svg_50"/>
   <path d="m185.037003,95.197006l40.085999,-23.492004c0,0 6,3.300003 11.5,3.199997" class="style2_sect02_5" id="svg_51"/>
   <polygon points="182.9 335.442 210 337.842 204.4 96.942 177.4 94.542" class="style1_sect02_5" id="svg_52"/>
   <polyline points="225.1 71.742 225.1 66.942 177.4 94.542" class="style1_sect02_5" id="svg_53"/>
   <polyline points="204.4 96.942 246.1 68.542 247.4 68.542 247.4 270.542 210 337.842" class="style1_sect02_5" id="svg_54"/>
   <path d="m236.638,74.940002c-5.548004,0.101997 -11.537994,-3.198006 -11.537994,-3.235001l-40.063004,23.536995" class="style2_sect02_5" id="svg_55"/>
  </g>
  <g id="svg_layer6" class="hitbox">
   <style>.style0_sect02_6{fill:  #0E0E0E;}.style1_sect02_6{stroke: #FFFFFF;stroke-width: 0.8668;fill:  none;}.style2_sect02_6{stroke:  #FFFFFF;stroke-width: 0.4334;fill:  none;}</style>
   <path d="m261.411987,26.993l0,5.538998c0,0 5.899994,3.800003 13.299988,3.726002l10.866028,-7.417999l1.492004,0l0,232.628994l-43.053009,77.505005l-31.151001,-2.769012l-6.421997,-277.405968l54.967987,-31.805998l0,-0.000021z" class="style0_sect02_6" id="svg_56"/>
   <polygon points="212.8 336.242 244 338.942 237.6 61.542 206.4 58.842" class="style1_sect02_6" id="svg_57"/>
   <polyline points="261.4 32.542 261.4 27.042 206.4 58.842" class="style1_sect02_6" id="svg_58"/>
   <polyline points="237.6 61.542 285.5 28.842 287 28.842 287 261.442 244 338.942" class="style1_sect02_6" id="svg_59"/>
   <polyline points="237.6 61.542 285.5 28.842 287 28.842 287 261.442 244 338.942" class="style1_sect02_6" id="svg_60"/>
   <path d="m214.652008,58.841999" class="style2_sect02_6" id="svg_61"/>
   <path d="m215.255005,59.582001l46.156982,-27.050003c0,0 6.899994,3.800003 13.299988,3.700005" class="style2_sect02_6" id="svg_62"/>
   <polygon points="212.8 336.242 244 338.942 237.6 61.542 206.4 58.842" class="style1_sect02_6" id="svg_63"/>
   <polyline points="261.4 32.542 261.4 27.042 206.4 58.842" class="style1_sect02_6" id="svg_64"/>
   <polyline points="237.6 61.542 285.5 28.842 287 28.842 287 261.442 244 338.942" class="style1_sect02_6" id="svg_65"/>
   <path d="m274.671997,36.257999c-6.389008,0.117001 -13.26001,-3.726002 -13.26001,-3.726002l-46.156982,27.010002" class="style2_sect02_6" id="svg_66"/>
  </g>
  <g id="svg_layer7" class="hitbox">
   <style>.style0_sect02_7{fill:  #0E0E0E;}.style1_sect02_7{stroke: #FFFFFF;fill: none;}.style2_sect02_7{stroke:  #FFFFFF;stroke-width: 0.5;fill: none;}</style>
   <path d="m310.535004,35.025002l0.274994,5.492996c0,0 12.5,4.300003 24.399994,2.177002l4.130005,-2.126999l1.997009,-0.100002l15.173004,225.399982l-53.77002,79.758026l-41.834991,-0.656006l-22.362,-274.709991l71.992004,-35.235001l0,-0.000008z" class="style0_sect02_7" id="svg_67"/>
   <polygon points="260.9 344.942 302.7 345.642 280.4 70.942 238.5 70.242" class="style1_sect02_7" id="svg_68"/>
   <polyline points="310.8 40.542 310.5 35.042 238.5 70.242" class="style1_sect02_7" id="svg_69"/>
   <polyline points="280.4 70.942 339.3 40.542 341.3 40.442 356.5 265.842 302.7 345.642" class="style1_sect02_7" id="svg_70"/>
   <polyline points="280.4 70.942 339.3 40.542 341.3 40.442 356.5 265.842 302.7 345.642" class="style1_sect02_7" id="svg_71"/>
   <path d="m249.529007,69.741997" class="style2_sect02_7" id="svg_72"/>
   <path d="m250.373993,70.445l60.437012,-29.927002c0,0 9.399994,3.300003 17.899994,2.800003" class="style2_sect02_7" id="svg_73"/>
   <polygon points="260.9 344.942 302.7 345.642 280.4 70.942 238.5 70.242" class="style1_sect02_7" id="svg_74"/>
   <polyline points="310.8 40.542 310.5 35.042 238.5 70.242" class="style1_sect02_7" id="svg_75"/>
   <polyline points="280.4 70.942 339.3 40.542 341.3 40.442 356.5 265.842 302.7 345.642" class="style1_sect02_7" id="svg_76"/>
   <path d="m337.125,41.699001c-10.807983,4.428001 -26.313995,-1.181004 -26.313995,-1.181004l-60.437012,29.924004" class="style2_sect02_7" id="svg_77"/>
  </g>
 </g>
</svg>