<?xml version="1.0" encoding="utf-8"?>
<!-- Generator: Adobe Illustrator 17.0.2, SVG Export Plug-In . SVG Version: 6.00 Build 0)  -->
<!DOCTYPE svg PUBLIC "-//W3C//DTD SVG 1.1//EN" "http://www.w3.org/Graphics/SVG/1.1/DTD/svg11.dtd">
<svg version="1.1" id="Layer_1" xmlns="http://www.w3.org/2000/svg" xmlns:xlink="http://www.w3.org/1999/xlink" x="0px" y="0px"
	 width="119.104px" height="266.08px" viewBox="0 0 119.104 266.08" enable-background="new 0 0 119.104 266.08"
	 xml:space="preserve">
<g>
	<path fill="#0E0E0E" d="M81.072,0.672v4.703c0,0,8.614,3.191,19.437,3.163l15.924-6.299h2.189v197.522L55.518,265.57l-45.661-2.354
		L0.504,27.678L81.072,0.672z"/>
	<polygon fill="none" stroke="#FFFFFF" stroke-width="0.967" points="9.857,263.217 55.518,265.57 46.166,30.029 0.504,27.678 	"/>
	<polyline fill="none" stroke="#FFFFFF" stroke-width="0.967" points="81.072,5.375 81.072,0.672 0.504,27.678 	"/>
	<polyline fill="none" stroke="#FFFFFF" stroke-width="0.967" points="46.166,30.029 116.432,2.239 118.622,2.239 118.622,199.762 
		55.518,265.57 	"/>
	<polyline fill="none" stroke="#FFFFFF" stroke-width="0.967" points="46.166,30.029 116.432,2.239 118.622,2.239 118.622,199.762 
		55.518,265.57 	"/>
	<path fill="none" stroke="#FFFFFF" stroke-width="0.4835" d="M12.535,27.678"/>
	<path fill="none" stroke="#FFFFFF" stroke-width="0.4835" d="M13.417,28.343L81.072,5.375c0,0,10.073,3.263,19.437,3.163"/>
	<polygon fill="none" stroke="#FFFFFF" stroke-width="0.967" points="9.857,263.217 55.518,265.57 46.166,30.029 0.504,27.678 	"/>
	<polyline fill="none" stroke="#FFFFFF" stroke-width="0.967" points="81.072,5.375 81.072,0.672 0.504,27.678 	"/>
	<polyline fill="none" stroke="#FFFFFF" stroke-width="0.967" points="46.166,30.029 116.432,2.239 118.622,2.239 118.622,199.762 
		55.518,265.57 	"/>
	<path fill="none" stroke="#FFFFFF" stroke-width="0.4835" d="M100.508,8.538c-9.363,0.1-19.437-3.163-19.437-3.163L13.417,28.343"
		/>
</g>
<g>
	<path fill="#FFFFFF" d="M6.59,40.991c0.04,0.106,0.079,0.215,0.117,0.323c0.047-0.108,0.096-0.216,0.146-0.319
		c0.05-0.105,0.104-0.206,0.16-0.302l2.113-3.591c0.026-0.045,0.053-0.08,0.08-0.107c0.027-0.026,0.057-0.044,0.089-0.056
		c0.033-0.011,0.069-0.017,0.109-0.018c0.04-0.002,0.087-0.002,0.142,0.001l0.93,0.038l-0.272,6.628l-1.086-0.045l0.176-4.281
		c0.003-0.079,0.009-0.166,0.018-0.261s0.019-0.19,0.033-0.287L7.186,42.39C7.137,42.473,7.074,42.538,7,42.581
		c-0.075,0.045-0.162,0.064-0.26,0.061l-0.17-0.007c-0.098-0.004-0.182-0.031-0.253-0.082c-0.071-0.05-0.128-0.119-0.17-0.206
		l-1.875-3.855c0.008,0.102,0.012,0.199,0.013,0.296c0.001,0.097-0.001,0.187-0.004,0.269l-0.176,4.281l-1.087-0.045l0.273-6.628
		l0.931,0.038c0.055,0.002,0.103,0.006,0.142,0.011s0.075,0.014,0.106,0.027s0.061,0.034,0.087,0.062
		c0.026,0.03,0.051,0.067,0.074,0.114l1.829,3.762C6.506,40.78,6.55,40.883,6.59,40.991z"/>
	<path fill="#FFFFFF" d="M12.931,43.701l-1.237-0.051l0.273-6.628l1.237,0.051L12.931,43.701z"/>
	<path fill="#FFFFFF" d="M19.042,42.387c0.067,0.002,0.124,0.031,0.171,0.085l0.464,0.546c-0.283,0.323-0.624,0.564-1.024,0.727
		c-0.399,0.159-0.875,0.229-1.425,0.206c-0.492-0.021-0.931-0.122-1.316-0.306c-0.386-0.185-0.712-0.433-0.977-0.743
		c-0.266-0.312-0.464-0.677-0.596-1.099c-0.131-0.423-0.187-0.879-0.166-1.371c0.021-0.498,0.122-0.95,0.304-1.358
		c0.182-0.406,0.429-0.755,0.741-1.042c0.312-0.285,0.68-0.504,1.104-0.654c0.424-0.149,0.888-0.214,1.392-0.192
		c0.492,0.02,0.919,0.116,1.281,0.289c0.362,0.173,0.669,0.395,0.921,0.664l-0.437,0.556c-0.026,0.036-0.058,0.067-0.098,0.094
		c-0.04,0.025-0.092,0.037-0.16,0.034c-0.07-0.003-0.141-0.033-0.212-0.091c-0.072-0.059-0.163-0.122-0.272-0.19
		c-0.111-0.069-0.251-0.135-0.422-0.197c-0.17-0.062-0.388-0.099-0.654-0.109c-0.312-0.013-0.601,0.029-0.866,0.128
		c-0.266,0.098-0.497,0.244-0.693,0.438c-0.196,0.194-0.353,0.432-0.47,0.717s-0.184,0.607-0.198,0.968
		c-0.016,0.373,0.023,0.708,0.117,1.001c0.094,0.295,0.226,0.545,0.398,0.752c0.172,0.206,0.378,0.366,0.619,0.481
		s0.5,0.179,0.782,0.19c0.167,0.007,0.32,0.005,0.458-0.009c0.136-0.013,0.263-0.037,0.379-0.071
		c0.116-0.035,0.227-0.081,0.332-0.141c0.104-0.058,0.209-0.13,0.314-0.218c0.032-0.026,0.065-0.048,0.099-0.062
		C18.965,42.392,19.002,42.385,19.042,42.387z"/>
	<path fill="#FFFFFF" d="M26.159,44.245l-1.242-0.051l0.12-2.896l-3.107-0.128l-0.12,2.896l-1.242-0.051l0.273-6.628l1.242,0.051
		l-0.117,2.852l3.107,0.128l0.117-2.852l1.242,0.051L26.159,44.245z"/>
	<path fill="#FFFFFF" d="M33.323,44.539L32.37,44.5c-0.106-0.004-0.193-0.034-0.26-0.091c-0.066-0.056-0.114-0.124-0.141-0.205
		l-0.439-1.372l-2.746-0.113l-0.551,1.331c-0.027,0.07-0.078,0.132-0.152,0.187s-0.163,0.08-0.268,0.076l-0.958-0.039l2.877-6.521
		l1.26,0.052L33.323,44.539z M29.136,41.861l2.113,0.087l-0.716-2.238c-0.032-0.099-0.068-0.216-0.107-0.351
		c-0.039-0.135-0.076-0.28-0.113-0.438c-0.049,0.154-0.097,0.297-0.144,0.43c-0.047,0.134-0.092,0.25-0.136,0.348L29.136,41.861z"/>
	<path fill="#FFFFFF" d="M38.46,38.112l-0.041,0.981l-2.938-0.121l-0.075,1.838l2.314,0.096l-0.039,0.949l-2.314-0.096l-0.077,1.874
		l2.938,0.121l-0.041,0.985l-4.18-0.172l0.273-6.628L38.46,38.112z"/>
	<path fill="#FFFFFF" d="M40.53,43.817l2.654,0.109l-0.042,1.018l-3.887-0.16l0.273-6.628l1.232,0.051L40.53,43.817z"/>
	<path fill="#FFFFFF" d="M11.374,52.319l-0.096,2.333l-1.233-0.051l0.273-6.628l2.159,0.089c0.443,0.019,0.824,0.087,1.145,0.203
		c0.319,0.116,0.581,0.273,0.784,0.468c0.203,0.195,0.35,0.426,0.44,0.689c0.09,0.263,0.128,0.55,0.116,0.858
		c-0.013,0.32-0.079,0.612-0.197,0.876c-0.118,0.263-0.288,0.486-0.51,0.669c-0.222,0.184-0.496,0.323-0.82,0.417
		c-0.326,0.094-0.703,0.132-1.134,0.114L11.374,52.319z M11.413,51.356l0.926,0.038c0.226,0.01,0.424-0.011,0.595-0.061
		c0.17-0.049,0.313-0.124,0.427-0.225c0.115-0.103,0.202-0.227,0.264-0.376c0.061-0.149,0.095-0.315,0.103-0.502
		c0.007-0.178-0.014-0.34-0.062-0.485c-0.049-0.146-0.126-0.272-0.233-0.376c-0.105-0.106-0.242-0.189-0.407-0.249
		c-0.166-0.061-0.362-0.096-0.588-0.105l-0.926-0.038L11.413,51.356z"/>
	<path fill="#FFFFFF" d="M21.325,55.066l-1.242-0.052l0.119-2.897l-3.108-0.128l-0.119,2.897l-1.242-0.051l0.273-6.628l1.242,0.051
		l-0.117,2.851l3.108,0.128l0.117-2.851l1.242,0.052L21.325,55.066z"/>
	<path fill="#FFFFFF" d="M28.489,55.36l-0.953-0.039c-0.107-0.004-0.194-0.034-0.26-0.091c-0.067-0.057-0.114-0.125-0.141-0.206
		l-0.439-1.372l-2.746-0.113l-0.551,1.331c-0.027,0.07-0.079,0.132-0.152,0.188c-0.074,0.055-0.164,0.081-0.268,0.076l-0.958-0.039
		l2.876-6.521l1.261,0.052L28.489,55.36z M24.302,52.681l2.113,0.087l-0.715-2.237c-0.033-0.101-0.068-0.218-0.107-0.352
		c-0.039-0.135-0.076-0.281-0.113-0.438c-0.049,0.153-0.098,0.297-0.144,0.43c-0.047,0.133-0.092,0.249-0.136,0.349L24.302,52.681z"
		/>
	<path fill="#FFFFFF" d="M30.228,48.799c0.037,0.007,0.069,0.017,0.098,0.031c0.029,0.017,0.056,0.037,0.083,0.064
		c0.026,0.025,0.056,0.061,0.087,0.105l3.297,4.577c-0.008-0.108-0.012-0.213-0.013-0.316c0-0.103,0.001-0.198,0.005-0.287
		l0.166-4.028l1.087,0.045l-0.273,6.628l-0.637-0.026c-0.098-0.004-0.178-0.022-0.241-0.056c-0.062-0.033-0.124-0.091-0.181-0.173
		l-3.284-4.557c0.005,0.098,0.008,0.196,0.009,0.292c0,0.097-0.001,0.184-0.004,0.263l-0.167,4.071l-1.086-0.045l0.273-6.628
		l0.646,0.027C30.146,48.789,30.192,48.794,30.228,48.799z"/>
</g>
<g>
	<path fill="#FFFFFF" d="M20.306,81.185l-0.033-1.248c-0.003-0.14,0.029-0.256,0.096-0.348c0.067-0.092,0.152-0.16,0.255-0.202
		l1.752-0.694l-0.096-3.593L20.495,74.5c-0.093-0.03-0.178-0.091-0.257-0.183c-0.078-0.092-0.12-0.206-0.123-0.342l-0.033-1.253
		l8.763,3.176l0.044,1.649L20.306,81.185z M23.432,75.484l0.073,2.765l2.857-1.132c0.126-0.052,0.276-0.109,0.449-0.171
		c0.172-0.063,0.36-0.125,0.562-0.186c-0.206-0.051-0.397-0.101-0.575-0.15c-0.177-0.049-0.333-0.098-0.466-0.147L23.432,75.484z"/>
	<path fill="#FFFFFF" d="M29.021,82.874c-0.005,0.049-0.016,0.092-0.033,0.13c-0.017,0.039-0.042,0.076-0.074,0.113
		c-0.033,0.037-0.077,0.078-0.132,0.124l-5.679,4.706c0.139-0.02,0.276-0.034,0.41-0.043c0.134-0.01,0.259-0.016,0.375-0.019
		l5.272-0.14l0.038,1.421l-8.672,0.23l-0.022-0.833c-0.003-0.128,0.014-0.234,0.051-0.32c0.038-0.085,0.107-0.169,0.209-0.251
		l5.655-4.688c-0.128,0.015-0.254,0.028-0.38,0.037c-0.126,0.009-0.241,0.015-0.345,0.018L20.368,83.5l-0.038-1.421l8.672-0.23
		l0.022,0.846C29.027,82.766,29.026,82.826,29.021,82.874z"/>
	<path fill="#FFFFFF" d="M20.681,95.28l-0.043-1.619l8.672-0.23l0.043,1.619L20.681,95.28z"/>
	<path fill="#FFFFFF" d="M29.424,98.024c-0.004,0.049-0.016,0.092-0.033,0.13c-0.017,0.039-0.042,0.077-0.074,0.114
		c-0.033,0.036-0.077,0.077-0.132,0.123l-5.679,4.706c0.14-0.02,0.276-0.034,0.41-0.043c0.133-0.01,0.258-0.016,0.374-0.019
		l5.272-0.14l0.038,1.421l-8.672,0.23l-0.022-0.833c-0.003-0.128,0.014-0.234,0.052-0.32c0.038-0.085,0.107-0.169,0.209-0.251
		l5.656-4.688c-0.128,0.015-0.254,0.028-0.38,0.037c-0.125,0.009-0.24,0.015-0.344,0.018l-5.326,0.142l-0.038-1.421l8.672-0.23
		l0.022,0.846C29.429,97.916,29.428,97.977,29.424,98.024z"/>
	<path fill="#FFFFFF" d="M29.808,112.179l-1.325,0.035l-0.069-2.609l-7.347,0.195l-0.042-1.613l7.347-0.195l-0.07-2.622l1.325-0.035
		L29.808,112.179z"/>
	<path fill="#FFFFFF" d="M29.981,118.675l-1.283,0.034l-0.102-3.845l-2.405,0.064l0.08,3.029l-1.241,0.033l-0.08-3.029l-2.453,0.065
		l0.102,3.845l-1.29,0.034l-0.146-5.47l8.672-0.23L29.981,118.675z"/>
	<path fill="#FFFFFF" d="M24.779,121.88l-3.389,0.09l-0.043-1.613l8.672-0.23l0.07,2.645c0.016,0.592-0.032,1.101-0.142,1.525
		c-0.111,0.425-0.273,0.775-0.485,1.051c-0.213,0.276-0.471,0.481-0.773,0.615c-0.303,0.134-0.638,0.206-1.006,0.216
		c-0.292,0.008-0.569-0.028-0.831-0.107c-0.262-0.078-0.501-0.196-0.718-0.353c-0.216-0.156-0.407-0.352-0.573-0.585
		s-0.302-0.501-0.406-0.803c-0.111,0.207-0.272,0.388-0.484,0.541l-3.145,2.257l-0.039-1.452c-0.003-0.14,0.021-0.259,0.075-0.358
		c0.053-0.1,0.131-0.186,0.233-0.256l2.729-1.896c0.102-0.071,0.174-0.148,0.216-0.231c0.042-0.083,0.061-0.204,0.056-0.364
		L24.779,121.88z M25.936,121.849l0.026,1.008c0.008,0.304,0.053,0.567,0.136,0.792c0.082,0.224,0.191,0.406,0.33,0.549
		c0.138,0.143,0.3,0.248,0.486,0.314c0.186,0.067,0.388,0.098,0.608,0.092c0.44-0.012,0.774-0.166,1.002-0.462
		c0.228-0.296,0.334-0.742,0.318-1.338l-0.027-1.031L25.936,121.849z"/>
	<path fill="#FFFFFF" d="M21.757,135.784l-0.033-1.248c-0.003-0.14,0.028-0.256,0.096-0.347c0.067-0.093,0.152-0.16,0.255-0.203
		l1.752-0.695l-0.096-3.593l-1.787-0.601c-0.093-0.03-0.178-0.091-0.257-0.183c-0.078-0.092-0.12-0.206-0.123-0.342l-0.033-1.253
		l8.763,3.176l0.044,1.649L21.757,135.784z M24.883,130.082l0.073,2.765l2.857-1.132c0.126-0.052,0.276-0.108,0.449-0.171
		c0.172-0.062,0.36-0.125,0.562-0.186c-0.206-0.051-0.397-0.102-0.575-0.15c-0.177-0.05-0.333-0.098-0.466-0.146L24.883,130.082z"/>
	<path fill="#FFFFFF" d="M23.976,142.279c0.002,0.088-0.03,0.165-0.096,0.23l-0.672,0.654c-0.446-0.341-0.791-0.765-1.036-1.272
		c-0.246-0.507-0.378-1.121-0.397-1.841c-0.017-0.644,0.078-1.226,0.284-1.745s0.5-0.967,0.882-1.341
		c0.382-0.375,0.843-0.666,1.382-0.874c0.538-0.209,1.129-0.321,1.773-0.338c0.651-0.018,1.251,0.074,1.798,0.275
		c0.548,0.202,1.023,0.493,1.425,0.875c0.402,0.381,0.72,0.843,0.953,1.383c0.232,0.539,0.357,1.14,0.375,1.799
		c0.017,0.644-0.071,1.209-0.264,1.697c-0.193,0.487-0.456,0.906-0.786,1.26l-0.764-0.52c-0.049-0.03-0.092-0.07-0.129-0.12
		c-0.038-0.049-0.057-0.117-0.06-0.205c-0.002-0.092,0.031-0.188,0.101-0.285s0.145-0.222,0.225-0.372s0.152-0.339,0.218-0.566
		c0.066-0.229,0.094-0.516,0.085-0.864c-0.011-0.407-0.091-0.78-0.242-1.119c-0.151-0.338-0.362-0.626-0.632-0.864
		c-0.271-0.239-0.597-0.423-0.978-0.551c-0.382-0.128-0.808-0.186-1.28-0.174c-0.488,0.014-0.92,0.094-1.296,0.242
		c-0.377,0.148-0.692,0.343-0.945,0.586c-0.254,0.243-0.445,0.525-0.574,0.85c-0.13,0.323-0.189,0.67-0.18,1.037
		c0.006,0.22,0.023,0.419,0.052,0.596c0.029,0.178,0.071,0.341,0.127,0.489c0.056,0.148,0.127,0.288,0.212,0.42
		c0.085,0.133,0.19,0.263,0.313,0.391c0.037,0.04,0.067,0.081,0.091,0.124C23.963,142.18,23.975,142.227,23.976,142.279z"/>
	<path fill="#FFFFFF" d="M30.821,150.296l-1.325,0.035l-0.069-2.609l-7.347,0.195l-0.042-1.613l7.347-0.195l-0.07-2.621l1.325-0.035
		L30.821,150.296z"/>
	<path fill="#FFFFFF" d="M22.224,153.369l-0.043-1.619l8.672-0.23l0.043,1.619L22.224,153.369z"/>
	<path fill="#FFFFFF" d="M30.926,154.236l0.035,1.302c0.003,0.14-0.027,0.255-0.092,0.345c-0.066,0.09-0.152,0.157-0.259,0.205
		l-5.236,2.179c-0.17,0.073-0.358,0.144-0.562,0.211c-0.205,0.067-0.42,0.132-0.647,0.193c0.462,0.08,0.872,0.184,1.228,0.311
		l5.344,1.892c0.093,0.034,0.179,0.096,0.257,0.186c0.078,0.09,0.119,0.203,0.122,0.339l0.035,1.302l-8.765-3.272l-0.039-1.457
		L30.926,154.236z"/>
	<path fill="#FFFFFF" d="M31.32,169.074l-1.283,0.034l-0.102-3.845l-2.405,0.064l0.081,3.029l-1.241,0.033l-0.081-3.029
		l-2.453,0.064l0.102,3.845l-1.29,0.034l-0.145-5.47l8.672-0.23L31.32,169.074z"/>
	<path fill="#FFFFFF" d="M25.844,174.603l-3.053,0.081l-0.043-1.612l8.672-0.23l0.075,2.824c0.015,0.58-0.039,1.084-0.163,1.511
		c-0.125,0.428-0.306,0.783-0.542,1.065c-0.236,0.282-0.523,0.494-0.859,0.635c-0.336,0.142-0.707,0.217-1.11,0.228
		c-0.419,0.012-0.807-0.049-1.16-0.179c-0.354-0.131-0.66-0.333-0.919-0.605c-0.259-0.274-0.465-0.619-0.616-1.034
		c-0.151-0.417-0.233-0.907-0.249-1.471L25.844,174.603z M27.103,174.57l0.032,1.212c0.008,0.296,0.052,0.553,0.131,0.771
		c0.08,0.219,0.19,0.397,0.333,0.538c0.141,0.141,0.312,0.243,0.512,0.31c0.2,0.067,0.422,0.097,0.666,0.091
		c0.232-0.007,0.441-0.048,0.627-0.125s0.343-0.188,0.472-0.336c0.128-0.147,0.224-0.332,0.288-0.555
		c0.064-0.222,0.092-0.48,0.084-0.776l-0.032-1.212L27.103,174.57z"/>
	<path fill="#FFFFFF" d="M27.503,188.719c-0.636,0.018-1.228-0.073-1.775-0.271c-0.548-0.196-1.024-0.482-1.43-0.855
		c-0.406-0.374-0.728-0.827-0.964-1.361c-0.236-0.534-0.363-1.129-0.38-1.784c-0.018-0.656,0.078-1.258,0.285-1.806
		c0.208-0.548,0.504-1.02,0.89-1.415c0.386-0.397,0.846-0.708,1.383-0.935c0.536-0.227,1.122-0.348,1.758-0.365
		c0.636-0.017,1.228,0.074,1.775,0.271s1.024,0.483,1.43,0.859c0.406,0.375,0.728,0.83,0.964,1.366s0.363,1.132,0.38,1.788
		c0.018,0.655-0.079,1.256-0.288,1.802c-0.209,0.547-0.506,1.016-0.89,1.41c-0.383,0.395-0.843,0.705-1.379,0.931
		C28.725,188.58,28.139,188.702,27.503,188.719z M27.459,187.063c0.476-0.013,0.901-0.087,1.275-0.223s0.69-0.325,0.948-0.568
		s0.452-0.535,0.583-0.877s0.19-0.725,0.179-1.148s-0.091-0.804-0.24-1.14c-0.149-0.337-0.359-0.62-0.629-0.851
		c-0.27-0.23-0.596-0.405-0.977-0.523c-0.381-0.118-0.811-0.171-1.286-0.158c-0.476,0.013-0.901,0.088-1.275,0.227
		c-0.375,0.138-0.69,0.329-0.946,0.574c-0.256,0.244-0.449,0.538-0.579,0.883c-0.131,0.344-0.191,0.727-0.18,1.15
		s0.091,0.804,0.24,1.138s0.357,0.615,0.625,0.845c0.268,0.229,0.593,0.401,0.974,0.518
		C26.554,187.024,26.983,187.076,27.459,187.063z"/>
	<path fill="#FFFFFF" d="M26.634,191.683l-3.389,0.09l-0.043-1.613l8.672-0.23l0.07,2.646c0.016,0.592-0.032,1.101-0.142,1.525
		c-0.111,0.425-0.273,0.775-0.486,1.051c-0.213,0.275-0.47,0.48-0.773,0.615c-0.303,0.134-0.638,0.206-1.005,0.216
		c-0.292,0.008-0.569-0.028-0.831-0.107c-0.263-0.079-0.502-0.196-0.718-0.353c-0.215-0.157-0.407-0.352-0.573-0.585
		s-0.302-0.501-0.405-0.803c-0.111,0.207-0.272,0.387-0.484,0.541l-3.145,2.256l-0.039-1.451c-0.003-0.14,0.021-0.259,0.075-0.358
		s0.131-0.186,0.233-0.256l2.729-1.897c0.103-0.07,0.174-0.147,0.216-0.23c0.042-0.083,0.061-0.205,0.056-0.364L26.634,191.683z
		 M27.791,191.652l0.027,1.007c0.008,0.305,0.053,0.568,0.135,0.793c0.082,0.224,0.191,0.406,0.33,0.548
		c0.138,0.143,0.3,0.248,0.486,0.315c0.186,0.067,0.388,0.098,0.608,0.092c0.44-0.012,0.774-0.166,1.002-0.463
		c0.228-0.295,0.334-0.741,0.318-1.337l-0.027-1.032L27.791,191.652z"/>
	<path fill="#FFFFFF" d="M32.235,203.509l-1.325,0.035l-0.069-2.609l-7.347,0.195l-0.043-1.613l7.347-0.195l-0.07-2.621l1.325-0.035
		L32.235,203.509z"/>
	<path fill="#FFFFFF" d="M32.407,210.004l-1.283,0.034l-0.102-3.845l-2.567,0.068l0.086,3.245l-1.29,0.034l-0.086-3.245
		l-3.533,0.094l-0.043-1.625l8.672-0.23L32.407,210.004z"/>
	<path fill="#FFFFFF" d="M28.326,219.704c-0.636,0.017-1.228-0.074-1.775-0.271s-1.023-0.483-1.43-0.856s-0.728-0.827-0.964-1.36
		c-0.236-0.534-0.363-1.129-0.38-1.785s0.078-1.258,0.285-1.806c0.208-0.547,0.504-1.02,0.89-1.415
		c0.386-0.396,0.846-0.708,1.383-0.935c0.536-0.227,1.122-0.348,1.758-0.365c0.636-0.017,1.228,0.074,1.775,0.271
		c0.547,0.198,1.024,0.484,1.43,0.859c0.406,0.375,0.728,0.831,0.964,1.366c0.236,0.536,0.363,1.132,0.38,1.788
		s-0.079,1.257-0.288,1.803s-0.506,1.016-0.89,1.41c-0.383,0.394-0.843,0.704-1.379,0.931S28.962,219.687,28.326,219.704z
		 M28.282,218.048c0.476-0.013,0.901-0.087,1.275-0.223s0.69-0.325,0.948-0.568s0.452-0.535,0.583-0.877
		c0.131-0.342,0.19-0.724,0.179-1.147c-0.011-0.425-0.091-0.804-0.24-1.141c-0.149-0.336-0.359-0.62-0.629-0.851
		s-0.596-0.405-0.977-0.522c-0.381-0.119-0.811-0.172-1.286-0.159c-0.476,0.013-0.901,0.088-1.275,0.227
		c-0.375,0.138-0.69,0.33-0.946,0.574c-0.256,0.244-0.449,0.539-0.579,0.883c-0.131,0.344-0.191,0.727-0.18,1.151
		c0.011,0.424,0.091,0.803,0.24,1.137c0.148,0.334,0.357,0.615,0.625,0.845c0.268,0.229,0.593,0.401,0.974,0.518
		C27.378,218.009,27.806,218.06,28.282,218.048z"/>
	<path fill="#FFFFFF" d="M25.398,222.669l0.092,3.473l-1.332,0.035l-0.135-5.086l8.672-0.23l0.043,1.613L25.398,222.669z"/>
	<path fill="#FFFFFF" d="M24.237,229.109l-0.043-1.619l8.672-0.23l0.043,1.619L24.237,229.109z"/>
	<path fill="#FFFFFF" d="M28.846,239.263c-0.636,0.018-1.228-0.073-1.775-0.271c-0.548-0.197-1.024-0.482-1.43-0.855
		c-0.406-0.374-0.728-0.827-0.963-1.361c-0.236-0.534-0.363-1.129-0.381-1.784c-0.018-0.656,0.078-1.258,0.285-1.806
		c0.208-0.548,0.504-1.02,0.89-1.416s0.846-0.707,1.382-0.934c0.536-0.227,1.123-0.349,1.758-0.365s1.227,0.073,1.774,0.271
		c0.547,0.197,1.025,0.483,1.431,0.859c0.406,0.375,0.727,0.83,0.963,1.366s0.363,1.132,0.38,1.788
		c0.018,0.655-0.079,1.256-0.288,1.802c-0.21,0.546-0.507,1.016-0.891,1.41c-0.383,0.395-0.843,0.705-1.379,0.931
		C30.068,239.124,29.482,239.246,28.846,239.263z M28.802,237.607c0.476-0.013,0.901-0.087,1.276-0.223
		c0.374-0.137,0.69-0.326,0.948-0.569c0.258-0.242,0.452-0.534,0.583-0.876s0.19-0.725,0.179-1.148s-0.091-0.804-0.24-1.14
		c-0.149-0.337-0.358-0.62-0.629-0.852c-0.271-0.229-0.596-0.404-0.977-0.522c-0.381-0.118-0.811-0.171-1.286-0.158
		c-0.476,0.013-0.901,0.088-1.275,0.227c-0.375,0.138-0.69,0.329-0.945,0.573c-0.256,0.245-0.449,0.539-0.58,0.884
		c-0.131,0.343-0.191,0.727-0.18,1.15s0.091,0.803,0.24,1.138c0.149,0.334,0.357,0.615,0.625,0.844
		c0.268,0.229,0.593,0.401,0.975,0.518C27.898,237.568,28.326,237.62,28.802,237.607z"/>
</g>
<line fill="none" stroke="#FFFFFF" stroke-width="0.967" x1="1.717" y1="58.213" x2="47.397" y2="61.04"/>
<line fill="none" stroke="#FFFFFF" stroke-width="0.967" x1="1.717" y1="60.654" x2="47.397" y2="63.48"/>
</svg>
