<?xml version="1.0" encoding="utf-8"?>
<!-- Generator: Adobe Illustrator 17.0.2, SVG Export Plug-In . SVG Version: 6.00 Build 0)  -->
<!DOCTYPE svg PUBLIC "-//W3C//DTD SVG 1.1//EN" "http://www.w3.org/Graphics/SVG/1.1/DTD/svg11.dtd">
<svg version="1.1" id="Layer_1" xmlns="http://www.w3.org/2000/svg" xmlns:xlink="http://www.w3.org/1999/xlink" x="0px" y="0px"
	 width="104.912px" height="292.78px" viewBox="0 0 104.912 292.78" enable-background="new 0 0 104.912 292.78"
	 xml:space="preserve">
<g>
	<path fill="#0E0E0E" d="M71.392,0.715v5.176c0,0,7.582,3.512,17.104,3.481l14.015-6.933h1.925v217.399L48.905,292.27l-40.182-2.59
		L0.492,30.439L71.392,0.715z"/>
	<polygon fill="none" stroke="#FFFFFF" stroke-width="0.9517" points="8.723,289.681 48.905,292.271 40.674,33.027 0.492,30.439 	
		"/>
	<polyline fill="none" stroke="#FFFFFF" stroke-width="0.9517" points="71.392,5.892 71.392,0.715 0.492,30.439 	"/>
	<polyline fill="none" stroke="#FFFFFF" stroke-width="0.9517" points="40.674,33.027 102.511,2.44 104.436,2.44 104.436,219.839 
		48.905,292.271 	"/>
	<polyline fill="none" stroke="#FFFFFF" stroke-width="0.9517" points="40.674,33.027 102.511,2.44 104.436,2.44 104.436,219.839 
		48.905,292.271 	"/>
	<path fill="none" stroke="#FFFFFF" stroke-width="0.4759" d="M11.079,30.439"/>
	<path fill="none" stroke="#FFFFFF" stroke-width="0.4759" d="M11.855,31.171L71.392,5.892c0,0,8.864,3.591,17.104,3.481"/>
	<polygon fill="none" stroke="#FFFFFF" stroke-width="0.9517" points="8.723,289.681 48.905,292.271 40.674,33.027 0.492,30.439 	
		"/>
	<polyline fill="none" stroke="#FFFFFF" stroke-width="0.9517" points="71.392,5.892 71.392,0.715 0.492,30.439 	"/>
	<polyline fill="none" stroke="#FFFFFF" stroke-width="0.9517" points="40.674,33.027 102.511,2.44 104.436,2.44 104.436,219.839 
		48.905,292.271 	"/>
	<path fill="none" stroke="#FFFFFF" stroke-width="0.4759" d="M88.497,9.373c-8.24,0.109-17.104-3.481-17.104-3.481L11.855,31.171"
		/>
</g>
<g>
	<path fill="#FFFFFF" d="M38.157,131.806l-1.553-0.163l-0.059-2.219l-7.215-0.697l-0.051-1.943l7.214,0.684l-0.059-2.231l1.552,0.15
		L38.157,131.806z"/>
	<path fill="#FFFFFF" d="M29.598,138.78l-0.053-1.968l3.731,0.357l-0.083-3.155l-3.731-0.356l-0.052-1.968l8.768,0.848l0.052,1.968
		l-3.701-0.358l0.083,3.155l3.701,0.357l0.052,1.968L29.598,138.78z"/>
	<path fill="#FFFFFF" d="M37.026,145.941l-0.086-3.232l-2.118-0.208l0.066,2.477l-1.457-0.153l-0.065-2.465l-2.172-0.207
		l0.086,3.257l-1.51-0.151l-0.139-5.218l8.768,0.848l0.138,5.205L37.026,145.941z"/>
	<path fill="#FFFFFF" d="M38.649,150.66c-0.004,0.059-0.017,0.11-0.038,0.158c-0.021,0.046-0.051,0.088-0.089,0.125
		c-0.039,0.037-0.09,0.074-0.153,0.112l-5.317,3.208c0.14,0.004,0.274,0.013,0.402,0.025c0.128,0.013,0.249,0.023,0.362,0.032
		l4.952,0.457l0.046,1.728l-8.768-0.848l-0.027-1.021c-0.004-0.151,0.015-0.277,0.056-0.379c0.041-0.102,0.125-0.189,0.251-0.265
		l5.311-3.196c-0.112-0.006-0.22-0.012-0.325-0.019c-0.104-0.008-0.203-0.014-0.294-0.02l-5.114-0.464l-0.046-1.728l8.768,0.848
		l0.027,1.031C38.655,150.531,38.653,150.602,38.649,150.66z"/>
	<path fill="#FFFFFF" d="M37.474,162.819l-0.086-3.232l-2.118-0.208l0.065,2.477l-1.457-0.153l-0.065-2.465l-2.172-0.207
		l0.086,3.257l-1.511-0.151l-0.139-5.218l8.768,0.848l0.138,5.205L37.474,162.819z"/>
	<path fill="#FFFFFF" d="M34.973,165.574l4.028-2.003l0.047,1.775c0.003,0.127-0.011,0.219-0.044,0.273
		c-0.033,0.055-0.088,0.102-0.167,0.14l-2.729,1.225c0.041,0.02,0.079,0.04,0.115,0.063c0.037,0.022,0.077,0.048,0.122,0.074
		l2.537,1.47c0.093,0.053,0.159,0.112,0.199,0.178c0.04,0.065,0.061,0.144,0.063,0.235l0.054,2.051l-4.06-2.803l-4.7,2.231
		l-0.047-1.751c-0.003-0.129,0.026-0.229,0.088-0.303c0.062-0.073,0.132-0.127,0.211-0.161l3.174-1.375
		c-0.028-0.016-0.055-0.031-0.079-0.049s-0.049-0.033-0.073-0.049l-3.11-1.851c-0.118-0.072-0.201-0.159-0.25-0.257
		c-0.048-0.1-0.074-0.207-0.077-0.323l-0.052-1.955L34.973,165.574z"/>
	<path fill="#FFFFFF" d="M39.379,177.809l-1.553-0.162l-0.059-2.22l-7.215-0.697l-0.052-1.943l7.215,0.686l-0.06-2.231l1.553,0.15
		L39.379,177.809z"/>
	<path fill="#FFFFFF" d="M37.824,185.208c-0.098-0.065-0.17-0.133-0.216-0.202c-0.046-0.068-0.07-0.15-0.073-0.246
		c-0.002-0.092,0.025-0.185,0.083-0.278c0.057-0.094,0.121-0.198,0.189-0.314c0.069-0.116,0.132-0.249,0.188-0.398
		c0.055-0.149,0.081-0.324,0.076-0.523c-0.005-0.184-0.035-0.345-0.091-0.481c-0.055-0.136-0.131-0.249-0.225-0.339
		c-0.095-0.09-0.205-0.155-0.33-0.198c-0.125-0.043-0.262-0.062-0.409-0.059c-0.16,0.004-0.293,0.054-0.399,0.146
		c-0.105,0.093-0.197,0.216-0.275,0.368c-0.078,0.151-0.148,0.322-0.211,0.513c-0.063,0.189-0.132,0.385-0.207,0.584
		c-0.075,0.201-0.162,0.397-0.261,0.59s-0.224,0.366-0.376,0.521c-0.151,0.153-0.336,0.278-0.554,0.374
		c-0.217,0.096-0.48,0.147-0.788,0.156c-0.439,0.012-0.855-0.053-1.248-0.194c-0.392-0.143-0.736-0.351-1.034-0.627
		c-0.298-0.276-0.537-0.615-0.717-1.017c-0.181-0.401-0.278-0.856-0.292-1.363c-0.007-0.252,0.015-0.506,0.064-0.762
		c0.049-0.255,0.122-0.501,0.218-0.737c0.095-0.237,0.21-0.457,0.345-0.661c0.135-0.203,0.286-0.378,0.455-0.522l0.93,0.672
		c0.069,0.05,0.127,0.117,0.174,0.2c0.046,0.083,0.07,0.166,0.072,0.25c0.003,0.111-0.033,0.222-0.108,0.329
		c-0.075,0.108-0.158,0.228-0.249,0.358c-0.091,0.13-0.172,0.281-0.246,0.454c-0.073,0.172-0.107,0.382-0.1,0.629
		c0.009,0.364,0.116,0.643,0.319,0.835c0.203,0.193,0.499,0.284,0.887,0.273c0.18-0.004,0.327-0.054,0.439-0.146
		c0.114-0.093,0.209-0.213,0.285-0.361c0.076-0.148,0.143-0.317,0.2-0.507s0.119-0.383,0.186-0.581
		c0.067-0.197,0.146-0.392,0.24-0.582c0.093-0.191,0.216-0.361,0.371-0.512c0.154-0.15,0.345-0.272,0.572-0.369
		c0.228-0.096,0.509-0.148,0.845-0.157c0.388-0.011,0.763,0.053,1.125,0.189c0.361,0.137,0.684,0.336,0.967,0.601
		c0.283,0.265,0.512,0.589,0.687,0.973c0.174,0.384,0.268,0.817,0.28,1.301c0.007,0.248-0.013,0.49-0.059,0.725
		c-0.046,0.235-0.112,0.456-0.198,0.663c-0.087,0.206-0.19,0.395-0.312,0.566c-0.122,0.171-0.255,0.316-0.4,0.437L37.824,185.208z"
		/>
	<path fill="#FFFFFF" d="M39.776,192.743l-1.553-0.163l-0.059-2.22l-7.215-0.696l-0.051-1.943l7.214,0.685l-0.059-2.23l1.552,0.15
		L39.776,192.743z"/>
	<path fill="#FFFFFF" d="M38.423,198.53l-0.086-3.233l-2.118-0.208l0.066,2.478l-1.457-0.154l-0.065-2.465l-2.172-0.206l0.086,3.257
		l-1.511-0.152l-0.138-5.218l8.767,0.848l0.139,5.206L38.423,198.53z"/>
	<path fill="#FFFFFF" d="M34.199,201.066l-2.955-0.281l-0.051-1.943l8.767,0.836l0.077,2.891c0.014,0.52-0.037,0.966-0.153,1.34
		c-0.117,0.372-0.283,0.681-0.499,0.925c-0.215,0.244-0.473,0.426-0.771,0.546s-0.622,0.185-0.97,0.194
		c-0.476,0.013-0.918-0.049-1.329-0.185c-0.41-0.135-0.766-0.349-1.07-0.641c-0.304-0.292-0.546-0.666-0.726-1.121
		c-0.18-0.456-0.279-0.997-0.295-1.625L34.199,201.066z M38.55,201.491l-2.876-0.277l0.025,0.941
		c0.008,0.28,0.054,0.514,0.142,0.701c0.087,0.188,0.207,0.339,0.36,0.452c0.153,0.114,0.334,0.195,0.543,0.241
		c0.209,0.047,0.438,0.066,0.686,0.06c0.172-0.004,0.33-0.031,0.472-0.081c0.143-0.05,0.265-0.124,0.367-0.223
		c0.101-0.1,0.179-0.223,0.233-0.37c0.054-0.146,0.078-0.32,0.073-0.521L38.55,201.491z"/>
	<path fill="#FFFFFF" d="M14.292,104.915l-0.052-1.967l8.768,0.835l0.052,1.967L14.292,104.915z"/>
	<path fill="#FFFFFF" d="M23.122,108.422c-0.004,0.058-0.017,0.11-0.038,0.157c-0.021,0.046-0.051,0.088-0.089,0.125
		c-0.039,0.037-0.09,0.074-0.154,0.112l-5.316,3.208c0.141,0.004,0.274,0.013,0.403,0.025c0.128,0.012,0.249,0.023,0.361,0.032
		l4.952,0.457l0.046,1.728l-8.768-0.847l-0.027-1.02c-0.004-0.152,0.015-0.278,0.056-0.379c0.041-0.101,0.125-0.189,0.251-0.265
		l5.311-3.196c-0.112-0.005-0.22-0.011-0.325-0.018c-0.104-0.008-0.203-0.014-0.294-0.02l-5.114-0.464l-0.046-1.727l8.768,0.847
		l0.027,1.031C23.127,108.293,23.126,108.364,23.122,108.422z"/>
	<path fill="#FFFFFF" d="M23.477,121.416l-1.554-0.162l-0.059-2.22l-7.215-0.697l-0.051-1.943l7.214,0.685l-0.059-2.231l1.553,0.15
		L23.477,121.416z"/>
	<path fill="#FFFFFF" d="M22.123,127.202l-0.086-3.232l-2.118-0.208l0.066,2.477l-1.457-0.153l-0.065-2.465l-2.172-0.207
		l0.086,3.257l-1.51-0.152l-0.139-5.218l8.768,0.847l0.139,5.206L22.123,127.202z"/>
	<path fill="#FFFFFF" d="M18.218,129.773l-3.274-0.315l-0.051-1.943l8.768,0.835l0.07,2.651c0.014,0.536-0.031,0.994-0.135,1.375
		s-0.253,0.694-0.446,0.939c-0.194,0.245-0.425,0.427-0.696,0.544c-0.271,0.117-0.567,0.18-0.887,0.188
		c-0.324,0.009-0.631-0.026-0.921-0.104c-0.291-0.078-0.559-0.196-0.805-0.354c-0.247-0.157-0.466-0.353-0.658-0.585
		c-0.192-0.233-0.352-0.5-0.48-0.801c-0.064,0.122-0.143,0.237-0.236,0.346c-0.094,0.108-0.211,0.194-0.354,0.258l-3.043,1.354
		l-0.047-1.764c-0.004-0.164,0.024-0.303,0.085-0.416c0.061-0.113,0.151-0.194,0.27-0.241l2.56-1.017
		c0.11-0.047,0.188-0.108,0.232-0.183s0.064-0.185,0.061-0.329L18.218,129.773z M22.25,130.164l-2.678-0.259l0.019,0.714
		c0.008,0.28,0.057,0.517,0.148,0.71c0.091,0.193,0.21,0.35,0.357,0.468c0.147,0.118,0.318,0.202,0.511,0.25
		c0.194,0.05,0.396,0.071,0.609,0.065c0.164-0.005,0.312-0.032,0.444-0.084c0.132-0.051,0.245-0.129,0.336-0.234
		c0.091-0.104,0.161-0.234,0.209-0.389c0.047-0.156,0.069-0.337,0.063-0.545L22.25,130.164z"/>
	<path fill="#FFFFFF" d="M15.287,142.342l-0.04-1.512c-0.004-0.168,0.031-0.304,0.106-0.408c0.075-0.104,0.176-0.168,0.304-0.191
		l1.565-0.312l-0.079-2.969l-1.589-0.605c-0.113-0.042-0.214-0.125-0.304-0.251c-0.089-0.125-0.136-0.266-0.14-0.422l-0.041-1.535
		l8.85,3.942l0.053,2.003L15.287,142.342z M18.489,137.461l0.058,2.194l2.484-0.491c0.207-0.042,0.417-0.086,0.629-0.134
		s0.407-0.088,0.582-0.121c-0.097-0.029-0.207-0.068-0.331-0.117c-0.124-0.048-0.244-0.097-0.36-0.143
		c-0.117-0.048-0.227-0.093-0.328-0.136c-0.102-0.043-0.176-0.074-0.225-0.094L18.489,137.461z"/>
	<path fill="#FFFFFF" d="M16.901,146.176c0.006,0.22,0.028,0.41,0.066,0.571c0.039,0.161,0.085,0.298,0.14,0.413
		c0.055,0.115,0.115,0.212,0.179,0.29c0.064,0.078,0.123,0.148,0.177,0.211c0.053,0.062,0.098,0.122,0.134,0.177
		c0.035,0.056,0.054,0.114,0.055,0.179c0.002,0.063-0.007,0.117-0.028,0.159c-0.021,0.043-0.045,0.074-0.073,0.096l-0.804,0.705
		c-0.461-0.368-0.817-0.81-1.064-1.324c-0.248-0.517-0.381-1.105-0.398-1.769c-0.015-0.552,0.069-1.044,0.252-1.475
		c0.183-0.432,0.44-0.797,0.772-1.098c0.332-0.301,0.729-0.533,1.191-0.695c0.461-0.162,0.962-0.25,1.501-0.265
		c0.5-0.014,0.976,0.03,1.426,0.13c0.451,0.101,0.869,0.247,1.254,0.441c0.385,0.193,0.734,0.43,1.045,0.707
		c0.312,0.277,0.578,0.588,0.799,0.931c0.221,0.342,0.394,0.711,0.519,1.108c0.125,0.396,0.192,0.812,0.204,1.249
		c0.009,0.328-0.014,0.627-0.069,0.898s-0.134,0.519-0.239,0.739c-0.104,0.221-0.23,0.419-0.377,0.595
		c-0.148,0.177-0.312,0.331-0.492,0.464l-0.81-0.663c-0.058-0.046-0.109-0.101-0.154-0.164c-0.046-0.062-0.07-0.146-0.073-0.25
		c-0.002-0.068,0.013-0.13,0.043-0.188c0.031-0.057,0.068-0.114,0.113-0.174c0.044-0.06,0.093-0.126,0.147-0.199
		s0.103-0.16,0.146-0.262c0.043-0.102,0.079-0.221,0.107-0.36c0.028-0.139,0.04-0.302,0.035-0.489
		c-0.01-0.368-0.097-0.709-0.261-1.022c-0.164-0.314-0.395-0.584-0.69-0.811c-0.296-0.226-0.653-0.399-1.071-0.521
		c-0.417-0.121-0.882-0.175-1.394-0.161c-0.372,0.01-0.702,0.063-0.992,0.161s-0.534,0.228-0.731,0.39
		c-0.198,0.16-0.347,0.351-0.447,0.569S16.895,145.924,16.901,146.176z"/>
	<path fill="#FFFFFF" d="M24.401,156.24l-1.553-0.162l-0.059-2.22l-7.215-0.696l-0.052-1.943l7.215,0.685l-0.059-2.231l1.553,0.15
		L24.401,156.24z"/>
	<path fill="#FFFFFF" d="M15.71,158.259l-0.052-1.967l8.768,0.835l0.052,1.967L15.71,158.259z"/>
	<path fill="#FFFFFF" d="M24.498,159.886l0.042,1.571c0.004,0.168-0.032,0.303-0.109,0.405c-0.077,0.102-0.178,0.166-0.301,0.193
		l-4.792,1.04c-0.195,0.041-0.415,0.09-0.66,0.146s-0.493,0.104-0.743,0.143c0.253,0.077,0.503,0.167,0.748,0.269
		c0.245,0.102,0.47,0.191,0.677,0.27l4.87,1.911c0.053,0.022,0.105,0.056,0.159,0.099c0.053,0.042,0.101,0.094,0.142,0.155
		c0.042,0.061,0.076,0.128,0.102,0.201s0.04,0.15,0.042,0.23l0.042,1.583l-8.854-4.062l-0.047-1.775L24.498,159.886z"/>
	<path fill="#FFFFFF" d="M23.361,173.781l-0.086-3.232l-2.119-0.208l0.066,2.477l-1.457-0.152l-0.065-2.466l-2.172-0.206
		l0.086,3.257l-1.51-0.152l-0.139-5.218l8.768,0.848l0.138,5.206L23.361,173.781z"/>
	<path fill="#FFFFFF" d="M23.323,181.608c-0.098-0.065-0.17-0.132-0.216-0.201c-0.046-0.068-0.07-0.151-0.073-0.247
		c-0.002-0.092,0.025-0.184,0.083-0.278c0.057-0.093,0.121-0.197,0.19-0.313s0.131-0.249,0.188-0.398
		c0.056-0.149,0.082-0.324,0.076-0.524c-0.005-0.184-0.035-0.344-0.091-0.48s-0.131-0.25-0.225-0.339
		c-0.095-0.09-0.205-0.156-0.33-0.198c-0.125-0.044-0.262-0.062-0.409-0.059c-0.16,0.004-0.293,0.053-0.399,0.146
		c-0.105,0.093-0.197,0.216-0.275,0.367c-0.078,0.152-0.149,0.323-0.212,0.514c-0.063,0.188-0.132,0.384-0.207,0.584
		s-0.161,0.396-0.26,0.589c-0.099,0.193-0.224,0.366-0.376,0.521c-0.152,0.154-0.336,0.279-0.554,0.375
		c-0.217,0.096-0.48,0.147-0.788,0.155c-0.44,0.012-0.856-0.053-1.247-0.194c-0.393-0.142-0.737-0.351-1.034-0.627
		s-0.537-0.614-0.717-1.017c-0.181-0.4-0.278-0.855-0.292-1.363c-0.006-0.251,0.015-0.506,0.064-0.761
		c0.049-0.256,0.122-0.502,0.218-0.738s0.211-0.457,0.346-0.66c0.135-0.204,0.286-0.378,0.454-0.522l0.93,0.672
		c0.07,0.05,0.127,0.117,0.174,0.199c0.046,0.083,0.07,0.167,0.073,0.25c0.003,0.112-0.033,0.222-0.109,0.33
		c-0.075,0.107-0.158,0.228-0.248,0.357c-0.091,0.131-0.173,0.282-0.247,0.454c-0.073,0.172-0.107,0.382-0.1,0.63
		c0.01,0.364,0.116,0.643,0.319,0.835c0.203,0.192,0.499,0.283,0.886,0.273c0.18-0.005,0.327-0.054,0.44-0.147
		c0.114-0.092,0.208-0.213,0.285-0.361c0.076-0.147,0.143-0.316,0.2-0.506c0.057-0.19,0.118-0.384,0.185-0.581
		c0.067-0.198,0.147-0.393,0.24-0.583c0.092-0.19,0.216-0.36,0.37-0.511s0.345-0.273,0.573-0.369
		c0.227-0.097,0.509-0.148,0.845-0.158c0.388-0.01,0.762,0.054,1.125,0.189c0.362,0.137,0.684,0.337,0.967,0.602
		s0.512,0.589,0.686,0.972c0.175,0.384,0.268,0.817,0.281,1.301c0.006,0.248-0.014,0.49-0.059,0.726
		c-0.046,0.235-0.112,0.456-0.198,0.662c-0.087,0.206-0.191,0.396-0.312,0.566c-0.122,0.172-0.255,0.317-0.4,0.438L23.323,181.608z"
		/>
	<path fill="#FFFFFF" d="M23.747,188.307l-0.086-3.232l-2.118-0.208l0.066,2.478l-1.457-0.153l-0.065-2.465l-2.172-0.207L18,187.776
		l-1.511-0.151l-0.138-5.219l8.768,0.848l0.139,5.206L23.747,188.307z"/>
	<path fill="#FFFFFF" d="M16.715,196.081l-0.041-1.512c-0.004-0.168,0.031-0.305,0.106-0.408c0.075-0.104,0.176-0.168,0.304-0.191
		l1.565-0.312l-0.079-2.969l-1.589-0.606c-0.113-0.041-0.214-0.124-0.304-0.25s-0.136-0.267-0.14-0.422l-0.041-1.535l8.85,3.941
		l0.053,2.004L16.715,196.081z M19.916,191.2l0.058,2.195l2.484-0.491c0.207-0.042,0.417-0.087,0.629-0.135
		c0.213-0.047,0.407-0.088,0.582-0.12c-0.097-0.029-0.207-0.069-0.331-0.117c-0.124-0.049-0.243-0.097-0.36-0.144
		s-0.227-0.092-0.328-0.136c-0.101-0.043-0.176-0.074-0.225-0.093L19.916,191.2z"/>
	<path fill="#FFFFFF" d="M23.858,201.773c-0.098-0.064-0.17-0.132-0.216-0.201c-0.046-0.068-0.07-0.151-0.072-0.247
		c-0.002-0.092,0.025-0.185,0.083-0.278c0.057-0.094,0.121-0.198,0.189-0.314c0.069-0.115,0.132-0.249,0.188-0.397
		c0.056-0.149,0.082-0.324,0.076-0.524c-0.005-0.184-0.035-0.345-0.091-0.481c-0.056-0.136-0.131-0.249-0.225-0.338
		c-0.095-0.09-0.205-0.156-0.33-0.198c-0.125-0.044-0.262-0.062-0.409-0.059c-0.16,0.004-0.293,0.053-0.399,0.146
		c-0.105,0.093-0.197,0.215-0.275,0.367s-0.149,0.323-0.211,0.513c-0.063,0.189-0.132,0.385-0.207,0.585s-0.161,0.396-0.26,0.589
		c-0.099,0.192-0.225,0.366-0.377,0.521c-0.151,0.154-0.336,0.279-0.554,0.375c-0.217,0.095-0.48,0.147-0.788,0.155
		c-0.44,0.012-0.856-0.053-1.247-0.194c-0.392-0.142-0.737-0.351-1.034-0.627s-0.537-0.614-0.717-1.017
		c-0.181-0.401-0.278-0.855-0.292-1.363c-0.007-0.252,0.015-0.506,0.063-0.762c0.049-0.255,0.122-0.501,0.218-0.737
		c0.096-0.236,0.211-0.457,0.346-0.66c0.135-0.204,0.286-0.378,0.454-0.522l0.93,0.671c0.07,0.051,0.127,0.117,0.174,0.2
		s0.07,0.166,0.073,0.25c0.003,0.112-0.033,0.222-0.108,0.33c-0.076,0.107-0.158,0.228-0.249,0.357
		c-0.091,0.13-0.173,0.281-0.247,0.454c-0.073,0.172-0.106,0.382-0.1,0.63c0.01,0.363,0.116,0.642,0.319,0.834
		c0.203,0.193,0.499,0.284,0.886,0.274c0.18-0.005,0.327-0.054,0.44-0.147c0.114-0.093,0.209-0.213,0.285-0.361
		c0.076-0.148,0.143-0.317,0.199-0.506c0.057-0.19,0.119-0.384,0.185-0.582c0.067-0.197,0.147-0.392,0.24-0.582
		c0.092-0.19,0.216-0.36,0.37-0.511c0.155-0.15,0.345-0.273,0.573-0.37c0.227-0.096,0.509-0.148,0.845-0.157
		c0.388-0.011,0.762,0.053,1.125,0.189c0.362,0.137,0.684,0.337,0.967,0.602c0.283,0.265,0.512,0.589,0.687,0.972
		c0.174,0.384,0.268,0.817,0.281,1.301c0.006,0.248-0.014,0.49-0.059,0.726c-0.046,0.235-0.112,0.455-0.198,0.662
		c-0.087,0.206-0.191,0.396-0.312,0.566s-0.255,0.317-0.4,0.438L23.858,201.773z"/>
	<path fill="#FFFFFF" d="M22.045,210.981c-0.473,0.013-0.926-0.03-1.36-0.129c-0.435-0.099-0.841-0.244-1.219-0.437
		c-0.377-0.191-0.721-0.427-1.033-0.704c-0.312-0.278-0.579-0.593-0.802-0.942c-0.224-0.35-0.4-0.731-0.529-1.145
		c-0.129-0.412-0.2-0.849-0.212-1.309c-0.015-0.575,0.072-1.096,0.262-1.559s0.456-0.859,0.797-1.188
		c0.341-0.329,0.747-0.585,1.216-0.768s0.978-0.281,1.526-0.296c0.472-0.013,0.926,0.03,1.363,0.129
		c0.437,0.099,0.844,0.244,1.221,0.437c0.377,0.191,0.721,0.427,1.033,0.707c0.312,0.28,0.578,0.595,0.802,0.944
		c0.223,0.351,0.399,0.732,0.529,1.146c0.128,0.412,0.199,0.851,0.211,1.314c0.016,0.572-0.072,1.089-0.261,1.553
		c-0.19,0.463-0.457,0.858-0.8,1.186c-0.344,0.327-0.751,0.582-1.223,0.765S22.588,210.966,22.045,210.981z M21.943,208.979
		c0.359-0.01,0.685-0.062,0.977-0.156c0.292-0.093,0.54-0.226,0.746-0.397c0.206-0.171,0.362-0.378,0.47-0.621
		c0.108-0.243,0.157-0.517,0.149-0.82c-0.01-0.399-0.103-0.756-0.277-1.067s-0.415-0.574-0.72-0.788
		c-0.306-0.214-0.671-0.374-1.097-0.481c-0.425-0.106-0.893-0.152-1.405-0.139c-0.36,0.01-0.685,0.061-0.974,0.151
		c-0.29,0.092-0.537,0.222-0.74,0.389c-0.204,0.168-0.36,0.373-0.468,0.616c-0.107,0.243-0.157,0.518-0.149,0.826
		c0.011,0.399,0.102,0.756,0.275,1.069c0.172,0.314,0.412,0.578,0.717,0.792c0.306,0.214,0.67,0.375,1.094,0.483
		C20.963,208.945,21.432,208.993,21.943,208.979z"/>
	<path fill="#FFFFFF" d="M25.912,213.444c-0.004,0.059-0.017,0.11-0.038,0.157c-0.021,0.047-0.051,0.089-0.09,0.126
		c-0.039,0.036-0.09,0.074-0.153,0.111l-5.316,3.209c0.14,0.004,0.274,0.013,0.403,0.025c0.128,0.012,0.248,0.023,0.361,0.032
		l4.952,0.456l0.046,1.728l-8.768-0.848l-0.027-1.02c-0.004-0.152,0.015-0.278,0.056-0.379c0.042-0.102,0.125-0.189,0.251-0.265
		l5.311-3.196c-0.112-0.006-0.22-0.012-0.324-0.019c-0.104-0.008-0.203-0.014-0.295-0.02l-5.114-0.464l-0.046-1.728l8.768,0.848
		l0.027,1.031C25.918,213.315,25.916,213.385,25.912,213.444z"/>
	<path fill="#FFFFFF" d="M26.334,225.8c0.01,0.388-0.036,0.738-0.138,1.051s-0.249,0.579-0.441,0.799
		c-0.192,0.219-0.422,0.389-0.691,0.51s-0.566,0.186-0.89,0.194c-0.359,0.01-0.69-0.034-0.991-0.133
		c-0.301-0.098-0.588-0.234-0.86-0.412c-0.273-0.177-0.537-0.387-0.791-0.63c-0.255-0.243-0.518-0.505-0.789-0.786l-1.858-1.932
		c0.07,0.223,0.125,0.44,0.167,0.656c0.042,0.215,0.065,0.413,0.07,0.598l0.046,1.739c0.005,0.181-0.038,0.319-0.127,0.418
		c-0.089,0.099-0.21,0.15-0.362,0.154c-0.008,0-0.021-0.001-0.039-0.002c-0.018-0.002-0.062-0.006-0.132-0.012
		c-0.07-0.007-0.179-0.017-0.328-0.03c-0.149-0.015-0.355-0.036-0.62-0.065l-0.162-6.105l0.578,0.057
		c0.108,0.009,0.228,0.044,0.359,0.104c0.131,0.061,0.253,0.151,0.364,0.272l2.631,2.787c0.259,0.273,0.5,0.505,0.72,0.695
		c0.222,0.189,0.436,0.344,0.643,0.46c0.207,0.116,0.413,0.199,0.616,0.248c0.203,0.049,0.417,0.069,0.64,0.063
		c0.292-0.008,0.521-0.092,0.684-0.252c0.164-0.161,0.242-0.396,0.233-0.709c-0.004-0.144-0.028-0.277-0.074-0.402
		s-0.106-0.238-0.184-0.341c-0.076-0.102-0.166-0.191-0.268-0.269c-0.102-0.078-0.212-0.141-0.329-0.19
		c-0.174-0.074-0.3-0.166-0.379-0.274c-0.079-0.107-0.12-0.243-0.125-0.407c-0.002-0.088,0.003-0.173,0.017-0.253l0.138-0.928
		c0.435,0.107,0.816,0.268,1.144,0.479c0.327,0.212,0.603,0.462,0.827,0.752c0.224,0.29,0.394,0.613,0.509,0.968
		C26.26,225.029,26.323,225.404,26.334,225.8z"/>
</g>
</svg>
