<?xml version="1.0" encoding="utf-8"?>
<!-- Generator: Adobe Illustrator 17.0.2, SVG Export Plug-In . SVG Version: 6.00 Build 0)  -->
<!DOCTYPE svg PUBLIC "-//W3C//DTD SVG 1.1//EN" "http://www.w3.org/Graphics/SVG/1.1/DTD/svg11.dtd">
<svg version="1.1" id="Layer_1" xmlns="http://www.w3.org/2000/svg" xmlns:xlink="http://www.w3.org/1999/xlink" x="0px" y="0px"
	 width="109.017px" height="311.088px" viewBox="0 0 109.017 311.088" enable-background="new 0 0 109.017 311.088"
	 xml:space="preserve">
<g>
	<path fill="#0E0E0E" d="M74.184,0.758v5.5c0,0,7.877,3.732,17.771,3.699l14.562-7.366h2v231l-57.698,76.962l-41.75-2.75
		L0.517,32.341L74.184,0.758z"/>
	<polygon fill="none" stroke="#FFFFFF" points="9.069,307.803 50.819,310.553 42.267,35.091 0.517,32.341 	"/>
	<polyline fill="none" stroke="#FFFFFF" points="74.184,6.258 74.184,0.758 0.517,32.341 	"/>
	<polyline fill="none" stroke="#FFFFFF" points="42.267,35.091 106.517,2.591 108.517,2.591 108.517,233.591 50.819,310.553 	"/>
	<polyline fill="none" stroke="#FFFFFF" points="42.267,35.091 106.517,2.591 108.517,2.591 108.517,233.591 50.819,310.553 	"/>
	<path fill="none" stroke="#FFFFFF" stroke-width="0.5" d="M11.517,32.341"/>
	<path fill="none" stroke="#FFFFFF" stroke-width="0.5" d="M12.324,33.119l61.86-26.861c0,0,9.21,3.815,17.771,3.699"/>
	<polygon fill="none" stroke="#FFFFFF" points="9.069,307.803 50.819,310.553 42.267,35.091 0.517,32.341 	"/>
	<polyline fill="none" stroke="#FFFFFF" points="74.184,6.258 74.184,0.758 0.517,32.341 	"/>
	<polyline fill="none" stroke="#FFFFFF" points="42.267,35.091 106.517,2.591 108.517,2.591 108.517,233.591 50.819,310.553 	"/>
	<path fill="none" stroke="#FFFFFF" stroke-width="0.5" d="M91.956,9.958c-8.562,0.116-17.771-3.699-17.771-3.699L12.325,33.12"/>
</g>
<g>
	<path fill="#FFFFFF" d="M20.396,84.936c-0.789,0.021-1.488-0.058-2.097-0.238c-0.609-0.179-1.124-0.445-1.544-0.794
		c-0.421-0.351-0.742-0.784-0.965-1.299c-0.223-0.515-0.343-1.098-0.36-1.748c-0.008-0.298,0.007-0.601,0.046-0.907
		c0.038-0.307,0.103-0.624,0.193-0.951c0.093,0.01,0.187,0.02,0.279,0.028c0.093,0.007,0.186,0.013,0.279,0.017
		c0.06,0.012,0.114,0.035,0.161,0.071c0.047,0.035,0.072,0.099,0.075,0.191c0.001,0.06-0.008,0.131-0.029,0.215
		c-0.021,0.083-0.043,0.184-0.067,0.301c-0.024,0.117-0.045,0.25-0.064,0.4c-0.02,0.149-0.026,0.324-0.021,0.523
		c0.014,0.504,0.105,0.955,0.275,1.356c0.17,0.4,0.423,0.738,0.759,1.015c0.335,0.276,0.755,0.483,1.26,0.619
		c0.504,0.136,1.095,0.195,1.771,0.177l9.401-0.25l0.027,1.024L20.396,84.936z"/>
	<path fill="#FFFFFF" d="M25.716,89.195l-6.327,0.168c-0.929,0.025-1.651,0.257-2.167,0.697c-0.516,0.44-0.763,1.095-0.739,1.967
		c0.017,0.645,0.197,1.243,0.541,1.794c0.343,0.551,0.812,1.041,1.408,1.47l7.441-0.198l0.025,0.945l-9.898,0.263l-0.014-0.521
		c-0.005-0.184,0.079-0.282,0.251-0.292l1.47-0.13c-0.583-0.442-1.055-0.96-1.415-1.552c-0.361-0.592-0.551-1.257-0.571-1.993
		c-0.015-0.552,0.059-1.035,0.221-1.452c0.161-0.417,0.4-0.764,0.718-1.045s0.704-0.498,1.157-0.649
		c0.455-0.152,0.97-0.235,1.547-0.25l6.327-0.168L25.716,89.195z"/>
	<path fill="#FFFFFF" d="M16.085,99.524l9.898-0.263l0.014,0.518c0.004,0.172-0.076,0.274-0.241,0.305l-1.49,0.129
		c0.582,0.435,1.055,0.948,1.42,1.54c0.364,0.591,0.556,1.256,0.576,1.991c0.015,0.544-0.059,1.025-0.221,1.444
		c-0.162,0.419-0.401,0.769-0.719,1.049c-0.318,0.28-0.703,0.497-1.157,0.648c-0.454,0.151-0.969,0.235-1.546,0.25l-6.327,0.168
		l-0.025-0.944l6.327-0.168c0.929-0.025,1.65-0.257,2.167-0.696c0.516-0.438,0.762-1.095,0.739-1.971
		c-0.017-0.649-0.201-1.249-0.55-1.797c-0.35-0.548-0.823-1.034-1.418-1.455l-7.421,0.197L16.085,99.524z"/>
	<path fill="#FFFFFF" d="M26.529,113.792c0.019,0.709-0.085,1.347-0.313,1.914c-0.227,0.567-0.558,1.049-0.991,1.446
		c-0.435,0.395-0.963,0.703-1.584,0.922c-0.621,0.22-1.32,0.339-2.096,0.359s-1.479-0.061-2.107-0.248
		c-0.629-0.186-1.17-0.465-1.625-0.836c-0.455-0.374-0.809-0.838-1.062-1.392s-0.39-1.186-0.409-1.895
		c-0.019-0.71,0.084-1.348,0.308-1.915s0.553-1.049,0.987-1.45c0.434-0.4,0.96-0.709,1.578-0.929
		c0.618-0.218,1.315-0.338,2.091-0.358s1.48,0.062,2.112,0.247c0.632,0.187,1.175,0.467,1.63,0.843
		c0.454,0.377,0.81,0.841,1.067,1.396C26.372,112.45,26.509,113.082,26.529,113.792z M17.088,114.042
		c0.016,0.591,0.13,1.103,0.344,1.539c0.214,0.435,0.514,0.795,0.9,1.081c0.386,0.285,0.848,0.494,1.386,0.625
		c0.537,0.131,1.138,0.188,1.801,0.171c0.657-0.018,1.251-0.106,1.785-0.266s0.986-0.393,1.36-0.698
		c0.374-0.306,0.657-0.682,0.851-1.128c0.194-0.447,0.283-0.964,0.268-1.555s-0.132-1.104-0.35-1.54s-0.52-0.795-0.909-1.08
		c-0.39-0.285-0.854-0.495-1.396-0.63c-0.542-0.134-1.14-0.194-1.796-0.176c-0.663,0.018-1.26,0.109-1.79,0.271
		c-0.53,0.164-0.98,0.398-1.35,0.703c-0.37,0.305-0.65,0.68-0.841,1.127C17.159,112.933,17.072,113.451,17.088,114.042z"/>
	<path fill="#FFFFFF" d="M25.466,126.272c-0.095-0.043-0.143-0.115-0.146-0.215c-0.002-0.073,0.037-0.169,0.117-0.287
		c0.079-0.118,0.168-0.273,0.266-0.464c0.097-0.192,0.184-0.427,0.26-0.705c0.076-0.278,0.108-0.615,0.098-1.013
		c-0.01-0.358-0.069-0.683-0.18-0.976c-0.11-0.292-0.254-0.54-0.432-0.745c-0.177-0.205-0.381-0.362-0.612-0.471
		c-0.231-0.11-0.473-0.163-0.725-0.156c-0.311,0.008-0.566,0.095-0.768,0.26c-0.201,0.165-0.371,0.378-0.509,0.641
		c-0.138,0.263-0.256,0.559-0.353,0.89s-0.194,0.67-0.291,1.018s-0.206,0.688-0.327,1.019c-0.121,0.333-0.273,0.629-0.459,0.893
		c-0.186,0.264-0.415,0.479-0.689,0.646s-0.611,0.256-1.008,0.266c-0.432,0.012-0.835-0.056-1.209-0.202
		c-0.376-0.146-0.704-0.363-0.983-0.651c-0.28-0.287-0.505-0.644-0.676-1.072c-0.17-0.426-0.263-0.916-0.278-1.466
		c-0.019-0.695,0.077-1.299,0.286-1.809c0.209-0.511,0.486-0.969,0.834-1.376l0.344,0.22c0.054,0.032,0.095,0.068,0.122,0.106
		c0.028,0.04,0.042,0.096,0.044,0.169c0.002,0.086-0.048,0.194-0.15,0.323c-0.103,0.128-0.213,0.296-0.331,0.501
		c-0.118,0.206-0.225,0.46-0.323,0.766c-0.099,0.305-0.142,0.678-0.129,1.123c0.011,0.418,0.078,0.784,0.203,1.1
		c0.125,0.315,0.289,0.577,0.494,0.783c0.205,0.208,0.443,0.362,0.714,0.464c0.271,0.103,0.557,0.149,0.855,0.142
		c0.332-0.009,0.604-0.096,0.819-0.261c0.215-0.164,0.395-0.378,0.541-0.641c0.146-0.263,0.267-0.56,0.364-0.891
		c0.097-0.331,0.194-0.672,0.292-1.023c0.097-0.35,0.204-0.691,0.321-1.023c0.117-0.333,0.269-0.629,0.454-0.894
		c0.186-0.264,0.413-0.479,0.685-0.646c0.271-0.167,0.612-0.255,1.023-0.267c0.352-0.009,0.692,0.058,1.021,0.203
		c0.329,0.144,0.62,0.353,0.873,0.628c0.252,0.276,0.458,0.613,0.614,1.015c0.157,0.401,0.242,0.852,0.255,1.357
		c0.016,0.604-0.057,1.142-0.22,1.613c-0.163,0.471-0.418,0.908-0.769,1.309L25.466,126.272z"/>
	<path fill="#FFFFFF" d="M31.32,142.741l-0.866,0.022l-0.131-4.944l-13.21,0.352l-0.027-1.015l13.21-0.352l-0.132-4.973l0.866-0.023
		L31.32,142.741z"/>
	<path fill="#FFFFFF" d="M17.253,143.483l9.898-0.263l0.013,0.497c0.003,0.113-0.018,0.194-0.063,0.246
		c-0.045,0.051-0.124,0.081-0.236,0.091l-2.087,0.135c0.811,0.297,1.451,0.704,1.919,1.224c0.469,0.518,0.713,1.165,0.734,1.941
		c0.008,0.298-0.016,0.574-0.072,0.828c-0.057,0.253-0.141,0.494-0.255,0.723l-0.66-0.111c-0.107-0.017-0.162-0.082-0.165-0.195
		c-0.001-0.04,0.011-0.096,0.035-0.17c0.025-0.074,0.052-0.165,0.083-0.275s0.057-0.246,0.079-0.406
		c0.022-0.158,0.031-0.342,0.025-0.547c-0.02-0.75-0.269-1.359-0.745-1.828c-0.477-0.467-1.157-0.839-2.041-1.114l-6.436,0.171
		L17.253,143.483z"/>
	<path fill="#FFFFFF" d="M27.393,152.343l-9.898,0.263l-0.025-0.945l9.898-0.263L27.393,152.343z M30.816,152.67
		c-0.119,0.003-0.231-0.019-0.335-0.065c-0.104-0.047-0.196-0.109-0.278-0.188c-0.082-0.077-0.147-0.169-0.196-0.273
		s-0.076-0.217-0.079-0.337c-0.003-0.119,0.017-0.232,0.061-0.34c0.044-0.107,0.104-0.202,0.182-0.284
		c0.078-0.081,0.167-0.146,0.268-0.195c0.102-0.05,0.212-0.075,0.332-0.078c0.12-0.003,0.234,0.016,0.345,0.06
		c0.111,0.043,0.207,0.104,0.289,0.182c0.082,0.078,0.147,0.169,0.196,0.274c0.049,0.104,0.076,0.217,0.079,0.336
		c0.003,0.12-0.018,0.232-0.061,0.341c-0.043,0.106-0.104,0.202-0.182,0.283c-0.077,0.082-0.17,0.148-0.278,0.201
		C31.049,152.639,30.936,152.667,30.816,152.67z"/>
	<path fill="#FFFFFF" d="M17.591,156.206l14.474-0.385l0.025,0.945l-6.307,0.178c0.595,0.422,1.07,0.917,1.423,1.485
		c0.354,0.567,0.541,1.213,0.56,1.936c0.032,1.214-0.362,2.172-1.183,2.875c-0.821,0.701-2.074,1.075-3.758,1.12
		c-0.723,0.019-1.4-0.058-2.032-0.23c-0.632-0.173-1.184-0.438-1.654-0.794c-0.471-0.355-0.846-0.799-1.125-1.325
		c-0.279-0.527-0.428-1.141-0.447-1.838c-0.019-0.691,0.1-1.288,0.355-1.794c0.255-0.505,0.64-0.944,1.155-1.316l-1.215-0.027
		c-0.167-0.015-0.252-0.102-0.256-0.259L17.591,156.206z M27.002,160.112c-0.018-0.657-0.203-1.249-0.555-1.77
		c-0.352-0.522-0.835-0.985-1.45-1.388l-5.222,0.139c-0.561,0.395-0.949,0.823-1.166,1.288c-0.217,0.464-0.317,0.994-0.301,1.593
		c0.016,0.584,0.135,1.093,0.359,1.525c0.223,0.433,0.533,0.792,0.929,1.077s0.866,0.496,1.411,0.631s1.142,0.194,1.792,0.178
		c1.472-0.04,2.547-0.341,3.227-0.904C26.703,161.918,27.029,161.129,27.002,160.112z"/>
	<path fill="#FFFFFF" d="M27.794,167.403l-6.327,0.168c-0.929,0.024-1.651,0.257-2.167,0.697c-0.516,0.439-0.763,1.096-0.74,1.967
		c0.018,0.646,0.197,1.243,0.541,1.794c0.343,0.551,0.812,1.04,1.408,1.471l7.441-0.197l0.025,0.945l-9.898,0.263l-0.014-0.521
		c-0.005-0.184,0.079-0.281,0.251-0.292l1.47-0.13c-0.582-0.443-1.054-0.96-1.415-1.552c-0.361-0.592-0.551-1.257-0.571-1.993
		c-0.015-0.552,0.059-1.035,0.22-1.452c0.162-0.416,0.4-0.765,0.718-1.046c0.318-0.281,0.704-0.497,1.158-0.648
		c0.454-0.151,0.97-0.235,1.546-0.25l6.327-0.168L27.794,167.403z"/>
	<path fill="#FFFFFF" d="M18.075,180.433c-0.018-0.67,0.154-1.195,0.516-1.576c0.361-0.382,0.93-0.582,1.706-0.603l6.765-0.18
		l-0.038-1.423c-0.002-0.073,0.016-0.133,0.055-0.181s0.094-0.072,0.167-0.074l0.368-0.01l0.164,1.688l3.548,0.141
		c0.06,0.006,0.114,0.028,0.161,0.07c0.047,0.041,0.072,0.098,0.074,0.17l0.012,0.443L27.793,179l0.083,3.114l-0.707,0.019
		l-0.083-3.114l-6.715,0.179c-0.272,0.007-0.504,0.049-0.698,0.123s-0.352,0.176-0.475,0.301c-0.124,0.127-0.212,0.273-0.268,0.441
		c-0.055,0.166-0.08,0.347-0.075,0.539c0.006,0.239,0.046,0.443,0.121,0.613c0.074,0.17,0.154,0.317,0.24,0.441
		c0.086,0.124,0.166,0.226,0.237,0.303c0.072,0.078,0.108,0.14,0.11,0.187c0.001,0.053-0.031,0.106-0.096,0.162l-0.411,0.27
		c-0.285-0.244-0.517-0.559-0.696-0.942C18.181,181.251,18.086,180.851,18.075,180.433z"/>
	<path fill="#FFFFFF" d="M28.508,188.289c0.015,0.558-0.067,1.075-0.247,1.555c-0.18,0.479-0.449,0.898-0.808,1.256
		c-0.358,0.358-0.804,0.643-1.336,0.853c-0.532,0.209-1.146,0.323-1.842,0.342c-0.146,0.004-0.246-0.016-0.3-0.058
		c-0.054-0.041-0.083-0.107-0.085-0.2l-0.19-7.143l-0.189,0.005c-0.743,0.02-1.394,0.123-1.953,0.311
		c-0.559,0.187-1.025,0.445-1.397,0.774c-0.374,0.328-0.65,0.72-0.83,1.176c-0.181,0.456-0.263,0.963-0.249,1.521
		c0.013,0.497,0.08,0.926,0.198,1.288c0.119,0.361,0.25,0.665,0.393,0.91c0.143,0.246,0.271,0.439,0.384,0.583
		c0.114,0.143,0.171,0.248,0.173,0.314c0.002,0.086-0.029,0.153-0.094,0.201l-0.312,0.266c-0.204-0.152-0.395-0.357-0.574-0.616
		c-0.18-0.257-0.334-0.545-0.466-0.863s-0.238-0.661-0.321-1.027c-0.083-0.365-0.129-0.734-0.139-1.105
		c-0.018-0.677,0.083-1.297,0.305-1.86c0.22-0.563,0.55-1.05,0.991-1.461c0.44-0.411,0.984-0.733,1.631-0.97
		c0.647-0.235,1.392-0.363,2.234-0.386c0.71-0.02,1.367,0.064,1.973,0.251c0.605,0.187,1.131,0.465,1.576,0.834
		c0.443,0.37,0.796,0.829,1.057,1.375C28.349,186.961,28.489,187.586,28.508,188.289z M27.801,188.322
		c-0.013-0.51-0.105-0.964-0.275-1.364s-0.408-0.742-0.714-1.029c-0.306-0.286-0.671-0.515-1.094-0.687
		c-0.422-0.172-0.894-0.279-1.412-0.325l0.173,6.516c0.53-0.014,1.004-0.099,1.421-0.257c0.417-0.156,0.769-0.371,1.053-0.644
		c0.285-0.273,0.5-0.597,0.646-0.972C27.746,189.186,27.814,188.773,27.801,188.322z"/>
	<path fill="#FFFFFF" d="M32.797,199.653c-0.022,0.054-0.072,0.111-0.15,0.173l-11.954,9.436c0.198-0.025,0.39-0.04,0.576-0.045
		l11.809-0.313l0.024,0.896l-14.077,0.374l-0.013-0.488c-0.004-0.152,0.059-0.277,0.189-0.374l11.973-9.476
		c-0.199,0.026-0.387,0.041-0.566,0.046l-11.848,0.314l-0.023-0.886l14.077-0.374l0.013,0.497
		C32.828,199.526,32.819,199.599,32.797,199.653z"/>
	<path fill="#FFFFFF" d="M19.291,220.19c-0.005-0.199,0.084-0.325,0.269-0.375l1.259-0.173c-0.273-0.266-0.519-0.528-0.738-0.793
		c-0.22-0.263-0.406-0.538-0.56-0.826c-0.154-0.288-0.273-0.6-0.358-0.937c-0.085-0.335-0.133-0.706-0.144-1.11
		c-0.009-0.338,0.032-0.668,0.124-0.989c0.09-0.321,0.236-0.607,0.435-0.856c0.199-0.251,0.458-0.456,0.775-0.613
		c0.318-0.158,0.702-0.243,1.153-0.255c0.418-0.012,0.809,0.099,1.173,0.327c0.365,0.229,0.686,0.595,0.965,1.095
		c0.278,0.499,0.508,1.147,0.688,1.942c0.181,0.795,0.299,1.752,0.355,2.873l1.035-0.027c0.915-0.024,1.614-0.241,2.099-0.648
		c0.483-0.407,0.715-1,0.694-1.776c-0.013-0.477-0.09-0.881-0.231-1.213c-0.142-0.331-0.295-0.611-0.459-0.839
		c-0.166-0.228-0.317-0.414-0.453-0.556c-0.137-0.143-0.207-0.264-0.209-0.362c-0.003-0.133,0.053-0.233,0.171-0.303l0.284-0.177
		c0.531,0.503,0.937,1.036,1.217,1.6c0.28,0.563,0.43,1.207,0.45,1.929c0.014,0.531-0.058,0.997-0.217,1.4
		c-0.159,0.401-0.392,0.738-0.7,1.01c-0.308,0.269-0.684,0.477-1.128,0.621c-0.444,0.145-0.942,0.225-1.492,0.239l-6.446,0.171
		L19.291,220.19z M19.712,216.198c0.01,0.384,0.061,0.735,0.153,1.055c0.091,0.319,0.216,0.615,0.372,0.887
		c0.157,0.271,0.341,0.523,0.553,0.757c0.212,0.233,0.439,0.463,0.685,0.688l2.577-0.068c-0.052-0.941-0.145-1.75-0.278-2.427
		s-0.307-1.233-0.518-1.668c-0.21-0.437-0.456-0.755-0.737-0.957c-0.28-0.201-0.597-0.297-0.948-0.287
		c-0.332,0.009-0.617,0.07-0.856,0.186c-0.239,0.116-0.434,0.266-0.585,0.448c-0.151,0.184-0.26,0.396-0.327,0.637
		C19.735,215.69,19.705,215.94,19.712,216.198z"/>
	<path fill="#FFFFFF" d="M19.292,226.252c-0.018-0.67,0.154-1.194,0.516-1.575c0.361-0.382,0.93-0.583,1.706-0.604l6.765-0.18
		l-0.038-1.423c-0.002-0.073,0.017-0.132,0.055-0.18c0.039-0.048,0.094-0.072,0.167-0.074l0.368-0.01l0.164,1.688l3.548,0.142
		c0.06,0.006,0.114,0.028,0.161,0.07c0.047,0.041,0.073,0.098,0.074,0.17l0.012,0.443l-3.78,0.101l0.083,3.113l-0.707,0.019
		l-0.083-3.113l-6.715,0.179c-0.272,0.007-0.504,0.049-0.699,0.123c-0.194,0.074-0.352,0.176-0.475,0.3
		c-0.123,0.127-0.212,0.273-0.268,0.441c-0.055,0.166-0.08,0.347-0.075,0.539c0.006,0.239,0.046,0.443,0.121,0.614
		c0.074,0.17,0.154,0.317,0.241,0.441c0.086,0.124,0.165,0.226,0.237,0.303c0.072,0.078,0.108,0.14,0.11,0.187
		c0.001,0.053-0.031,0.106-0.096,0.161l-0.411,0.27c-0.285-0.244-0.517-0.558-0.696-0.941
		C19.399,227.071,19.303,226.67,19.292,226.252z"/>
	<path fill="#FFFFFF" d="M29.499,231.607l-9.898,0.263l-0.025-0.945l9.898-0.263L29.499,231.607z M32.922,231.934
		c-0.119,0.003-0.231-0.019-0.335-0.065c-0.104-0.047-0.196-0.109-0.278-0.188c-0.082-0.077-0.147-0.169-0.196-0.273
		s-0.076-0.217-0.079-0.337c-0.003-0.119,0.017-0.232,0.061-0.34c0.044-0.107,0.104-0.201,0.182-0.283
		c0.078-0.081,0.167-0.146,0.268-0.195c0.102-0.05,0.212-0.075,0.332-0.078c0.12-0.003,0.234,0.016,0.345,0.06
		c0.111,0.043,0.207,0.104,0.289,0.182c0.082,0.078,0.147,0.168,0.196,0.273c0.049,0.104,0.076,0.217,0.079,0.336
		c0.003,0.12-0.018,0.232-0.061,0.341c-0.043,0.106-0.104,0.202-0.182,0.283c-0.077,0.082-0.17,0.148-0.278,0.201
		C33.155,231.902,33.042,231.931,32.922,231.934z"/>
	<path fill="#FFFFFF" d="M29.852,238.874c0.019,0.709-0.085,1.348-0.312,1.914c-0.228,0.567-0.558,1.048-0.992,1.445
		c-0.435,0.396-0.962,0.704-1.583,0.923c-0.622,0.22-1.32,0.339-2.096,0.359s-1.479-0.062-2.107-0.248
		c-0.629-0.186-1.17-0.465-1.625-0.837c-0.455-0.374-0.809-0.837-1.062-1.391c-0.254-0.555-0.39-1.187-0.409-1.896
		c-0.019-0.71,0.084-1.348,0.308-1.914c0.224-0.568,0.553-1.05,0.987-1.45c0.434-0.399,0.96-0.709,1.578-0.929
		c0.618-0.219,1.315-0.338,2.091-0.358s1.48,0.062,2.112,0.247c0.632,0.187,1.175,0.467,1.63,0.843
		c0.454,0.377,0.81,0.841,1.067,1.396C29.695,237.533,29.833,238.164,29.852,238.874z M20.411,239.125
		c0.016,0.59,0.13,1.103,0.344,1.539c0.214,0.435,0.514,0.795,0.9,1.081c0.386,0.284,0.848,0.492,1.386,0.624
		c0.537,0.132,1.138,0.189,1.801,0.172c0.657-0.018,1.251-0.106,1.785-0.268c0.534-0.159,0.986-0.393,1.36-0.696
		c0.374-0.306,0.657-0.682,0.851-1.128c0.194-0.447,0.283-0.965,0.268-1.555c-0.016-0.591-0.132-1.104-0.35-1.54
		s-0.52-0.796-0.909-1.081c-0.39-0.284-0.854-0.494-1.396-0.63c-0.542-0.134-1.14-0.193-1.796-0.176
		c-0.663,0.018-1.26,0.108-1.79,0.271c-0.53,0.164-0.98,0.398-1.35,0.702c-0.37,0.305-0.65,0.681-0.841,1.128
		C20.483,238.016,20.395,238.534,20.411,239.125z"/>
	<path fill="#FFFFFF" d="M19.98,246.134l9.898-0.263l0.014,0.518c0.004,0.172-0.076,0.273-0.241,0.304l-1.49,0.13
		c0.582,0.436,1.055,0.948,1.419,1.539c0.364,0.592,0.557,1.256,0.576,1.991c0.014,0.544-0.06,1.026-0.221,1.444
		c-0.162,0.42-0.401,0.77-0.719,1.05c-0.318,0.279-0.703,0.496-1.158,0.648c-0.454,0.15-0.969,0.234-1.546,0.25l-6.327,0.168
		l-0.025-0.944l6.327-0.168c0.929-0.024,1.651-0.257,2.167-0.696c0.516-0.438,0.762-1.095,0.739-1.971
		c-0.018-0.649-0.201-1.249-0.551-1.797s-0.822-1.033-1.417-1.455l-7.421,0.197L19.98,246.134z"/>
</g>
</svg>
