<?xml version="1.0" encoding="utf-8"?>
<!-- Generator: Adobe Illustrator 17.0.2, SVG Export Plug-In . SVG Version: 6.00 Build 0)  -->
<!DOCTYPE svg PUBLIC "-//W3C//DTD SVG 1.1//EN" "http://www.w3.org/Graphics/SVG/1.1/DTD/svg11.dtd">
<svg version="1.1" id="Layer_1" xmlns="http://www.w3.org/2000/svg" xmlns:xlink="http://www.w3.org/1999/xlink" x="0px" y="0px"
	 width="76.51px" height="239.884px" viewBox="0 0 76.51 239.884" enable-background="new 0 0 76.51 239.884" xml:space="preserve">
<g>
	<path fill="#0E0E0E" d="M52.057,0.58v4.242c0,0,5.525,2.878,12.467,2.853l10.215-5.681h1.404v178.142l-40.477,59.352l-29.289-2.123
		L0.379,24.936L52.057,0.58z"/>
	<polygon fill="none" stroke="#FFFFFF" stroke-width="0.7355" points="6.378,237.364 35.667,239.487 29.667,27.057 0.379,24.936 	
		"/>
	<polyline fill="none" stroke="#FFFFFF" stroke-width="0.7355" points="52.057,4.822 52.057,0.58 0.379,24.936 	"/>
	<polyline fill="none" stroke="#FFFFFF" stroke-width="0.7355" points="29.667,27.057 74.739,1.994 76.143,1.994 76.143,180.136 
		35.667,239.487 	"/>
	<polyline fill="none" stroke="#FFFFFF" stroke-width="0.7355" points="29.667,27.057 74.739,1.994 76.143,1.994 76.143,180.136 
		35.667,239.487 	"/>
	<path fill="none" stroke="#FFFFFF" stroke-width="0.3678" d="M8.096,24.936"/>
	<path fill="none" stroke="#FFFFFF" stroke-width="0.3678" d="M8.661,25.536L52.057,4.822c0,0,6.461,2.942,12.467,2.853"/>
	<polygon fill="none" stroke="#FFFFFF" stroke-width="0.7355" points="6.378,237.364 35.667,239.487 29.667,27.057 0.379,24.936 	
		"/>
	<polyline fill="none" stroke="#FFFFFF" stroke-width="0.7355" points="52.057,4.822 52.057,0.58 0.379,24.936 	"/>
	<polyline fill="none" stroke="#FFFFFF" stroke-width="0.7355" points="29.667,27.057 74.739,1.994 76.143,1.994 76.143,180.136 
		35.667,239.487 	"/>
	<path fill="none" stroke="#FFFFFF" stroke-width="0.3678" d="M64.524,7.674c-6.006,0.09-12.467-2.853-12.467-2.853L8.661,25.536"/>
</g>
<g>
	<path fill="#FFFFFF" d="M19.845,48.616c-0.083-0.042-0.125-0.102-0.126-0.184c-0.001-0.062,0.041-0.144,0.128-0.243
		c0.086-0.101,0.181-0.236,0.285-0.405c0.104-0.17,0.199-0.382,0.284-0.636s0.125-0.565,0.117-0.933
		c-0.008-0.369-0.067-0.693-0.178-0.972c-0.111-0.278-0.259-0.51-0.444-0.696c-0.186-0.186-0.399-0.326-0.64-0.418
		c-0.242-0.094-0.494-0.137-0.757-0.132c-0.344,0.007-0.627,0.085-0.848,0.236c-0.222,0.151-0.409,0.347-0.562,0.59
		s-0.28,0.517-0.381,0.824c-0.102,0.306-0.202,0.621-0.3,0.942c-0.098,0.324-0.208,0.639-0.328,0.945
		c-0.121,0.306-0.274,0.581-0.46,0.825c-0.186,0.243-0.417,0.44-0.694,0.593c-0.276,0.151-0.623,0.231-1.039,0.24
		c-0.426,0.009-0.827-0.056-1.206-0.194s-0.709-0.343-0.992-0.615c-0.283-0.271-0.509-0.606-0.677-1.005
		c-0.168-0.398-0.258-0.854-0.269-1.371c-0.014-0.669,0.092-1.248,0.319-1.735c0.227-0.488,0.542-0.918,0.945-1.29l0.319,0.194
		c0.073,0.056,0.111,0.123,0.112,0.199c0.001,0.043-0.027,0.099-0.083,0.167c-0.056,0.068-0.125,0.151-0.207,0.249
		c-0.082,0.097-0.17,0.214-0.265,0.35c-0.096,0.136-0.183,0.294-0.263,0.473c-0.08,0.178-0.146,0.384-0.199,0.615
		c-0.053,0.231-0.076,0.493-0.07,0.785c0.008,0.402,0.077,0.759,0.206,1.072c0.128,0.313,0.3,0.577,0.515,0.791
		c0.214,0.214,0.468,0.375,0.759,0.484c0.292,0.108,0.602,0.159,0.932,0.153c0.359-0.008,0.652-0.087,0.881-0.237
		c0.229-0.151,0.418-0.348,0.569-0.59c0.15-0.243,0.275-0.517,0.374-0.824c0.099-0.306,0.195-0.62,0.289-0.942
		c0.094-0.323,0.199-0.638,0.318-0.944c0.118-0.306,0.271-0.581,0.46-0.825c0.188-0.243,0.426-0.441,0.712-0.593
		c0.286-0.151,0.646-0.232,1.082-0.241c0.339-0.007,0.668,0.051,0.986,0.174c0.318,0.123,0.6,0.306,0.847,0.55
		c0.246,0.244,0.446,0.547,0.6,0.911c0.153,0.363,0.235,0.779,0.245,1.249c0.011,0.525-0.063,1-0.222,1.422s-0.407,0.81-0.744,1.162
		L19.845,48.616z"/>
	<path fill="#FFFFFF" d="M16.248,60.324c-0.784,0.016-1.497-0.085-2.14-0.306c-0.643-0.221-1.194-0.54-1.655-0.957
		c-0.46-0.417-0.82-0.918-1.078-1.506s-0.395-1.242-0.41-1.963c-0.015-0.713,0.095-1.368,0.329-1.966s0.572-1.115,1.015-1.549
		c0.443-0.435,0.981-0.777,1.614-1.026c0.633-0.25,1.342-0.383,2.125-0.399c0.779-0.016,1.491,0.087,2.133,0.312
		c0.643,0.222,1.195,0.542,1.655,0.958c0.46,0.416,0.821,0.918,1.082,1.506c0.261,0.587,0.398,1.237,0.413,1.95
		c0.015,0.721-0.095,1.38-0.329,1.978c-0.234,0.598-0.574,1.114-1.019,1.549c-0.446,0.435-0.985,0.776-1.618,1.024
		C17.734,60.177,17.027,60.308,16.248,60.324z M16.233,59.566c0.708-0.015,1.341-0.125,1.901-0.333
		c0.56-0.208,1.032-0.494,1.417-0.857c0.385-0.365,0.676-0.8,0.873-1.306c0.198-0.506,0.29-1.066,0.277-1.677
		c-0.012-0.603-0.127-1.151-0.346-1.646c-0.218-0.496-0.527-0.919-0.926-1.272c-0.399-0.353-0.883-0.623-1.451-0.81
		c-0.568-0.187-1.206-0.273-1.914-0.258c-0.712,0.015-1.347,0.127-1.904,0.337c-0.558,0.21-1.028,0.5-1.413,0.869
		c-0.385,0.369-0.675,0.805-0.87,1.31c-0.195,0.504-0.287,1.057-0.274,1.66c0.013,0.61,0.127,1.166,0.343,1.664
		c0.216,0.498,0.523,0.92,0.923,1.269c0.399,0.347,0.882,0.614,1.447,0.798C14.882,59.496,15.521,59.58,16.233,59.566z"/>
	<path fill="#FFFFFF" d="M13.849,67.826c0.077,0.028,0.153,0.056,0.228,0.085s0.146,0.063,0.214,0.1l7.13,3.841
		c0.063,0.037,0.102,0.074,0.117,0.112c0.015,0.038,0.023,0.09,0.024,0.157l0.011,0.509l-10.146,0.21l-0.013-0.646l8.647-0.179
		c0.125-0.002,0.256,0.002,0.395,0.014l-7.173-3.847c-0.126-0.065-0.19-0.159-0.192-0.283l-0.002-0.114
		c-0.002-0.12,0.058-0.217,0.181-0.291l7.014-4.247c-0.139,0.017-0.272,0.027-0.401,0.03l-8.647,0.178l-0.013-0.639l10.146-0.209
		l0.01,0.502c0.001,0.067-0.005,0.121-0.018,0.162c-0.014,0.041-0.051,0.081-0.112,0.121l-6.971,4.239
		C14.144,67.706,14.001,67.771,13.849,67.826z"/>
	<path fill="#FFFFFF" d="M21.761,81.721l-0.61,0.013l-0.11-5.342l-4.101,0.085l0.092,4.445l-0.595,0.012l-0.092-4.445l-4.23,0.088
		l0.11,5.342l-0.609,0.013l-0.125-6.08l10.146-0.21L21.761,81.721z"/>
	<path fill="#FFFFFF" d="M11.879,94.729l-0.012-0.566c-0.001-0.067,0.016-0.123,0.051-0.167c0.035-0.043,0.081-0.078,0.138-0.104
		l2.922-1.258l-0.103-4.982l-2.971-1.13c-0.053-0.018-0.099-0.05-0.139-0.098c-0.039-0.047-0.06-0.104-0.061-0.17l-0.011-0.56
		l10.231,3.941l0.015,0.731L11.879,94.729z M15.425,87.863l0.094,4.546l5.083-2.179c0.081-0.034,0.172-0.07,0.274-0.105
		c0.102-0.036,0.21-0.071,0.324-0.107c-0.116-0.031-0.225-0.062-0.329-0.093c-0.103-0.032-0.198-0.063-0.285-0.095L15.425,87.863z"
		/>
	<path fill="#FFFFFF" d="M20.926,101.062c-0.083-0.041-0.125-0.102-0.126-0.184c-0.001-0.062,0.041-0.144,0.128-0.243
		c0.086-0.101,0.181-0.236,0.285-0.405c0.104-0.17,0.199-0.382,0.284-0.636s0.125-0.565,0.117-0.935
		c-0.008-0.369-0.067-0.693-0.178-0.972s-0.259-0.511-0.444-0.696c-0.186-0.185-0.399-0.325-0.64-0.417
		c-0.242-0.094-0.494-0.138-0.757-0.133c-0.344,0.008-0.627,0.086-0.848,0.236c-0.222,0.151-0.409,0.347-0.562,0.59
		c-0.153,0.242-0.28,0.517-0.381,0.823c-0.102,0.306-0.202,0.62-0.3,0.943c-0.098,0.323-0.208,0.638-0.328,0.944
		c-0.121,0.307-0.274,0.581-0.46,0.825c-0.186,0.243-0.417,0.44-0.693,0.593c-0.277,0.151-0.624,0.23-1.039,0.239
		c-0.426,0.009-0.827-0.056-1.205-0.193c-0.379-0.138-0.709-0.343-0.992-0.614c-0.283-0.271-0.509-0.605-0.677-1.005
		c-0.168-0.398-0.258-0.855-0.268-1.372c-0.014-0.669,0.092-1.248,0.319-1.734c0.227-0.488,0.542-0.917,0.945-1.289l0.319,0.193
		c0.073,0.057,0.111,0.123,0.112,0.199c0.001,0.043-0.027,0.1-0.083,0.167c-0.056,0.068-0.125,0.151-0.207,0.248
		c-0.082,0.098-0.17,0.215-0.265,0.351c-0.096,0.136-0.183,0.294-0.263,0.473c-0.08,0.178-0.146,0.383-0.199,0.613
		c-0.053,0.232-0.076,0.493-0.07,0.785c0.008,0.402,0.077,0.76,0.206,1.073c0.128,0.313,0.3,0.577,0.515,0.791
		c0.214,0.213,0.468,0.374,0.759,0.483c0.292,0.108,0.602,0.159,0.932,0.152c0.359-0.007,0.652-0.087,0.881-0.236
		c0.229-0.151,0.418-0.348,0.569-0.591c0.15-0.242,0.275-0.517,0.374-0.823c0.099-0.306,0.195-0.62,0.289-0.942
		c0.094-0.324,0.2-0.639,0.318-0.945c0.118-0.306,0.271-0.58,0.46-0.824c0.188-0.243,0.426-0.44,0.712-0.593
		c0.286-0.151,0.646-0.232,1.082-0.241c0.339-0.007,0.668,0.051,0.986,0.174c0.318,0.123,0.6,0.307,0.847,0.551
		c0.246,0.244,0.446,0.547,0.6,0.909c0.153,0.363,0.235,0.779,0.245,1.249c0.011,0.526-0.063,1.001-0.222,1.423
		c-0.159,0.423-0.407,0.81-0.744,1.161L20.926,101.062z"/>
	<path fill="#FFFFFF" d="M21.081,108.553c-0.083-0.041-0.124-0.102-0.126-0.184c-0.001-0.062,0.041-0.144,0.128-0.243
		c0.086-0.101,0.181-0.236,0.285-0.405c0.104-0.17,0.199-0.382,0.285-0.636c0.085-0.254,0.125-0.565,0.117-0.935
		c-0.007-0.368-0.067-0.692-0.178-0.971s-0.259-0.511-0.444-0.696c-0.186-0.186-0.399-0.326-0.64-0.419
		c-0.241-0.093-0.493-0.137-0.756-0.132c-0.344,0.008-0.627,0.086-0.848,0.236c-0.222,0.151-0.409,0.348-0.562,0.591
		c-0.152,0.242-0.28,0.517-0.381,0.823c-0.102,0.306-0.202,0.619-0.3,0.942c-0.098,0.323-0.208,0.638-0.328,0.944
		c-0.121,0.307-0.274,0.581-0.46,0.825c-0.186,0.243-0.417,0.44-0.693,0.593c-0.277,0.151-0.624,0.231-1.039,0.24
		c-0.426,0.009-0.827-0.057-1.205-0.194c-0.378-0.138-0.709-0.343-0.992-0.614s-0.509-0.605-0.677-1.005
		c-0.168-0.398-0.257-0.855-0.268-1.371c-0.014-0.669,0.092-1.248,0.319-1.735c0.227-0.488,0.542-0.917,0.945-1.289l0.32,0.193
		c0.073,0.057,0.11,0.123,0.112,0.199c0.001,0.043-0.027,0.1-0.083,0.167c-0.056,0.068-0.125,0.151-0.206,0.248
		c-0.082,0.098-0.17,0.215-0.266,0.351c-0.095,0.136-0.183,0.294-0.263,0.473c-0.081,0.179-0.146,0.384-0.199,0.614
		c-0.053,0.232-0.077,0.493-0.07,0.785c0.008,0.401,0.077,0.759,0.205,1.072c0.129,0.313,0.3,0.577,0.515,0.791
		c0.214,0.213,0.468,0.374,0.759,0.483c0.292,0.108,0.602,0.159,0.932,0.152c0.359-0.007,0.652-0.087,0.881-0.236
		c0.229-0.151,0.418-0.348,0.569-0.591c0.15-0.242,0.274-0.517,0.373-0.823c0.099-0.306,0.195-0.619,0.29-0.941
		c0.093-0.324,0.199-0.639,0.317-0.945c0.118-0.306,0.271-0.581,0.46-0.825c0.188-0.243,0.425-0.44,0.712-0.593
		c0.286-0.151,0.646-0.232,1.082-0.241c0.339-0.007,0.668,0.051,0.986,0.174c0.318,0.123,0.601,0.307,0.847,0.551
		c0.247,0.244,0.447,0.548,0.6,0.91c0.153,0.363,0.235,0.779,0.245,1.248c0.011,0.526-0.063,1.001-0.222,1.423
		c-0.159,0.423-0.407,0.81-0.744,1.161L21.081,108.553z"/>
	<path fill="#FFFFFF" d="M22.492,117.189l-0.61,0.013l-0.11-5.342l-4.101,0.085l0.092,4.445l-0.595,0.012l-0.092-4.445l-4.23,0.088
		l0.11,5.342l-0.609,0.013l-0.125-6.08l10.146-0.21L22.492,117.189z"/>
	<path fill="#FFFFFF" d="M15.025,124.802c0.077,0.028,0.152,0.056,0.228,0.085c0.075,0.03,0.146,0.063,0.214,0.101l7.13,3.842
		c0.063,0.037,0.102,0.074,0.117,0.112c0.015,0.037,0.023,0.09,0.025,0.156l0.01,0.509l-10.146,0.21l-0.013-0.645l8.647-0.179
		c0.125-0.003,0.256,0.003,0.395,0.014l-7.173-3.849c-0.126-0.064-0.19-0.159-0.192-0.283l-0.002-0.114
		c-0.002-0.12,0.058-0.216,0.181-0.29l7.014-4.248c-0.139,0.017-0.272,0.027-0.401,0.03l-8.647,0.179l-0.013-0.638l10.146-0.21
		l0.01,0.501c0.001,0.067-0.005,0.121-0.018,0.162c-0.014,0.041-0.051,0.081-0.112,0.121l-6.971,4.239
		C15.318,124.682,15.176,124.748,15.025,124.802z"/>
	<path fill="#FFFFFF" d="M12.665,132.829l10.146-0.21l0.06,2.918c0.012,0.578-0.036,1.081-0.142,1.506
		c-0.106,0.426-0.267,0.779-0.483,1.062c-0.217,0.28-0.483,0.493-0.801,0.636c-0.318,0.144-0.68,0.219-1.086,0.228
		c-0.268,0.005-0.527-0.036-0.777-0.125c-0.25-0.088-0.482-0.218-0.697-0.391c-0.214-0.172-0.401-0.384-0.562-0.637
		c-0.161-0.252-0.285-0.543-0.373-0.871c-0.103,0.801-0.355,1.42-0.757,1.859c-0.403,0.438-0.941,0.664-1.615,0.678
		c-0.43,0.009-0.819-0.06-1.167-0.206c-0.347-0.145-0.644-0.361-0.888-0.647c-0.245-0.286-0.435-0.641-0.571-1.063
		c-0.135-0.424-0.209-0.904-0.22-1.444L12.665,132.829z M17.541,133.46l-4.273,0.088l0.053,2.545
		c0.019,0.894,0.225,1.564,0.619,2.011c0.394,0.445,0.94,0.66,1.638,0.646c0.32-0.007,0.607-0.073,0.86-0.201
		c0.253-0.127,0.467-0.307,0.642-0.539c0.175-0.233,0.306-0.518,0.395-0.854s0.129-0.718,0.12-1.144L17.541,133.46z M18.079,133.449
		l0.045,2.201c0.01,0.468,0.078,0.866,0.204,1.197c0.126,0.329,0.29,0.599,0.491,0.808c0.2,0.208,0.425,0.36,0.676,0.456
		c0.25,0.094,0.507,0.14,0.771,0.134c0.684-0.014,1.197-0.241,1.539-0.681c0.342-0.44,0.504-1.111,0.485-2.015l-0.045-2.187
		L18.079,133.449z"/>
	<path fill="#FFFFFF" d="M13.494,142.738l0.099,4.811l-0.624,0.014l-0.114-5.542L23,141.81l0.015,0.731L13.494,142.738z"/>
	<path fill="#FFFFFF" d="M17.23,151.032l-4.188,0.087l-0.015-0.739l4.188-0.087l5.88-3.872l0.013,0.638
		c0.001,0.067-0.013,0.122-0.043,0.162c-0.03,0.042-0.073,0.082-0.13,0.122l-4.6,3c-0.108,0.068-0.214,0.128-0.315,0.178
		c-0.102,0.05-0.205,0.096-0.309,0.136c0.105,0.036,0.21,0.076,0.314,0.122c0.104,0.046,0.211,0.102,0.322,0.166l4.72,2.8
		c0.053,0.027,0.097,0.062,0.131,0.104c0.034,0.043,0.052,0.098,0.054,0.164l0.013,0.646L17.23,151.032z"/>
	<path fill="#FFFFFF" d="M17.819,160.171l-4.588,0.095l-0.015-0.731l10.146-0.21l0.054,2.588c0.024,1.172-0.184,2.052-0.624,2.64
		c-0.44,0.587-1.097,0.891-1.972,0.909c-0.387,0.008-0.742-0.053-1.064-0.18c-0.324-0.127-0.608-0.313-0.855-0.56
		s-0.451-0.545-0.614-0.896c-0.163-0.35-0.273-0.747-0.329-1.19c-0.07,0.115-0.163,0.22-0.28,0.313l-4.316,3.582l-0.013-0.637
		c-0.001-0.076,0.011-0.144,0.039-0.198c0.027-0.056,0.074-0.11,0.14-0.164l4.049-3.334c0.103-0.083,0.176-0.172,0.217-0.267
		c0.041-0.094,0.059-0.238,0.055-0.435L17.819,160.171z M18.364,160.16l0.037,1.764c0.009,0.449,0.071,0.851,0.186,1.205
		c0.115,0.354,0.275,0.651,0.481,0.894c0.206,0.243,0.451,0.426,0.736,0.549c0.284,0.123,0.603,0.181,0.957,0.174
		c0.722-0.016,1.252-0.263,1.592-0.743c0.338-0.48,0.499-1.172,0.48-2.076l-0.039-1.856L18.364,160.16z"/>
	<path fill="#FFFFFF" d="M23.669,174.238l-0.61,0.013l-0.11-5.342l-4.101,0.085l0.091,4.445l-0.595,0.012l-0.091-4.445l-4.23,0.088
		l0.11,5.342l-0.609,0.013l-0.125-6.08l10.146-0.21L23.669,174.238z"/>
	<path fill="#FFFFFF" d="M18.836,185.785c-0.512,0.011-0.994-0.03-1.448-0.123c-0.454-0.095-0.873-0.232-1.257-0.416
		c-0.383-0.184-0.729-0.41-1.036-0.678c-0.307-0.269-0.571-0.572-0.793-0.912l-2.771,2.696l-0.013-0.616
		c-0.002-0.096,0.009-0.182,0.034-0.26c0.024-0.077,0.07-0.145,0.136-0.203l2.292-2.213c-0.13-0.299-0.233-0.615-0.307-0.948
		c-0.073-0.333-0.114-0.687-0.122-1.059c-0.015-0.713,0.095-1.367,0.329-1.965c0.233-0.598,0.572-1.115,1.015-1.549
		c0.443-0.436,0.981-0.777,1.614-1.027s1.342-0.383,2.125-0.399c0.779-0.016,1.491,0.088,2.133,0.312
		c0.643,0.224,1.195,0.543,1.655,0.96c0.46,0.415,0.821,0.918,1.082,1.506c0.261,0.588,0.398,1.236,0.413,1.949
		c0.015,0.722-0.095,1.382-0.329,1.979s-0.573,1.113-1.018,1.548c-0.446,0.435-0.985,0.776-1.618,1.023
		C20.321,185.637,19.615,185.769,18.836,185.785z M18.819,185.025c0.708-0.015,1.341-0.125,1.901-0.333s1.032-0.493,1.417-0.856
		c0.385-0.364,0.676-0.8,0.873-1.306c0.198-0.507,0.29-1.066,0.277-1.678c-0.012-0.603-0.127-1.151-0.346-1.646
		c-0.218-0.496-0.526-0.919-0.926-1.272c-0.399-0.353-0.883-0.623-1.452-0.81c-0.568-0.187-1.206-0.273-1.913-0.259
		c-0.712,0.015-1.347,0.128-1.905,0.338c-0.557,0.21-1.028,0.5-1.413,0.868c-0.385,0.369-0.675,0.806-0.87,1.31
		c-0.195,0.503-0.286,1.056-0.274,1.658c0.013,0.611,0.127,1.167,0.343,1.665c0.216,0.497,0.523,0.92,0.923,1.269
		c0.399,0.348,0.882,0.613,1.447,0.798C17.469,184.956,18.108,185.04,18.819,185.025z"/>
	<path fill="#FFFFFF" d="M14.409,192.016c0.01,0.488,0.104,0.923,0.282,1.304c0.177,0.381,0.419,0.702,0.726,0.963
		c0.307,0.262,0.666,0.459,1.077,0.592c0.412,0.132,0.854,0.194,1.328,0.185l6.273-0.13l0.015,0.731l-6.273,0.13
		c-0.56,0.012-1.084-0.066-1.572-0.233c-0.489-0.167-0.917-0.413-1.285-0.737c-0.368-0.325-0.659-0.724-0.875-1.194
		c-0.215-0.471-0.329-1.003-0.341-1.596s0.079-1.13,0.275-1.609c0.196-0.48,0.471-0.89,0.825-1.229
		c0.354-0.339,0.772-0.603,1.253-0.789c0.481-0.187,1.002-0.285,1.562-0.297l6.273-0.13l0.015,0.738l-6.267,0.13
		c-0.473,0.01-0.913,0.088-1.318,0.238c-0.405,0.148-0.756,0.359-1.052,0.631c-0.295,0.271-0.526,0.601-0.689,0.99
		C14.476,191.091,14.399,191.528,14.409,192.016z"/>
	<path fill="#FFFFFF" d="M14.046,199.799l-0.015-0.738l10.146-0.21l0.015,0.738L14.046,199.799z"/>
	<path fill="#FFFFFF" d="M18.722,203.934l-4.588,0.095l-0.015-0.731l10.146-0.21l0.053,2.589c0.024,1.172-0.184,2.051-0.624,2.639
		c-0.44,0.587-1.097,0.891-1.972,0.909c-0.387,0.008-0.742-0.053-1.065-0.18c-0.324-0.127-0.608-0.313-0.854-0.56
		c-0.247-0.246-0.452-0.545-0.614-0.896c-0.163-0.349-0.272-0.746-0.329-1.189c-0.069,0.115-0.163,0.22-0.28,0.313l-4.316,3.582
		l-0.013-0.638c-0.001-0.076,0.011-0.144,0.039-0.198c0.028-0.056,0.074-0.11,0.14-0.164l4.049-3.333
		c0.104-0.083,0.176-0.172,0.217-0.267c0.041-0.094,0.059-0.238,0.055-0.435L18.722,203.934z M19.267,203.922l0.036,1.765
		c0.009,0.449,0.071,0.851,0.186,1.205c0.115,0.353,0.275,0.65,0.481,0.893c0.207,0.243,0.452,0.426,0.736,0.549
		s0.603,0.181,0.957,0.174c0.722-0.016,1.252-0.263,1.592-0.743c0.338-0.48,0.499-1.171,0.48-2.075l-0.038-1.857L19.267,203.922z"/>
	<path fill="#FFFFFF" d="M24.571,218.001l-0.61,0.013l-0.11-5.342l-4.101,0.085l0.092,4.445l-0.595,0.012l-0.092-4.445l-4.23,0.088
		l0.11,5.342l-0.609,0.013l-0.125-6.08l10.146-0.21L24.571,218.001z"/>
	<path fill="#FFFFFF" d="M19.727,229.04c-0.784,0.017-1.491-0.086-2.122-0.308c-0.631-0.222-1.171-0.54-1.62-0.956
		c-0.448-0.417-0.796-0.919-1.042-1.507c-0.247-0.587-0.377-1.242-0.392-1.964l-0.076-3.699l10.146-0.21l0.076,3.699
		c0.015,0.722-0.089,1.383-0.311,1.979c-0.222,0.598-0.548,1.113-0.979,1.548c-0.431,0.434-0.957,0.775-1.579,1.022
		C21.207,228.892,20.506,229.024,19.727,229.04z M19.712,228.28c0.708-0.015,1.337-0.126,1.887-0.333
		c0.551-0.207,1.014-0.493,1.389-0.857c0.375-0.363,0.658-0.8,0.848-1.306c0.19-0.505,0.279-1.063,0.267-1.676l-0.061-2.962
		l-8.955,0.185l0.061,2.962c0.013,0.612,0.125,1.167,0.336,1.664c0.211,0.497,0.511,0.921,0.901,1.269
		c0.39,0.349,0.863,0.615,1.422,0.8S19,228.295,19.712,228.28z"/>
</g>
</svg>
