<?xml version="1.0" encoding="utf-8"?>
<!-- Generator: Adobe Illustrator 17.0.2, SVG Export Plug-In . SVG Version: 6.00 Build 0)  -->
<!DOCTYPE svg PUBLIC "-//W3C//DTD SVG 1.1//EN" "http://www.w3.org/Graphics/SVG/1.1/DTD/svg11.dtd">
<svg version="1.1" id="Layer_1" xmlns="http://www.w3.org/2000/svg" xmlns:xlink="http://www.w3.org/1999/xlink" x="0px" y="0px"
	 width="126.668px" height="219.385px" viewBox="0 0 126.668 219.385" enable-background="new 0 0 126.668 219.385"
	 xml:space="preserve">
<polygon points="0.661,7.615 84.036,0.615 124.786,22.865 124.237,25.865 126.064,28.07 126.066,207.034 106.441,208.786 
	106.441,209.567 93.467,211.403 93.382,212.655 77.96,215.184 78.414,213.239 62.994,215.239 60.395,214.491 60.395,215.491 
	44.975,217.491 44.911,215.981 29.536,219.157 19.161,191.366 "/>
<polygon fill="none" stroke="#FFFFFF" points="30.41,218.491 43.911,216.491 37.161,36.741 23.661,38.741 "/>
<polygon fill="none" stroke="#FFFFFF" stroke-width="1.0687" points="44.975,217.491 60.395,215.491 52.685,35.741 37.265,37.741 
	"/>
<polygon fill="none" stroke="#FFFFFF" stroke-width="1.0687" points="77.96,215.184 93.404,213.379 87.958,33.546 72.514,35.352 "/>
<polygon fill="none" stroke="#FFFFFF" stroke-width="0.9794" points="93.467,211.403 106.441,209.567 102.229,29.75 89.256,31.586 
	"/>
<polygon fill="none" stroke="#FFFFFF" stroke-width="1.2049" points="106.441,208.787 126.066,207.035 126.064,28.07 
	106.441,29.824 "/>
<line fill="none" stroke="#FFFFFF" stroke-width="1.2049" x1="126.064" y1="28.07" x2="122.411" y2="25.866"/>
<line fill="none" stroke="#FFFFFF" stroke-width="1.2049" x1="106.441" y1="29.824" x2="104.411" y2="28.07"/>
<path fill="none" stroke="#FFFFFF" stroke-width="1.2049" d="M124.237,25.866c0,0-90.076,8.625-101.951,9.875
	c0,0,6.5,181.582,7.25,183.416l-10.375-27.791L0.661,7.616l83.375-7l40.75,22.25L124.237,25.866z"/>
<line fill="none" stroke="#FFFFFF" stroke-width="1.2049" x1="0.661" y1="7.616" x2="22.286" y2="35.741"/>
<line fill="none" stroke="#FFFFFF" stroke-width="1.2049" x1="102.229" y1="29.75" x2="100.536" y2="28.07"/>
<line fill="none" stroke="#FFFFFF" stroke-width="1.2049" x1="89.256" y1="31.586" x2="87.673" y2="29.375"/>
<line fill="none" stroke="#FFFFFF" stroke-width="1.2049" x1="87.958" y1="33.546" x2="85.161" y2="29.75"/>
<polyline fill="none" stroke="#FFFFFF" stroke-width="1.2049" points="72.514,35.352 70.704,33.49 69.036,31.648 "/>
<line fill="none" stroke="#FFFFFF" stroke-width="1.2049" x1="55.284" y1="35.49" x2="52.638" y2="32.756"/>
<polygon fill="none" stroke="#FFFFFF" stroke-width="1.0687" points="62.994,215.24 78.414,213.24 70.704,33.49 55.284,35.49 "/>
<path fill="none" stroke="#FFFFFF" stroke-width="1.0687" d="M52.685,35.741"/>
<line fill="none" stroke="#FFFFFF" stroke-width="1.0687" x1="50.162" y1="32.997" x2="52.685" y2="35.741"/>
<line fill="none" stroke="#FFFFFF" stroke-width="1.0687" x1="37.265" y1="36.241" x2="35.66" y2="34.123"/>
<line fill="none" stroke="#FFFFFF" x1="23.661" y1="38.741" x2="22.349" y2="37.506"/>
<line fill="none" stroke="#FFFFFF" x1="62.994" y1="215.24" x2="60.395" y2="214.492"/>
<g>
	<path fill="#FFFFFF" d="M25.842,50.111l-0.073-1.715l7.658,0.609l0.072,1.714L25.842,50.111z"/>
	<path fill="#FFFFFF" d="M33.589,53.049c-0.003,0.051-0.014,0.098-0.03,0.138c-0.019,0.041-0.044,0.077-0.077,0.111
		c-0.033,0.033-0.077,0.066-0.132,0.1l-4.593,2.869c0.122,0.003,0.239,0.008,0.352,0.018c0.112,0.009,0.217,0.016,0.315,0.023
		l4.324,0.331l0.063,1.506l-7.657-0.62l-0.038-0.889c-0.005-0.133,0.009-0.243,0.044-0.333c0.034-0.087,0.106-0.166,0.215-0.233
		l4.589-2.86c-0.098-0.003-0.192-0.006-0.284-0.012c-0.091-0.005-0.177-0.009-0.257-0.012l-4.466-0.335l-0.063-1.506l7.657,0.619
		l0.038,0.899C33.593,52.936,33.593,52.999,33.589,53.049z"/>
	<path fill="#FFFFFF" d="M29.216,62.566l-2.859-0.231l-0.071-1.693l7.658,0.609l0.097,2.311c0.021,0.467-0.013,0.868-0.099,1.201
		c-0.085,0.333-0.211,0.609-0.376,0.826c-0.166,0.216-0.366,0.376-0.601,0.483c-0.234,0.106-0.491,0.165-0.771,0.176
		c-0.282,0.012-0.551-0.014-0.805-0.079c-0.254-0.064-0.489-0.164-0.707-0.297c-0.217-0.135-0.41-0.301-0.581-0.502
		c-0.171-0.2-0.313-0.431-0.43-0.691c-0.055,0.107-0.122,0.208-0.202,0.304c-0.08,0.096-0.182,0.173-0.305,0.23l-2.635,1.221
		l-0.065-1.536c-0.006-0.144,0.017-0.265,0.068-0.365s0.129-0.172,0.232-0.214l2.219-0.921c0.096-0.042,0.162-0.097,0.199-0.163
		c0.038-0.066,0.054-0.162,0.049-0.288L29.216,62.566z M32.737,62.851l-2.339-0.189l0.026,0.622c0.01,0.244,0.057,0.451,0.139,0.617
		c0.082,0.168,0.188,0.302,0.318,0.403c0.13,0.102,0.279,0.171,0.449,0.211c0.169,0.041,0.346,0.057,0.531,0.049
		c0.143-0.006,0.271-0.033,0.386-0.08c0.115-0.046,0.212-0.115,0.29-0.208c0.078-0.093,0.137-0.207,0.177-0.343
		c0.04-0.137,0.056-0.295,0.048-0.476L32.737,62.851z"/>
	<path fill="#FFFFFF" d="M33.086,72.108l-0.119-2.818l-1.85-0.152l0.091,2.159l-1.272-0.114l-0.091-2.149l-1.897-0.15l0.12,2.839
		l-1.319-0.112l-0.191-4.549l7.657,0.619l0.191,4.539L33.086,72.108z"/>
	<path fill="#FFFFFF" d="M27.06,78.983l-0.056-1.317c-0.007-0.146,0.022-0.266,0.086-0.357c0.064-0.092,0.152-0.148,0.263-0.171
		l1.36-0.292l-0.109-2.589L27.21,73.75c-0.099-0.034-0.188-0.105-0.269-0.213c-0.079-0.109-0.122-0.231-0.128-0.368l-0.056-1.339
		l7.771,3.318l0.073,1.746L27.06,78.983z M29.784,74.684l0.081,1.913l2.159-0.464c0.18-0.039,0.362-0.081,0.548-0.125
		c0.185-0.045,0.354-0.083,0.506-0.113c-0.085-0.025-0.181-0.057-0.289-0.097s-0.215-0.08-0.317-0.12
		c-0.103-0.04-0.198-0.078-0.288-0.114c-0.089-0.036-0.154-0.062-0.196-0.078L29.784,74.684z"/>
	<path fill="#FFFFFF" d="M28.516,81.227l0.108,2.562l-1.367-0.109l-0.18-4.268l7.658,0.62l0.071,1.704L28.516,81.227z"/>
	<path fill="#FFFFFF" d="M28.812,88.242l0.108,2.562l-1.367-0.11l-0.18-4.267l7.658,0.619l0.071,1.705L28.812,88.242z"/>
	<path fill="#FFFFFF" d="M27.662,93.289l-0.072-1.716l7.657,0.61l0.073,1.714L27.662,93.289z"/>
	<path fill="#FFFFFF" d="M34.244,99.569l-0.119-2.818l-2.018-0.166l0.099,2.357l-1.319-0.122l-0.099-2.342l-3.001-0.241
		l-0.072-1.715l7.657,0.619l0.191,4.539L34.244,99.569z"/>
	<path fill="#FFFFFF" d="M34.47,104.922l-0.118-2.817l-1.851-0.153l0.091,2.159l-1.272-0.114l-0.091-2.149l-1.897-0.15l0.12,2.84
		l-1.319-0.113l-0.191-4.549l7.658,0.619l0.191,4.539L34.47,104.922z"/>
	<path fill="#FFFFFF" d="M28.332,109.172l-0.072-1.715l7.657,0.609l0.073,1.714L28.332,109.172z"/>
	<path fill="#FFFFFF" d="M36.08,112.111c-0.003,0.051-0.014,0.098-0.03,0.138c-0.019,0.041-0.044,0.077-0.077,0.111
		c-0.033,0.032-0.078,0.065-0.132,0.1l-4.593,2.87c0.122,0.003,0.238,0.008,0.351,0.018c0.113,0.009,0.218,0.016,0.316,0.022
		l4.324,0.33l0.063,1.507l-7.657-0.62l-0.038-0.89c-0.006-0.132,0.009-0.241,0.044-0.331c0.034-0.089,0.105-0.167,0.215-0.234
		l4.589-2.86c-0.098-0.003-0.192-0.006-0.284-0.012c-0.091-0.005-0.177-0.009-0.257-0.012l-4.466-0.336l-0.063-1.506l7.657,0.619
		l0.038,0.9C36.083,111.998,36.083,112.062,36.08,112.111z"/>
	<path fill="#FFFFFF" d="M36.565,123.439l-1.356-0.12l-0.081-1.935l-6.302-0.51l-0.071-1.695l6.301,0.501l-0.082-1.946l1.356,0.11
		L36.565,123.439z"/>
	<path fill="#FFFFFF" d="M35.465,128.503l-0.119-2.817l-1.85-0.152l0.091,2.159l-1.272-0.114l-0.091-2.149l-1.897-0.148l0.12,2.839
		l-1.319-0.113l-0.192-4.549l7.658,0.619l0.191,4.539L35.465,128.503z"/>
	<path fill="#FFFFFF" d="M32.094,130.799l-2.859-0.231l-0.071-1.694l7.657,0.61l0.098,2.31c0.02,0.468-0.013,0.869-0.099,1.202
		c-0.085,0.333-0.211,0.608-0.376,0.826c-0.166,0.215-0.366,0.376-0.601,0.482s-0.491,0.165-0.771,0.177
		c-0.282,0.012-0.551-0.014-0.805-0.079c-0.254-0.064-0.489-0.164-0.707-0.298c-0.217-0.134-0.41-0.3-0.581-0.501
		c-0.171-0.2-0.314-0.432-0.43-0.691c-0.056,0.106-0.122,0.207-0.202,0.304s-0.182,0.173-0.305,0.23l-2.636,1.221l-0.064-1.536
		c-0.006-0.144,0.017-0.265,0.068-0.364c0.052-0.101,0.129-0.172,0.232-0.215l2.218-0.921c0.097-0.042,0.163-0.097,0.2-0.163
		c0.038-0.066,0.054-0.161,0.049-0.287L32.094,130.799z M35.615,131.084l-2.339-0.189l0.026,0.623
		c0.01,0.244,0.057,0.449,0.139,0.617s0.188,0.302,0.318,0.403s0.279,0.171,0.448,0.211c0.17,0.041,0.347,0.057,0.532,0.049
		c0.143-0.006,0.271-0.033,0.386-0.08c0.115-0.046,0.212-0.115,0.29-0.208s0.137-0.207,0.177-0.343
		c0.04-0.137,0.056-0.296,0.048-0.476L35.615,131.084z"/>
	<path fill="#FFFFFF" d="M29.708,141.799l-0.055-1.317c-0.007-0.146,0.022-0.266,0.086-0.357c0.064-0.092,0.152-0.148,0.263-0.171
		l1.36-0.292l-0.109-2.589l-1.394-0.508c-0.1-0.033-0.188-0.105-0.269-0.212c-0.079-0.109-0.122-0.231-0.128-0.368l-0.056-1.339
		l7.771,3.318l0.073,1.746L29.708,141.799z M32.434,137.499l0.081,1.914l2.159-0.464c0.18-0.039,0.362-0.081,0.548-0.125
		c0.185-0.045,0.354-0.082,0.506-0.113c-0.085-0.024-0.181-0.057-0.289-0.097c-0.108-0.042-0.215-0.081-0.317-0.121
		s-0.198-0.076-0.288-0.113c-0.089-0.036-0.154-0.062-0.196-0.077L32.434,137.499z"/>
	<path fill="#FFFFFF" d="M31.168,145.122c0.009,0.191,0.03,0.356,0.065,0.497c0.036,0.14,0.078,0.26,0.128,0.359
		c0.05,0.099,0.104,0.183,0.16,0.249c0.058,0.067,0.109,0.128,0.156,0.182c0.048,0.054,0.088,0.104,0.12,0.152
		c0.031,0.048,0.048,0.099,0.051,0.155c0.002,0.056-0.006,0.103-0.023,0.14s-0.038,0.065-0.062,0.084l-0.69,0.626
		c-0.409-0.314-0.724-0.695-0.947-1.142c-0.223-0.445-0.347-0.959-0.371-1.537c-0.021-0.481,0.047-0.911,0.199-1.289
		c0.154-0.378,0.373-0.7,0.658-0.968c0.286-0.268,0.629-0.475,1.029-0.623c0.4-0.147,0.837-0.23,1.308-0.25
		c0.436-0.019,0.851,0.013,1.245,0.093c0.395,0.081,0.761,0.204,1.1,0.367c0.339,0.165,0.646,0.365,0.921,0.604
		c0.275,0.237,0.513,0.505,0.71,0.801c0.197,0.295,0.353,0.615,0.467,0.959c0.114,0.345,0.18,0.707,0.195,1.087
		c0.012,0.286-0.004,0.547-0.048,0.785s-0.11,0.454-0.198,0.647s-0.194,0.368-0.321,0.524c-0.126,0.155-0.267,0.292-0.422,0.411
		l-0.716-0.567c-0.051-0.04-0.096-0.087-0.137-0.142c-0.041-0.054-0.063-0.126-0.067-0.216c-0.002-0.06,0.01-0.114,0.035-0.164
		c0.026-0.051,0.059-0.102,0.096-0.153c0.038-0.053,0.08-0.111,0.127-0.176c0.046-0.065,0.088-0.143,0.123-0.231
		c0.037-0.089,0.066-0.193,0.089-0.314c0.023-0.122,0.031-0.265,0.024-0.428c-0.014-0.321-0.095-0.617-0.241-0.888
		c-0.148-0.272-0.353-0.505-0.613-0.698c-0.263-0.192-0.575-0.339-0.941-0.438c-0.365-0.101-0.771-0.141-1.218-0.122
		c-0.324,0.014-0.611,0.064-0.862,0.153c-0.252,0.09-0.462,0.207-0.633,0.35c-0.17,0.143-0.298,0.311-0.382,0.503
		S31.159,144.902,31.168,145.122z"/>
	<path fill="#FFFFFF" d="M37.847,153.796l-1.357-0.119l-0.081-1.936l-6.302-0.51l-0.071-1.694l6.301,0.5l-0.082-1.945l1.356,0.11
		L37.847,153.796z"/>
	<path fill="#FFFFFF" d="M30.294,155.676l-0.072-1.715l7.657,0.609l0.072,1.714L30.294,155.676z"/>
	<path fill="#FFFFFF" d="M37.98,156.976l0.058,1.369c0.006,0.146-0.024,0.266-0.09,0.355c-0.066,0.091-0.153,0.148-0.26,0.174
		l-4.165,0.972c-0.17,0.038-0.36,0.084-0.573,0.137c-0.212,0.053-0.428,0.098-0.646,0.135c0.223,0.063,0.441,0.139,0.656,0.224
		c0.215,0.086,0.412,0.16,0.594,0.227l4.273,1.601c0.046,0.02,0.093,0.047,0.14,0.084c0.047,0.036,0.089,0.08,0.126,0.133
		s0.068,0.11,0.092,0.174s0.037,0.13,0.04,0.199l0.058,1.381l-7.775-3.423l-0.065-1.547L37.98,156.976z"/>
	<path fill="#FFFFFF" d="M37.177,169.109l-0.118-2.818l-1.851-0.152l0.092,2.159l-1.273-0.114l-0.091-2.149l-1.896-0.148
		l0.119,2.839l-1.319-0.113l-0.191-4.549l7.658,0.62l0.191,4.538L37.177,169.109z"/>
</g>
<g>
	<path fill="#FFFFFF" d="M41.443,46.777l-0.073-1.715l7.658,0.609l0.072,1.714L41.443,46.777z"/>
	<path fill="#FFFFFF" d="M49.19,49.715c-0.003,0.051-0.014,0.098-0.03,0.138c-0.019,0.041-0.044,0.077-0.077,0.111
		c-0.033,0.033-0.077,0.066-0.132,0.1l-4.593,2.869c0.122,0.003,0.239,0.008,0.352,0.018c0.112,0.009,0.217,0.016,0.315,0.023
		l4.324,0.331l0.063,1.506l-7.657-0.62l-0.038-0.889c-0.005-0.133,0.009-0.243,0.044-0.333c0.034-0.087,0.106-0.166,0.215-0.233
		l4.589-2.86c-0.098-0.003-0.192-0.006-0.284-0.012c-0.091-0.005-0.177-0.009-0.257-0.012l-4.466-0.335l-0.063-1.506l7.657,0.619
		l0.038,0.899C49.194,49.603,49.194,49.666,49.19,49.715z"/>
	<path fill="#FFFFFF" d="M44.817,59.232l-2.859-0.231l-0.071-1.693l7.658,0.609l0.097,2.311c0.021,0.467-0.013,0.868-0.099,1.201
		c-0.085,0.333-0.211,0.609-0.376,0.826c-0.166,0.216-0.366,0.376-0.601,0.483c-0.234,0.106-0.491,0.165-0.771,0.176
		c-0.282,0.012-0.551-0.014-0.805-0.079c-0.254-0.064-0.489-0.164-0.707-0.297c-0.217-0.135-0.41-0.301-0.581-0.502
		c-0.171-0.2-0.313-0.431-0.43-0.691c-0.055,0.107-0.122,0.208-0.202,0.304c-0.08,0.096-0.182,0.173-0.305,0.23L42.132,63.1
		l-0.065-1.536c-0.006-0.144,0.017-0.265,0.068-0.365s0.129-0.172,0.232-0.214l2.219-0.921c0.096-0.042,0.162-0.097,0.199-0.163
		c0.038-0.066,0.054-0.162,0.049-0.288L44.817,59.232z M48.339,59.518L46,59.329l0.026,0.622c0.01,0.244,0.057,0.451,0.139,0.617
		c0.082,0.168,0.188,0.302,0.318,0.403c0.13,0.102,0.279,0.171,0.449,0.211c0.169,0.041,0.346,0.057,0.531,0.049
		c0.143-0.006,0.271-0.033,0.386-0.08c0.115-0.046,0.212-0.115,0.29-0.208c0.078-0.093,0.137-0.207,0.177-0.343
		c0.04-0.137,0.056-0.295,0.048-0.476L48.339,59.518z"/>
	<path fill="#FFFFFF" d="M48.688,68.775l-0.119-2.818l-1.85-0.152l0.091,2.159l-1.272-0.114L45.446,65.7l-1.897-0.15l0.12,2.839
		l-1.319-0.112l-0.191-4.549l7.657,0.619l0.191,4.539L48.688,68.775z"/>
	<path fill="#FFFFFF" d="M42.661,75.65l-0.056-1.317c-0.007-0.146,0.022-0.266,0.086-0.357c0.064-0.092,0.152-0.148,0.263-0.171
		l1.36-0.292l-0.109-2.589l-1.394-0.507c-0.099-0.034-0.188-0.105-0.269-0.213c-0.079-0.109-0.122-0.231-0.128-0.368l-0.056-1.339
		l7.771,3.318l0.073,1.746L42.661,75.65z M45.386,71.351l0.081,1.913l2.159-0.464c0.18-0.039,0.362-0.081,0.548-0.125
		c0.185-0.045,0.354-0.083,0.506-0.113c-0.085-0.025-0.181-0.057-0.289-0.097s-0.215-0.08-0.317-0.12
		c-0.103-0.04-0.198-0.078-0.288-0.114c-0.089-0.036-0.154-0.062-0.196-0.078L45.386,71.351z"/>
	<path fill="#FFFFFF" d="M44.117,77.893l0.108,2.562l-1.367-0.109l-0.18-4.268l7.658,0.62l0.071,1.704L44.117,77.893z"/>
	<path fill="#FFFFFF" d="M44.413,84.909l0.108,2.562l-1.367-0.11l-0.18-4.267l7.658,0.619l0.071,1.705L44.413,84.909z"/>
	<path fill="#FFFFFF" d="M43.264,89.955l-0.072-1.716l7.657,0.61l0.073,1.714L43.264,89.955z"/>
	<path fill="#FFFFFF" d="M49.846,96.235l-0.119-2.818l-2.018-0.166l0.099,2.357l-1.319-0.122l-0.099-2.342l-3.001-0.241
		l-0.072-1.715l7.657,0.619l0.191,4.539L49.846,96.235z"/>
	<path fill="#FFFFFF" d="M50.071,101.589l-0.118-2.817l-1.851-0.153l0.091,2.159l-1.272-0.114l-0.091-2.149l-1.897-0.15l0.12,2.84
		l-1.319-0.113l-0.191-4.549l7.658,0.619l0.191,4.539L50.071,101.589z"/>
	<path fill="#FFFFFF" d="M43.934,105.839l-0.072-1.715l7.657,0.609l0.073,1.714L43.934,105.839z"/>
	<path fill="#FFFFFF" d="M51.682,108.778c-0.003,0.051-0.014,0.098-0.03,0.138c-0.019,0.041-0.044,0.077-0.077,0.111
		c-0.033,0.033-0.078,0.066-0.132,0.1l-4.593,2.871c0.122,0.003,0.238,0.008,0.351,0.018c0.113,0.009,0.218,0.016,0.316,0.022
		l4.324,0.33l0.063,1.507l-7.657-0.62l-0.038-0.89c-0.006-0.132,0.009-0.241,0.044-0.331c0.034-0.089,0.105-0.167,0.215-0.234
		l4.589-2.86c-0.098-0.003-0.192-0.006-0.284-0.012c-0.091-0.005-0.177-0.009-0.257-0.012l-4.466-0.335l-0.063-1.506l7.657,0.619
		l0.038,0.9C51.685,108.665,51.685,108.728,51.682,108.778z"/>
	<path fill="#FFFFFF" d="M52.167,120.106l-1.356-0.12l-0.081-1.935l-6.302-0.51l-0.071-1.695l6.301,0.501l-0.082-1.946l1.356,0.11
		L52.167,120.106z"/>
	<path fill="#FFFFFF" d="M51.066,125.17l-0.119-2.817l-1.85-0.152l0.091,2.159l-1.272-0.114l-0.091-2.149l-1.897-0.148l0.12,2.839
		l-1.319-0.113l-0.192-4.549l7.658,0.619l0.191,4.539L51.066,125.17z"/>
	<path fill="#FFFFFF" d="M47.695,127.466l-2.859-0.231l-0.071-1.694l7.657,0.61l0.098,2.31c0.02,0.468-0.013,0.869-0.099,1.202
		c-0.085,0.333-0.211,0.608-0.376,0.826c-0.166,0.215-0.366,0.376-0.601,0.482s-0.491,0.165-0.771,0.177
		c-0.282,0.012-0.551-0.014-0.805-0.079c-0.254-0.064-0.489-0.164-0.707-0.298c-0.217-0.134-0.41-0.3-0.581-0.501
		c-0.171-0.2-0.314-0.432-0.43-0.691c-0.056,0.106-0.122,0.207-0.202,0.304s-0.182,0.173-0.305,0.23l-2.636,1.221l-0.064-1.536
		c-0.006-0.144,0.017-0.265,0.068-0.364c0.052-0.101,0.129-0.172,0.232-0.215l2.218-0.921c0.097-0.042,0.163-0.097,0.2-0.163
		c0.038-0.066,0.054-0.161,0.049-0.287L47.695,127.466z M51.217,127.751l-2.339-0.189l0.026,0.623
		c0.01,0.244,0.057,0.449,0.139,0.617s0.188,0.302,0.318,0.403s0.279,0.171,0.448,0.211c0.17,0.041,0.347,0.057,0.532,0.049
		c0.143-0.006,0.271-0.033,0.386-0.08c0.115-0.046,0.212-0.115,0.29-0.208s0.137-0.207,0.177-0.343
		c0.04-0.137,0.056-0.296,0.048-0.476L51.217,127.751z"/>
	<path fill="#FFFFFF" d="M45.31,138.466l-0.055-1.317c-0.007-0.146,0.022-0.266,0.086-0.357c0.064-0.092,0.152-0.148,0.263-0.171
		l1.36-0.292l-0.109-2.589l-1.394-0.508c-0.1-0.033-0.188-0.105-0.269-0.212c-0.079-0.109-0.122-0.231-0.128-0.368l-0.056-1.339
		l7.771,3.318l0.073,1.746L45.31,138.466z M48.035,134.166l0.081,1.914l2.159-0.464c0.18-0.039,0.362-0.081,0.548-0.125
		c0.185-0.045,0.354-0.082,0.506-0.113c-0.085-0.024-0.181-0.057-0.289-0.097c-0.108-0.042-0.215-0.081-0.317-0.121
		s-0.198-0.076-0.288-0.113c-0.089-0.036-0.154-0.062-0.196-0.077L48.035,134.166z"/>
	<path fill="#FFFFFF" d="M46.77,141.789c0.009,0.191,0.03,0.356,0.065,0.497c0.036,0.14,0.078,0.26,0.128,0.359
		c0.05,0.099,0.104,0.183,0.16,0.249c0.058,0.067,0.109,0.128,0.156,0.182c0.048,0.054,0.088,0.104,0.12,0.152
		c0.031,0.048,0.048,0.099,0.051,0.155c0.002,0.056-0.006,0.103-0.023,0.14s-0.038,0.065-0.062,0.084l-0.69,0.626
		c-0.409-0.314-0.724-0.695-0.947-1.142c-0.223-0.445-0.347-0.959-0.371-1.537c-0.021-0.481,0.047-0.911,0.199-1.289
		c0.154-0.378,0.373-0.7,0.658-0.968c0.286-0.268,0.629-0.475,1.029-0.623c0.4-0.147,0.837-0.23,1.308-0.25
		c0.436-0.019,0.851,0.013,1.245,0.093c0.395,0.081,0.761,0.204,1.1,0.367c0.339,0.165,0.646,0.365,0.921,0.604
		c0.275,0.237,0.513,0.505,0.71,0.801c0.197,0.295,0.353,0.615,0.467,0.959c0.114,0.345,0.18,0.707,0.195,1.087
		c0.012,0.286-0.004,0.547-0.048,0.785s-0.11,0.454-0.198,0.647s-0.194,0.368-0.321,0.524c-0.126,0.155-0.267,0.292-0.422,0.411
		l-0.716-0.567c-0.051-0.04-0.096-0.087-0.137-0.142c-0.041-0.054-0.063-0.126-0.067-0.216c-0.002-0.06,0.01-0.114,0.035-0.164
		c0.026-0.051,0.059-0.102,0.096-0.153c0.038-0.053,0.08-0.111,0.127-0.176c0.046-0.065,0.088-0.143,0.123-0.231
		c0.037-0.089,0.066-0.193,0.089-0.314c0.023-0.122,0.031-0.265,0.024-0.428c-0.014-0.321-0.095-0.617-0.241-0.888
		c-0.148-0.272-0.353-0.505-0.613-0.698c-0.263-0.192-0.575-0.339-0.941-0.438c-0.365-0.101-0.771-0.141-1.218-0.122
		c-0.324,0.014-0.611,0.064-0.862,0.153c-0.252,0.09-0.462,0.207-0.633,0.35c-0.17,0.143-0.298,0.311-0.382,0.503
		S46.761,141.569,46.77,141.789z"/>
	<path fill="#FFFFFF" d="M53.448,150.463l-1.357-0.119l-0.081-1.936l-6.302-0.51l-0.071-1.694l6.301,0.5l-0.082-1.945l1.356,0.11
		L53.448,150.463z"/>
	<path fill="#FFFFFF" d="M45.896,152.343l-0.072-1.715l7.657,0.609l0.072,1.714L45.896,152.343z"/>
	<path fill="#FFFFFF" d="M53.582,153.643l0.058,1.369c0.006,0.146-0.024,0.266-0.09,0.355c-0.066,0.091-0.153,0.148-0.26,0.174
		l-4.165,0.972c-0.17,0.038-0.36,0.084-0.573,0.137c-0.212,0.053-0.428,0.098-0.646,0.135c0.223,0.063,0.441,0.139,0.656,0.224
		c0.215,0.086,0.412,0.16,0.594,0.227l4.273,1.601c0.046,0.02,0.093,0.047,0.14,0.084c0.047,0.036,0.089,0.08,0.126,0.133
		s0.068,0.11,0.092,0.174s0.037,0.13,0.04,0.199l0.058,1.381l-7.775-3.423l-0.065-1.547L53.582,153.643z"/>
	<path fill="#FFFFFF" d="M52.778,165.776l-0.118-2.818l-1.851-0.152l0.092,2.159l-1.273-0.114l-0.091-2.149l-1.896-0.148
		l0.119,2.839l-1.319-0.113l-0.191-4.549l7.658,0.62l0.191,4.538L52.778,165.776z"/>
</g>
<g>
	<path fill="#FFFFFF" d="M59.777,44.111l-0.073-1.715l7.658,0.609l0.072,1.714L59.777,44.111z"/>
	<path fill="#FFFFFF" d="M67.523,47.049c-0.003,0.051-0.014,0.098-0.03,0.138c-0.019,0.041-0.044,0.077-0.077,0.111
		c-0.033,0.033-0.077,0.066-0.132,0.1l-4.592,2.869c0.122,0.003,0.239,0.008,0.352,0.018c0.112,0.009,0.217,0.016,0.315,0.023
		l4.324,0.331l0.063,1.506l-7.657-0.62l-0.038-0.889c-0.005-0.133,0.009-0.243,0.044-0.333c0.034-0.087,0.106-0.166,0.215-0.233
		l4.588-2.86c-0.098-0.003-0.192-0.006-0.284-0.012c-0.091-0.005-0.177-0.009-0.257-0.012l-4.465-0.335l-0.063-1.506l7.657,0.619
		l0.038,0.899C67.527,46.936,67.527,46.999,67.523,47.049z"/>
	<path fill="#FFFFFF" d="M63.151,56.566l-2.859-0.231l-0.071-1.693l7.658,0.609l0.097,2.311c0.021,0.467-0.013,0.868-0.099,1.201
		c-0.085,0.333-0.211,0.609-0.376,0.826c-0.166,0.216-0.366,0.376-0.601,0.483c-0.234,0.106-0.491,0.165-0.771,0.176
		c-0.282,0.012-0.551-0.014-0.805-0.079c-0.254-0.064-0.489-0.164-0.707-0.297c-0.217-0.135-0.41-0.301-0.581-0.502
		c-0.171-0.2-0.313-0.431-0.429-0.691c-0.055,0.107-0.122,0.208-0.202,0.304c-0.08,0.096-0.182,0.173-0.305,0.23l-2.635,1.221
		L60.4,58.897c-0.006-0.144,0.017-0.265,0.068-0.365s0.129-0.172,0.232-0.214l2.219-0.921c0.096-0.042,0.162-0.097,0.199-0.163
		c0.038-0.066,0.054-0.162,0.049-0.288L63.151,56.566z M66.672,56.851l-2.339-0.189l0.026,0.622c0.01,0.244,0.057,0.451,0.139,0.617
		c0.082,0.168,0.188,0.302,0.318,0.403c0.13,0.102,0.279,0.171,0.449,0.211c0.169,0.041,0.346,0.057,0.531,0.049
		c0.143-0.006,0.271-0.033,0.386-0.08c0.115-0.046,0.212-0.115,0.29-0.208c0.078-0.093,0.137-0.207,0.177-0.343
		c0.04-0.137,0.056-0.295,0.048-0.476L66.672,56.851z"/>
	<path fill="#FFFFFF" d="M67.021,66.108l-0.119-2.818l-1.85-0.152l0.091,2.159l-1.272-0.114l-0.09-2.149l-1.897-0.15l0.12,2.839
		l-1.319-0.112l-0.191-4.549l7.657,0.619l0.191,4.539L67.021,66.108z"/>
	<path fill="#FFFFFF" d="M60.995,72.983l-0.056-1.317c-0.007-0.146,0.022-0.266,0.086-0.357c0.064-0.092,0.152-0.148,0.263-0.171
		l1.36-0.292l-0.109-2.589l-1.394-0.507c-0.099-0.034-0.188-0.105-0.269-0.213c-0.079-0.109-0.122-0.231-0.128-0.368l-0.056-1.339
		l7.771,3.318l0.073,1.746L60.995,72.983z M63.719,68.684l0.081,1.913l2.159-0.464c0.18-0.039,0.362-0.081,0.548-0.125
		c0.185-0.045,0.354-0.083,0.506-0.113c-0.085-0.025-0.181-0.057-0.289-0.097s-0.215-0.08-0.317-0.12
		c-0.103-0.04-0.198-0.078-0.288-0.114c-0.089-0.036-0.154-0.062-0.196-0.078L63.719,68.684z"/>
	<path fill="#FFFFFF" d="M62.451,75.227l0.108,2.562l-1.367-0.109l-0.18-4.268l7.658,0.62l0.071,1.704L62.451,75.227z"/>
	<path fill="#FFFFFF" d="M62.747,82.242l0.108,2.562l-1.367-0.11l-0.18-4.267l7.658,0.619l0.071,1.705L62.747,82.242z"/>
	<path fill="#FFFFFF" d="M61.597,87.289l-0.072-1.716l7.657,0.61l0.073,1.714L61.597,87.289z"/>
	<path fill="#FFFFFF" d="M68.179,93.569l-0.119-2.818l-2.018-0.166l0.099,2.357l-1.319-0.122l-0.099-2.342l-3-0.241l-0.072-1.715
		l7.657,0.619l0.191,4.539L68.179,93.569z"/>
	<path fill="#FFFFFF" d="M68.404,98.922l-0.118-2.817l-1.851-0.153l0.091,2.159l-1.272-0.114l-0.091-2.149l-1.897-0.15l0.12,2.84
		l-1.319-0.113l-0.191-4.549l7.658,0.619l0.191,4.539L68.404,98.922z"/>
	<path fill="#FFFFFF" d="M62.267,103.172l-0.072-1.715l7.657,0.609l0.073,1.714L62.267,103.172z"/>
	<path fill="#FFFFFF" d="M70.015,106.111c-0.003,0.051-0.014,0.098-0.03,0.138c-0.019,0.041-0.044,0.077-0.077,0.111
		c-0.033,0.033-0.078,0.066-0.132,0.1l-4.593,2.87c0.122,0.003,0.238,0.008,0.351,0.018c0.113,0.009,0.218,0.016,0.316,0.023
		l4.324,0.33l0.063,1.506l-7.657-0.62l-0.038-0.889c-0.006-0.132,0.009-0.242,0.044-0.332c0.034-0.088,0.105-0.167,0.215-0.234
		l4.588-2.86c-0.098-0.003-0.192-0.006-0.284-0.012c-0.091-0.005-0.177-0.009-0.257-0.012l-4.465-0.335l-0.063-1.506l7.657,0.619
		l0.038,0.9C70.018,105.999,70.018,106.062,70.015,106.111z"/>
	<path fill="#FFFFFF" d="M70.5,117.439l-1.356-0.12l-0.081-1.935l-6.301-0.51l-0.071-1.695l6.3,0.501l-0.082-1.946l1.356,0.11
		L70.5,117.439z"/>
	<path fill="#FFFFFF" d="M69.399,122.503l-0.119-2.817l-1.85-0.152l0.091,2.159l-1.272-0.114l-0.091-2.149l-1.897-0.148l0.12,2.839
		l-1.319-0.113l-0.192-4.549l7.658,0.619l0.191,4.539L69.399,122.503z"/>
	<path fill="#FFFFFF" d="M66.028,124.799l-2.859-0.231l-0.071-1.694l7.657,0.61l0.098,2.31c0.02,0.468-0.013,0.869-0.099,1.202
		c-0.085,0.333-0.211,0.608-0.376,0.826c-0.166,0.215-0.366,0.376-0.601,0.482s-0.491,0.165-0.771,0.177
		c-0.282,0.012-0.551-0.014-0.805-0.079c-0.254-0.064-0.489-0.164-0.707-0.298c-0.217-0.134-0.41-0.3-0.581-0.501
		c-0.171-0.2-0.314-0.432-0.43-0.691c-0.056,0.106-0.122,0.207-0.202,0.304s-0.182,0.173-0.305,0.23l-2.635,1.221l-0.064-1.536
		c-0.006-0.144,0.017-0.265,0.068-0.364c0.052-0.101,0.129-0.172,0.232-0.215l2.217-0.921c0.097-0.042,0.163-0.097,0.2-0.163
		c0.038-0.066,0.054-0.161,0.049-0.287L66.028,124.799z M69.55,125.084l-2.339-0.189l0.026,0.623
		c0.01,0.244,0.057,0.449,0.139,0.617s0.188,0.302,0.318,0.403s0.279,0.171,0.448,0.211c0.17,0.041,0.347,0.057,0.532,0.049
		c0.143-0.006,0.271-0.033,0.386-0.08c0.115-0.046,0.212-0.115,0.29-0.208s0.137-0.207,0.177-0.343
		c0.04-0.137,0.056-0.296,0.048-0.476L69.55,125.084z"/>
	<path fill="#FFFFFF" d="M63.643,135.799l-0.055-1.317c-0.007-0.146,0.022-0.266,0.086-0.357c0.064-0.092,0.152-0.148,0.262-0.171
		l1.36-0.292l-0.109-2.589l-1.393-0.508c-0.1-0.033-0.188-0.105-0.269-0.212c-0.079-0.109-0.122-0.231-0.128-0.368l-0.056-1.339
		l7.771,3.318l0.073,1.746L63.643,135.799z M66.368,131.499l0.081,1.914l2.159-0.464c0.18-0.039,0.362-0.081,0.548-0.125
		c0.185-0.045,0.354-0.082,0.506-0.113c-0.085-0.024-0.181-0.057-0.289-0.097c-0.108-0.042-0.215-0.081-0.317-0.121
		s-0.198-0.076-0.288-0.113c-0.089-0.036-0.154-0.062-0.196-0.077L66.368,131.499z"/>
	<path fill="#FFFFFF" d="M65.103,139.122c0.009,0.191,0.03,0.356,0.065,0.497c0.036,0.14,0.078,0.26,0.128,0.359
		c0.05,0.099,0.104,0.183,0.16,0.249c0.058,0.067,0.109,0.128,0.156,0.182c0.048,0.054,0.088,0.104,0.12,0.152
		c0.031,0.048,0.048,0.099,0.051,0.155c0.002,0.056-0.006,0.103-0.023,0.14s-0.038,0.065-0.062,0.084l-0.69,0.626
		c-0.409-0.314-0.724-0.695-0.947-1.142c-0.223-0.445-0.346-0.959-0.371-1.537c-0.021-0.481,0.047-0.911,0.199-1.289
		c0.154-0.378,0.373-0.7,0.658-0.968c0.286-0.268,0.629-0.475,1.029-0.623c0.4-0.147,0.837-0.23,1.308-0.25
		c0.436-0.019,0.851,0.013,1.245,0.093c0.395,0.081,0.761,0.204,1.1,0.367c0.339,0.165,0.646,0.365,0.921,0.604
		c0.275,0.237,0.513,0.505,0.71,0.801c0.197,0.295,0.353,0.615,0.467,0.959c0.114,0.345,0.18,0.707,0.195,1.087
		c0.012,0.286-0.004,0.547-0.048,0.785s-0.11,0.454-0.198,0.647s-0.194,0.368-0.321,0.524c-0.126,0.155-0.267,0.292-0.422,0.411
		l-0.716-0.567c-0.051-0.04-0.096-0.087-0.137-0.142c-0.041-0.054-0.063-0.126-0.067-0.216c-0.002-0.06,0.01-0.114,0.035-0.164
		c0.026-0.051,0.059-0.102,0.096-0.153c0.038-0.053,0.08-0.111,0.127-0.176c0.046-0.065,0.088-0.143,0.123-0.231
		c0.037-0.089,0.066-0.193,0.089-0.314c0.023-0.122,0.031-0.265,0.024-0.428c-0.014-0.321-0.095-0.617-0.241-0.888
		c-0.148-0.272-0.353-0.505-0.613-0.698c-0.263-0.192-0.575-0.339-0.941-0.438c-0.365-0.101-0.771-0.141-1.218-0.122
		c-0.324,0.014-0.611,0.064-0.862,0.153c-0.252,0.09-0.462,0.207-0.633,0.35c-0.17,0.143-0.298,0.311-0.382,0.503
		S65.094,138.902,65.103,139.122z"/>
	<path fill="#FFFFFF" d="M71.781,147.796l-1.357-0.119l-0.081-1.936l-6.302-0.51l-0.071-1.694l6.301,0.5l-0.082-1.945l1.356,0.11
		L71.781,147.796z"/>
	<path fill="#FFFFFF" d="M64.229,149.676l-0.072-1.715l7.657,0.609l0.072,1.714L64.229,149.676z"/>
	<path fill="#FFFFFF" d="M71.915,150.976l0.058,1.369c0.006,0.146-0.024,0.266-0.09,0.355c-0.066,0.091-0.153,0.148-0.26,0.174
		l-4.165,0.972c-0.17,0.038-0.36,0.084-0.573,0.137c-0.212,0.053-0.428,0.098-0.646,0.135c0.223,0.063,0.441,0.139,0.656,0.224
		c0.215,0.086,0.412,0.16,0.594,0.227l4.273,1.601c0.046,0.02,0.093,0.047,0.14,0.084c0.047,0.036,0.089,0.08,0.126,0.133
		s0.068,0.11,0.092,0.174s0.037,0.13,0.04,0.199l0.058,1.381l-7.775-3.423l-0.065-1.547L71.915,150.976z"/>
	<path fill="#FFFFFF" d="M71.111,163.109l-0.118-2.818l-1.851-0.152l0.092,2.159l-1.273-0.114l-0.091-2.149l-1.896-0.148
		l0.119,2.839l-1.319-0.113l-0.191-4.549l7.658,0.62l0.191,4.538L71.111,163.109z"/>
</g>
<g>
	<path fill="#FFFFFF" d="M76.776,44.111l-0.073-1.715l7.658,0.609l0.072,1.714L76.776,44.111z"/>
	<path fill="#FFFFFF" d="M84.523,47.049c-0.003,0.051-0.014,0.098-0.03,0.138c-0.019,0.041-0.044,0.077-0.077,0.111
		c-0.033,0.033-0.077,0.066-0.132,0.1l-4.593,2.869c0.122,0.003,0.239,0.008,0.352,0.018c0.112,0.009,0.217,0.016,0.315,0.023
		l4.324,0.331l0.063,1.506l-7.657-0.62l-0.038-0.889c-0.005-0.133,0.009-0.243,0.044-0.333c0.034-0.087,0.106-0.166,0.215-0.233
		l4.589-2.86c-0.098-0.003-0.192-0.006-0.284-0.012c-0.091-0.005-0.177-0.009-0.257-0.012l-4.466-0.335l-0.063-1.506l7.657,0.619
		l0.038,0.899C84.527,46.936,84.527,46.999,84.523,47.049z"/>
	<path fill="#FFFFFF" d="M80.15,56.566l-2.859-0.231l-0.071-1.693l7.658,0.609l0.097,2.311c0.021,0.467-0.013,0.868-0.099,1.201
		c-0.085,0.333-0.211,0.609-0.376,0.826c-0.166,0.216-0.366,0.376-0.601,0.483c-0.234,0.106-0.491,0.165-0.771,0.176
		c-0.282,0.012-0.551-0.014-0.805-0.079c-0.254-0.064-0.489-0.164-0.707-0.297c-0.217-0.135-0.41-0.301-0.581-0.502
		c-0.171-0.2-0.313-0.431-0.43-0.691c-0.055,0.107-0.122,0.208-0.202,0.304c-0.08,0.096-0.182,0.173-0.305,0.23l-2.635,1.221
		l-0.065-1.536c-0.006-0.144,0.017-0.265,0.068-0.365s0.129-0.172,0.232-0.214l2.219-0.921c0.096-0.042,0.162-0.097,0.199-0.163
		c0.038-0.066,0.054-0.162,0.049-0.288L80.15,56.566z M83.672,56.851l-2.339-0.189l0.026,0.622c0.01,0.244,0.057,0.451,0.139,0.617
		c0.082,0.168,0.188,0.302,0.318,0.403c0.13,0.102,0.279,0.171,0.449,0.211c0.169,0.041,0.346,0.057,0.531,0.049
		c0.143-0.006,0.271-0.033,0.386-0.08c0.115-0.046,0.212-0.115,0.29-0.208c0.078-0.093,0.137-0.207,0.177-0.343
		c0.04-0.137,0.056-0.295,0.048-0.476L83.672,56.851z"/>
	<path fill="#FFFFFF" d="M84.021,66.108l-0.119-2.818l-1.85-0.152l0.091,2.159l-1.272-0.114l-0.091-2.149l-1.897-0.15l0.12,2.839
		l-1.319-0.112l-0.191-4.549l7.657,0.619l0.191,4.539L84.021,66.108z"/>
	<path fill="#FFFFFF" d="M77.994,72.983l-0.056-1.317c-0.007-0.146,0.022-0.266,0.086-0.357c0.064-0.092,0.152-0.148,0.263-0.171
		l1.36-0.292l-0.109-2.589l-1.394-0.507c-0.099-0.034-0.188-0.105-0.269-0.213c-0.079-0.109-0.122-0.231-0.128-0.368l-0.056-1.339
		l7.771,3.318l0.073,1.746L77.994,72.983z M80.719,68.684l0.081,1.913l2.159-0.464c0.18-0.039,0.362-0.081,0.548-0.125
		c0.185-0.045,0.354-0.083,0.506-0.113c-0.085-0.025-0.181-0.057-0.289-0.097s-0.215-0.08-0.317-0.12
		c-0.103-0.04-0.198-0.078-0.288-0.114c-0.089-0.036-0.154-0.062-0.196-0.078L80.719,68.684z"/>
	<path fill="#FFFFFF" d="M79.45,75.227l0.108,2.562l-1.367-0.109l-0.18-4.268l7.658,0.62l0.071,1.704L79.45,75.227z"/>
	<path fill="#FFFFFF" d="M79.746,82.242l0.108,2.562l-1.367-0.11l-0.18-4.267l7.658,0.619l0.071,1.705L79.746,82.242z"/>
	<path fill="#FFFFFF" d="M78.597,87.289l-0.072-1.716l7.657,0.61l0.073,1.714L78.597,87.289z"/>
	<path fill="#FFFFFF" d="M85.179,93.569l-0.119-2.818l-2.018-0.166l0.099,2.357l-1.319-0.122l-0.099-2.342l-3.001-0.241
		l-0.072-1.715l7.657,0.619l0.191,4.539L85.179,93.569z"/>
	<path fill="#FFFFFF" d="M85.404,98.922l-0.118-2.817l-1.851-0.153l0.091,2.159l-1.272-0.114l-0.091-2.149l-1.897-0.15l0.12,2.84
		l-1.319-0.113l-0.191-4.549l7.658,0.619l0.191,4.539L85.404,98.922z"/>
	<path fill="#FFFFFF" d="M79.267,103.172l-0.072-1.715l7.657,0.609l0.073,1.714L79.267,103.172z"/>
	<path fill="#FFFFFF" d="M87.015,106.111c-0.003,0.051-0.014,0.098-0.03,0.138c-0.019,0.041-0.044,0.077-0.077,0.111
		c-0.033,0.033-0.078,0.066-0.132,0.1l-4.593,2.87c0.122,0.003,0.238,0.008,0.351,0.018c0.113,0.009,0.218,0.016,0.316,0.023
		l4.324,0.33l0.063,1.506l-7.657-0.62l-0.038-0.889c-0.006-0.132,0.009-0.242,0.044-0.332c0.034-0.088,0.105-0.167,0.215-0.234
		l4.589-2.86c-0.098-0.003-0.192-0.006-0.284-0.012c-0.091-0.005-0.177-0.009-0.257-0.012l-4.466-0.335l-0.063-1.506l7.657,0.619
		l0.038,0.9C87.018,105.999,87.018,106.062,87.015,106.111z"/>
	<path fill="#FFFFFF" d="M87.5,117.439l-1.356-0.12l-0.081-1.935l-6.302-0.51l-0.071-1.695l6.301,0.501l-0.082-1.946l1.356,0.11
		L87.5,117.439z"/>
	<path fill="#FFFFFF" d="M86.399,122.503l-0.119-2.817l-1.85-0.152l0.091,2.159l-1.272-0.114l-0.091-2.149l-1.897-0.148l0.12,2.839
		l-1.319-0.113l-0.192-4.549l7.658,0.619l0.191,4.539L86.399,122.503z"/>
	<path fill="#FFFFFF" d="M83.028,124.799l-2.859-0.231l-0.071-1.694l7.657,0.61l0.098,2.31c0.02,0.468-0.013,0.869-0.099,1.202
		c-0.085,0.333-0.211,0.608-0.376,0.826c-0.166,0.215-0.366,0.376-0.601,0.482s-0.491,0.165-0.771,0.177
		c-0.282,0.012-0.551-0.014-0.805-0.079c-0.254-0.064-0.489-0.164-0.707-0.298c-0.217-0.134-0.41-0.3-0.581-0.501
		c-0.171-0.2-0.314-0.432-0.43-0.691c-0.056,0.106-0.122,0.207-0.202,0.304s-0.182,0.173-0.305,0.23l-2.636,1.221l-0.064-1.536
		c-0.006-0.144,0.017-0.265,0.068-0.364c0.052-0.101,0.129-0.172,0.232-0.215l2.218-0.921c0.097-0.042,0.163-0.097,0.2-0.163
		c0.038-0.066,0.054-0.161,0.049-0.287L83.028,124.799z M86.55,125.084l-2.339-0.189l0.026,0.623
		c0.01,0.244,0.057,0.449,0.139,0.617s0.188,0.302,0.318,0.403s0.279,0.171,0.448,0.211c0.17,0.041,0.347,0.057,0.532,0.049
		c0.143-0.006,0.271-0.033,0.386-0.08c0.115-0.046,0.212-0.115,0.29-0.208s0.137-0.207,0.177-0.343
		c0.04-0.137,0.056-0.296,0.048-0.476L86.55,125.084z"/>
	<path fill="#FFFFFF" d="M80.643,135.799l-0.055-1.317c-0.007-0.146,0.022-0.266,0.086-0.357c0.064-0.092,0.152-0.148,0.263-0.171
		l1.36-0.292l-0.109-2.589l-1.394-0.508c-0.1-0.033-0.188-0.105-0.269-0.212c-0.079-0.109-0.122-0.231-0.128-0.368l-0.056-1.339
		l7.771,3.318l0.073,1.746L80.643,135.799z M83.368,131.499l0.081,1.914l2.159-0.464c0.18-0.039,0.362-0.081,0.548-0.125
		c0.185-0.045,0.354-0.082,0.506-0.113c-0.085-0.024-0.181-0.057-0.289-0.097c-0.108-0.042-0.215-0.081-0.317-0.121
		s-0.198-0.076-0.288-0.113c-0.089-0.036-0.154-0.062-0.196-0.077L83.368,131.499z"/>
	<path fill="#FFFFFF" d="M82.103,139.122c0.009,0.191,0.03,0.356,0.065,0.497c0.036,0.14,0.078,0.26,0.128,0.359
		c0.05,0.099,0.104,0.183,0.16,0.249c0.058,0.067,0.109,0.128,0.156,0.182c0.048,0.054,0.088,0.104,0.12,0.152
		c0.031,0.048,0.048,0.099,0.051,0.155c0.002,0.056-0.006,0.103-0.023,0.14s-0.038,0.065-0.062,0.084l-0.69,0.626
		c-0.409-0.314-0.724-0.695-0.947-1.142c-0.223-0.445-0.347-0.959-0.371-1.537c-0.021-0.481,0.047-0.911,0.199-1.289
		c0.154-0.378,0.373-0.7,0.658-0.968c0.286-0.268,0.629-0.475,1.029-0.623c0.4-0.147,0.837-0.23,1.308-0.25
		c0.436-0.019,0.851,0.013,1.245,0.093c0.395,0.081,0.761,0.204,1.1,0.367c0.339,0.165,0.646,0.365,0.921,0.604
		c0.275,0.237,0.513,0.505,0.71,0.801c0.197,0.295,0.353,0.615,0.467,0.959c0.114,0.345,0.18,0.707,0.195,1.087
		c0.012,0.286-0.004,0.547-0.048,0.785s-0.11,0.454-0.198,0.647s-0.194,0.368-0.321,0.524c-0.126,0.155-0.267,0.292-0.422,0.411
		l-0.716-0.567c-0.051-0.04-0.096-0.087-0.137-0.142c-0.041-0.054-0.063-0.126-0.067-0.216c-0.002-0.06,0.01-0.114,0.035-0.164
		c0.026-0.051,0.059-0.102,0.096-0.153c0.038-0.053,0.08-0.111,0.127-0.176c0.046-0.065,0.088-0.143,0.123-0.231
		c0.037-0.089,0.066-0.193,0.089-0.314c0.023-0.122,0.031-0.265,0.024-0.428c-0.014-0.321-0.095-0.617-0.241-0.888
		c-0.148-0.272-0.353-0.505-0.613-0.698c-0.263-0.192-0.575-0.339-0.941-0.438c-0.365-0.101-0.771-0.141-1.218-0.122
		c-0.324,0.014-0.611,0.064-0.862,0.153c-0.252,0.09-0.462,0.207-0.633,0.35c-0.17,0.143-0.298,0.311-0.382,0.503
		S82.094,138.902,82.103,139.122z"/>
	<path fill="#FFFFFF" d="M88.781,147.796l-1.357-0.119l-0.081-1.936l-6.302-0.51l-0.071-1.694l6.301,0.5l-0.082-1.945l1.356,0.11
		L88.781,147.796z"/>
	<path fill="#FFFFFF" d="M81.229,149.676l-0.072-1.715l7.657,0.609l0.072,1.714L81.229,149.676z"/>
	<path fill="#FFFFFF" d="M88.915,150.976l0.058,1.369c0.006,0.146-0.024,0.266-0.09,0.355c-0.066,0.091-0.153,0.148-0.26,0.174
		l-4.165,0.972c-0.17,0.038-0.36,0.084-0.573,0.137c-0.212,0.053-0.428,0.098-0.646,0.135c0.223,0.063,0.441,0.139,0.656,0.224
		c0.215,0.086,0.412,0.16,0.594,0.227l4.273,1.601c0.046,0.02,0.093,0.047,0.14,0.084c0.047,0.036,0.089,0.08,0.126,0.133
		s0.068,0.11,0.092,0.174s0.037,0.13,0.04,0.199l0.058,1.381l-7.775-3.423l-0.065-1.547L88.915,150.976z"/>
	<path fill="#FFFFFF" d="M88.111,163.109l-0.118-2.818l-1.851-0.152l0.092,2.159l-1.273-0.114l-0.091-2.149l-1.896-0.148
		l0.119,2.839l-1.319-0.113l-0.191-4.549l7.658,0.62l0.191,4.538L88.111,163.109z"/>
</g>
<g>
	<path fill="#FFFFFF" d="M92.11,41.111l-0.073-1.715l7.658,0.609l0.072,1.714L92.11,41.111z"/>
	<path fill="#FFFFFF" d="M99.857,44.049c-0.003,0.051-0.014,0.098-0.03,0.138c-0.019,0.041-0.044,0.077-0.077,0.111
		c-0.033,0.033-0.077,0.066-0.132,0.1l-4.593,2.869c0.122,0.003,0.239,0.008,0.352,0.018c0.112,0.009,0.217,0.016,0.315,0.023
		l4.324,0.331l0.063,1.506l-7.657-0.62l-0.038-0.889c-0.005-0.133,0.009-0.243,0.044-0.333c0.034-0.087,0.106-0.166,0.215-0.233
		l4.589-2.86c-0.098-0.003-0.192-0.006-0.284-0.012c-0.091-0.005-0.177-0.009-0.257-0.012l-4.466-0.335l-0.063-1.506l7.657,0.619
		l0.038,0.899C99.861,43.936,99.861,43.999,99.857,44.049z"/>
	<path fill="#FFFFFF" d="M95.484,53.566l-2.859-0.231l-0.071-1.693l7.658,0.609l0.097,2.311c0.021,0.467-0.013,0.868-0.099,1.201
		c-0.085,0.333-0.211,0.609-0.376,0.826c-0.166,0.216-0.366,0.376-0.601,0.483c-0.234,0.106-0.491,0.165-0.771,0.176
		c-0.282,0.012-0.551-0.014-0.805-0.079c-0.254-0.064-0.489-0.164-0.707-0.297c-0.217-0.135-0.41-0.301-0.581-0.502
		c-0.171-0.2-0.313-0.431-0.43-0.691c-0.055,0.107-0.122,0.208-0.202,0.304c-0.08,0.096-0.182,0.173-0.305,0.23l-2.635,1.221
		l-0.065-1.536c-0.006-0.144,0.017-0.265,0.068-0.365s0.129-0.172,0.232-0.214l2.219-0.921c0.096-0.042,0.162-0.097,0.199-0.163
		c0.038-0.066,0.054-0.162,0.049-0.288L95.484,53.566z M99.006,53.851l-2.339-0.189l0.026,0.622c0.01,0.244,0.057,0.451,0.139,0.617
		c0.082,0.168,0.188,0.302,0.318,0.403c0.13,0.102,0.279,0.171,0.449,0.211c0.169,0.041,0.346,0.057,0.531,0.049
		c0.143-0.006,0.271-0.033,0.386-0.08c0.115-0.046,0.212-0.115,0.29-0.208c0.078-0.093,0.137-0.207,0.177-0.343
		c0.04-0.137,0.056-0.295,0.048-0.476L99.006,53.851z"/>
	<path fill="#FFFFFF" d="M99.354,63.108l-0.119-2.818l-1.85-0.152l0.091,2.159l-1.272-0.114l-0.091-2.149l-1.897-0.15l0.12,2.839
		l-1.319-0.112l-0.191-4.549l7.657,0.619l0.191,4.539L99.354,63.108z"/>
	<path fill="#FFFFFF" d="M93.328,69.983l-0.056-1.317c-0.007-0.146,0.022-0.266,0.086-0.357c0.064-0.092,0.152-0.148,0.263-0.171
		l1.36-0.292l-0.109-2.589l-1.394-0.507c-0.099-0.034-0.188-0.105-0.269-0.213c-0.079-0.109-0.122-0.231-0.128-0.368l-0.056-1.339
		l7.771,3.318l0.073,1.746L93.328,69.983z M96.053,65.684l0.081,1.913l2.159-0.464c0.18-0.039,0.362-0.081,0.548-0.125
		c0.185-0.045,0.354-0.083,0.506-0.113c-0.085-0.025-0.181-0.057-0.289-0.097s-0.215-0.08-0.317-0.12
		c-0.103-0.04-0.198-0.078-0.288-0.114c-0.089-0.036-0.154-0.062-0.196-0.078L96.053,65.684z"/>
	<path fill="#FFFFFF" d="M94.784,72.227l0.108,2.562l-1.367-0.109l-0.18-4.268l7.658,0.62l0.071,1.704L94.784,72.227z"/>
	<path fill="#FFFFFF" d="M95.08,79.242l0.108,2.562l-1.367-0.11l-0.18-4.267l7.658,0.619l0.071,1.705L95.08,79.242z"/>
	<path fill="#FFFFFF" d="M93.931,84.289l-0.072-1.716l7.657,0.61l0.073,1.714L93.931,84.289z"/>
	<path fill="#FFFFFF" d="M100.513,90.569l-0.119-2.818l-2.018-0.166l0.099,2.357l-1.319-0.122l-0.099-2.342l-3.001-0.241
		l-0.072-1.715l7.657,0.619l0.191,4.539L100.513,90.569z"/>
	<path fill="#FFFFFF" d="M100.738,95.922l-0.118-2.817l-1.851-0.153l0.091,2.159l-1.272-0.114l-0.091-2.149l-1.897-0.15l0.12,2.84
		L94.4,95.425l-0.191-4.549l7.658,0.619l0.191,4.539L100.738,95.922z"/>
	<path fill="#FFFFFF" d="M94.601,100.172l-0.072-1.715l7.657,0.609l0.073,1.714L94.601,100.172z"/>
	<path fill="#FFFFFF" d="M102.349,103.111c-0.003,0.051-0.014,0.098-0.03,0.138c-0.019,0.041-0.044,0.077-0.077,0.111
		c-0.033,0.033-0.078,0.066-0.132,0.1l-4.593,2.87c0.122,0.003,0.238,0.008,0.351,0.018c0.113,0.009,0.218,0.016,0.316,0.023
		l4.324,0.33l0.063,1.507l-7.657-0.62l-0.038-0.89c-0.006-0.132,0.009-0.242,0.044-0.332c0.034-0.088,0.105-0.167,0.215-0.234
		l4.589-2.86c-0.098-0.003-0.192-0.006-0.284-0.012c-0.091-0.005-0.177-0.009-0.257-0.012l-4.466-0.335l-0.063-1.506l7.657,0.619
		l0.038,0.9C102.352,102.999,102.352,103.062,102.349,103.111z"/>
	<path fill="#FFFFFF" d="M102.834,114.439l-1.356-0.12l-0.081-1.935l-6.302-0.51l-0.071-1.695l6.301,0.5l-0.082-1.946l1.356,0.111
		L102.834,114.439z"/>
	<path fill="#FFFFFF" d="M101.733,119.503l-0.119-2.817l-1.85-0.152l0.091,2.159l-1.272-0.114l-0.091-2.149l-1.897-0.148l0.12,2.839
		l-1.319-0.113l-0.192-4.549l7.658,0.619l0.191,4.539L101.733,119.503z"/>
	<path fill="#FFFFFF" d="M98.362,121.799l-2.859-0.231l-0.071-1.694l7.657,0.61l0.098,2.31c0.02,0.468-0.013,0.869-0.099,1.202
		c-0.085,0.333-0.211,0.608-0.376,0.826c-0.166,0.215-0.366,0.376-0.601,0.482s-0.491,0.165-0.771,0.177
		c-0.282,0.012-0.551-0.014-0.805-0.079c-0.254-0.064-0.489-0.164-0.707-0.298c-0.217-0.134-0.41-0.3-0.581-0.501
		c-0.171-0.2-0.314-0.432-0.43-0.691c-0.056,0.106-0.122,0.207-0.202,0.304s-0.182,0.173-0.305,0.23l-2.636,1.221l-0.064-1.536
		c-0.006-0.144,0.017-0.265,0.068-0.364c0.052-0.101,0.129-0.172,0.232-0.215l2.218-0.921c0.097-0.042,0.163-0.097,0.2-0.163
		c0.038-0.066,0.054-0.161,0.049-0.287L98.362,121.799z M101.884,122.084l-2.339-0.189l0.026,0.623
		c0.01,0.244,0.057,0.449,0.139,0.617s0.188,0.302,0.318,0.403s0.279,0.171,0.448,0.211c0.17,0.041,0.347,0.057,0.532,0.049
		c0.143-0.006,0.271-0.033,0.386-0.08c0.115-0.046,0.212-0.115,0.29-0.208s0.137-0.207,0.177-0.343
		c0.04-0.137,0.056-0.296,0.048-0.476L101.884,122.084z"/>
	<path fill="#FFFFFF" d="M95.977,132.799l-0.055-1.317c-0.007-0.146,0.022-0.266,0.086-0.357c0.064-0.092,0.152-0.148,0.263-0.171
		l1.36-0.292l-0.109-2.589l-1.394-0.508c-0.1-0.033-0.188-0.105-0.269-0.212c-0.079-0.109-0.122-0.231-0.128-0.368l-0.056-1.339
		l7.771,3.318l0.073,1.746L95.977,132.799z M98.702,128.499l0.081,1.914l2.159-0.464c0.18-0.039,0.362-0.081,0.548-0.125
		c0.185-0.045,0.354-0.082,0.506-0.113c-0.085-0.024-0.181-0.057-0.289-0.097c-0.108-0.042-0.215-0.081-0.317-0.121
		s-0.198-0.076-0.288-0.113c-0.089-0.036-0.154-0.062-0.196-0.077L98.702,128.499z"/>
	<path fill="#FFFFFF" d="M97.437,136.122c0.009,0.191,0.03,0.356,0.065,0.497c0.036,0.14,0.078,0.26,0.128,0.359
		c0.05,0.099,0.104,0.183,0.16,0.249c0.058,0.067,0.109,0.128,0.156,0.182c0.048,0.054,0.088,0.104,0.12,0.152
		c0.031,0.048,0.048,0.099,0.051,0.155c0.002,0.056-0.006,0.103-0.023,0.14s-0.038,0.065-0.062,0.084l-0.69,0.626
		c-0.409-0.314-0.724-0.695-0.947-1.142c-0.223-0.445-0.347-0.959-0.371-1.537c-0.021-0.481,0.047-0.911,0.199-1.289
		c0.154-0.378,0.373-0.7,0.658-0.968c0.286-0.268,0.629-0.475,1.029-0.623c0.4-0.147,0.837-0.23,1.308-0.25
		c0.436-0.019,0.851,0.013,1.245,0.093c0.395,0.081,0.761,0.204,1.1,0.367c0.339,0.165,0.646,0.365,0.921,0.604
		c0.275,0.237,0.513,0.505,0.71,0.801c0.197,0.295,0.353,0.615,0.467,0.959c0.114,0.345,0.18,0.707,0.195,1.087
		c0.012,0.286-0.004,0.547-0.048,0.785s-0.11,0.454-0.198,0.647s-0.194,0.368-0.321,0.524c-0.126,0.155-0.267,0.292-0.422,0.411
		l-0.716-0.567c-0.051-0.04-0.096-0.087-0.137-0.142c-0.041-0.054-0.063-0.126-0.067-0.216c-0.002-0.06,0.01-0.114,0.035-0.164
		c0.026-0.051,0.059-0.102,0.096-0.153c0.038-0.053,0.08-0.111,0.127-0.176c0.046-0.065,0.088-0.143,0.123-0.231
		c0.037-0.089,0.066-0.193,0.089-0.314c0.023-0.122,0.031-0.265,0.024-0.428c-0.014-0.321-0.095-0.617-0.241-0.888
		c-0.148-0.272-0.353-0.505-0.613-0.698c-0.263-0.192-0.575-0.339-0.941-0.438c-0.365-0.101-0.771-0.141-1.218-0.122
		c-0.324,0.014-0.611,0.064-0.862,0.153c-0.252,0.09-0.462,0.207-0.633,0.35c-0.17,0.143-0.298,0.311-0.382,0.503
		S97.428,135.902,97.437,136.122z"/>
	<path fill="#FFFFFF" d="M104.115,144.796l-1.357-0.119l-0.081-1.936l-6.302-0.51l-0.071-1.694l6.301,0.5l-0.082-1.945l1.356,0.11
		L104.115,144.796z"/>
	<path fill="#FFFFFF" d="M96.562,146.676l-0.072-1.715l7.657,0.609l0.072,1.714L96.562,146.676z"/>
	<path fill="#FFFFFF" d="M104.249,147.976l0.058,1.369c0.006,0.146-0.024,0.266-0.09,0.355c-0.066,0.091-0.153,0.148-0.26,0.174
		l-4.165,0.972c-0.17,0.038-0.36,0.084-0.573,0.137c-0.212,0.053-0.428,0.098-0.646,0.135c0.223,0.063,0.441,0.139,0.656,0.224
		c0.215,0.086,0.412,0.16,0.594,0.227l4.273,1.601c0.046,0.02,0.093,0.047,0.14,0.084c0.047,0.036,0.089,0.08,0.126,0.133
		s0.068,0.11,0.092,0.174s0.037,0.13,0.04,0.199l0.058,1.381l-7.775-3.423l-0.065-1.547L104.249,147.976z"/>
	<path fill="#FFFFFF" d="M103.445,160.109l-0.118-2.818l-1.851-0.152l0.092,2.159l-1.273-0.114l-0.091-2.149l-1.896-0.148
		l0.119,2.839l-1.319-0.113l-0.191-4.549l7.658,0.62l0.191,4.538L103.445,160.109z"/>
</g>
<g>
	<path fill="#FFFFFF" d="M111.259,38.337l-0.038-1.717l7.644,0.76l0.039,1.715L111.259,38.337z"/>
	<path fill="#FFFFFF" d="M118.947,41.427c-0.004,0.051-0.015,0.097-0.033,0.137c-0.019,0.041-0.045,0.077-0.078,0.109
		c-0.035,0.032-0.079,0.064-0.135,0.097l-4.648,2.779c0.122,0.005,0.239,0.012,0.352,0.024c0.111,0.011,0.217,0.021,0.314,0.029
		l4.317,0.416l0.034,1.507l-7.645-0.77l-0.02-0.89c-0.003-0.133,0.014-0.242,0.05-0.331c0.036-0.088,0.109-0.165,0.22-0.23
		l4.644-2.769c-0.098-0.005-0.192-0.01-0.283-0.017s-0.177-0.013-0.257-0.018l-4.458-0.424l-0.034-1.507l7.644,0.77l0.021,0.9
		C118.953,41.314,118.952,41.377,118.947,41.427z"/>
	<path fill="#FFFFFF" d="M114.389,50.854l-2.854-0.287l-0.038-1.694l7.644,0.76l0.053,2.312c0.01,0.468-0.03,0.868-0.123,1.2
		c-0.092,0.332-0.223,0.604-0.393,0.818c-0.169,0.212-0.373,0.369-0.609,0.471c-0.236,0.101-0.495,0.155-0.773,0.161
		c-0.282,0.006-0.551-0.025-0.803-0.095c-0.254-0.069-0.487-0.173-0.701-0.311c-0.214-0.139-0.404-0.309-0.571-0.514
		c-0.167-0.203-0.306-0.437-0.416-0.7c-0.058,0.106-0.127,0.207-0.209,0.301c-0.081,0.095-0.185,0.169-0.309,0.224l-2.659,1.168
		l-0.034-1.537c-0.003-0.144,0.022-0.264,0.075-0.363c0.054-0.099,0.132-0.169,0.236-0.209l2.236-0.878
		c0.097-0.041,0.164-0.094,0.203-0.159c0.038-0.065,0.057-0.161,0.054-0.287L114.389,50.854z M117.903,51.21l-2.335-0.236
		l0.014,0.623c0.006,0.244,0.048,0.451,0.127,0.621s0.183,0.306,0.311,0.409s0.275,0.177,0.444,0.22
		c0.169,0.044,0.346,0.063,0.53,0.06c0.143-0.003,0.272-0.028,0.389-0.072c0.115-0.044,0.213-0.111,0.293-0.202
		c0.08-0.092,0.142-0.205,0.184-0.339c0.042-0.136,0.062-0.294,0.058-0.475L117.903,51.21z"/>
	<path fill="#FFFFFF" d="M118.069,60.472l-0.063-2.819l-1.847-0.189l0.049,2.16l-1.27-0.139l-0.049-2.15l-1.894-0.187l0.063,2.841
		l-1.316-0.139l-0.103-4.552l7.645,0.771l0.102,4.542L118.069,60.472z"/>
	<path fill="#FFFFFF" d="M111.909,67.227l-0.03-1.318c-0.003-0.146,0.028-0.265,0.095-0.354c0.065-0.091,0.153-0.146,0.265-0.165
		l1.366-0.267l-0.059-2.591l-1.384-0.533c-0.098-0.036-0.187-0.109-0.264-0.219c-0.077-0.111-0.117-0.233-0.12-0.37l-0.03-1.34
		l7.705,3.471l0.039,1.748L111.909,67.227z M114.718,62.982l0.043,1.915l2.169-0.421c0.181-0.035,0.363-0.073,0.55-0.113
		c0.186-0.042,0.354-0.076,0.508-0.104c-0.085-0.026-0.181-0.061-0.287-0.104c-0.107-0.043-0.213-0.085-0.314-0.126
		c-0.103-0.042-0.197-0.082-0.286-0.12c-0.088-0.038-0.153-0.064-0.195-0.082L114.718,62.982z"/>
	<path fill="#FFFFFF" d="M113.321,69.499l0.058,2.563l-1.364-0.137l-0.096-4.27l7.644,0.771l0.038,1.705L113.321,69.499z"/>
	<path fill="#FFFFFF" d="M113.479,76.52l0.058,2.563l-1.363-0.137l-0.097-4.27l7.645,0.771l0.038,1.706L113.479,76.52z"/>
	<path fill="#FFFFFF" d="M112.23,81.541l-0.038-1.716l7.644,0.761l0.039,1.715L112.23,81.541z"/>
	<path fill="#FFFFFF" d="M118.688,87.95l-0.063-2.82l-2.015-0.205l0.053,2.359l-1.316-0.149l-0.053-2.343l-2.996-0.299l-0.038-1.717
		l7.644,0.771l0.103,4.542L118.688,87.95z"/>
	<path fill="#FFFFFF" d="M118.808,93.307l-0.062-2.819l-1.848-0.189l0.049,2.161l-1.27-0.139l-0.049-2.15l-1.894-0.188l0.063,2.842
		l-1.316-0.139l-0.103-4.552l7.645,0.771l0.102,4.541L118.808,93.307z"/>
	<path fill="#FFFFFF" d="M112.588,97.436l-0.038-1.716l7.644,0.761l0.039,1.715L112.588,97.436z"/>
	<path fill="#FFFFFF" d="M120.276,100.526c-0.004,0.051-0.015,0.097-0.033,0.138c-0.019,0.04-0.045,0.076-0.079,0.109
		c-0.034,0.031-0.079,0.063-0.134,0.097l-4.648,2.779c0.122,0.005,0.239,0.013,0.351,0.024c0.112,0.012,0.218,0.021,0.315,0.029
		l4.317,0.416l0.034,1.507l-7.645-0.771l-0.02-0.889c-0.003-0.133,0.014-0.242,0.05-0.331c0.036-0.088,0.109-0.165,0.22-0.229
		l4.644-2.771c-0.098-0.004-0.192-0.01-0.283-0.017s-0.177-0.013-0.257-0.018l-4.459-0.423l-0.033-1.507l7.644,0.771l0.021,0.9
		C120.282,100.415,120.281,100.478,120.276,100.526z"/>
	<path fill="#FFFFFF" d="M120.539,111.862l-1.354-0.147l-0.044-1.937l-6.29-0.634l-0.038-1.695l6.29,0.624l-0.044-1.947l1.354,0.138
		L120.539,111.862z"/>
	<path fill="#FFFFFF" d="M119.339,116.903l-0.063-2.819l-1.847-0.189l0.048,2.16l-1.27-0.137l-0.049-2.152l-1.894-0.187l0.064,2.841
		l-1.317-0.139l-0.103-4.551l7.645,0.77l0.103,4.542L119.339,116.903z"/>
	<path fill="#FFFFFF" d="M115.924,119.132l-2.854-0.287l-0.038-1.695l7.645,0.761l0.052,2.312c0.011,0.468-0.03,0.867-0.123,1.199
		c-0.091,0.331-0.223,0.604-0.392,0.818c-0.17,0.213-0.374,0.369-0.61,0.472c-0.236,0.101-0.495,0.154-0.773,0.161
		c-0.282,0.006-0.55-0.025-0.803-0.095s-0.486-0.174-0.701-0.312c-0.214-0.139-0.404-0.31-0.571-0.514
		c-0.167-0.203-0.306-0.437-0.416-0.7c-0.058,0.106-0.126,0.206-0.208,0.301s-0.186,0.17-0.31,0.224l-2.658,1.17l-0.035-1.538
		c-0.003-0.144,0.022-0.264,0.075-0.363c0.054-0.099,0.133-0.169,0.236-0.209l2.236-0.878c0.097-0.039,0.165-0.093,0.203-0.158
		c0.039-0.065,0.057-0.16,0.055-0.286L115.924,119.132z M119.438,119.487l-2.335-0.235l0.015,0.623
		c0.005,0.243,0.047,0.45,0.126,0.619s0.183,0.306,0.311,0.409s0.276,0.177,0.444,0.22c0.169,0.044,0.346,0.063,0.53,0.06
		c0.143-0.004,0.272-0.028,0.389-0.072c0.115-0.044,0.213-0.111,0.293-0.202c0.08-0.092,0.142-0.204,0.184-0.339
		c0.043-0.136,0.062-0.295,0.058-0.476L119.438,119.487z"/>
	<path fill="#FFFFFF" d="M113.322,130.083l-0.029-1.318c-0.004-0.146,0.028-0.266,0.094-0.355c0.065-0.091,0.154-0.146,0.266-0.165
		l1.365-0.267l-0.058-2.59l-1.384-0.534c-0.099-0.036-0.187-0.109-0.265-0.219c-0.076-0.111-0.117-0.233-0.12-0.37l-0.03-1.339
		l7.705,3.471l0.039,1.747L113.322,130.083z M116.132,125.838l0.043,1.914l2.168-0.42c0.181-0.035,0.364-0.073,0.55-0.113
		c0.187-0.042,0.354-0.076,0.508-0.104c-0.084-0.026-0.18-0.061-0.287-0.104s-0.212-0.085-0.314-0.126
		c-0.102-0.042-0.197-0.082-0.285-0.12c-0.089-0.038-0.153-0.064-0.195-0.082L116.132,125.838z"/>
	<path fill="#FFFFFF" d="M114.717,133.434c0.004,0.192,0.022,0.358,0.056,0.499s0.072,0.261,0.12,0.361
		c0.048,0.1,0.1,0.185,0.155,0.253c0.056,0.069,0.106,0.13,0.153,0.185s0.085,0.106,0.116,0.155c0.03,0.048,0.047,0.1,0.048,0.156
		c0.001,0.056-0.007,0.102-0.025,0.139s-0.04,0.064-0.063,0.083l-0.704,0.611c-0.401-0.322-0.709-0.709-0.924-1.159
		c-0.214-0.45-0.327-0.966-0.34-1.545c-0.011-0.481,0.063-0.91,0.224-1.285c0.161-0.374,0.387-0.692,0.678-0.954
		s0.638-0.462,1.042-0.602c0.402-0.14,0.84-0.216,1.311-0.226c0.437-0.01,0.851,0.029,1.243,0.118
		c0.394,0.089,0.757,0.219,1.093,0.389c0.336,0.172,0.639,0.378,0.909,0.622c0.271,0.241,0.502,0.513,0.693,0.812
		s0.341,0.623,0.448,0.969c0.108,0.348,0.165,0.711,0.174,1.091c0.007,0.286-0.015,0.547-0.063,0.785
		c-0.049,0.236-0.119,0.45-0.211,0.642c-0.091,0.192-0.201,0.365-0.331,0.519c-0.129,0.152-0.272,0.286-0.431,0.402l-0.704-0.581
		c-0.05-0.041-0.094-0.089-0.134-0.144c-0.039-0.055-0.061-0.128-0.062-0.219c-0.001-0.06,0.012-0.113,0.038-0.163
		c0.027-0.05,0.06-0.099,0.099-0.15s0.082-0.109,0.13-0.173c0.047-0.064,0.09-0.141,0.128-0.229s0.07-0.192,0.096-0.314
		c0.024-0.12,0.035-0.264,0.032-0.427c-0.008-0.321-0.083-0.618-0.225-0.893c-0.143-0.274-0.342-0.511-0.6-0.71
		c-0.258-0.198-0.567-0.351-0.932-0.457c-0.363-0.107-0.769-0.156-1.215-0.146c-0.324,0.007-0.613,0.053-0.866,0.137
		s-0.466,0.196-0.639,0.336s-0.304,0.306-0.392,0.496S114.712,133.214,114.717,133.434z"/>
	<path fill="#FFFFFF" d="M121.223,142.239l-1.354-0.147l-0.043-1.937l-6.291-0.634l-0.038-1.695l6.29,0.624l-0.043-1.947
		l1.354,0.138L121.223,142.239z"/>
	<path fill="#FFFFFF" d="M113.635,143.969l-0.039-1.716l7.645,0.76l0.038,1.716L113.635,143.969z"/>
	<path fill="#FFFFFF" d="M121.294,145.42l0.031,1.371c0.003,0.146-0.029,0.264-0.097,0.352c-0.068,0.09-0.156,0.146-0.264,0.169
		l-4.184,0.89c-0.17,0.035-0.362,0.077-0.576,0.125c-0.213,0.049-0.429,0.09-0.648,0.122c0.222,0.068,0.438,0.147,0.651,0.236
		c0.214,0.091,0.41,0.17,0.59,0.239l4.241,1.685c0.046,0.02,0.092,0.048,0.138,0.086c0.046,0.036,0.088,0.081,0.124,0.135
		c0.035,0.054,0.065,0.112,0.088,0.176c0.021,0.064,0.034,0.132,0.035,0.201l0.031,1.382l-7.707-3.575l-0.035-1.549L121.294,145.42z
		"/>
	<path fill="#FFFFFF" d="M120.252,157.534l-0.063-2.82l-1.847-0.188l0.049,2.16l-1.27-0.139l-0.049-2.15l-1.894-0.187l0.063,2.841
		l-1.316-0.139l-0.103-4.552l7.645,0.771l0.102,4.542L120.252,157.534z"/>
</g>
</svg>
