<?xml version="1.0" encoding="utf-8"?>
<!-- Generator: Adobe Illustrator 17.0.2, SVG Export Plug-In . SVG Version: 6.00 Build 0)  -->
<!DOCTYPE svg PUBLIC "-//W3C//DTD SVG 1.1//EN" "http://www.w3.org/Graphics/SVG/1.1/DTD/svg11.dtd">
<svg version="1.1" id="Layer_1" xmlns="http://www.w3.org/2000/svg" xmlns:xlink="http://www.w3.org/1999/xlink" x="0px" y="0px"
	 width="182.509px" height="315.616px" viewBox="0 0 182.509 315.616" enable-background="new 0 0 182.509 315.616"
	 xml:space="preserve">
<polygon fill="none" stroke="#FFFFFF" points="30.64,5.6 134.844,0.505 167.844,15.755 181.985,303.088 22.136,315.08 0.794,25.11 
	"/>
<polygon fill="#0E0E0E" points="30.64,5.6 134.844,0.505 167.844,15.755 181.985,303.088 22.136,315.08 0.794,25.11 "/>
<path fill="none" stroke="#FFFFFF" d="M167.573,15.63c0,0-116.555,7.37-166.729,9.8c0,0,3.615,6.243,6.333,7.495"/>
<path fill="none" stroke="#FFFFFF" d="M7.177,32.755l153.167-9.68l16.892,274.263c0,0-0.125,2.375-2.5,3.125
	s-146.225,9.491-146.225,9.491s-3-0.375-3.5-2.25S7.177,32.755,7.177,32.755z"/>
<rect x="18.741" y="32.55" transform="matrix(-0.998 0.0627 -0.0627 -0.998 95.5897 336.0233)" fill="none" stroke="#FFFFFF" stroke-width="0.942" width="47.563" height="273.923"/>
<rect x="68.19" y="29.963" transform="matrix(-0.998 0.0627 -0.0627 -0.998 194.2272 327.7535)" fill="none" stroke="#FFFFFF" stroke-width="0.942" width="47.562" height="273.922"/>
<rect x="118.632" y="26.49" transform="matrix(-0.998 0.0626 -0.0626 -0.998 294.78 317.6613)" fill="none" stroke="#FFFFFF" stroke-width="0.942" width="47.562" height="273.917"/>
<line fill="none" stroke="#FFFFFF" x1="26.304" y1="309.219" x2="22.136" y2="315.08"/>
<line fill="none" stroke="#FFFFFF" x1="177.235" y1="299.755" x2="181.985" y2="303.088"/>
<path fill="none" stroke="#FFFFFF" d="M160.344,23.076"/>
<g>
	<path fill="#FFFFFF" d="M42.774,54.549c-0.161-0.072-0.246-0.186-0.256-0.341c-0.008-0.119,0.066-0.279,0.223-0.478
		c0.157-0.2,0.327-0.466,0.511-0.8c0.185-0.336,0.348-0.75,0.49-1.243c0.142-0.493,0.189-1.091,0.143-1.798
		c-0.047-0.706-0.189-1.321-0.426-1.844c-0.236-0.522-0.541-0.954-0.912-1.294c-0.372-0.338-0.792-0.587-1.262-0.745
		c-0.47-0.157-0.956-0.219-1.458-0.186c-0.658,0.044-1.193,0.22-1.604,0.527c-0.411,0.307-0.752,0.7-1.024,1.178
		s-0.491,1.014-0.658,1.609c-0.167,0.594-0.331,1.205-0.491,1.833c-0.16,0.626-0.343,1.238-0.546,1.836
		c-0.204,0.597-0.473,1.137-0.808,1.618c-0.335,0.482-0.761,0.881-1.278,1.196c-0.516,0.314-1.171,0.499-1.967,0.552
		c-0.813,0.054-1.588-0.035-2.324-0.266c-0.736-0.232-1.387-0.595-1.953-1.09c-0.566-0.495-1.027-1.117-1.384-1.864
		c-0.357-0.748-0.568-1.615-0.634-2.603c-0.085-1.28,0.068-2.397,0.459-3.351c0.392-0.952,0.957-1.804,1.697-2.55l0.629,0.344
		c0.145,0.102,0.221,0.225,0.231,0.37c0.005,0.083-0.042,0.192-0.144,0.328c-0.101,0.135-0.226,0.3-0.374,0.494
		c-0.147,0.193-0.307,0.425-0.477,0.694c-0.171,0.268-0.325,0.578-0.462,0.927c-0.137,0.35-0.247,0.747-0.327,1.194
		c-0.081,0.447-0.103,0.95-0.065,1.508c0.051,0.769,0.213,1.448,0.486,2.036c0.273,0.589,0.625,1.079,1.055,1.468
		c0.43,0.39,0.929,0.676,1.496,0.86c0.568,0.182,1.167,0.253,1.798,0.211c0.686-0.045,1.241-0.222,1.666-0.531
		c0.425-0.309,0.771-0.702,1.037-1.18c0.266-0.477,0.481-1.013,0.644-1.607c0.162-0.595,0.319-1.205,0.471-1.831
		c0.151-0.627,0.327-1.238,0.526-1.835c0.199-0.598,0.468-1.138,0.809-1.62c0.34-0.481,0.776-0.881,1.311-1.196
		c0.535-0.316,1.218-0.501,2.05-0.557c0.649-0.043,1.284,0.039,1.903,0.245c0.621,0.208,1.177,0.534,1.67,0.98
		c0.493,0.445,0.903,1.008,1.228,1.691c0.325,0.681,0.518,1.47,0.578,2.368c0.067,1.007-0.033,1.922-0.299,2.744
		c-0.268,0.822-0.708,1.585-1.323,2.287L42.774,54.549z"/>
	<path fill="#FFFFFF" d="M46.3,71.999l-1.192,0.079l-0.452-6.815l-18.211,1.208l-0.093-1.398l18.211-1.208l-0.455-6.856l1.192-0.079
		L46.3,71.999z"/>
	<path fill="#FFFFFF" d="M37.868,91.662c-1.499,0.1-2.874-0.034-4.124-0.4c-1.25-0.367-2.334-0.929-3.252-1.685
		c-0.918-0.756-1.65-1.687-2.196-2.788c-0.546-1.103-0.865-2.344-0.957-3.725c-0.09-1.362,0.062-2.626,0.458-3.79
		c0.396-1.165,0.998-2.182,1.808-3.054c0.811-0.871,1.811-1.573,3-2.106c1.191-0.534,2.536-0.851,4.035-0.95
		c1.49-0.099,2.86,0.038,4.111,0.41c1.25,0.371,2.335,0.935,3.253,1.691c0.918,0.757,1.652,1.686,2.203,2.788
		c0.55,1.102,0.871,2.333,0.961,3.696c0.092,1.381-0.061,2.653-0.456,3.818c-0.396,1.164-1,2.183-1.814,3.054
		c-0.815,0.871-1.818,1.571-3.008,2.101C40.698,91.249,39.358,91.562,37.868,91.662z M37.772,90.209
		c1.353-0.09,2.556-0.359,3.61-0.805c1.054-0.447,1.933-1.036,2.637-1.766c0.705-0.731,1.224-1.59,1.557-2.576
		c0.335-0.986,0.463-2.064,0.385-3.235c-0.077-1.151-0.345-2.192-0.807-3.122c-0.46-0.928-1.088-1.714-1.884-2.354
		c-0.795-0.64-1.745-1.114-2.849-1.421c-1.104-0.309-2.333-0.417-3.686-0.327c-1.362,0.09-2.568,0.36-3.617,0.812
		c-1.049,0.45-1.925,1.045-2.629,1.785c-0.704,0.739-1.22,1.602-1.55,2.582c-0.33,0.982-0.456,2.049-0.38,3.2
		c0.078,1.171,0.345,2.223,0.802,3.156c0.457,0.934,1.082,1.716,1.877,2.348c0.794,0.631,1.741,1.099,2.84,1.403
		C35.179,90.192,36.409,90.3,37.772,90.209z"/>
	<path fill="#FFFFFF" d="M37.359,98.1l-8.776,0.582l-0.093-1.399l19.403-1.288l0.329,4.951c0.149,2.239-0.172,3.941-0.962,5.104
		c-0.791,1.164-2.022,1.801-3.695,1.912c-0.74,0.049-1.426-0.034-2.055-0.249c-0.629-0.215-1.19-0.548-1.684-0.998
		c-0.493-0.448-0.911-1.001-1.253-1.659c-0.342-0.656-0.587-1.406-0.735-2.251c-0.122,0.229-0.292,0.438-0.509,0.626l-7.949,7.235
		l-0.081-1.221c-0.01-0.146,0.009-0.274,0.057-0.382c0.048-0.109,0.133-0.218,0.254-0.327l7.459-6.735
		c0.191-0.167,0.321-0.344,0.392-0.527c0.07-0.184,0.093-0.463,0.068-0.839L37.359,98.1z M38.401,98.031l0.224,3.374
		c0.057,0.859,0.21,1.622,0.462,2.289c0.251,0.668,0.584,1.224,0.999,1.669s0.9,0.775,1.457,0.985
		c0.556,0.21,1.172,0.294,1.849,0.249c1.38-0.092,2.374-0.612,2.981-1.562c0.607-0.949,0.853-2.288,0.738-4.016l-0.235-3.552
		L38.401,98.031z"/>
	<path fill="#FFFFFF" d="M35.08,123.539c0.15,0.045,0.298,0.093,0.444,0.144c0.146,0.05,0.285,0.107,0.417,0.172l13.986,6.729
		c0.123,0.065,0.202,0.133,0.234,0.205c0.031,0.071,0.052,0.172,0.061,0.299l0.064,0.974l-19.403,1.288l-0.082-1.233l16.538-1.097
		c0.238-0.016,0.49-0.019,0.757-0.009l-14.069-6.739c-0.247-0.112-0.377-0.287-0.393-0.525l-0.015-0.219
		c-0.015-0.229,0.091-0.419,0.32-0.573l13.055-8.744c-0.263,0.045-0.519,0.075-0.766,0.091l-16.538,1.097l-0.081-1.221l19.403-1.288
		l0.064,0.96c0.008,0.129,0.001,0.232-0.02,0.312c-0.022,0.08-0.091,0.16-0.204,0.241l-12.975,8.725
		C35.632,123.283,35.366,123.419,35.08,123.539z"/>
	<path fill="#FFFFFF" d="M31.393,141.028l-0.094-1.413l19.403-1.288l0.094,1.413L31.393,141.028z"/>
	<path fill="#FFFFFF" d="M51.231,147.012c-0.027,0.075-0.093,0.157-0.197,0.248l-15.979,13.678c0.272-0.047,0.537-0.078,0.792-0.095
		l16.277-1.08l0.082,1.234l-19.403,1.287l-0.044-0.673c-0.014-0.21,0.065-0.385,0.241-0.524l16.002-13.734
		c-0.272,0.046-0.532,0.077-0.779,0.093l-16.332,1.083l-0.081-1.221l19.403-1.288l0.045,0.686
		C51.267,146.834,51.257,146.936,51.231,147.012z"/>
	<path fill="#FFFFFF" d="M34.657,176.32c0.044,0.667,0.118,1.271,0.224,1.816c0.105,0.544,0.241,1.047,0.41,1.509
		c0.168,0.462,0.364,0.898,0.589,1.312c0.225,0.411,0.475,0.823,0.75,1.236l5.224-0.346l-0.247-3.73
		c-0.007-0.102,0.02-0.188,0.079-0.26s0.13-0.111,0.212-0.117l0.768-0.051l0.356,5.361l-6.898,0.458
		c-0.37-0.462-0.705-0.945-1.005-1.449c-0.3-0.504-0.559-1.046-0.776-1.629s-0.397-1.212-0.539-1.893
		c-0.142-0.679-0.239-1.425-0.293-2.239c-0.093-1.397,0.058-2.692,0.452-3.879c0.394-1.188,0.995-2.224,1.805-3.108
		c0.809-0.885,1.811-1.597,3.005-2.135c1.194-0.539,2.542-0.857,4.041-0.957c1.499-0.099,2.874,0.038,4.125,0.415
		c1.25,0.376,2.335,0.956,3.255,1.74c0.92,0.783,1.655,1.761,2.206,2.932c0.55,1.171,0.875,2.501,0.974,3.992
		c0.049,0.74,0.044,1.426-0.015,2.06c-0.059,0.633-0.168,1.225-0.33,1.777c-0.161,0.553-0.369,1.072-0.626,1.558
		c-0.257,0.484-0.559,0.955-0.905,1.409l-0.628-0.331c-0.143-0.072-0.22-0.183-0.229-0.329c-0.005-0.082,0.008-0.16,0.04-0.236
		c0.046-0.141,0.16-0.348,0.344-0.622c0.185-0.272,0.371-0.64,0.561-1.098c0.19-0.457,0.35-1.026,0.479-1.706
		c0.129-0.677,0.163-1.492,0.1-2.442c-0.083-1.262-0.36-2.388-0.83-3.376c-0.47-0.987-1.103-1.815-1.9-2.483
		s-1.748-1.161-2.852-1.478c-1.104-0.316-2.329-0.431-3.673-0.342c-1.371,0.092-2.587,0.369-3.649,0.835
		c-1.062,0.465-1.946,1.077-2.653,1.836s-1.229,1.646-1.566,2.666C34.706,174.013,34.578,175.121,34.657,176.32z"/>
	<path fill="#FFFFFF" d="M41.816,200.126c-1.088,0.072-2.058,0-2.907-0.213c-0.85-0.215-1.575-0.553-2.174-1.013
		c-0.6-0.462-1.067-1.041-1.403-1.739c-0.335-0.699-0.533-1.496-0.592-2.392c-0.027-0.411-0.022-0.829,0.013-1.255
		c0.036-0.424,0.108-0.866,0.216-1.323c0.128,0.01,0.258,0.019,0.387,0.023c0.129,0.005,0.257,0.008,0.387,0.009
		c0.083,0.013,0.159,0.042,0.226,0.088c0.067,0.047,0.105,0.133,0.113,0.261c0.005,0.082-0.004,0.183-0.028,0.299
		c-0.024,0.117-0.049,0.255-0.075,0.419c-0.026,0.162-0.048,0.346-0.066,0.556c-0.019,0.207-0.019,0.448-0.001,0.722
		c0.046,0.694,0.198,1.313,0.455,1.857c0.256,0.544,0.624,0.995,1.102,1.359c0.479,0.362,1.071,0.624,1.775,0.785
		c0.704,0.159,1.522,0.208,2.455,0.146l12.958-0.859l0.094,1.413L41.816,200.126z"/>
	<path fill="#FFFFFF" d="M37.202,213.42c0.062,0.932,0.28,1.756,0.653,2.471c0.374,0.714,0.865,1.308,1.475,1.782
		c0.61,0.474,1.315,0.819,2.115,1.037c0.799,0.218,1.651,0.296,2.557,0.236l11.999-0.796l0.093,1.399l-11.999,0.796
		c-1.07,0.071-2.08-0.032-3.03-0.309c-0.951-0.276-1.792-0.71-2.524-1.301c-0.732-0.589-1.326-1.325-1.779-2.208
		c-0.453-0.884-0.717-1.893-0.792-3.026s0.053-2.168,0.386-3.104c0.333-0.936,0.823-1.744,1.471-2.425
		c0.648-0.681,1.425-1.222,2.331-1.621c0.905-0.399,1.893-0.636,2.962-0.707l11.999-0.796l0.094,1.413l-11.985,0.795
		c-0.905,0.061-1.74,0.251-2.503,0.572c-0.764,0.321-1.417,0.756-1.959,1.3c-0.542,0.546-0.953,1.198-1.233,1.956
		S37.14,212.488,37.202,213.42z"/>
	<path fill="#FFFFFF" d="M56.481,226.134c-0.027,0.075-0.093,0.157-0.197,0.247l-15.979,13.677c0.272-0.047,0.537-0.078,0.792-0.095
		l16.277-1.08l0.082,1.235l-19.403,1.287l-0.044-0.673c-0.014-0.21,0.065-0.385,0.241-0.525l16.002-13.732
		c-0.272,0.046-0.532,0.077-0.779,0.093l-16.332,1.084l-0.081-1.222l19.403-1.287l0.045,0.687
		C56.517,225.957,56.507,226.058,56.481,226.134z"/>
	<path fill="#FFFFFF" d="M49.293,263.826c-1.499,0.1-2.874-0.034-4.125-0.4c-1.25-0.367-2.333-0.929-3.252-1.685
		c-0.918-0.757-1.65-1.687-2.196-2.789c-0.546-1.102-0.865-2.344-0.956-3.724c-0.09-1.362,0.062-2.627,0.458-3.791
		s0.998-2.182,1.808-3.053c0.81-0.872,1.81-1.573,3-2.106c1.19-0.534,2.536-0.852,4.035-0.951c1.49-0.099,2.86,0.038,4.111,0.41
		c1.25,0.371,2.335,0.935,3.253,1.692c0.918,0.756,1.652,1.685,2.203,2.786c0.55,1.102,0.871,2.335,0.961,3.697
		c0.091,1.38-0.061,2.653-0.456,3.817c-0.396,1.165-1,2.183-1.815,3.055c-0.814,0.871-1.818,1.57-3.008,2.1
		C52.123,263.413,50.782,263.727,49.293,263.826z M49.196,262.372c1.353-0.09,2.557-0.358,3.611-0.804
		c1.054-0.447,1.933-1.036,2.637-1.767c0.705-0.731,1.224-1.59,1.558-2.576c0.335-0.985,0.463-2.063,0.385-3.233
		c-0.077-1.152-0.345-2.192-0.807-3.122c-0.461-0.929-1.089-1.714-1.884-2.354c-0.795-0.64-1.745-1.114-2.849-1.421
		c-1.104-0.309-2.333-0.418-3.686-0.328c-1.362,0.091-2.567,0.361-3.617,0.812c-1.049,0.45-1.925,1.046-2.629,1.785
		c-0.705,0.74-1.221,1.601-1.55,2.582c-0.33,0.982-0.457,2.048-0.38,3.2c0.078,1.17,0.345,2.223,0.802,3.155
		c0.457,0.934,1.082,1.717,1.877,2.349c0.795,0.631,1.742,1.099,2.841,1.402C46.604,262.356,47.834,262.463,49.196,262.372z"/>
</g>
<g>
	<path fill="#FFFFFF" d="M92.107,51.216c-0.161-0.072-0.246-0.186-0.257-0.341c-0.008-0.119,0.066-0.279,0.223-0.478
		c0.157-0.2,0.327-0.466,0.512-0.8c0.185-0.336,0.348-0.75,0.489-1.243c0.142-0.493,0.189-1.091,0.143-1.798
		c-0.047-0.706-0.188-1.321-0.426-1.844c-0.236-0.522-0.541-0.954-0.912-1.294c-0.372-0.338-0.792-0.587-1.262-0.745
		c-0.47-0.157-0.956-0.219-1.458-0.186c-0.658,0.044-1.193,0.22-1.604,0.527c-0.411,0.307-0.752,0.7-1.024,1.178
		s-0.491,1.014-0.658,1.609c-0.167,0.594-0.331,1.205-0.491,1.833c-0.16,0.626-0.343,1.238-0.546,1.836
		c-0.204,0.597-0.473,1.137-0.808,1.618c-0.335,0.482-0.761,0.881-1.278,1.196c-0.516,0.314-1.171,0.499-1.967,0.552
		c-0.813,0.054-1.588-0.035-2.324-0.266c-0.736-0.232-1.387-0.595-1.953-1.09c-0.566-0.495-1.027-1.117-1.384-1.864
		c-0.357-0.748-0.568-1.615-0.634-2.603c-0.085-1.28,0.068-2.397,0.459-3.351c0.392-0.952,0.957-1.804,1.697-2.55l0.629,0.344
		c0.145,0.102,0.221,0.225,0.231,0.37c0.005,0.083-0.042,0.192-0.144,0.328c-0.101,0.135-0.226,0.3-0.374,0.494
		c-0.147,0.193-0.307,0.425-0.477,0.694c-0.171,0.268-0.325,0.578-0.462,0.927c-0.137,0.35-0.247,0.747-0.327,1.194
		c-0.081,0.447-0.103,0.95-0.065,1.508c0.051,0.769,0.213,1.448,0.486,2.036c0.273,0.589,0.625,1.079,1.055,1.468
		c0.43,0.39,0.929,0.676,1.496,0.86c0.568,0.182,1.167,0.253,1.798,0.211c0.686-0.045,1.241-0.222,1.666-0.531
		c0.425-0.309,0.771-0.702,1.037-1.18c0.266-0.477,0.481-1.013,0.644-1.607c0.162-0.595,0.319-1.205,0.471-1.831
		c0.151-0.627,0.327-1.238,0.526-1.835c0.199-0.598,0.468-1.138,0.809-1.62c0.34-0.481,0.776-0.881,1.311-1.196
		c0.535-0.316,1.218-0.501,2.05-0.557c0.649-0.043,1.284,0.039,1.903,0.245c0.621,0.208,1.177,0.534,1.67,0.98
		c0.493,0.445,0.902,1.008,1.228,1.691c0.325,0.681,0.518,1.47,0.577,2.368c0.067,1.007-0.033,1.922-0.299,2.744
		c-0.269,0.822-0.708,1.585-1.323,2.287L92.107,51.216z"/>
	<path fill="#FFFFFF" d="M95.633,68.666l-1.192,0.079l-0.452-6.815l-18.211,1.208l-0.093-1.398l18.211-1.208l-0.455-6.856
		l1.192-0.079L95.633,68.666z"/>
	<path fill="#FFFFFF" d="M87.201,88.329c-1.499,0.1-2.874-0.034-4.124-0.4c-1.25-0.367-2.334-0.929-3.252-1.685
		c-0.918-0.756-1.65-1.687-2.196-2.788c-0.546-1.103-0.865-2.344-0.957-3.725c-0.09-1.362,0.062-2.626,0.458-3.79
		c0.396-1.165,0.998-2.182,1.808-3.054c0.811-0.871,1.811-1.573,3-2.106c1.191-0.534,2.536-0.851,4.035-0.95
		c1.49-0.099,2.86,0.038,4.111,0.41c1.25,0.371,2.335,0.935,3.253,1.691c0.918,0.757,1.651,1.686,2.202,2.788
		c0.55,1.102,0.871,2.333,0.962,3.696c0.092,1.381-0.061,2.653-0.456,3.818c-0.396,1.164-1.001,2.183-1.814,3.054
		c-0.815,0.871-1.818,1.571-3.009,2.101C90.031,87.916,88.691,88.229,87.201,88.329z M87.105,86.876
		c1.353-0.09,2.556-0.359,3.61-0.805c1.054-0.447,1.933-1.036,2.637-1.766c0.705-0.731,1.224-1.59,1.558-2.576
		c0.335-0.986,0.463-2.064,0.385-3.235c-0.076-1.151-0.345-2.192-0.807-3.122c-0.461-0.928-1.089-1.714-1.885-2.354
		c-0.795-0.64-1.745-1.114-2.849-1.421c-1.104-0.309-2.333-0.417-3.686-0.327c-1.362,0.09-2.568,0.36-3.617,0.812
		c-1.049,0.45-1.925,1.045-2.629,1.785c-0.704,0.739-1.22,1.602-1.55,2.582c-0.33,0.982-0.456,2.049-0.38,3.2
		c0.078,1.171,0.345,2.223,0.802,3.156c0.457,0.934,1.082,1.716,1.877,2.348c0.794,0.631,1.741,1.099,2.84,1.403
		C84.512,86.859,85.742,86.967,87.105,86.876z"/>
	<path fill="#FFFFFF" d="M86.692,94.767l-8.776,0.582l-0.093-1.399l19.404-1.288l0.328,4.951c0.149,2.239-0.172,3.941-0.962,5.104
		c-0.791,1.164-2.022,1.801-3.695,1.912c-0.74,0.049-1.426-0.034-2.056-0.249c-0.629-0.215-1.19-0.548-1.684-0.998
		c-0.493-0.448-0.911-1.001-1.253-1.659c-0.342-0.656-0.587-1.406-0.735-2.251c-0.122,0.229-0.292,0.438-0.509,0.626l-7.949,7.235
		l-0.081-1.221c-0.01-0.146,0.009-0.274,0.057-0.382c0.048-0.109,0.133-0.218,0.254-0.327L86.4,98.67
		c0.191-0.167,0.321-0.344,0.392-0.527c0.07-0.184,0.093-0.463,0.068-0.839L86.692,94.767z M87.734,94.698l0.224,3.374
		c0.057,0.859,0.21,1.622,0.462,2.289c0.251,0.668,0.584,1.224,0.999,1.669s0.9,0.775,1.457,0.985
		c0.556,0.21,1.172,0.294,1.849,0.249c1.38-0.092,2.374-0.612,2.981-1.562c0.606-0.949,0.853-2.288,0.738-4.016l-0.235-3.552
		L87.734,94.698z"/>
	<path fill="#FFFFFF" d="M84.413,120.206c0.15,0.045,0.298,0.093,0.444,0.144c0.146,0.05,0.285,0.107,0.417,0.172l13.986,6.729
		c0.123,0.065,0.202,0.133,0.234,0.205c0.031,0.071,0.052,0.172,0.061,0.299l0.064,0.974l-19.404,1.288l-0.082-1.233l16.538-1.097
		c0.238-0.016,0.49-0.019,0.758-0.009l-14.069-6.739c-0.247-0.112-0.377-0.287-0.393-0.525l-0.015-0.219
		c-0.015-0.229,0.091-0.419,0.32-0.573l13.055-8.744c-0.263,0.045-0.519,0.075-0.766,0.091l-16.538,1.097l-0.081-1.221l19.404-1.288
		l0.063,0.96c0.009,0.129,0.002,0.232-0.02,0.312c-0.022,0.08-0.091,0.16-0.204,0.241l-12.975,8.725
		C84.965,119.95,84.699,120.086,84.413,120.206z"/>
	<path fill="#FFFFFF" d="M80.726,137.695l-0.094-1.413l19.404-1.288l0.094,1.413L80.726,137.695z"/>
	<path fill="#FFFFFF" d="M100.564,143.679c-0.027,0.075-0.093,0.157-0.197,0.248l-15.979,13.677
		c0.272-0.047,0.537-0.078,0.792-0.095l16.277-1.08l0.082,1.234l-19.404,1.287l-0.044-0.672c-0.014-0.21,0.065-0.385,0.241-0.524
		l16.002-13.733c-0.272,0.046-0.532,0.077-0.779,0.093l-16.332,1.083l-0.081-1.221l19.403-1.288l0.046,0.686
		C100.6,143.501,100.59,143.603,100.564,143.679z"/>
	<path fill="#FFFFFF" d="M83.99,172.986c0.044,0.667,0.118,1.271,0.224,1.816c0.105,0.544,0.241,1.047,0.41,1.509
		c0.168,0.462,0.364,0.898,0.589,1.312c0.225,0.411,0.475,0.823,0.75,1.236l5.224-0.346l-0.247-3.73
		c-0.007-0.102,0.02-0.188,0.079-0.26s0.13-0.111,0.212-0.117l0.768-0.051l0.356,5.361l-6.898,0.458
		c-0.37-0.462-0.705-0.945-1.005-1.449c-0.3-0.504-0.559-1.046-0.776-1.629s-0.397-1.212-0.539-1.893
		c-0.142-0.679-0.239-1.425-0.293-2.239c-0.093-1.397,0.058-2.692,0.452-3.879c0.394-1.188,0.995-2.224,1.805-3.108
		c0.809-0.885,1.811-1.597,3.005-2.135c1.194-0.539,2.542-0.857,4.042-0.957c1.499-0.099,2.874,0.038,4.125,0.415
		c1.251,0.376,2.336,0.956,3.256,1.74c0.92,0.783,1.654,1.761,2.205,2.932c0.55,1.171,0.875,2.501,0.975,3.992
		c0.049,0.74,0.044,1.426-0.016,2.06c-0.059,0.633-0.168,1.225-0.329,1.777s-0.369,1.072-0.627,1.558
		c-0.257,0.484-0.559,0.955-0.904,1.409l-0.628-0.331c-0.144-0.072-0.22-0.183-0.229-0.329c-0.005-0.082,0.008-0.16,0.04-0.236
		c0.046-0.141,0.16-0.348,0.344-0.622c0.185-0.272,0.371-0.64,0.562-1.098c0.189-0.457,0.35-1.026,0.479-1.706
		c0.129-0.677,0.163-1.492,0.1-2.442c-0.083-1.262-0.36-2.388-0.83-3.376c-0.47-0.987-1.103-1.815-1.9-2.483
		c-0.797-0.668-1.748-1.161-2.852-1.478c-1.104-0.316-2.329-0.431-3.674-0.342c-1.371,0.092-2.587,0.369-3.649,0.835
		c-1.062,0.465-1.946,1.077-2.653,1.836s-1.229,1.646-1.566,2.666C84.039,170.679,83.911,171.788,83.99,172.986z"/>
	<path fill="#FFFFFF" d="M91.149,196.792c-1.088,0.072-2.058,0-2.907-0.213c-0.85-0.215-1.575-0.553-2.174-1.013
		c-0.6-0.462-1.067-1.041-1.403-1.739c-0.335-0.699-0.533-1.496-0.592-2.392c-0.027-0.411-0.022-0.829,0.013-1.255
		c0.036-0.424,0.108-0.866,0.216-1.323c0.128,0.01,0.258,0.019,0.387,0.023c0.129,0.005,0.257,0.008,0.387,0.009
		c0.083,0.013,0.159,0.042,0.226,0.088c0.067,0.047,0.105,0.133,0.113,0.261c0.005,0.082-0.004,0.183-0.028,0.299
		c-0.024,0.117-0.049,0.255-0.075,0.419c-0.026,0.162-0.048,0.346-0.066,0.556c-0.019,0.207-0.019,0.448-0.001,0.722
		c0.046,0.694,0.198,1.313,0.455,1.857c0.256,0.544,0.624,0.995,1.102,1.359c0.479,0.362,1.071,0.624,1.775,0.785
		c0.704,0.159,1.522,0.208,2.455,0.146l12.958-0.859l0.094,1.413L91.149,196.792z"/>
	<path fill="#FFFFFF" d="M86.535,210.086c0.062,0.932,0.28,1.756,0.653,2.471c0.374,0.714,0.865,1.308,1.475,1.782
		c0.61,0.474,1.315,0.819,2.115,1.037c0.799,0.218,1.651,0.296,2.557,0.236l11.999-0.796l0.093,1.399l-11.999,0.796
		c-1.069,0.071-2.08-0.032-3.03-0.309c-0.951-0.276-1.792-0.71-2.524-1.301c-0.732-0.589-1.326-1.325-1.779-2.208
		c-0.453-0.884-0.717-1.893-0.792-3.026s0.053-2.168,0.386-3.104c0.333-0.936,0.823-1.744,1.471-2.425
		c0.648-0.681,1.425-1.222,2.331-1.621c0.905-0.399,1.893-0.636,2.962-0.707l11.999-0.796l0.094,1.413l-11.985,0.795
		c-0.905,0.061-1.74,0.251-2.503,0.572c-0.764,0.321-1.417,0.756-1.959,1.3c-0.542,0.546-0.953,1.198-1.233,1.956
		S86.473,209.154,86.535,210.086z"/>
	<path fill="#FFFFFF" d="M105.814,222.8c-0.027,0.075-0.093,0.157-0.196,0.247l-15.979,13.677c0.272-0.047,0.537-0.078,0.792-0.095
		l16.277-1.08l0.082,1.235l-19.403,1.287l-0.044-0.673c-0.014-0.21,0.065-0.385,0.241-0.525l16.002-13.732
		c-0.272,0.046-0.532,0.077-0.778,0.093l-16.333,1.084l-0.081-1.222l19.404-1.287l0.045,0.687
		C105.85,222.623,105.84,222.724,105.814,222.8z"/>
	<path fill="#FFFFFF" d="M98.626,260.492c-1.499,0.1-2.874-0.034-4.124-0.4c-1.25-0.367-2.334-0.929-3.252-1.685
		c-0.918-0.757-1.65-1.687-2.196-2.789c-0.546-1.102-0.865-2.344-0.956-3.724c-0.09-1.362,0.062-2.627,0.458-3.791
		s0.998-2.182,1.808-3.053c0.81-0.872,1.811-1.573,3.001-2.106c1.19-0.534,2.535-0.852,4.034-0.951
		c1.49-0.099,2.86,0.038,4.111,0.41c1.25,0.371,2.335,0.935,3.253,1.692c0.918,0.756,1.651,1.685,2.202,2.786
		c0.55,1.102,0.871,2.335,0.962,3.697c0.091,1.38-0.062,2.653-0.456,3.817c-0.396,1.165-1.001,2.183-1.815,3.055
		c-0.814,0.871-1.817,1.57-3.008,2.1C101.456,260.079,100.116,260.393,98.626,260.492z M98.529,259.038
		c1.354-0.09,2.557-0.358,3.611-0.804c1.054-0.447,1.933-1.036,2.637-1.767c0.705-0.731,1.224-1.59,1.558-2.576
		c0.335-0.985,0.463-2.063,0.385-3.233c-0.076-1.152-0.345-2.192-0.807-3.122c-0.461-0.929-1.089-1.714-1.885-2.354
		c-0.795-0.64-1.745-1.114-2.849-1.421c-1.104-0.309-2.333-0.418-3.686-0.328c-1.362,0.091-2.567,0.361-3.617,0.812
		c-1.049,0.45-1.925,1.046-2.629,1.785c-0.705,0.74-1.221,1.601-1.55,2.582c-0.33,0.982-0.457,2.048-0.38,3.2
		c0.078,1.17,0.345,2.223,0.802,3.155c0.457,0.934,1.082,1.717,1.877,2.349c0.795,0.631,1.741,1.099,2.841,1.402
		C95.937,259.022,97.167,259.129,98.529,259.038z"/>
</g>
<g>
	<path fill="#FFFFFF" d="M143.44,48.549c-0.161-0.072-0.246-0.186-0.257-0.341c-0.008-0.119,0.066-0.279,0.223-0.478
		c0.157-0.2,0.327-0.466,0.512-0.8c0.185-0.336,0.348-0.75,0.489-1.243c0.142-0.493,0.189-1.091,0.143-1.798
		c-0.047-0.706-0.188-1.321-0.426-1.844c-0.236-0.522-0.541-0.954-0.912-1.294c-0.371-0.338-0.792-0.587-1.262-0.745
		c-0.47-0.157-0.955-0.219-1.458-0.186c-0.658,0.044-1.192,0.22-1.604,0.527c-0.411,0.307-0.753,0.7-1.024,1.178
		s-0.49,1.014-0.657,1.609c-0.167,0.594-0.331,1.205-0.491,1.833c-0.16,0.626-0.343,1.238-0.547,1.836
		c-0.203,0.597-0.473,1.137-0.808,1.618c-0.336,0.482-0.762,0.881-1.278,1.196c-0.516,0.314-1.171,0.499-1.967,0.552
		c-0.813,0.054-1.589-0.035-2.324-0.266c-0.736-0.232-1.388-0.595-1.953-1.09s-1.026-1.117-1.384-1.864
		c-0.357-0.748-0.568-1.615-0.634-2.603c-0.085-1.28,0.068-2.397,0.459-3.351c0.392-0.952,0.957-1.804,1.697-2.55l0.629,0.344
		c0.145,0.102,0.222,0.225,0.231,0.37c0.005,0.083-0.043,0.192-0.145,0.328c-0.101,0.135-0.226,0.3-0.373,0.494
		c-0.147,0.193-0.307,0.425-0.477,0.694c-0.171,0.268-0.325,0.578-0.463,0.927c-0.137,0.35-0.246,0.747-0.326,1.194
		c-0.081,0.447-0.103,0.95-0.065,1.508c0.051,0.769,0.213,1.448,0.486,2.036c0.272,0.589,0.624,1.079,1.055,1.468
		c0.43,0.39,0.929,0.676,1.496,0.86c0.567,0.182,1.167,0.253,1.798,0.211c0.686-0.045,1.241-0.222,1.666-0.531
		c0.425-0.309,0.771-0.702,1.037-1.18c0.266-0.477,0.481-1.013,0.644-1.607c0.162-0.595,0.319-1.205,0.471-1.831
		c0.151-0.627,0.327-1.238,0.526-1.835c0.199-0.598,0.468-1.138,0.809-1.62c0.34-0.481,0.776-0.881,1.311-1.196
		c0.535-0.316,1.219-0.501,2.05-0.557c0.649-0.043,1.284,0.039,1.903,0.245c0.62,0.208,1.177,0.534,1.67,0.98
		c0.493,0.445,0.902,1.008,1.228,1.691c0.325,0.681,0.518,1.47,0.577,2.368c0.067,1.007-0.033,1.922-0.299,2.744
		c-0.269,0.822-0.708,1.585-1.323,2.287L143.44,48.549z"/>
	<path fill="#FFFFFF" d="M146.966,65.999l-1.192,0.079l-0.452-6.815l-18.211,1.208l-0.093-1.398l18.211-1.208l-0.455-6.856
		l1.192-0.079L146.966,65.999z"/>
	<path fill="#FFFFFF" d="M138.534,85.662c-1.499,0.1-2.873-0.034-4.124-0.4c-1.25-0.367-2.334-0.929-3.252-1.685
		c-0.918-0.756-1.649-1.687-2.195-2.788c-0.546-1.103-0.865-2.344-0.957-3.725c-0.09-1.362,0.062-2.626,0.458-3.79
		c0.396-1.165,0.998-2.182,1.808-3.054c0.811-0.871,1.811-1.573,3.001-2.106c1.19-0.534,2.535-0.851,4.034-0.95
		c1.49-0.099,2.86,0.038,4.111,0.41c1.25,0.371,2.335,0.935,3.253,1.691c0.918,0.757,1.651,1.686,2.202,2.788
		c0.55,1.102,0.871,2.333,0.962,3.696c0.092,1.381-0.061,2.653-0.456,3.818c-0.396,1.164-1.001,2.183-1.814,3.054
		c-0.815,0.871-1.818,1.571-3.009,2.101C141.365,85.249,140.024,85.562,138.534,85.662z M138.438,84.209
		c1.353-0.09,2.556-0.359,3.61-0.805c1.054-0.447,1.933-1.036,2.637-1.766c0.705-0.731,1.224-1.59,1.558-2.576
		c0.335-0.986,0.463-2.064,0.385-3.235c-0.076-1.151-0.345-2.192-0.807-3.122c-0.461-0.928-1.089-1.714-1.885-2.354
		c-0.795-0.64-1.744-1.114-2.849-1.421c-1.104-0.309-2.332-0.417-3.686-0.327c-1.362,0.09-2.567,0.36-3.617,0.812
		c-1.049,0.45-1.925,1.045-2.629,1.785s-1.22,1.602-1.55,2.582c-0.33,0.982-0.456,2.049-0.38,3.2
		c0.077,1.171,0.345,2.223,0.802,3.156c0.457,0.934,1.082,1.716,1.877,2.348c0.795,0.631,1.741,1.099,2.841,1.403
		C135.845,84.192,137.076,84.3,138.438,84.209z"/>
	<path fill="#FFFFFF" d="M138.025,92.1l-8.776,0.582l-0.093-1.399l19.403-1.288l0.328,4.951c0.149,2.239-0.172,3.941-0.962,5.104
		c-0.791,1.164-2.022,1.801-3.695,1.912c-0.74,0.049-1.426-0.034-2.056-0.249c-0.629-0.215-1.19-0.548-1.684-0.998
		c-0.493-0.448-0.911-1.001-1.254-1.659c-0.342-0.656-0.587-1.406-0.734-2.251c-0.122,0.229-0.293,0.438-0.51,0.626l-7.948,7.235
		l-0.081-1.221c-0.01-0.146,0.009-0.274,0.057-0.382c0.048-0.109,0.133-0.218,0.254-0.327l7.459-6.735
		c0.19-0.167,0.321-0.344,0.392-0.527c0.07-0.184,0.093-0.463,0.068-0.839L138.025,92.1z M139.067,92.031l0.224,3.374
		c0.058,0.859,0.211,1.622,0.462,2.289c0.251,0.668,0.584,1.224,0.999,1.669s0.9,0.775,1.457,0.985
		c0.556,0.21,1.172,0.294,1.849,0.249c1.38-0.092,2.374-0.612,2.981-1.562c0.606-0.949,0.853-2.288,0.738-4.016l-0.235-3.552
		L139.067,92.031z"/>
	<path fill="#FFFFFF" d="M135.746,117.539c0.15,0.045,0.299,0.093,0.444,0.144c0.146,0.05,0.284,0.107,0.417,0.172l13.986,6.729
		c0.123,0.065,0.202,0.133,0.234,0.205c0.031,0.071,0.052,0.172,0.061,0.299l0.064,0.974l-19.403,1.288l-0.082-1.233l16.537-1.097
		c0.238-0.016,0.49-0.019,0.758-0.009l-14.069-6.739c-0.246-0.112-0.377-0.287-0.393-0.525l-0.015-0.219
		c-0.016-0.229,0.091-0.419,0.32-0.573l13.055-8.744c-0.263,0.045-0.519,0.075-0.766,0.091l-16.537,1.097l-0.081-1.221l19.403-1.288
		l0.063,0.96c0.009,0.129,0.002,0.232-0.02,0.312c-0.022,0.08-0.091,0.16-0.204,0.241l-12.975,8.725
		C136.298,117.283,136.033,117.419,135.746,117.539z"/>
	<path fill="#FFFFFF" d="M132.059,135.028l-0.094-1.413l19.403-1.288l0.094,1.413L132.059,135.028z"/>
	<path fill="#FFFFFF" d="M151.897,141.012c-0.027,0.075-0.093,0.157-0.197,0.248l-15.979,13.677
		c0.272-0.047,0.536-0.078,0.792-0.095l16.277-1.08l0.082,1.234l-19.403,1.287l-0.045-0.673c-0.014-0.21,0.065-0.385,0.241-0.524
		l16.002-13.733c-0.272,0.046-0.532,0.077-0.779,0.093l-16.332,1.083l-0.081-1.221l19.403-1.288l0.046,0.686
		C151.933,140.834,151.923,140.936,151.897,141.012z"/>
	<path fill="#FFFFFF" d="M135.324,170.32c0.044,0.667,0.118,1.271,0.224,1.816c0.104,0.544,0.241,1.047,0.41,1.509
		c0.168,0.462,0.364,0.898,0.589,1.312c0.226,0.411,0.476,0.823,0.751,1.236l5.224-0.346l-0.247-3.73
		c-0.007-0.102,0.021-0.188,0.079-0.26c0.06-0.072,0.131-0.111,0.213-0.117l0.768-0.051l0.356,5.361l-6.898,0.458
		c-0.37-0.462-0.705-0.945-1.005-1.449s-0.559-1.046-0.776-1.629c-0.217-0.583-0.396-1.212-0.538-1.893
		c-0.142-0.679-0.239-1.425-0.293-2.239c-0.093-1.397,0.058-2.692,0.451-3.879c0.394-1.188,0.995-2.224,1.805-3.108
		s1.811-1.597,3.006-2.135c1.194-0.539,2.542-0.857,4.041-0.957c1.499-0.099,2.874,0.038,4.125,0.415
		c1.251,0.376,2.336,0.956,3.256,1.74c0.92,0.783,1.654,1.761,2.205,2.932c0.55,1.171,0.875,2.501,0.975,3.992
		c0.049,0.74,0.044,1.426-0.016,2.06c-0.059,0.633-0.168,1.225-0.329,1.777s-0.369,1.072-0.627,1.558
		c-0.257,0.484-0.559,0.955-0.904,1.409l-0.628-0.331c-0.144-0.072-0.22-0.183-0.229-0.329c-0.005-0.082,0.008-0.16,0.04-0.236
		c0.046-0.141,0.16-0.348,0.344-0.622c0.185-0.272,0.371-0.64,0.562-1.098c0.189-0.457,0.35-1.026,0.479-1.706
		c0.129-0.677,0.163-1.492,0.1-2.442c-0.083-1.262-0.36-2.388-0.83-3.376c-0.47-0.987-1.103-1.815-1.9-2.483
		c-0.797-0.668-1.748-1.161-2.852-1.478c-1.104-0.316-2.329-0.431-3.674-0.342c-1.371,0.092-2.587,0.369-3.649,0.835
		c-1.062,0.465-1.945,1.077-2.653,1.836c-0.707,0.759-1.229,1.646-1.565,2.666C135.372,168.013,135.244,169.121,135.324,170.32z"/>
	<path fill="#FFFFFF" d="M142.482,194.126c-1.088,0.072-2.058,0-2.907-0.213c-0.85-0.215-1.575-0.553-2.175-1.013
		c-0.6-0.462-1.067-1.041-1.403-1.739c-0.335-0.699-0.532-1.496-0.592-2.392c-0.027-0.411-0.022-0.829,0.013-1.255
		c0.036-0.424,0.107-0.866,0.216-1.323c0.128,0.01,0.258,0.019,0.387,0.023s0.257,0.008,0.387,0.009
		c0.083,0.013,0.158,0.042,0.226,0.088c0.067,0.047,0.105,0.133,0.113,0.261c0.006,0.082-0.004,0.183-0.028,0.299
		c-0.024,0.117-0.049,0.255-0.075,0.419c-0.025,0.162-0.048,0.346-0.066,0.556c-0.019,0.207-0.019,0.448-0.001,0.722
		c0.047,0.694,0.198,1.313,0.455,1.857c0.256,0.544,0.623,0.995,1.102,1.359c0.479,0.362,1.07,0.624,1.774,0.785
		c0.704,0.159,1.522,0.208,2.455,0.146l12.958-0.859l0.094,1.413L142.482,194.126z"/>
	<path fill="#FFFFFF" d="M137.868,207.42c0.062,0.932,0.28,1.756,0.653,2.471c0.373,0.714,0.865,1.308,1.475,1.782
		c0.609,0.474,1.314,0.819,2.114,1.037c0.799,0.218,1.651,0.296,2.557,0.236l11.999-0.796l0.093,1.399l-11.999,0.796
		c-1.069,0.071-2.079-0.032-3.029-0.309c-0.951-0.276-1.792-0.71-2.524-1.301c-0.732-0.589-1.326-1.325-1.779-2.208
		c-0.453-0.884-0.717-1.893-0.792-3.026s0.053-2.168,0.386-3.104c0.332-0.936,0.823-1.744,1.471-2.425
		c0.648-0.681,1.425-1.222,2.331-1.621c0.905-0.399,1.893-0.636,2.962-0.707l11.999-0.796l0.094,1.413l-11.985,0.795
		c-0.905,0.061-1.739,0.251-2.503,0.572s-1.417,0.756-1.959,1.3c-0.542,0.546-0.953,1.198-1.233,1.956
		S137.806,206.488,137.868,207.42z"/>
	<path fill="#FFFFFF" d="M157.147,220.134c-0.027,0.075-0.093,0.157-0.196,0.247l-15.979,13.677
		c0.272-0.047,0.537-0.078,0.793-0.095l16.276-1.08l0.082,1.235l-19.403,1.287l-0.044-0.673c-0.015-0.21,0.065-0.385,0.24-0.525
		l16.002-13.732c-0.272,0.046-0.532,0.077-0.778,0.093l-16.332,1.084l-0.081-1.222l19.403-1.287l0.045,0.687
		C157.183,219.957,157.173,220.058,157.147,220.134z"/>
	<path fill="#FFFFFF" d="M149.959,257.826c-1.499,0.1-2.874-0.034-4.124-0.4c-1.25-0.367-2.334-0.929-3.252-1.685
		c-0.918-0.757-1.65-1.687-2.196-2.789c-0.546-1.102-0.864-2.344-0.956-3.724c-0.09-1.362,0.062-2.627,0.458-3.791
		s0.998-2.182,1.808-3.053c0.811-0.872,1.811-1.573,3.001-2.106c1.19-0.534,2.535-0.852,4.034-0.951
		c1.49-0.099,2.86,0.038,4.111,0.41c1.25,0.371,2.335,0.935,3.253,1.692c0.918,0.756,1.651,1.685,2.202,2.786
		c0.55,1.102,0.871,2.335,0.962,3.697c0.091,1.38-0.062,2.653-0.456,3.817c-0.396,1.165-1.001,2.183-1.815,3.055
		c-0.814,0.871-1.817,1.57-3.008,2.1C152.789,257.413,151.449,257.727,149.959,257.826z M149.862,256.372
		c1.354-0.09,2.557-0.358,3.611-0.804c1.054-0.447,1.933-1.036,2.637-1.767c0.705-0.731,1.224-1.59,1.558-2.576
		c0.335-0.985,0.463-2.063,0.385-3.233c-0.076-1.152-0.345-2.192-0.807-3.122c-0.461-0.929-1.089-1.714-1.885-2.354
		c-0.795-0.64-1.745-1.114-2.849-1.421c-1.104-0.309-2.333-0.418-3.686-0.328c-1.362,0.091-2.567,0.361-3.617,0.812
		c-1.049,0.45-1.925,1.046-2.629,1.785c-0.704,0.74-1.221,1.601-1.55,2.582c-0.33,0.982-0.457,2.048-0.38,3.2
		c0.077,1.17,0.345,2.223,0.802,3.155c0.456,0.934,1.082,1.717,1.877,2.349c0.795,0.631,1.741,1.099,2.841,1.402
		C147.27,256.356,148.5,256.463,149.862,256.372z"/>
</g>
</svg>
