<?xml version="1.0" encoding="utf-8"?>
<!-- Generator: Adobe Illustrator 17.0.2, SVG Export Plug-In . SVG Version: 6.00 Build 0)  -->
<!DOCTYPE svg PUBLIC "-//W3C//DTD SVG 1.1//EN" "http://www.w3.org/Graphics/SVG/1.1/DTD/svg11.dtd">
<svg version="1.1" id="Layer_1" xmlns="http://www.w3.org/2000/svg" xmlns:xlink="http://www.w3.org/1999/xlink" x="0px" y="0px"
	 width="88.449px" height="307.5px" viewBox="0 0 88.449 307.5" enable-background="new 0 0 88.449 307.5" xml:space="preserve">
<path fill="none" stroke="#FFFFFF" d="M73.193,1.418c-1.167,0.918-3.166,0-3.166,0l-69.5,2.5L14.36,253.417L76.943,307"/>
<g>
	<path fill="#0E0E0E" d="M14.36,253.876l62.583,53.583h11l-3.75-306.5h-11v0.918c0,0-2.116-0.038-3.166,0l-69.5,2.5"/>
	<polygon fill="none" stroke="#FFFFFF" points="73.193,0.5 84.193,0.5 87.943,307 76.943,307 	"/>
	<line fill="none" stroke="#FFFFFF" stroke-width="0.5" x1="70.027" y1="1.418" x2="74.678" y2="305.061"/>
</g>
<g>
	<path fill="#FFFFFF" d="M81.38,53.9l-0.612-0.067l-0.031-1.645l-4.976-0.515l-0.014-0.724l4.976,0.515l-0.03-1.654l0.612,0.063
		L81.38,53.9z"/>
	<path fill="#FFFFFF" d="M75.883,58.217l-0.014-0.735l2.551,0.268l-0.051-2.721l-2.551-0.263l-0.014-0.735l5.588,0.585l0.014,0.731
		l-2.507-0.261l0.051,2.721l2.507,0.26l0.014,0.73L75.883,58.217z"/>
	<path fill="#FFFFFF" d="M80.956,63.14l-0.045-2.44l-1.884-0.198l0.037,1.977l-0.573-0.062l-0.037-1.974l-1.942-0.201l0.046,2.448
		l-0.593-0.063l-0.059-3.179l5.588,0.585l0.059,3.171L80.956,63.14z"/>
	<path fill="#FFFFFF" d="M76.581,67.452c0.002,0.135,0.011,0.261,0.028,0.377c0.016,0.116,0.04,0.226,0.07,0.328
		c0.03,0.101,0.066,0.199,0.108,0.293c0.042,0.094,0.09,0.188,0.144,0.28l1.263,0.129l-0.015-0.774
		c-0.001-0.044,0.011-0.08,0.033-0.104c0.023-0.025,0.053-0.038,0.089-0.039c0.026,0.002,0.047,0.004,0.062,0.005
		c0.016,0.001,0.036,0.003,0.062,0.004l0.308,0.03l0.03,1.596l-2.133-0.221c-0.104-0.139-0.195-0.282-0.272-0.429
		c-0.078-0.148-0.145-0.305-0.198-0.47s-0.094-0.339-0.122-0.523c-0.028-0.183-0.045-0.381-0.049-0.594
		c-0.006-0.338,0.049-0.644,0.164-0.92c0.115-0.276,0.279-0.513,0.493-0.711c0.213-0.199,0.469-0.354,0.768-0.464
		c0.299-0.111,0.627-0.17,0.985-0.177c0.479-0.009,0.92,0.058,1.321,0.2c0.401,0.141,0.747,0.342,1.038,0.599
		c0.292,0.258,0.521,0.566,0.686,0.926c0.165,0.358,0.251,0.752,0.259,1.18c0.004,0.215-0.01,0.412-0.044,0.589
		c-0.032,0.177-0.08,0.338-0.142,0.481c-0.062,0.144-0.137,0.274-0.224,0.391c-0.085,0.117-0.18,0.225-0.281,0.323l-0.308-0.228
		c-0.034-0.025-0.061-0.051-0.079-0.079c-0.02-0.027-0.029-0.058-0.029-0.094c-0.001-0.045,0.011-0.087,0.036-0.129
		c0.032-0.057,0.075-0.122,0.127-0.191c0.052-0.07,0.101-0.154,0.146-0.252c0.047-0.099,0.086-0.216,0.118-0.355
		c0.033-0.138,0.047-0.305,0.044-0.499c-0.006-0.319-0.072-0.61-0.2-0.874c-0.126-0.264-0.304-0.489-0.533-0.676
		c-0.229-0.186-0.505-0.33-0.825-0.43c-0.321-0.1-0.678-0.146-1.069-0.139c-0.293,0.005-0.556,0.048-0.788,0.129
		c-0.231,0.081-0.428,0.193-0.589,0.336c-0.161,0.143-0.282,0.314-0.366,0.513C76.615,66.987,76.576,67.208,76.581,67.452z"/>
	<path fill="#FFFFFF" d="M76.72,72.411c0.004,0.208,0.048,0.398,0.132,0.572c0.083,0.173,0.196,0.325,0.341,0.453
		c0.144,0.128,0.314,0.233,0.514,0.314c0.198,0.08,0.415,0.133,0.648,0.157l3.404,0.354l0.014,0.728l-3.404-0.349
		c-0.319-0.033-0.617-0.111-0.894-0.234c-0.275-0.124-0.517-0.284-0.721-0.483c-0.205-0.199-0.367-0.432-0.486-0.698
		c-0.119-0.266-0.182-0.559-0.188-0.877c-0.005-0.288,0.036-0.545,0.126-0.769c0.089-0.226,0.216-0.417,0.38-0.574
		c0.165-0.158,0.362-0.278,0.592-0.364c0.229-0.084,0.481-0.129,0.756-0.134c0.116-0.002,0.235,0.003,0.358,0.017l3.404,0.349
		l0.013,0.728l-3.4-0.353c-0.052-0.004-0.103-0.008-0.151-0.011c-0.05-0.003-0.098-0.004-0.145-0.003
		c-0.194,0.004-0.371,0.033-0.531,0.086c-0.159,0.053-0.297,0.129-0.412,0.229c-0.114,0.099-0.203,0.221-0.264,0.366
		C76.745,72.059,76.717,72.225,76.72,72.411z"/>
	<path fill="#FFFFFF" d="M78.478,77.824l-2.234-0.235l-0.014-0.729l2.227,0.235l3.326-1.533l0.012,0.646
		c0.002,0.064-0.014,0.114-0.045,0.148c-0.032,0.035-0.072,0.062-0.121,0.084l-2.217,0.967c-0.074,0.028-0.146,0.051-0.212,0.07
		c-0.067,0.019-0.135,0.036-0.202,0.051c0.068,0.03,0.137,0.063,0.205,0.099c0.067,0.037,0.14,0.077,0.216,0.119l2.261,1.441
		c0.042,0.028,0.081,0.063,0.119,0.105c0.037,0.041,0.056,0.094,0.057,0.156l0.012,0.604L78.478,77.824z"/>
	<path fill="#FFFFFF" d="M76.397,85.822l-0.011-0.561c-0.001-0.064,0.015-0.115,0.046-0.152c0.032-0.037,0.073-0.063,0.125-0.077
		l1.356-0.329l-0.042-2.272l-1.374-0.612c-0.047-0.023-0.089-0.058-0.124-0.105c-0.036-0.047-0.055-0.101-0.057-0.16l-0.01-0.567
		l5.626,2.631l0.014,0.735L76.397,85.822z M78.405,82.666l0.035,1.911l2.299-0.557c0.066-0.017,0.143-0.035,0.228-0.055
		c0.085-0.021,0.177-0.038,0.275-0.052c-0.099-0.034-0.192-0.07-0.28-0.105c-0.088-0.037-0.165-0.07-0.232-0.103L78.405,82.666z"/>
	<path fill="#FFFFFF" d="M82.053,90.005l-0.612-0.067l-0.031-1.646l-4.976-0.515l-0.014-0.724l4.977,0.515l-0.031-1.653l0.612,0.063
		L82.053,90.005z"/>
	<path fill="#FFFFFF" d="M76.584,95.825l-0.014-0.735l2.55,0.268l-0.051-2.721l-2.55-0.262l-0.014-0.735l5.588,0.585l0.014,0.73
		L79.6,92.693l0.051,2.721l2.507,0.26l0.014,0.731L76.584,95.825z"/>
	<path fill="#FFFFFF" d="M79.886,102.15c-0.316,0.006-0.617-0.022-0.901-0.084s-0.547-0.153-0.789-0.271s-0.461-0.264-0.656-0.435
		c-0.195-0.172-0.362-0.365-0.501-0.579c-0.139-0.214-0.247-0.447-0.324-0.699c-0.077-0.251-0.119-0.516-0.124-0.793
		c-0.007-0.343,0.049-0.652,0.166-0.928c0.117-0.276,0.281-0.511,0.494-0.709c0.214-0.197,0.468-0.35,0.765-0.458
		c0.296-0.108,0.622-0.166,0.978-0.173c0.475-0.009,0.912,0.058,1.313,0.198c0.401,0.14,0.747,0.338,1.04,0.593
		c0.293,0.254,0.522,0.559,0.69,0.913c0.167,0.354,0.255,0.739,0.263,1.157c0.007,0.343-0.049,0.652-0.168,0.927
		c-0.117,0.277-0.283,0.513-0.498,0.711c-0.215,0.197-0.471,0.35-0.768,0.458C80.567,102.087,80.241,102.144,79.886,102.15z
		 M79.855,101.403c0.283-0.005,0.539-0.046,0.767-0.123c0.229-0.078,0.422-0.184,0.58-0.32s0.279-0.302,0.364-0.497
		c0.084-0.195,0.125-0.414,0.12-0.655c-0.006-0.306-0.073-0.586-0.2-0.84c-0.128-0.255-0.309-0.472-0.54-0.652
		c-0.231-0.18-0.51-0.319-0.834-0.416c-0.325-0.097-0.688-0.143-1.087-0.135c-0.283,0.005-0.538,0.046-0.765,0.123
		s-0.419,0.183-0.577,0.319c-0.159,0.137-0.279,0.301-0.363,0.495c-0.083,0.194-0.122,0.411-0.118,0.652
		c0.006,0.312,0.072,0.595,0.199,0.849c0.127,0.255,0.305,0.472,0.535,0.652c0.23,0.18,0.508,0.318,0.833,0.415
		C79.094,101.367,79.456,101.411,79.855,101.403z"/>
	<path fill="#FFFFFF" d="M78.554,105.578c-0.051,0.016-0.103,0.03-0.157,0.044c0.11,0.045,0.217,0.098,0.318,0.158l3.547,2.125
		c0.061,0.035,0.097,0.072,0.109,0.109c0.012,0.037,0.019,0.089,0.02,0.153l0.011,0.541l-5.588-0.581l-0.013-0.639l4.131,0.433
		c0.052,0.004,0.107,0.012,0.167,0.022c0.061,0.01,0.123,0.021,0.188,0.034l-3.534-2.103c-0.112-0.065-0.17-0.159-0.172-0.281
		l-0.002-0.101c-0.003-0.119,0.052-0.202,0.162-0.248l3.477-1.408c-0.062-0.001-0.123-0.002-0.183-0.004
		c-0.06-0.001-0.115-0.004-0.168-0.008l-4.142-0.428l-0.012-0.642l5.588,0.585l0.01,0.532c0.002,0.064-0.003,0.116-0.014,0.153
		c-0.011,0.039-0.046,0.068-0.106,0.09l-3.479,1.416C78.656,105.546,78.604,105.563,78.554,105.578z"/>
	<path fill="#FFFFFF" d="M81.887,113.045l-0.046-2.44l-1.883-0.198l0.036,1.977l-0.573-0.062l-0.037-1.974l-1.941-0.201l0.046,2.448
		l-0.593-0.063l-0.06-3.179l5.588,0.585l0.06,3.171L81.887,113.045z"/>
	<path fill="#FFFFFF" d="M76.957,115.861l-0.014-0.731l5.588,0.577l0.014,0.732L76.957,115.861z"/>
	<path fill="#FFFFFF" d="M82.557,118.309c-0.015,0.03-0.048,0.062-0.1,0.093l-4.215,2.484c0.06,0.004,0.116,0.009,0.169,0.012
		c0.054,0.004,0.105,0.009,0.154,0.013l4.071,0.422l0.012,0.642l-5.588-0.581l-0.007-0.365c-0.001-0.061,0.008-0.109,0.026-0.149
		c0.019-0.039,0.054-0.073,0.105-0.103l4.22-2.48c-0.014,0-0.031,0-0.055-0.001c-0.023,0-0.048-0.002-0.074-0.004
		s-0.053-0.004-0.08-0.006s-0.05-0.004-0.068-0.006l-4.134-0.429l-0.012-0.642l5.588,0.585l0.007,0.373
		C82.578,118.232,82.571,118.279,82.557,118.309z"/>
	<path fill="#FFFFFF" d="M77.189,128.307l-0.014-0.735l2.55,0.268l-0.051-2.72l-2.55-0.263l-0.014-0.735l5.588,0.585l0.014,0.731
		l-2.507-0.261l0.05,2.72l2.508,0.26l0.014,0.731L77.189,128.307z"/>
	<path fill="#FFFFFF" d="M77.228,130.393l-0.014-0.731l5.588,0.577l0.014,0.732L77.228,130.393z"/>
	<path fill="#FFFFFF" d="M82.024,134.877c-0.036-0.028-0.064-0.055-0.085-0.081c-0.02-0.025-0.03-0.056-0.031-0.092
		c0-0.045,0.021-0.091,0.066-0.142c0.044-0.049,0.092-0.114,0.144-0.191c0.052-0.078,0.1-0.171,0.143-0.281
		c0.044-0.11,0.064-0.247,0.062-0.41c-0.004-0.166-0.032-0.314-0.087-0.443c-0.054-0.129-0.127-0.237-0.218-0.324
		c-0.091-0.088-0.197-0.154-0.317-0.199c-0.119-0.043-0.248-0.064-0.386-0.062c-0.135,0.002-0.248,0.036-0.339,0.099
		c-0.091,0.064-0.169,0.148-0.232,0.25c-0.065,0.103-0.121,0.22-0.169,0.352s-0.098,0.266-0.148,0.401
		c-0.051,0.137-0.107,0.271-0.17,0.402c-0.062,0.132-0.141,0.25-0.234,0.353c-0.095,0.103-0.208,0.188-0.342,0.252
		c-0.134,0.064-0.297,0.098-0.488,0.102c-0.266,0.005-0.515-0.036-0.752-0.122c-0.236-0.086-0.444-0.213-0.624-0.38
		c-0.179-0.167-0.323-0.369-0.432-0.608c-0.107-0.239-0.165-0.51-0.171-0.811c-0.006-0.332,0.055-0.63,0.181-0.894
		s0.299-0.48,0.519-0.652l0.352,0.25c0.028,0.02,0.053,0.046,0.071,0.077c0.019,0.03,0.028,0.063,0.029,0.099
		c0.001,0.05-0.027,0.103-0.085,0.161c-0.058,0.059-0.12,0.132-0.19,0.223c-0.069,0.089-0.132,0.199-0.188,0.33
		c-0.056,0.131-0.082,0.294-0.078,0.488c0.003,0.18,0.034,0.34,0.095,0.483c0.06,0.143,0.141,0.263,0.244,0.361
		c0.103,0.098,0.226,0.173,0.368,0.225c0.143,0.052,0.299,0.077,0.47,0.073c0.143-0.002,0.261-0.036,0.354-0.1
		c0.094-0.063,0.172-0.147,0.234-0.25c0.063-0.102,0.117-0.218,0.163-0.347c0.046-0.13,0.092-0.262,0.139-0.4
		c0.046-0.137,0.1-0.271,0.159-0.4c0.061-0.13,0.138-0.246,0.231-0.349c0.094-0.103,0.211-0.187,0.35-0.251
		c0.14-0.065,0.311-0.1,0.516-0.104c0.229-0.004,0.448,0.034,0.659,0.113c0.212,0.079,0.4,0.195,0.563,0.347
		c0.164,0.153,0.296,0.34,0.396,0.561c0.101,0.222,0.153,0.472,0.158,0.752c0.006,0.285-0.044,0.543-0.148,0.774
		c-0.105,0.23-0.25,0.422-0.438,0.573L82.024,134.877z"/>
	<path fill="#FFFFFF" d="M77.963,139.105c0.004,0.208,0.048,0.398,0.131,0.572c0.084,0.173,0.197,0.325,0.342,0.453
		c0.144,0.128,0.314,0.233,0.514,0.314c0.198,0.08,0.415,0.133,0.648,0.157l3.404,0.354l0.014,0.728l-3.404-0.349
		c-0.32-0.033-0.617-0.111-0.894-0.234c-0.276-0.124-0.517-0.284-0.722-0.483c-0.204-0.199-0.366-0.432-0.485-0.698
		c-0.119-0.266-0.182-0.559-0.188-0.877c-0.005-0.288,0.036-0.545,0.125-0.769c0.09-0.226,0.217-0.417,0.381-0.574
		c0.165-0.158,0.361-0.278,0.591-0.363s0.482-0.129,0.757-0.134c0.116-0.002,0.235,0.003,0.358,0.017l3.403,0.348l0.014,0.728
		l-3.4-0.353c-0.052-0.004-0.103-0.008-0.151-0.011c-0.05-0.003-0.098-0.004-0.145-0.003c-0.194,0.004-0.371,0.033-0.531,0.086
		c-0.16,0.053-0.297,0.129-0.412,0.229c-0.115,0.099-0.203,0.221-0.264,0.366C77.988,138.753,77.959,138.919,77.963,139.105z"/>
	<path fill="#FFFFFF" d="M83.024,143.368c-0.016,0.03-0.049,0.062-0.101,0.093l-4.215,2.485c0.06,0.004,0.116,0.009,0.17,0.012
		c0.053,0.004,0.104,0.009,0.153,0.013l4.071,0.422l0.012,0.642l-5.588-0.581l-0.007-0.365c-0.001-0.061,0.008-0.109,0.026-0.149
		c0.019-0.039,0.054-0.073,0.105-0.103l4.22-2.481c-0.014,0-0.031,0-0.055-0.001c-0.023,0-0.048-0.002-0.074-0.004
		s-0.053-0.004-0.08-0.006s-0.05-0.004-0.067-0.006l-4.135-0.428l-0.012-0.642l5.588,0.585l0.007,0.372
		C83.046,143.291,83.039,143.337,83.024,143.368z"/>
	<path fill="#FFFFFF" d="M80.819,152.461c-0.475,0.009-0.909-0.056-1.302-0.196c-0.393-0.14-0.731-0.335-1.015-0.588
		c-0.284-0.254-0.506-0.556-0.666-0.911c-0.159-0.354-0.243-0.741-0.251-1.161l-0.036-1.925l5.589,0.585l0.035,1.921
		c0.007,0.343-0.046,0.653-0.157,0.932c-0.111,0.279-0.271,0.515-0.479,0.711c-0.207,0.196-0.458,0.349-0.75,0.458
		C81.494,152.396,81.172,152.455,80.819,152.461z M80.79,151.714c0.28-0.005,0.532-0.046,0.757-0.122
		c0.225-0.076,0.413-0.182,0.567-0.318s0.271-0.301,0.353-0.495s0.119-0.411,0.114-0.652l-0.021-1.191l-4.407-0.462l0.022,1.19
		c0.006,0.312,0.07,0.594,0.193,0.848c0.123,0.255,0.297,0.472,0.521,0.653c0.226,0.179,0.498,0.318,0.817,0.415
		S80.388,151.722,80.79,151.714z"/>
	<path fill="#FFFFFF" d="M82.701,156.762l-0.046-2.44l-1.883-0.198l0.037,1.976l-0.574-0.063l-0.036-1.972l-1.942-0.201l0.046,2.447
		l-0.593-0.062l-0.06-3.178l5.588,0.585l0.06,3.169L82.701,156.762z"/>
	<path fill="#FFFFFF" d="M80.087,158.253l-2.344-0.244l-0.014-0.724l5.588,0.577l0.027,1.467c0.005,0.296-0.021,0.552-0.079,0.77
		c-0.058,0.218-0.144,0.398-0.257,0.542c-0.112,0.144-0.251,0.251-0.414,0.323c-0.164,0.071-0.347,0.109-0.548,0.113
		c-0.226,0.004-0.438-0.025-0.633-0.089c-0.196-0.065-0.372-0.158-0.528-0.282c-0.157-0.125-0.291-0.275-0.402-0.453
		c-0.111-0.177-0.194-0.377-0.25-0.601c-0.056,0.084-0.133,0.153-0.229,0.209l-2.203,1.244l-0.013-0.646
		c-0.002-0.127,0.048-0.219,0.151-0.275l1.987-1.088c0.064-0.035,0.109-0.074,0.134-0.119c0.025-0.045,0.037-0.114,0.035-0.211
		L80.087,158.253z M82.758,158.534l-2.141-0.225l0.013,0.712c0.005,0.221,0.039,0.414,0.104,0.582s0.155,0.307,0.271,0.42
		s0.25,0.198,0.406,0.254c0.155,0.056,0.324,0.081,0.509,0.078c0.283-0.006,0.497-0.099,0.643-0.279
		c0.146-0.18,0.216-0.447,0.209-0.803L82.758,158.534z"/>
	<path fill="#FFFFFF" d="M83.391,161.861l0.011,0.568c0.001,0.064-0.014,0.117-0.046,0.156c-0.031,0.04-0.073,0.064-0.125,0.073
		l-3.934,0.673c-0.036,0.006-0.08,0.011-0.132,0.016c-0.053,0.005-0.103,0.01-0.151,0.016c-0.058,0.004-0.116,0.009-0.176,0.012
		c0.084,0.024,0.165,0.05,0.243,0.075c0.078,0.026,0.151,0.053,0.22,0.08l3.976,1.596c0.045,0.021,0.085,0.053,0.123,0.099
		c0.037,0.047,0.056,0.101,0.057,0.162l0.004,0.167c0.001,0.064-0.015,0.117-0.046,0.156c-0.032,0.04-0.073,0.065-0.125,0.077
		l-3.932,0.77c-0.068,0.014-0.139,0.026-0.214,0.035s-0.154,0.017-0.237,0.024c0.084,0.023,0.163,0.046,0.239,0.067
		c0.075,0.021,0.146,0.043,0.215,0.067l3.975,1.495c0.044,0.018,0.085,0.051,0.122,0.101s0.057,0.105,0.058,0.168l0.011,0.568
		l-5.618-2.18l-0.012-0.658l4.277-0.834c0.041-0.009,0.087-0.017,0.135-0.024c0.05-0.007,0.101-0.014,0.152-0.021
		c-0.053-0.017-0.104-0.033-0.153-0.049c-0.049-0.017-0.095-0.033-0.137-0.05l-4.325-1.729l-0.012-0.654L83.391,161.861z"/>
	<path fill="#FFFFFF" d="M83.001,172.857l-0.045-2.439l-1.884-0.199l0.037,1.977l-0.574-0.063l-0.036-1.973l-1.942-0.201
		l0.046,2.447l-0.593-0.062l-0.06-3.178l5.589,0.584l0.059,3.17L83.001,172.857z"/>
	<path fill="#FFFFFF" d="M78.106,177.528l-0.011-0.561c-0.001-0.064,0.015-0.116,0.046-0.152c0.032-0.037,0.073-0.062,0.126-0.076
		l1.355-0.329l-0.042-2.272l-1.374-0.612c-0.047-0.022-0.089-0.058-0.124-0.104c-0.036-0.048-0.055-0.101-0.056-0.16l-0.011-0.568
		l5.626,2.631l0.014,0.735L78.106,177.528z M80.114,174.373l0.036,1.911l2.298-0.557c0.066-0.017,0.143-0.035,0.228-0.055
		c0.085-0.021,0.178-0.038,0.275-0.052c-0.099-0.035-0.192-0.07-0.28-0.105c-0.087-0.036-0.165-0.07-0.232-0.104L80.114,174.373z"/>
	<path fill="#FFFFFF" d="M80.476,179.162l-2.344-0.244l-0.014-0.724l5.588,0.577l0.027,1.467c0.005,0.296-0.021,0.553-0.079,0.771
		c-0.058,0.218-0.144,0.398-0.257,0.542c-0.112,0.144-0.251,0.251-0.414,0.323c-0.164,0.071-0.347,0.109-0.548,0.113
		c-0.226,0.004-0.437-0.025-0.633-0.089c-0.196-0.065-0.372-0.158-0.528-0.282c-0.157-0.125-0.291-0.275-0.402-0.453
		c-0.111-0.177-0.194-0.377-0.25-0.602c-0.056,0.084-0.133,0.153-0.229,0.21l-2.203,1.244l-0.013-0.646
		c-0.002-0.127,0.048-0.219,0.151-0.275l1.987-1.089c0.064-0.035,0.109-0.074,0.134-0.119c0.025-0.045,0.037-0.114,0.035-0.211
		L80.476,179.162z M83.147,179.443l-2.141-0.225l0.013,0.712c0.005,0.221,0.039,0.414,0.104,0.582s0.155,0.308,0.271,0.421
		s0.25,0.198,0.406,0.254c0.155,0.056,0.324,0.081,0.509,0.078c0.283-0.006,0.497-0.099,0.643-0.279
		c0.146-0.18,0.216-0.448,0.209-0.804L83.147,179.443z"/>
</g>
</svg>
