<svg width="403" height="290" xmlns="http://www.w3.org/2000/svg" id="lightbox-portfolio_sect2014_content" class="center" style="display: block;">
 <g>
  <title>Portfolio Highlights 2014</title>
  <g id="svg_layer1" class="hitbox" transform="rotate(3.66123 185.846 187.981)">
   <style>.style0_sect01_1{stroke:  #FFFFFF;fill: #0E0E0E;}.style1_sect01_1{stroke: #FFFFFF;fill: none;}.style2_sect01_1{stroke:  #FFFFFF;stroke-width: 0.5;fill: none;}.style3_sect01_1{fill:  #FFFFFF;}.style4_sect01_1{font-size:  13;font-family: 'Arial-BoldMT';fill:  #FFFFFF;}</style>
   <g id="Layer_2">
    <path d="m18.709999,123.294052l22.174,129.130005l2.174,20.435013l310.000015,-45.21701l-2.114044,-19.195007c0,0 -64.407959,-86.130989 -94.842957,-105.859001l-237.391083,20.706001l0,0l0.000019,0l0.000011,0l0.000019,0l0.000019,0z" class="style0_sect01_1" id="svg_1"></path>
   </g>
   <path d="m350.944,208.447052c0,0 -74.950989,-97.359001 -94.451019,-105.859001l-237.999981,20.5" class="style1_sect01_1" id="svg_2"></path>
   <polyline points="40.7 254.374 350.9 208.674 353.2 227.674 43 273.374 40.7 254.374 18.5 123.074" class="style1_sect01_1" id="svg_3"></polyline>
   <line x1="347.3" y1="204.074053" x2="39.7" y2="248.274053" class="style2_sect01_1" id="svg_4"></line>
   <g id="svg_5"></g>
  </g>
  <g id="svg_layer2" class="hitbox" transform="rotate(4.07696 203.846 158.981)">
   <style>.style0_sect01_2{stroke:  #FFFFFF;fill: #0E0E0E;}.style1_sect01_2{stroke: #FFFFFF;fill: none;}.style2_sect01_2{stroke:  #FFFFFF;stroke-width: 0.5;fill: none;}.style3_sect01_2{fill:  #FFFFFF;}.style4_sect01_2{font-size:  13;font-family: 'Arial-BoldMT';fill:  #FFFFFF;}</style>
   <g id="Layer_3">
    <path d="m36.709999,94.29406l22.174,129.129997l2.174011,20.434998l310.000004,-45.21701l-2.114014,-19.194977c0,0 -64.40799,-86.131004 -94.842987,-105.859024l-237.391014,20.706009l0,0.000008z" class="style0_sect01_3" id="svg_19"></path>
   </g>
   <path d="m368.944,179.447052c0,0 -74.950989,-97.358994 -94.451019,-105.859001l-237.999981,20.5" class="style1_sect01_3" id="svg_20"></path>
   <polyline points="58.7 225.374 368.9 179.674 371.2 198.674 61 244.374 58.7 225.374 36.5 94.0741" class="style1_sect01_3" id="svg_21"></polyline>
   <line x1="365.3" y1="175.074053" x2="57.7" y2="219.274053" class="style2_sect01_3" id="svg_22"></line>
   <g id="svg_23"></g>
   <path d="m296.625,193.41304l-1.625,13.750015l32.75,-4.779999c0,0 1.125,-12.595016 1.125,-13.720016l-32.25,4.75z" class="style3_sect01_3" id="svg_24"></path>
  </g>
  <g id="svg_layer3" class="hitbox" transform="rotate(4.15416 180.365 137.49)">
   <g transform="matrix(0.956918 0 0 0.949761 -613.571 -458.112)" id="svg_6">
    <style>.style0_sect01_3{stroke: #FFFFFF;fill: #0E0E0E;}.style1_sect01_3{stroke: #FFFFFF;fill: none;}.style2_sect01_3{stroke:  #FFFFFF;stroke-width: 0.5;fill: none;}.style3_sect01_3{fill:  #FFFFFF;}.style4_sect01{font-size:  13;font-family: 'Arial-BoldMT';fill:  #FFFFFF;}</style>
    <g id="svg_31">
     <path d="m662.544189,562.421387l22.174011,129.129944l2.174011,20.434998l310.002014,-45.217041l-2.119995,-19.194946c0,0 -64.400024,-86.130981 -94.840088,-105.859009l-237.389954,20.706055z" class="style0_sect01_4" id="svg_33"></path>
    </g>
    <path d="m994.774231,647.574341c0,0 -74.950073,-97.359009 -94.450073,-105.859009l-237.996948,20.500061" class="style1_sect01_4" id="svg_34"></path>
    <polyline points="684.534 693.501 994.735 647.801 997.035 666.801 686.834 712.501 684.534 693.501 662.334 562.201" class="style1_sect01_4" id="svg_35"></polyline>
    <line x1="991.134361" y1="643.201284" x2="683.534361" y2="687.401284" class="style2_sect01_4" id="svg_36"></line>
    <g id="svg_37"></g>
    <path d="m922.464172,661.540283l-1.630005,13.75l32.75,-4.780029c0,0 1.130005,-12.594971 1.130005,-13.719971l-32.25,4.75z" class="style3_sect01_4" id="svg_38"></path>
   </g>
  </g>
  <g class="hitbox" id="svg_layer4" transform="rotate(3.8651 202.846 113.481)">
   <style id="svg_8">.style0_sect01_4{stroke: #FFFFFF;fill: #0E0E0E;}.style1_sect01_4{stroke: #FFFFFF;fill: none;}.style2_sect01_4{stroke:  #FFFFFF;stroke-width: 0.5;fill: none;}.style3_sect01_4{fill:  #FFFFFF;}.style4_sect01_4{font-size:  13;font-family: 'Arial-BoldMT';fill:  #FFFFFF;}</style>
   <g id="svg_9">
    <path d="m43.929859,53.494869l21.083469,119.746128l2.067085,18.949982l294.754059,-41.931061l-2.01004,-17.80011c0,0 -61.240387,-79.871857 -90.178558,-98.166229l-225.716064,19.20129l0,0l0.000019,0l0.000011,0l0.000011,0l0.000008,0z" class="style0_sect01_1" id="svg_10"></path>
   </g>
   <path d="m359.824432,132.459808c0,0 -71.264862,-90.283928 -89.805878,-98.166229l-226.295025,19.010262" class="style1_sect01_1" id="svg_11"></path>
   <polyline points="64.8384 175.049 359.783 132.67 361.969 150.29 67.0253 192.669 64.8384 175.049 43.7302 53.2909" class="style1_sect01_1" id="svg_12"></polyline>
   <line x1="356.359635" y1="128.404589" x2="63.887559" y2="169.392573" class="style2_sect01_1" id="svg_13"></line>
   <g id="svg_14"></g>
  </g>
 </g>
</svg>