<svg xmlns="http://www.w3.org/2000/svg" xmlns:xlink="http://www.w3.org/1999/xlink" version="1.1" id="Layer_1" x="0px" y="0px" width="335.731px" height="171.833px" viewBox="0 0 335.731 171.833" enable-background="new 0 0 335.731 171.833" xml:space="preserve"><style>.style0{stroke:	#FFFFFF;fill:	#231F20;}.style1{stroke:	#FFFFFF;fill:	none;}.style2{stroke:	#FFFFFF;stroke-width:	0.5;fill:	none;}.style3{fill:	#FFFFFF;}</style><g id="Layer_3"><path d="M0.71 21.22l22.174 129.13l2.174 20.435l310-45.217l-2.114-19.195 c0 0-64.408-86.131-94.843-105.859L0.71 21.22z" class="style0"/></g><path d="M332.944 106.373c0 0-74.951-97.359-94.451-105.859l-238 20.5" class="style1"/><polyline points="22.7,152.3 332.9,106.6 335.2,125.6 25,171.3 22.7,152.3 0.5,21" class="style1"/><line x1="329.3" y1="102" x2="21.7" y2="146.2" class="style2"/><g enable-background="new    "><path d="M50.821 154.262l0.212 1.39l-2.125 0.323l0.938 6.161l-1.752 0.267l-0.938-6.161l-2.125 0.324l-0.212-1.39 L50.821 154.262z" class="style3"/><path d="M59.289 160.698l-1.762 0.269l-0.486-3.192l-3.068 0.468l0.486 3.192l-1.762 0.268l-1.15-7.551l1.762-0.268 l0.481 3.156l3.068-0.468l-0.481-3.156l1.762-0.269L59.289 160.698z" class="style3"/><path d="M64.243 152.217l0.206 1.348l-3.099 0.472l0.269 1.762l2.373-0.361l0.197 1.296l-2.373 0.361l0.273 1.8 l3.1-0.472l0.205 1.348l-4.861 0.74l-1.15-7.551L64.243 152.217z" class="style3"/><path d="M71.679 152.654c-0.039 0.091-0.084 0.161-0.135 0.212c-0.05 0.05-0.121 0.082-0.211 0.1 c-0.079 0.013-0.168 0-0.268-0.036c-0.099-0.037-0.211-0.076-0.336-0.121c-0.125-0.044-0.266-0.081-0.422-0.108 s-0.329-0.026-0.52 0.003c-0.328 0.05-0.562 0.157-0.701 0.321s-0.19 0.365-0.154 0.604c0.023 0.2 0.1 0.3 0.2 0.4 s0.252 0.2 0.4 0.202c0.167 0 0.4 0.1 0.6 0.116c0.211 0 0.4 0.1 0.7 0.108s0.442 0.1 0.7 0.2 c0.217 0.1 0.4 0.2 0.6 0.302c0.181 0.1 0.3 0.3 0.5 0.51c0.131 0.2 0.2 0.5 0.3 0.8 c0.053 0.3 0 0.686-0.033 1.008c-0.074 0.322-0.209 0.614-0.404 0.875c-0.195 0.262-0.452 0.483-0.769 0.7 c-0.317 0.182-0.69 0.304-1.118 0.369c-0.235 0.036-0.478 0.048-0.729 0.037c-0.25-0.012-0.497-0.044-0.738-0.098 c-0.241-0.054-0.471-0.126-0.69-0.215c-0.219-0.091-0.414-0.199-0.585-0.325l0.394-0.897c0.029-0.067 0.074-0.126 0.138-0.175 c0.063-0.048 0.134-0.079 0.213-0.091c0.104-0.016 0.2 0 0.3 0.051c0.115 0 0.2 0.1 0.4 0.2 c0.144 0.1 0.3 0.1 0.5 0.146c0.182 0 0.4 0 0.6 0.006c0.318-0.048 0.555-0.155 0.709-0.322 s0.209-0.402 0.163-0.706c-0.026-0.176-0.097-0.312-0.211-0.407c-0.113-0.097-0.254-0.169-0.423-0.218 c-0.167-0.048-0.356-0.084-0.565-0.109c-0.209-0.025-0.424-0.055-0.645-0.091c-0.221-0.035-0.439-0.087-0.654-0.155 c-0.216-0.066-0.414-0.17-0.596-0.306c-0.182-0.137-0.339-0.318-0.473-0.544c-0.133-0.225-0.227-0.514-0.28-0.865 c-0.043-0.284-0.028-0.569 0.045-0.856c0.073-0.285 0.204-0.552 0.393-0.796c0.189-0.246 0.435-0.455 0.737-0.63 c0.301-0.175 0.659-0.294 1.074-0.357c0.231-0.035 0.46-0.051 0.685-0.049c0.225 0 0.4 0 0.6 0.1 c0.207 0 0.4 0.1 0.6 0.171c0.186 0.1 0.4 0.2 0.5 0.264L71.679 152.654z" class="style3"/><path d="M75.373 155.666l0.385 2.523l-1.752 0.267l-1.15-7.551l2.664-0.405c0.532-0.081 0.999-0.087 1.4-0.02 c0.401 0.1 0.7 0.2 1 0.378c0.281 0.2 0.5 0.4 0.7 0.698c0.163 0.3 0.3 0.6 0.3 0.9 c0.057 0.4 0.1 0.731-0.023 1.064c-0.074 0.332-0.217 0.631-0.431 0.893c-0.215 0.263-0.504 0.485-0.866 0.7 s-0.805 0.316-1.326 0.396L75.373 155.666z M75.172 154.343l0.912-0.139c0.456-0.069 0.768-0.228 0.935-0.477 c0.167-0.247 0.222-0.567 0.162-0.958c-0.026-0.173-0.077-0.325-0.149-0.46c-0.074-0.133-0.171-0.242-0.292-0.329 c-0.121-0.085-0.266-0.144-0.435-0.174c-0.169-0.031-0.365-0.03-0.586 0.004l-0.912 0.139L75.172 154.343z" class="style3"/><path d="M87.494 152.535c0.083 0.5 0.1 1.068-0.05 1.567s-0.32 0.947-0.609 1.3 c-0.29 0.398-0.66 0.733-1.112 1.003c-0.452 0.271-0.972 0.451-1.559 0.541c-0.587 0.089-1.138 0.072-1.651-0.052 c-0.514-0.122-0.969-0.332-1.365-0.626c-0.397-0.295-0.726-0.663-0.985-1.105c-0.26-0.44-0.432-0.935-0.515-1.48 c-0.083-0.545-0.066-1.066 0.05-1.566c0.117-0.498 0.321-0.945 0.613-1.344c0.29-0.398 0.663-0.732 1.116-1.003 c0.454-0.271 0.974-0.451 1.562-0.54c0.587-0.09 1.137-0.071 1.6 0.055c0.513 0.1 1 0.3 1.4 0.6 s0.722 0.7 1 1.102C87.241 151.5 87.4 152 87.5 152.535z M85.701 152.808c-0.057-0.373-0.156-0.701-0.298-0.985 c-0.143-0.284-0.32-0.516-0.533-0.695s-0.459-0.305-0.739-0.375c-0.279-0.071-0.586-0.081-0.921-0.029 c-0.339 0.052-0.632 0.151-0.879 0.304c-0.248 0.15-0.446 0.344-0.596 0.578s-0.25 0.509-0.302 0.8 c-0.051 0.313-0.048 0.7 0 1.03c0.058 0.4 0.2 0.7 0.3 0.991c0.143 0.3 0.3 0.5 0.5 0.7 c0.213 0.2 0.5 0.3 0.7 0.372c0.28 0.1 0.6 0.1 0.9 0.025c0.335-0.052 0.625-0.15 0.872-0.3s0.444-0.342 0.594-0.575 c0.149-0.235 0.25-0.51 0.302-0.823C85.762 153.5 85.8 153.2 85.7 152.808z" class="style3"/><path d="M90.826 155.894l-1.762 0.268l-1.15-7.551l1.762-0.268L90.826 155.894z" class="style3"/><path d="M93.764 154.014l2.798-0.427l0.213 1.4l-4.55 0.692l-1.15-7.551l1.751-0.267L93.764 154.014z" class="style3"/><path d="M100.896 148.204c-0.039 0.091-0.084 0.16-0.135 0.211c-0.051 0.05-0.121 0.083-0.21 0.1 c-0.08 0.012-0.169-0.001-0.268-0.036c-0.099-0.037-0.211-0.077-0.337-0.122c-0.125-0.044-0.266-0.08-0.422-0.107 c-0.157-0.028-0.33-0.027-0.519 0.002c-0.328 0.05-0.562 0.158-0.702 0.322s-0.191 0.364-0.154 0.6 c0.023 0.2 0.1 0.3 0.2 0.356c0.112 0.1 0.3 0.2 0.4 0.201s0.358 0.1 0.6 0.117s0.428 0.1 0.7 0.1 c0.222 0 0.4 0.1 0.7 0.168c0.218 0.1 0.4 0.2 0.6 0.302c0.181 0.1 0.3 0.3 0.5 0.5 c0.131 0.2 0.2 0.5 0.3 0.783c0.053 0.3 0 0.685-0.032 1.008c-0.075 0.322-0.21 0.613-0.405 0.9 c-0.196 0.262-0.452 0.482-0.769 0.664c-0.317 0.181-0.69 0.304-1.118 0.369c-0.235 0.035-0.478 0.048-0.729 0 c-0.25-0.012-0.497-0.045-0.738-0.098c-0.242-0.054-0.472-0.126-0.69-0.216c-0.219-0.09-0.414-0.198-0.586-0.324l0.394-0.898 c0.029-0.067 0.074-0.125 0.138-0.174s0.135-0.079 0.214-0.092c0.104-0.016 0.2 0 0.3 0.1 c0.115 0.1 0.2 0.1 0.4 0.164c0.145 0.1 0.3 0.1 0.5 0.146c0.182 0 0.4 0 0.6 0 c0.318-0.049 0.555-0.156 0.709-0.322c0.155-0.168 0.209-0.402 0.163-0.706c-0.026-0.176-0.097-0.313-0.21-0.408 c-0.114-0.097-0.254-0.169-0.423-0.217c-0.168-0.049-0.356-0.085-0.565-0.11c-0.209-0.024-0.424-0.054-0.645-0.09 c-0.221-0.035-0.439-0.087-0.655-0.155c-0.215-0.067-0.414-0.17-0.596-0.306c-0.182-0.138-0.339-0.318-0.472-0.544 s-0.227-0.514-0.28-0.865c-0.043-0.284-0.028-0.569 0.045-0.856c0.073-0.286 0.204-0.553 0.393-0.797 c0.188-0.245 0.435-0.454 0.737-0.629c0.302-0.176 0.66-0.295 1.074-0.358c0.232-0.035 0.46-0.051 0.685-0.048 c0.226 0 0.4 0 0.6 0.064c0.208 0 0.4 0.1 0.6 0.171c0.186 0.1 0.4 0.2 0.5 0.265L100.896 148.204z" class="style3"/><path d="M112.098 148.787c0.083 0.5 0.1 1.068-0.05 1.566c-0.117 0.5-0.32 0.948-0.609 1.3 c-0.29 0.398-0.66 0.733-1.112 1.003c-0.452 0.271-0.972 0.451-1.559 0.541c-0.587 0.089-1.138 0.072-1.651-0.052 c-0.514-0.122-0.969-0.332-1.366-0.626c-0.397-0.296-0.725-0.663-0.985-1.105c-0.26-0.44-0.432-0.935-0.515-1.48 c-0.083-0.545-0.066-1.066 0.05-1.566c0.117-0.498 0.32-0.946 0.612-1.344c0.291-0.398 0.664-0.732 1.117-1.003 s0.974-0.451 1.562-0.54c0.587-0.09 1.137-0.071 1.6 0.054s0.966 0.3 1.4 0.628s0.722 0.7 1 1.1 C111.845 147.8 112 148.2 112.1 148.787z M110.305 149.06c-0.057-0.373-0.156-0.701-0.298-0.985 c-0.143-0.284-0.32-0.516-0.533-0.695s-0.459-0.305-0.739-0.375c-0.279-0.071-0.586-0.081-0.921-0.029 c-0.339 0.051-0.632 0.151-0.879 0.304c-0.247 0.15-0.446 0.344-0.596 0.578s-0.25 0.509-0.302 0.822s-0.048 0.7 0 1 c0.058 0.4 0.2 0.7 0.3 0.991c0.143 0.3 0.3 0.5 0.5 0.696c0.213 0.2 0.5 0.3 0.7 0.4 c0.281 0.1 0.6 0.1 0.9 0.025c0.335-0.052 0.625-0.15 0.872-0.3s0.444-0.342 0.594-0.575c0.149-0.235 0.25-0.51 0.301-0.823 S110.363 149.4 110.3 149.06z" class="style3"/><path d="M117.224 144.146l0.206 1.348l-3.099 0.473l0.291 1.913l2.581-0.394l0.206 1.352l-2.581 0.394l0.448 2.9 l-1.762 0.268l-1.15-7.551L117.224 144.146z" class="style3"/><path d="M121.286 151.253l-1.15-7.551l2.777-0.423c0.522-0.08 0.973-0.1 1.355-0.059 c0.38 0 0.7 0.1 1 0.274c0.257 0.1 0.5 0.3 0.6 0.564c0.144 0.2 0.2 0.5 0.3 0.8 c0.026 0.2 0 0.3 0 0.5c-0.025 0.165-0.078 0.324-0.161 0.478c-0.082 0.154-0.196 0.3-0.342 0.4 c-0.145 0.138-0.325 0.265-0.541 0.383c0.517 0 0.9 0.2 1.2 0.42c0.28 0.2 0.5 0.6 0.5 1 c0.049 0.3 0 0.629-0.05 0.924c-0.082 0.297-0.228 0.564-0.437 0.808c-0.209 0.241-0.48 0.446-0.815 0.6 c-0.335 0.17-0.729 0.289-1.181 0.358L121.286 151.253z M122.372 146.614l0.912-0.14c0.193-0.029 0.366-0.07 0.518-0.121 c0.151-0.053 0.275-0.12 0.374-0.206c0.099-0.085 0.167-0.193 0.205-0.323c0.039-0.129 0.044-0.285 0.016-0.469 c-0.027-0.179-0.072-0.326-0.135-0.438s-0.146-0.197-0.251-0.255c-0.104-0.06-0.23-0.092-0.378-0.102 c-0.148-0.011-0.321 0.001-0.518 0.031l-1.025 0.156L122.372 146.614z M122.551 147.785l0.286 1.88l1.233-0.188 c0.231-0.035 0.416-0.092 0.554-0.173c0.139-0.082 0.242-0.176 0.31-0.281c0.069-0.106 0.11-0.22 0.123-0.343 c0.013-0.121 0.01-0.243-0.008-0.364c-0.021-0.138-0.058-0.26-0.111-0.363c-0.054-0.106-0.13-0.19-0.23-0.252 c-0.099-0.063-0.225-0.104-0.376-0.124s-0.338-0.012-0.559 0.022L122.551 147.785z" class="style3"/><path d="M135.113 149.147l-1.358 0.207c-0.152 0.023-0.282 0.006-0.392-0.049c-0.109-0.056-0.191-0.136-0.246-0.241 l-0.646-1.248l-2.871 0.438l-0.245 1.383c-0.02 0.103-0.075 0.2-0.163 0.293c-0.088 0.094-0.205 0.151-0.35 0.173l-1.368 0.2 l1.772-7.996l1.793-0.273L135.113 149.147z M129.822 147l2.062-0.314l-1.009-1.963c-0.065-0.123-0.141-0.27-0.229-0.438 c-0.087-0.169-0.176-0.353-0.267-0.55c-0.023 0.219-0.05 0.422-0.082 0.611c-0.032 0.188-0.063 0.352-0.095 0.49L129.822 147z" class="style3"/><path d="M135.724 149.054l-1.15-7.551l2.777-0.423c0.522-0.08 0.973-0.1 1.355-0.059 c0.38 0 0.7 0.1 1 0.274c0.257 0.1 0.5 0.3 0.6 0.564c0.144 0.2 0.2 0.5 0.3 0.8 c0.026 0.2 0 0.3 0 0.501c-0.025 0.164-0.079 0.324-0.161 0.478c-0.083 0.154-0.196 0.3-0.342 0.4 c-0.145 0.139-0.325 0.266-0.541 0.384c0.516 0 0.9 0.2 1.2 0.42c0.28 0.2 0.5 0.6 0.5 1 c0.049 0.3 0 0.629-0.05 0.924c-0.082 0.296-0.228 0.564-0.437 0.807c-0.209 0.242-0.48 0.447-0.815 0.6 c-0.335 0.17-0.729 0.289-1.181 0.357L135.724 149.054z M136.809 144.415l0.912-0.14c0.193-0.029 0.366-0.07 0.517-0.121 c0.152-0.053 0.276-0.12 0.375-0.206c0.099-0.085 0.167-0.193 0.205-0.323c0.039-0.129 0.044-0.285 0.016-0.469 c-0.027-0.179-0.072-0.326-0.135-0.438s-0.146-0.197-0.251-0.255c-0.104-0.06-0.23-0.092-0.378-0.102 c-0.148-0.011-0.321 0.001-0.518 0.031l-1.026 0.156L136.809 144.415z M136.988 145.585l0.287 1.88l1.233-0.188 c0.231-0.035 0.416-0.092 0.554-0.173c0.138-0.082 0.242-0.176 0.31-0.281c0.069-0.106 0.109-0.22 0.123-0.343 c0.013-0.122 0.01-0.243-0.008-0.364c-0.021-0.138-0.058-0.26-0.111-0.364c-0.054-0.105-0.13-0.189-0.23-0.251 c-0.099-0.063-0.225-0.104-0.376-0.124s-0.338-0.012-0.559 0.022L136.988 145.585z" class="style3"/><path d="M145.847 144.574l0.438 2.871l-1.751 0.268l-0.438-2.871l-3.45-4.264l1.544-0.234 c0.152-0.023 0.278-0.006 0.4 0.051c0.101 0.1 0.2 0.1 0.3 0.239l1.402 2.034c0.113 0.2 0.2 0.3 0.3 0.5 s0.182 0.3 0.3 0.411c0.029-0.157 0.069-0.315 0.119-0.475c0.05-0.159 0.104-0.331 0.16-0.517l0.722-2.358 c0.014-0.048 0.036-0.098 0.065-0.148c0.029-0.05 0.065-0.097 0.106-0.141c0.041-0.043 0.09-0.081 0.147-0.112 c0.057-0.031 0.122-0.054 0.194-0.064l1.555-0.236L145.847 144.574z" class="style3"/><path d="M151.078 145.283l2.799-0.426l0.213 1.399l-4.55 0.693l-1.15-7.551l1.752-0.268L151.078 145.283z" class="style3"/><path d="M161.38 141.28c0.083 0.5 0.1 1.067-0.05 1.566s-0.32 0.948-0.609 1.3 c-0.289 0.398-0.66 0.734-1.111 1.004c-0.452 0.271-0.972 0.45-1.559 0.54c-0.588 0.09-1.138 0.072-1.651-0.051 c-0.514-0.123-0.969-0.332-1.366-0.627c-0.397-0.295-0.726-0.663-0.985-1.104s-0.432-0.935-0.515-1.48 c-0.083-0.545-0.066-1.067 0.051-1.566c0.116-0.499 0.32-0.946 0.612-1.345c0.291-0.398 0.663-0.732 1.117-1.002 c0.453-0.271 0.973-0.451 1.561-0.541c0.587-0.09 1.137-0.071 1.6 0.055c0.513 0.1 1 0.3 1.4 0.6 c0.395 0.3 0.7 0.7 1 1.102C161.126 140.2 161.3 140.7 161.4 141.28z M159.587 141.6 c-0.057-0.373-0.156-0.702-0.298-0.986c-0.143-0.284-0.32-0.516-0.533-0.695c-0.213-0.179-0.459-0.305-0.739-0.375 c-0.279-0.071-0.586-0.08-0.921-0.029c-0.339 0.052-0.631 0.152-0.879 0.304c-0.248 0.15-0.446 0.344-0.596 0.6 c-0.15 0.235-0.251 0.509-0.302 0.822c-0.051 0.314-0.048 0.7 0 1.03c0.058 0.4 0.2 0.7 0.3 1 c0.143 0.3 0.3 0.5 0.5 0.696c0.212 0.2 0.5 0.3 0.7 0.372c0.281 0.1 0.6 0.1 0.9 0 c0.335-0.051 0.625-0.15 0.871-0.3c0.246-0.149 0.444-0.341 0.594-0.575c0.149-0.235 0.25-0.51 0.301-0.823 S159.644 141.9 159.6 141.553z" class="style3"/><path d="M162.761 137.22c0.054-0.001 0.1 0 0.1 0.017c0.044 0 0.1 0 0.1 0.1 c0.044 0 0.1 0.1 0.2 0.119l4.277 3.988c-0.036-0.143-0.068-0.281-0.095-0.417c-0.028-0.136-0.051-0.265-0.069-0.384 l-0.609-3.996l1.544-0.235l1.15 7.551l-0.912 0.139c-0.135 0.021-0.251 0.018-0.351-0.01s-0.202-0.09-0.305-0.188l-4.245-3.955 c0.03 0.1 0.1 0.3 0.1 0.383c0.026 0.1 0 0.2 0.1 0.354l0.617 4.047l-1.544 0.235l-1.15-7.551l0.922-0.141 C162.644 137.2 162.7 137.2 162.8 137.22z" class="style3"/></g></svg>