<svg xmlns="http://www.w3.org/2000/svg" xmlns:xlink="http://www.w3.org/1999/xlink" version="1.1" id="Layer_1" x="0px" y="0px" width="335.731px" height="171.833px" viewBox="0 0 335.731 171.833" enable-background="new 0 0 335.731 171.833" xml:space="preserve"><style>.style0{stroke:	#FFFFFF;fill:	#231F20;}.style1{stroke:	#FFFFFF;fill:	none;}.style2{stroke:	#FFFFFF;stroke-width:	0.5;fill:	none;}.style3{fill:	#FFFFFF;}</style><g id="Layer_3"><path d="M0.71 21.22l22.174 129.13l2.174 20.435l310-45.217l-2.114-19.195 c0 0-64.408-86.131-94.843-105.859L0.71 21.22z" class="style0"/></g><path d="M332.944 106.373c0 0-74.951-97.359-94.451-105.859l-238 20.5" class="style1"/><polyline points="22.7,152.3 332.9,106.6 335.2,125.6 25,171.3 22.7,152.3 0.5,21" class="style1"/><line x1="329.3" y1="102" x2="21.7" y2="146.2" class="style2"/><g enable-background="new    "><path d="M47.518 159.841c0.242-0.036 0.453-0.09 0.633-0.159c0.18-0.07 0.348-0.151 0.503-0.247l-0.174-1.145 l-0.747 0.113c-0.11 0.017-0.201 0-0.272-0.049c-0.071-0.049-0.114-0.118-0.127-0.208l-0.147-0.965l2.685-0.409l0.486 3.2 c-0.172 0.171-0.355 0.323-0.549 0.457c-0.193 0.135-0.402 0.252-0.629 0.354s-0.471 0.188-0.735 0.3 c-0.263 0.072-0.548 0.131-0.855 0.178c-0.553 0.085-1.079 0.064-1.578-0.059c-0.5-0.124-0.948-0.332-1.344-0.623 c-0.396-0.291-0.728-0.657-0.995-1.101c-0.267-0.441-0.443-0.938-0.527-1.491c-0.085-0.562-0.071-1.095 0.044-1.595 s0.32-0.948 0.615-1.343c0.295-0.395 0.674-0.725 1.138-0.988c0.463-0.266 0.999-0.445 1.606-0.538 c0.314-0.048 0.614-0.066 0.898-0.057c0.284 0 0.6 0 0.8 0.097c0.247 0.1 0.5 0.1 0.7 0.2 c0.212 0.1 0.4 0.2 0.6 0.324l-0.39 0.85c-0.037 0.08-0.087 0.146-0.147 0.197s-0.131 0.084-0.211 0.1 c-0.103 0.016-0.216-0.002-0.337-0.056c-0.15-0.062-0.292-0.113-0.424-0.154c-0.132-0.042-0.265-0.072-0.398-0.09 c-0.134-0.02-0.272-0.026-0.417-0.021c-0.145 0.004-0.305 0.02-0.481 0.046c-0.328 0.05-0.615 0.152-0.859 0.3 c-0.245 0.156-0.444 0.354-0.597 0.592c-0.153 0.239-0.257 0.514-0.312 0.824s-0.055 0.6 0 1 c0.061 0.4 0.2 0.7 0.3 1.043s0.351 0.5 0.6 0.719c0.228 0.2 0.5 0.3 0.8 0.383S47.2 159.9 47.5 159.841z" class="style3"/><path d="M52.861 157.464l0.425 2.793l-1.751 0.267l-1.15-7.551l2.457-0.374c0.546-0.084 1.02-0.099 1.422-0.044 c0.402 0.1 0.7 0.2 1 0.325c0.275 0.2 0.5 0.4 0.6 0.629c0.152 0.3 0.3 0.5 0.3 0.9 c0.037 0.2 0 0.5 0 0.708c-0.032 0.229-0.099 0.444-0.201 0.649c-0.102 0.204-0.235 0.394-0.401 0.6 c-0.167 0.176-0.366 0.327-0.596 0.458c0.126 0 0.2 0.1 0.4 0.167c0.115 0.1 0.2 0.2 0.3 0.276l2.007 2.4 l-1.586 0.241c-0.293 0.045-0.521-0.033-0.683-0.235l-1.588-2c-0.069-0.089-0.145-0.147-0.226-0.179 c-0.081-0.029-0.188-0.034-0.323-0.014L52.861 157.464z M52.677 156.255l0.705-0.106c0.238-0.037 0.436-0.098 0.594-0.184 c0.159-0.085 0.283-0.19 0.375-0.314c0.091-0.123 0.149-0.261 0.176-0.41c0.026-0.152 0.027-0.31 0.001-0.476 c-0.05-0.331-0.198-0.574-0.442-0.729c-0.244-0.153-0.593-0.195-1.045-0.126l-0.705 0.106L52.677 156.255z" class="style3"/><path d="M65.045 154.6c0.083 0.5 0.1 1.067-0.05 1.566c-0.117 0.499-0.32 0.947-0.609 1.3 c-0.289 0.398-0.66 0.733-1.111 1.003c-0.452 0.271-0.972 0.451-1.559 0.541c-0.588 0.089-1.138 0.072-1.651-0.052 c-0.514-0.122-0.969-0.332-1.366-0.626c-0.397-0.295-0.726-0.663-0.985-1.105c-0.26-0.44-0.432-0.935-0.515-1.48 c-0.083-0.545-0.066-1.066 0.051-1.566c0.116-0.498 0.32-0.945 0.612-1.344c0.291-0.398 0.664-0.732 1.117-1.003 s0.974-0.451 1.562-0.54c0.587-0.09 1.137-0.071 1.6 0.055c0.512 0.1 1 0.3 1.4 0.6 c0.395 0.3 0.7 0.7 1 1.102C64.791 153.6 65 154.1 65 154.6z M63.251 154.9 c-0.057-0.373-0.156-0.701-0.298-0.985c-0.143-0.284-0.321-0.516-0.533-0.695c-0.213-0.18-0.459-0.305-0.739-0.375 c-0.279-0.071-0.586-0.081-0.921-0.029c-0.339 0.052-0.632 0.151-0.879 0.304c-0.248 0.15-0.447 0.344-0.596 0.6 c-0.15 0.234-0.25 0.509-0.302 0.822s-0.048 0.7 0 1.03c0.058 0.4 0.2 0.7 0.3 1 c0.143 0.3 0.3 0.5 0.5 0.696c0.212 0.2 0.5 0.3 0.7 0.372c0.281 0.1 0.6 0.1 0.9 0 c0.335-0.052 0.625-0.15 0.871-0.3c0.246-0.149 0.444-0.342 0.594-0.575c0.149-0.235 0.25-0.51 0.301-0.823 S63.309 155.2 63.3 154.873z" class="style3"/><path d="M69.255 155.025c0.064 0.4 0.1 0.8 0 1.174c-0.053 0.362-0.167 0.682-0.341 1 c-0.175 0.28-0.412 0.513-0.713 0.697c-0.301 0.186-0.668 0.312-1.104 0.378c-0.196 0.03-0.393 0.049-0.587 0.1 c-0.195 0.008-0.4 0.004-0.614-0.013l-0.062-1.034c-0.007-0.091 0.018-0.169 0.073-0.234c0.056-0.064 0.141-0.105 0.254-0.123 c0.06-0.009 0.133-0.012 0.222-0.005s0.194-0.001 0.315-0.019c0.17-0.026 0.314-0.072 0.433-0.139 c0.119-0.064 0.212-0.159 0.278-0.279c0.066-0.122 0.106-0.274 0.121-0.457s0.003-0.402-0.037-0.662l-0.739-4.851l1.751-0.267 L69.255 155.025z" class="style3"/><path d="M70.916 157.572l-1.15-7.551l2.777-0.424c0.522-0.079 0.973-0.099 1.354-0.059 c0.381 0 0.7 0.1 1 0.275c0.258 0.1 0.5 0.3 0.6 0.564c0.144 0.2 0.2 0.5 0.3 0.8 c0.026 0.2 0 0.3 0 0.5c-0.025 0.165-0.078 0.325-0.161 0.479c-0.083 0.153-0.196 0.3-0.341 0.4 c-0.146 0.139-0.326 0.266-0.542 0.384c0.516 0 0.9 0.2 1.2 0.419c0.28 0.2 0.5 0.6 0.5 1 c0.049 0.3 0 0.628-0.05 0.924c-0.082 0.296-0.228 0.564-0.436 0.807c-0.209 0.241-0.48 0.447-0.815 0.6 s-0.729 0.288-1.181 0.357L70.916 157.572z M72.002 152.931l0.911-0.139c0.193-0.029 0.366-0.07 0.518-0.122 s0.276-0.12 0.374-0.206c0.099-0.084 0.167-0.192 0.205-0.322c0.039-0.129 0.044-0.286 0.016-0.47 c-0.027-0.179-0.072-0.325-0.135-0.438s-0.146-0.197-0.251-0.256s-0.23-0.092-0.379-0.101c-0.148-0.011-0.321 0-0.518 0 l-1.025 0.156L72.002 152.931z M72.18 154.102l0.287 1.88l1.232-0.188c0.231-0.035 0.416-0.093 0.554-0.174 c0.138-0.082 0.242-0.176 0.31-0.28c0.069-0.106 0.11-0.22 0.123-0.343c0.013-0.122 0.011-0.243-0.008-0.364 c-0.021-0.138-0.058-0.261-0.111-0.364c-0.053-0.105-0.129-0.19-0.229-0.252c-0.1-0.062-0.225-0.104-0.376-0.123 c-0.151-0.021-0.338-0.012-0.559 0.021L72.18 154.102z" class="style3"/><path d="M84.742 155.465l-1.358 0.206c-0.152 0.023-0.282 0.007-0.392-0.049c-0.109-0.056-0.192-0.136-0.246-0.241 l-0.646-1.247l-2.871 0.437l-0.245 1.384c-0.02 0.102-0.074 0.2-0.162 0.292c-0.089 0.094-0.206 0.151-0.351 0.174l-1.368 0.2 l1.772-7.996l1.793-0.272L84.742 155.465z M79.451 153.317l2.062-0.313l-1.009-1.963c-0.065-0.124-0.141-0.271-0.229-0.438 c-0.087-0.169-0.177-0.354-0.267-0.551c-0.023 0.219-0.051 0.423-0.082 0.611c-0.032 0.188-0.063 0.353-0.095 0.491L79.451 153.3 z" class="style3"/><path d="M85.318 147.663c0.054-0.002 0.1 0 0.1 0.017c0.044 0 0.1 0 0.1 0.1 c0.044 0 0.1 0.1 0.2 0.12l4.277 3.987c-0.036-0.142-0.068-0.281-0.096-0.417c-0.028-0.136-0.051-0.264-0.069-0.384 l-0.609-3.996l1.544-0.235l1.15 7.551l-0.912 0.139c-0.135 0.021-0.252 0.018-0.351-0.009c-0.1-0.028-0.202-0.091-0.305-0.188 l-4.246-3.956c0.031 0.1 0.1 0.3 0.1 0.383s0.047 0.2 0.1 0.354l0.617 4.047l-1.544 0.235l-1.15-7.551l0.922-0.141 C85.201 147.7 85.3 147.7 85.3 147.663z" class="style3"/><path d="M99.464 149.356c0.083 0.5 0.1 1.064-0.053 1.556c-0.118 0.488-0.322 0.928-0.613 1.3 c-0.291 0.39-0.663 0.714-1.116 0.976c-0.453 0.263-0.974 0.438-1.561 0.528l-2.933 0.446l-1.15-7.551l2.933-0.446 c0.587-0.09 1.137-0.076 1.6 0.04c0.511 0.1 1 0.3 1.4 0.599c0.393 0.3 0.7 0.6 1 1.1 C99.211 148.3 99.4 148.8 99.5 149.356z M97.671 149.629c-0.057-0.373-0.156-0.701-0.298-0.988 c-0.143-0.285-0.321-0.519-0.535-0.701c-0.212-0.181-0.459-0.307-0.739-0.38c-0.28-0.072-0.587-0.083-0.922-0.031l-1.171 0.2 l0.739 4.855l1.172-0.178c0.335-0.052 0.625-0.153 0.871-0.305c0.246-0.152 0.443-0.348 0.592-0.584 c0.149-0.236 0.25-0.513 0.301-0.828C97.731 150.4 97.7 150 97.7 149.629z" class="style3"/><path d="M102.197 148.919l2.798-0.427l0.197 1.295l-2.798 0.427L102.197 148.919z" class="style3"/><path d="M113.046 143.427l0.212 1.39l-2.125 0.323l0.938 6.161l-1.751 0.268l-0.938-6.161l-2.125 0.323l-0.212-1.39 L113.046 143.427z" class="style3"/><path d="M121.514 149.863l-1.762 0.269l-0.486-3.192l-3.068 0.468l0.486 3.192l-1.762 0.269l-1.15-7.551 l1.762-0.269l0.481 3.156l3.068-0.468l-0.481-3.156l1.762-0.269L121.514 149.863z" class="style3"/><path d="M126.468 141.382l0.206 1.348l-3.099 0.473l0.268 1.762l2.374-0.361l0.197 1.295l-2.374 0.362l0.274 1.8 l3.099-0.473l0.206 1.348l-4.861 0.74l-1.15-7.551L126.468 141.382z" class="style3"/><path d="M133.905 141.82c-0.039 0.091-0.084 0.16-0.135 0.211c-0.051 0.05-0.121 0.082-0.211 0.1 c-0.079 0.013-0.168 0-0.268-0.036c-0.1-0.036-0.211-0.076-0.337-0.121c-0.125-0.044-0.266-0.08-0.422-0.107 c-0.157-0.028-0.329-0.027-0.52 0.002c-0.328 0.05-0.562 0.157-0.701 0.321s-0.19 0.365-0.154 0.6 c0.023 0.2 0.1 0.3 0.2 0.355c0.112 0.1 0.3 0.2 0.4 0.202c0.168 0 0.4 0.1 0.6 0.1 c0.211 0 0.4 0.1 0.7 0.107c0.222 0 0.4 0.1 0.7 0.168c0.218 0.1 0.4 0.2 0.6 0.3 c0.181 0.1 0.3 0.3 0.5 0.509c0.13 0.2 0.2 0.5 0.3 0.783c0.053 0.3 0 0.685-0.032 1 c-0.074 0.322-0.209 0.613-0.404 0.875c-0.196 0.262-0.452 0.482-0.769 0.664c-0.317 0.181-0.69 0.304-1.118 0.4 c-0.235 0.035-0.478 0.047-0.729 0.037c-0.25-0.012-0.497-0.045-0.738-0.098c-0.242-0.055-0.472-0.126-0.69-0.216 c-0.219-0.091-0.414-0.198-0.585-0.324l0.394-0.898c0.028-0.067 0.074-0.125 0.138-0.174s0.135-0.08 0.214-0.092 c0.104-0.016 0.2 0 0.3 0.051c0.115 0.1 0.2 0.1 0.4 0.163c0.145 0.1 0.3 0.1 0.5 0.1 c0.182 0 0.4 0 0.6 0.005c0.317-0.048 0.555-0.155 0.709-0.321c0.155-0.168 0.209-0.402 0.163-0.706 c-0.027-0.176-0.097-0.313-0.21-0.408c-0.113-0.097-0.254-0.169-0.423-0.217c-0.168-0.049-0.356-0.085-0.565-0.11 c-0.209-0.024-0.424-0.054-0.645-0.091c-0.221-0.035-0.439-0.086-0.655-0.154c-0.215-0.067-0.413-0.17-0.595-0.307 c-0.182-0.137-0.339-0.317-0.473-0.543s-0.227-0.514-0.28-0.865c-0.043-0.285-0.028-0.57 0.044-0.856 c0.073-0.286 0.204-0.553 0.393-0.797c0.188-0.245 0.435-0.454 0.736-0.63c0.302-0.175 0.66-0.294 1.075-0.357 c0.232-0.035 0.46-0.051 0.685-0.048c0.225 0 0.4 0 0.6 0.064c0.207 0 0.4 0.1 0.6 0.2 s0.355 0.2 0.5 0.265L133.905 141.82z" class="style3"/><path d="M142.823 146.617l-1.762 0.269l-0.486-3.192l-3.068 0.468l0.486 3.192l-1.762 0.269l-1.15-7.551 l1.762-0.269l0.481 3.156l3.068-0.468l-0.481-3.156l1.762-0.269L142.823 146.617z" class="style3"/><path d="M150.943 141.514c0.083 0.5 0.1 1.068-0.05 1.566c-0.116 0.499-0.319 0.948-0.608 1.3 c-0.29 0.399-0.66 0.734-1.112 1.004c-0.452 0.271-0.972 0.451-1.559 0.54c-0.587 0.09-1.138 0.072-1.651-0.051 c-0.514-0.123-0.969-0.332-1.366-0.627c-0.397-0.295-0.725-0.662-0.985-1.104c-0.259-0.441-0.431-0.935-0.514-1.48 c-0.083-0.545-0.066-1.067 0.05-1.566c0.117-0.499 0.32-0.946 0.612-1.345c0.291-0.397 0.663-0.732 1.117-1.002 c0.454-0.271 0.974-0.451 1.561-0.541c0.587-0.089 1.137-0.071 1.6 0.055c0.513 0.1 1 0.3 1.4 0.6 c0.395 0.3 0.7 0.7 1 1.102C150.689 140.5 150.9 141 150.9 141.514z M149.15 141.8 c-0.057-0.373-0.156-0.702-0.298-0.986c-0.143-0.284-0.32-0.516-0.533-0.695c-0.213-0.179-0.459-0.305-0.739-0.375 c-0.279-0.071-0.587-0.08-0.922-0.029c-0.339 0.052-0.631 0.152-0.879 0.304c-0.247 0.15-0.446 0.344-0.596 0.6 c-0.149 0.235-0.25 0.51-0.302 0.823c-0.051 0.313-0.048 0.7 0 1.029c0.058 0.4 0.2 0.7 0.3 1 c0.143 0.3 0.3 0.5 0.5 0.696c0.213 0.2 0.5 0.3 0.7 0.371c0.281 0.1 0.6 0.1 0.9 0 c0.335-0.051 0.625-0.15 0.872-0.3s0.444-0.341 0.594-0.575c0.15-0.235 0.25-0.51 0.301-0.823 C149.21 142.5 149.2 142.2 149.2 141.788z" class="style3"/><path d="M150.637 137.701l1.472-0.225c0.152-0.022 0.285-0.007 0.4 0.047c0.112 0.1 0.2 0.1 0.2 0.2 l1.636 3.78c0.054 0.1 0.1 0.3 0.2 0.394s0.105 0.3 0.1 0.444c0.01-0.167 0.025-0.326 0.044-0.477 c0.02-0.149 0.039-0.29 0.057-0.424l0.623-4.125c0.017-0.102 0.07-0.199 0.16-0.292c0.089-0.094 0.207-0.151 0.353-0.174 l0.519-0.079c0.151-0.023 0.282-0.008 0.4 0.044c0.109 0.1 0.2 0.1 0.2 0.246l1.812 3.8 c0.057 0.1 0.1 0.2 0.2 0.368c0.062 0.1 0.1 0.3 0.2 0.421c0.005-0.156 0.011-0.306 0.02-0.449 c0.008-0.142 0.019-0.275 0.031-0.401l0.437-4.096c0.013-0.105 0.064-0.203 0.157-0.295c0.092-0.091 0.21-0.149 0.355-0.171 l1.378-0.21l-1.182 7.905l-1.585 0.242l-2.133-4.464c-0.036-0.068-0.072-0.144-0.112-0.227c-0.039-0.082-0.078-0.17-0.117-0.263 c-0.009 0.1-0.021 0.195-0.033 0.285c-0.013 0.092-0.026 0.174-0.039 0.25l-0.728 4.899l-1.586 0.241L150.637 137.701z" class="style3"/><path d="M169.055 139.508c0.085 0.1 0.2 0.3 0.2 0.407c0.035-0.162 0.075-0.318 0.118-0.471 c0.044-0.154 0.091-0.304 0.14-0.449l1.356-4.113c0.023-0.071 0.052-0.128 0.082-0.169c0.031-0.043 0.067-0.076 0.11-0.1 c0.042-0.023 0.092-0.04 0.148-0.049c0.058-0.009 0.124-0.019 0.199-0.03l1.338-0.203l1.149 7.545l-1.545 0.234l-0.661-4.343 c-0.032-0.21-0.057-0.44-0.074-0.688l-1.408 4.187c-0.044 0.13-0.113 0.234-0.209 0.312c-0.097 0.078-0.212 0.128-0.347 0.1 l-0.238 0.036c-0.135 0.021-0.259 0.008-0.374-0.039c-0.115-0.045-0.213-0.124-0.293-0.236l-2.603-3.58 c0.032 0.1 0.1 0.2 0.1 0.355c0.025 0.1 0 0.2 0.1 0.328l0.662 4.343l-1.544 0.235l-1.149-7.545l1.337-0.204 c0.076-0.012 0.142-0.021 0.199-0.03c0.057-0.009 0.109-0.008 0.2 0.002s0.092 0 0.1 0.1 c0.042 0 0.1 0.1 0.1 0.137l2.527 3.537C168.881 139.2 169 139.4 169.1 139.508z" class="style3"/><path d="M178.119 139.825c0.234-0.036 0.438-0.106 0.611-0.213c0.173-0.105 0.312-0.241 0.418-0.405 c0.106-0.165 0.177-0.357 0.212-0.575c0.036-0.221 0.033-0.463-0.007-0.729l-0.682-4.473l1.751-0.267l0.682 4.5 c0.07 0.5 0.1 0.898-0.031 1.309s-0.256 0.776-0.492 1.098c-0.237 0.323-0.545 0.592-0.922 0.8 c-0.377 0.216-0.816 0.362-1.317 0.439c-0.504 0.076-0.969 0.067-1.394-0.027c-0.424-0.095-0.797-0.26-1.12-0.497 c-0.321-0.237-0.587-0.537-0.795-0.902c-0.207-0.364-0.346-0.777-0.416-1.24l-0.682-4.473l1.751-0.268l0.681 4.5 c0.04 0.3 0.1 0.5 0.2 0.698c0.099 0.2 0.2 0.4 0.4 0.489c0.15 0.1 0.3 0.2 0.5 0.3 C177.668 139.9 177.9 139.9 178.1 139.825z" class="style3"/><path d="M186.005 133.882c-0.039 0.091-0.084 0.161-0.135 0.212c-0.051 0.05-0.121 0.082-0.211 0.1 c-0.079 0.013-0.169 0-0.268-0.036c-0.1-0.037-0.211-0.076-0.337-0.121c-0.125-0.044-0.266-0.081-0.422-0.107 c-0.156-0.028-0.329-0.027-0.52 0.002c-0.328 0.05-0.562 0.157-0.701 0.321s-0.19 0.365-0.154 0.6 c0.023 0.2 0.1 0.3 0.2 0.355c0.112 0.1 0.3 0.2 0.4 0.202c0.168 0 0.4 0.1 0.6 0.1 c0.211 0 0.4 0.1 0.7 0.107c0.222 0 0.4 0.1 0.7 0.167c0.219 0.1 0.4 0.2 0.6 0.3 c0.182 0.1 0.3 0.3 0.5 0.51c0.13 0.2 0.2 0.5 0.3 0.782c0.053 0.3 0 0.686-0.032 1 c-0.074 0.322-0.209 0.614-0.404 0.875c-0.195 0.262-0.452 0.483-0.769 0.664c-0.317 0.182-0.69 0.304-1.119 0.4 c-0.234 0.036-0.478 0.048-0.729 0.037c-0.25-0.012-0.497-0.044-0.738-0.098c-0.242-0.054-0.472-0.125-0.69-0.215 c-0.219-0.091-0.414-0.199-0.585-0.325l0.394-0.897c0.028-0.067 0.074-0.126 0.138-0.174c0.063-0.049 0.135-0.08 0.214-0.092 c0.104-0.016 0.2 0 0.3 0.051c0.115 0 0.2 0.1 0.4 0.163c0.145 0.1 0.3 0.1 0.5 0.1 c0.183 0 0.4 0 0.6 0.005c0.317-0.048 0.555-0.155 0.709-0.321c0.155-0.168 0.209-0.403 0.163-0.707 c-0.027-0.176-0.098-0.312-0.211-0.407c-0.113-0.097-0.255-0.169-0.423-0.218c-0.168-0.048-0.356-0.084-0.565-0.109 s-0.424-0.055-0.645-0.091c-0.222-0.035-0.439-0.087-0.655-0.155c-0.215-0.066-0.413-0.17-0.595-0.306 c-0.183-0.137-0.34-0.317-0.473-0.544c-0.134-0.225-0.227-0.514-0.28-0.865c-0.043-0.284-0.028-0.569 0.045-0.856 c0.072-0.285 0.203-0.552 0.393-0.796c0.188-0.245 0.435-0.455 0.736-0.63c0.303-0.175 0.66-0.294 1.075-0.357 c0.231-0.035 0.46-0.051 0.685-0.048c0.225 0 0.4 0 0.6 0.064c0.207 0 0.4 0.1 0.6 0.2 c0.187 0.1 0.4 0.2 0.5 0.264L186.005 133.882z" class="style3"/><path d="M192.663 131.298l0.212 1.39l-2.125 0.324l0.938 6.161l-1.751 0.267l-0.938-6.161l-2.125 0.323l-0.211-1.39 L192.663 131.298z" class="style3"/><path d="M199.903 136.627c0.241-0.036 0.452-0.09 0.633-0.159c0.18-0.07 0.348-0.151 0.503-0.247l-0.174-1.145 l-0.746 0.113c-0.111 0.017-0.202 0-0.273-0.048c-0.07-0.05-0.113-0.119-0.127-0.209l-0.146-0.965l2.685-0.409l0.485 3.2 c-0.173 0.172-0.355 0.323-0.549 0.458c-0.193 0.134-0.403 0.251-0.629 0.353c-0.228 0.102-0.473 0.188-0.735 0.3 s-0.548 0.131-0.855 0.178c-0.553 0.085-1.079 0.064-1.579-0.059c-0.499-0.124-0.947-0.332-1.343-0.623 c-0.396-0.291-0.729-0.657-0.995-1.101c-0.267-0.44-0.443-0.938-0.527-1.491c-0.086-0.562-0.07-1.095 0.043-1.595 c0.115-0.5 0.32-0.948 0.616-1.343c0.294-0.395 0.674-0.725 1.138-0.988c0.463-0.266 0.998-0.445 1.606-0.538 c0.314-0.048 0.613-0.066 0.898-0.057c0.284 0 0.6 0 0.8 0.097c0.247 0.1 0.5 0.1 0.7 0.2 c0.213 0.1 0.4 0.2 0.6 0.324l-0.39 0.851c-0.037 0.079-0.087 0.145-0.147 0.197c-0.062 0.051-0.132 0.084-0.211 0.1 c-0.104 0.016-0.216-0.002-0.337-0.056c-0.15-0.062-0.292-0.113-0.424-0.154c-0.133-0.042-0.265-0.072-0.398-0.09 c-0.134-0.02-0.272-0.026-0.417-0.021c-0.145 0.004-0.305 0.02-0.48 0.046c-0.328 0.05-0.615 0.152-0.86 0.3 c-0.244 0.156-0.443 0.354-0.596 0.592c-0.153 0.239-0.257 0.514-0.312 0.824c-0.055 0.311-0.055 0.6 0 1 c0.061 0.4 0.2 0.8 0.3 1.043c0.157 0.3 0.4 0.5 0.6 0.719c0.227 0.2 0.5 0.3 0.8 0.4 C199.283 136.7 199.6 136.7 199.9 136.627z" class="style3"/><path d="M210.795 132.396c0.083 0.5 0.1 1.068-0.05 1.566c-0.117 0.5-0.32 0.948-0.608 1.3 c-0.29 0.398-0.66 0.733-1.112 1.003c-0.452 0.271-0.972 0.451-1.559 0.541c-0.588 0.089-1.139 0.072-1.651-0.052 c-0.514-0.122-0.969-0.332-1.365-0.626c-0.397-0.296-0.726-0.663-0.985-1.105c-0.26-0.44-0.432-0.935-0.515-1.48 c-0.083-0.545-0.066-1.066 0.05-1.566c0.117-0.498 0.321-0.946 0.612-1.344c0.291-0.398 0.663-0.732 1.117-1.003 s0.975-0.451 1.562-0.54c0.587-0.09 1.137-0.072 1.6 0.054c0.513 0.1 1 0.3 1.4 0.628s0.722 0.7 1 1.1 C210.542 131.4 210.7 131.9 210.8 132.396z M209.002 132.669c-0.057-0.373-0.156-0.701-0.298-0.985 c-0.144-0.284-0.32-0.516-0.533-0.695s-0.459-0.305-0.738-0.375c-0.28-0.071-0.587-0.081-0.922-0.03 c-0.339 0.052-0.632 0.152-0.879 0.305c-0.248 0.15-0.446 0.344-0.596 0.578c-0.15 0.234-0.251 0.509-0.303 0.8 c-0.051 0.313-0.048 0.7 0 1.03c0.058 0.4 0.2 0.7 0.3 0.991s0.319 0.5 0.5 0.7 c0.212 0.2 0.5 0.3 0.7 0.372c0.281 0.1 0.6 0.1 0.9 0.025c0.334-0.052 0.625-0.15 0.871-0.3s0.443-0.342 0.594-0.575 c0.149-0.235 0.25-0.51 0.302-0.823C209.063 133.4 209.1 133 209 132.669z" class="style3"/><path d="M221.087 130.829c0.083 0.5 0.1 1.068-0.05 1.566c-0.117 0.499-0.32 0.948-0.608 1.3 c-0.29 0.399-0.66 0.734-1.112 1.004c-0.452 0.271-0.972 0.45-1.559 0.54c-0.588 0.09-1.138 0.072-1.651-0.051 s-0.969-0.332-1.365-0.627c-0.397-0.295-0.726-0.662-0.985-1.104c-0.261-0.441-0.432-0.935-0.515-1.48 c-0.083-0.545-0.066-1.067 0.051-1.566c0.116-0.499 0.32-0.946 0.611-1.345c0.291-0.397 0.664-0.732 1.117-1.002 c0.453-0.271 0.975-0.451 1.562-0.541s1.137-0.071 1.6 0.055c0.512 0.1 1 0.3 1.4 0.6 c0.395 0.3 0.7 0.7 1 1.102C220.833 129.8 221 130.3 221.1 130.829z M219.294 131.1 c-0.057-0.373-0.156-0.702-0.299-0.986s-0.319-0.516-0.532-0.695c-0.213-0.179-0.46-0.305-0.738-0.375 c-0.28-0.071-0.587-0.08-0.922-0.029c-0.339 0.052-0.632 0.152-0.879 0.304c-0.248 0.15-0.446 0.344-0.596 0.6 c-0.15 0.235-0.251 0.509-0.302 0.822c-0.052 0.314-0.049 0.7 0 1.03c0.058 0.4 0.2 0.7 0.3 1 c0.142 0.3 0.3 0.5 0.5 0.696c0.212 0.2 0.5 0.3 0.7 0.372s0.591 0.1 0.9 0 c0.336-0.051 0.626-0.15 0.872-0.3s0.443-0.341 0.594-0.575c0.149-0.235 0.25-0.51 0.302-0.823 C219.355 131.8 219.4 131.5 219.3 131.102z" class="style3"/><path d="M222.467 126.769c0.054-0.001 0.1 0 0.1 0.018c0.044 0 0.1 0 0.1 0.1 c0.044 0 0.1 0.1 0.2 0.12l4.277 3.987c-0.037-0.143-0.068-0.281-0.096-0.417c-0.028-0.136-0.051-0.264-0.069-0.384 l-0.608-3.996l1.544-0.235l1.15 7.551l-0.913 0.139c-0.135 0.021-0.251 0.018-0.351-0.01s-0.201-0.09-0.304-0.188l-4.246-3.955 c0.03 0.1 0.1 0.3 0.1 0.383s0.047 0.2 0.1 0.354l0.616 4.047l-1.545 0.235l-1.149-7.551l0.923-0.141 C222.351 126.8 222.4 126.8 222.5 126.769z" class="style3"/><path d="M231.281 125.416l0.452 2.965c0.048 0.3 0.1 0.6 0.1 0.954c0.009 0.3 0 0.645-0.005 1 l-1.088 0.166c-0.112-0.316-0.211-0.627-0.296-0.934c-0.086-0.307-0.153-0.619-0.201-0.937l-0.452-2.965L231.281 125.416z M230.628 132.408c-0.02-0.124-0.014-0.242 0.018-0.356c0.03-0.114 0.079-0.218 0.148-0.31c0.068-0.092 0.155-0.169 0.259-0.232 s0.221-0.106 0.353-0.126c0.127-0.02 0.25-0.014 0.4 0.016c0.118 0 0.2 0.1 0.3 0.1 c0.096 0.1 0.2 0.1 0.2 0.25s0.104 0.2 0.1 0.336c0.019 0.1 0 0.245-0.017 0.4 c-0.03 0.115-0.081 0.22-0.151 0.312s-0.158 0.169-0.263 0.23c-0.104 0.062-0.219 0.103-0.347 0.1 c-0.132 0.02-0.256 0.016-0.373-0.012c-0.117-0.028-0.223-0.076-0.316-0.144c-0.093-0.066-0.171-0.151-0.234-0.253 S230.647 132.5 230.6 132.408z" class="style3"/></g></svg>