<svg xmlns="http://www.w3.org/2000/svg" xmlns:xlink="http://www.w3.org/1999/xlink" version="1.1" id="Layer_1" x="0px" y="0px" width="335.731px" height="171.833px" viewBox="0 0 335.731 171.833" enable-background="new 0 0 335.731 171.833" xml:space="preserve"><style>.style0{stroke:	#FFFFFF;fill:	#231F20;}.style1{stroke:	#FFFFFF;fill:	none;}.style2{stroke:	#FFFFFF;stroke-width:	0.5;fill:	none;}.style3{fill:	#FFFFFF;}</style><g id="Layer_3"><path d="M0.71 21.22l22.174 129.13l2.174 20.435l310-45.217l-2.114-19.195 c0 0-64.408-86.131-94.843-105.859L0.71 21.22z" class="style0"/></g><path d="M332.944 106.373c0 0-74.951-97.359-94.451-105.859l-238 20.5" class="style1"/><polyline points="22.7,152.3 332.9,106.6 335.2,125.6 25,171.3 22.7,152.3 0.5,21" class="style1"/><line x1="329.3" y1="102" x2="21.7" y2="146.2" class="style2"/><g enable-background="new    "><path d="M103.856 150.858l0.384 2.523l-1.752 0.267l-1.15-7.551l2.664-0.406c0.532-0.081 0.999-0.087 1.4-0.02 c0.401 0.1 0.7 0.2 1 0.378c0.28 0.2 0.5 0.4 0.7 0.698c0.164 0.3 0.3 0.6 0.3 0.9 c0.057 0.4 0.1 0.73-0.023 1.064c-0.073 0.332-0.217 0.631-0.432 0.892c-0.214 0.263-0.503 0.485-0.865 0.7 c-0.363 0.185-0.805 0.316-1.327 0.396L103.856 150.858z M103.655 149.536l0.912-0.14c0.456-0.069 0.768-0.228 0.936-0.476 c0.167-0.247 0.221-0.567 0.162-0.958c-0.026-0.173-0.077-0.325-0.149-0.46c-0.074-0.134-0.171-0.243-0.292-0.329 s-0.266-0.145-0.435-0.175c-0.169-0.031-0.365-0.029-0.586 0.004l-0.912 0.14L103.655 149.536z" class="style3"/><path d="M112.811 144.349l0.206 1.348l-3.099 0.473l0.269 1.762l2.373-0.362l0.197 1.296l-2.373 0.362l0.273 1.8 l3.1-0.473l0.205 1.348l-4.861 0.74l-1.15-7.551L112.811 144.349z" class="style3"/><path d="M116.283 148.689l0.425 2.793l-1.751 0.267l-1.15-7.551l2.457-0.374c0.546-0.083 1.02-0.099 1.422-0.044 c0.402 0.1 0.7 0.2 1 0.325c0.275 0.2 0.5 0.4 0.6 0.629c0.152 0.3 0.3 0.5 0.3 0.9 c0.037 0.2 0 0.5 0 0.708c-0.032 0.229-0.099 0.444-0.201 0.649c-0.102 0.204-0.235 0.394-0.401 0.6 c-0.166 0.176-0.365 0.327-0.596 0.458c0.126 0 0.2 0.1 0.4 0.168c0.115 0.1 0.2 0.2 0.3 0.275l2.007 2.4 l-1.586 0.242c-0.293 0.044-0.521-0.034-0.683-0.236l-1.588-2c-0.069-0.088-0.145-0.147-0.226-0.179 c-0.081-0.029-0.188-0.034-0.323-0.014L116.283 148.689z M116.099 147.481l0.705-0.107c0.238-0.036 0.436-0.098 0.594-0.184 c0.159-0.085 0.283-0.19 0.374-0.313c0.091-0.124 0.149-0.261 0.176-0.411c0.026-0.151 0.027-0.31 0.001-0.476 c-0.05-0.331-0.198-0.574-0.442-0.729c-0.244-0.153-0.593-0.195-1.045-0.126l-0.705 0.107L116.099 147.481z" class="style3"/><path d="M125.559 142.408l0.206 1.348l-3.099 0.472l0.291 1.913l2.581-0.394l0.206 1.352l-2.581 0.394l0.448 2.9 l-1.762 0.269l-1.15-7.551L125.559 142.408z" class="style3"/><path d="M131.332 141.528l0.206 1.348l-3.099 0.472l0.268 1.762l2.374-0.361l0.197 1.296l-2.374 0.362l0.274 1.8 l3.099-0.472l0.206 1.348l-4.861 0.74l-1.15-7.551L131.332 141.528z" class="style3"/><path d="M138.253 146.201c0.042-0.007 0.084-0.006 0.1 0.005c0.044 0 0.1 0 0.1 0.062l0.806 0.6 c-0.243 0.443-0.579 0.802-1.006 1.072c-0.427 0.272-0.953 0.456-1.578 0.552c-0.573 0.087-1.103 0.067-1.586-0.059 c-0.484-0.126-0.91-0.337-1.279-0.632c-0.368-0.296-0.673-0.666-0.914-1.113c-0.241-0.444-0.404-0.943-0.489-1.497 c-0.085-0.562-0.067-1.095 0.054-1.597c0.122-0.501 0.33-0.949 0.625-1.344s0.67-0.725 1.125-0.986 c0.455-0.265 0.974-0.441 1.558-0.53c0.283-0.043 0.554-0.059 0.812-0.047c0.258 0 0.5 0 0.7 0.1 s0.448 0.1 0.6 0.225c0.202 0.1 0.4 0.2 0.5 0.333l-0.47 0.883c-0.03 0.054-0.068 0.105-0.114 0.2 c-0.046 0.048-0.115 0.079-0.209 0.094c-0.062 0.009-0.123 0.004-0.183-0.016c-0.059-0.02-0.123-0.044-0.191-0.074 s-0.143-0.063-0.225-0.098c-0.081-0.037-0.176-0.065-0.284-0.09c-0.107-0.024-0.232-0.04-0.373-0.047 c-0.14-0.007-0.302 0.004-0.485 0.031c-0.317 0.049-0.599 0.148-0.845 0.301c-0.246 0.153-0.447 0.348-0.603 0.6 c-0.157 0.237-0.265 0.513-0.326 0.825c-0.06 0.314-0.062 0.655-0.005 1.024c0.059 0.4 0.2 0.7 0.3 1 c0.152 0.3 0.3 0.5 0.5 0.693c0.213 0.2 0.4 0.3 0.7 0.373c0.258 0.1 0.5 0.1 0.8 0 c0.159-0.024 0.303-0.054 0.432-0.091c0.129-0.035 0.247-0.079 0.353-0.136c0.106-0.054 0.207-0.12 0.299-0.196 c0.093-0.075 0.184-0.167 0.274-0.271c0.036-0.042 0.077-0.077 0.122-0.106C138.153 146.2 138.2 146.2 138.3 146.201z" class="style3"/><path d="M144.619 139.503l0.212 1.39l-2.125 0.324l0.938 6.161l-1.752 0.267l-0.938-6.161l-2.125 0.3 l-0.212-1.391L144.619 139.503z" class="style3"/><path d="M151.786 139.982c-0.039 0.091-0.084 0.16-0.135 0.211c-0.051 0.05-0.121 0.083-0.21 0.1 c-0.08 0.012-0.169-0.001-0.268-0.036c-0.099-0.037-0.212-0.077-0.337-0.122c-0.125-0.044-0.266-0.08-0.422-0.107 c-0.157-0.028-0.33-0.026-0.519 0.002c-0.329 0.05-0.562 0.157-0.702 0.322c-0.139 0.164-0.191 0.364-0.154 0.6 c0.023 0.2 0.1 0.3 0.2 0.356c0.112 0.1 0.3 0.2 0.4 0.201c0.167 0 0.4 0.1 0.6 0.1 c0.212 0 0.4 0.1 0.7 0.107c0.222 0 0.4 0.1 0.7 0.168c0.217 0.1 0.4 0.2 0.6 0.3 c0.182 0.1 0.3 0.3 0.5 0.509c0.131 0.2 0.2 0.5 0.3 0.783c0.053 0.3 0 0.685-0.033 1 c-0.074 0.322-0.209 0.613-0.404 0.875c-0.196 0.262-0.452 0.482-0.769 0.664c-0.317 0.181-0.69 0.304-1.118 0.4 c-0.235 0.035-0.478 0.048-0.729 0.037c-0.25-0.012-0.497-0.045-0.738-0.098c-0.242-0.054-0.472-0.126-0.69-0.216 c-0.219-0.09-0.414-0.198-0.586-0.324l0.394-0.898c0.029-0.067 0.074-0.125 0.138-0.174c0.063-0.049 0.135-0.079 0.214-0.092 c0.104-0.016 0.2 0 0.3 0.051c0.115 0.1 0.2 0.1 0.4 0.163c0.145 0.1 0.3 0.1 0.5 0.1 c0.182 0 0.4 0 0.6 0.006c0.318-0.049 0.555-0.155 0.709-0.322s0.209-0.402 0.163-0.706 c-0.026-0.176-0.097-0.313-0.211-0.408c-0.113-0.096-0.254-0.169-0.423-0.217c-0.167-0.049-0.356-0.085-0.565-0.109 c-0.209-0.025-0.424-0.055-0.645-0.091c-0.221-0.035-0.44-0.087-0.655-0.155c-0.215-0.067-0.414-0.17-0.596-0.306 c-0.182-0.138-0.339-0.318-0.472-0.544s-0.227-0.514-0.281-0.865c-0.043-0.284-0.028-0.569 0.045-0.856 c0.073-0.286 0.204-0.553 0.393-0.796c0.189-0.246 0.435-0.455 0.737-0.63c0.302-0.175 0.66-0.295 1.074-0.358 c0.232-0.035 0.46-0.051 0.685-0.048c0.226 0 0.4 0 0.6 0.065s0.404 0.1 0.6 0.17s0.356 0.2 0.5 0.3 L151.786 139.982z" class="style3"/><path d="M158.445 137.398l0.212 1.39l-2.125 0.323l0.938 6.161l-1.752 0.267l-0.938-6.161l-2.124 0.324l-0.212-1.39 L158.445 137.398z" class="style3"/><path d="M166.886 139.972c0.083 0.5 0.1 1.067-0.05 1.566s-0.32 0.947-0.608 1.3 c-0.29 0.398-0.66 0.733-1.112 1.004c-0.452 0.271-0.972 0.45-1.559 0.54c-0.588 0.089-1.138 0.072-1.651-0.052 c-0.514-0.122-0.969-0.332-1.366-0.626c-0.397-0.295-0.726-0.663-0.985-1.105c-0.26-0.44-0.432-0.935-0.515-1.479 s-0.066-1.067 0.051-1.567c0.116-0.498 0.32-0.945 0.612-1.344c0.291-0.398 0.663-0.732 1.117-1.003 c0.453-0.271 0.973-0.451 1.561-0.54c0.587-0.09 1.137-0.071 1.6 0.055c0.513 0.1 1 0.3 1.4 0.6 c0.394 0.3 0.7 0.7 1 1.102C166.632 138.9 166.8 139.4 166.9 139.972z M165.093 140.2 c-0.057-0.373-0.156-0.701-0.298-0.985c-0.143-0.284-0.32-0.516-0.533-0.695c-0.213-0.18-0.459-0.305-0.739-0.375 c-0.279-0.071-0.586-0.081-0.921-0.029c-0.339 0.052-0.631 0.152-0.879 0.304c-0.248 0.15-0.446 0.344-0.596 0.6 c-0.15 0.234-0.251 0.509-0.302 0.822c-0.051 0.313-0.048 0.7 0 1.03c0.058 0.4 0.2 0.7 0.3 1 c0.143 0.3 0.3 0.5 0.5 0.696c0.212 0.2 0.5 0.3 0.7 0.372c0.281 0.1 0.6 0.1 0.9 0 c0.335-0.052 0.625-0.15 0.871-0.3c0.246-0.149 0.444-0.342 0.594-0.575c0.149-0.235 0.25-0.51 0.301-0.823 S165.15 140.6 165.1 140.245z" class="style3"/><path d="M169.628 140.562l0.425 2.793l-1.752 0.268l-1.15-7.551l2.457-0.375c0.546-0.083 1.02-0.098 1.422-0.043 c0.402 0.1 0.7 0.2 1 0.324c0.274 0.2 0.5 0.4 0.6 0.63c0.152 0.3 0.3 0.5 0.3 0.9 c0.037 0.2 0 0.5 0 0.708c-0.032 0.229-0.099 0.444-0.2 0.649c-0.102 0.204-0.235 0.394-0.401 0.6 c-0.166 0.175-0.365 0.326-0.597 0.458c0.127 0 0.2 0.1 0.4 0.167c0.114 0.1 0.2 0.2 0.3 0.276l2.007 2.4 l-1.586 0.241c-0.293 0.045-0.521-0.033-0.683-0.235l-1.588-2c-0.069-0.089-0.146-0.148-0.226-0.179 c-0.081-0.03-0.188-0.034-0.323-0.014L169.628 140.562z M169.444 139.354l0.705-0.107c0.238-0.036 0.437-0.097 0.595-0.184 c0.158-0.085 0.283-0.189 0.374-0.313s0.149-0.261 0.176-0.41c0.026-0.152 0.027-0.311 0.002-0.477 c-0.051-0.33-0.198-0.574-0.442-0.728s-0.594-0.195-1.046-0.127l-0.704 0.107L169.444 139.354z" class="style3"/><path d="M178.79 138.912c0.086 0.1 0.2 0.3 0.3 0.407c0.035-0.162 0.074-0.319 0.119-0.472 c0.043-0.153 0.09-0.303 0.138-0.448l1.356-4.114c0.024-0.07 0.052-0.127 0.083-0.168c0.031-0.043 0.067-0.076 0.109-0.1 c0.043-0.023 0.092-0.04 0.149-0.049c0.057-0.009 0.123-0.019 0.199-0.03l1.337-0.204l1.149 7.545l-1.544 0.235l-0.662-4.343 c-0.031-0.21-0.057-0.44-0.072-0.689l-1.409 4.188c-0.044 0.13-0.114 0.234-0.21 0.312s-0.211 0.128-0.346 0.148l-0.238 0 c-0.135 0.021-0.26 0.008-0.375-0.039c-0.114-0.045-0.212-0.124-0.293-0.236l-2.603-3.58c0.032 0.1 0.1 0.2 0.1 0.4 s0.045 0.2 0.1 0.328l0.661 4.343l-1.544 0.234l-1.149-7.545l1.337-0.203c0.076-0.012 0.143-0.021 0.199-0.03 c0.058-0.009 0.11-0.008 0.2 0.002s0.092 0 0.1 0.062c0.042 0 0.1 0.1 0.1 0.136l2.527 3.5 C178.617 138.7 178.7 138.8 178.8 138.912z" class="style3"/><path d="M188.217 134.432c-0.039 0.091-0.084 0.161-0.135 0.211s-0.121 0.083-0.211 0.1 c-0.079 0.012-0.169 0-0.268-0.036c-0.1-0.037-0.212-0.077-0.337-0.122c-0.125-0.044-0.266-0.08-0.422-0.107 c-0.157-0.028-0.329-0.026-0.52 0.002c-0.328 0.051-0.562 0.158-0.701 0.322s-0.19 0.364-0.154 0.6 c0.023 0.2 0.1 0.3 0.2 0.356c0.112 0.1 0.3 0.2 0.4 0.201c0.168 0 0.4 0.1 0.6 0.1 c0.211 0 0.4 0.1 0.6 0.108c0.223 0 0.4 0.1 0.7 0.167c0.218 0.1 0.4 0.2 0.6 0.3 c0.181 0.1 0.3 0.3 0.5 0.51c0.13 0.2 0.2 0.5 0.3 0.782c0.053 0.3 0 0.685-0.032 1 c-0.074 0.322-0.21 0.613-0.404 0.875c-0.196 0.262-0.452 0.482-0.77 0.664c-0.316 0.181-0.689 0.304-1.118 0.4 c-0.234 0.036-0.478 0.048-0.729 0.037c-0.251-0.012-0.497-0.044-0.738-0.098c-0.242-0.054-0.472-0.126-0.69-0.216 s-0.414-0.198-0.586-0.324l0.395-0.898c0.028-0.067 0.074-0.125 0.138-0.174s0.135-0.079 0.214-0.092 c0.104-0.016 0.2 0 0.3 0.051c0.114 0.1 0.2 0.1 0.4 0.164c0.145 0.1 0.3 0.1 0.5 0.1 c0.183 0 0.4 0 0.6 0.006c0.317-0.049 0.555-0.155 0.709-0.322s0.209-0.402 0.162-0.706 c-0.026-0.176-0.097-0.313-0.21-0.407c-0.113-0.097-0.255-0.17-0.423-0.218s-0.356-0.085-0.565-0.109 c-0.209-0.025-0.424-0.055-0.645-0.091c-0.222-0.035-0.439-0.087-0.655-0.155c-0.215-0.067-0.413-0.17-0.595-0.306 c-0.183-0.138-0.34-0.318-0.473-0.544c-0.134-0.226-0.227-0.514-0.28-0.865c-0.044-0.284-0.028-0.569 0.045-0.856 c0.072-0.286 0.203-0.553 0.393-0.796c0.188-0.246 0.435-0.455 0.736-0.63s0.66-0.295 1.074-0.357 c0.232-0.035 0.461-0.052 0.686-0.049s0.441 0 0.6 0.065c0.207 0 0.4 0.1 0.6 0.2 c0.187 0.1 0.4 0.2 0.5 0.264L188.217 134.432z" class="style3"/><path d="M194.46 139.637l-1.762 0.269l-1.15-7.551l1.762-0.269L194.46 139.637z" class="style3"/><path d="M195.825 131.714c0.053-0.001 0.1 0 0.1 0.017c0.044 0 0.1 0 0.1 0.1 c0.043 0 0.1 0.1 0.1 0.119l4.277 3.988c-0.036-0.143-0.068-0.281-0.096-0.417s-0.051-0.265-0.069-0.385l-0.608-3.996 l1.544-0.235l1.15 7.551l-0.912 0.14c-0.135 0.021-0.252 0.017-0.352-0.01c-0.1-0.027-0.201-0.09-0.305-0.188l-4.245-3.955 c0.03 0.1 0.1 0.3 0.1 0.383c0.026 0.1 0 0.2 0.1 0.354l0.616 4.047l-1.544 0.235l-1.15-7.551l0.922-0.141 C195.707 131.7 195.8 131.7 195.8 131.714z" class="style3"/><path d="M208.027 129.844l0.212 1.39l-2.124 0.324l0.938 6.161l-1.752 0.267l-0.938-6.161l-2.124 0.323l-0.212-1.39 L208.027 129.844z" class="style3"/><path d="M213.614 128.994l0.205 1.348l-3.099 0.472l0.269 1.762l2.374-0.361l0.197 1.296l-2.374 0.361l0.274 1.8 l3.099-0.472l0.205 1.348l-4.861 0.74l-1.15-7.551L213.614 128.994z" class="style3"/><path d="M217.085 133.333l0.426 2.793l-1.752 0.268l-1.15-7.551l2.456-0.375c0.546-0.083 1.021-0.098 1.423-0.043 c0.402 0.1 0.7 0.2 1 0.324s0.487 0.4 0.6 0.63c0.152 0.3 0.3 0.5 0.3 0.9 c0.037 0.2 0 0.5 0 0.708c-0.032 0.229-0.099 0.443-0.2 0.649c-0.102 0.204-0.235 0.394-0.401 0.6 c-0.166 0.175-0.365 0.326-0.596 0.458c0.126 0 0.2 0.1 0.4 0.167c0.115 0.1 0.2 0.2 0.3 0.276l2.007 2.4 l-1.586 0.241c-0.293 0.045-0.521-0.033-0.683-0.235l-1.588-2c-0.069-0.089-0.146-0.148-0.226-0.179 c-0.081-0.029-0.188-0.034-0.323-0.014L217.085 133.333z M216.902 132.125l0.704-0.107c0.238-0.036 0.437-0.097 0.596-0.184 c0.158-0.085 0.282-0.189 0.373-0.313s0.149-0.261 0.176-0.41c0.026-0.152 0.027-0.31 0.002-0.476 c-0.05-0.332-0.198-0.575-0.442-0.729s-0.593-0.195-1.045-0.127l-0.705 0.107L216.902 132.125z" class="style3"/><path d="M229.678 134.272l-1.357 0.207c-0.152 0.023-0.282 0.006-0.392-0.049c-0.109-0.056-0.191-0.136-0.246-0.241 l-0.647-1.248l-2.87 0.438l-0.245 1.383c-0.02 0.103-0.074 0.201-0.162 0.293c-0.089 0.094-0.205 0.151-0.351 0.173l-1.368 0.2 l1.772-7.996l1.793-0.273L229.678 134.272z M224.388 132.125l2.062-0.314l-1.01-1.963c-0.065-0.123-0.141-0.27-0.229-0.438 c-0.088-0.168-0.177-0.353-0.267-0.55c-0.023 0.219-0.051 0.423-0.082 0.611s-0.062 0.352-0.095 0.491L224.388 132.125z" class="style3"/><path d="M234.754 131.5c0.042-0.006 0.084-0.005 0.1 0.006c0.044 0 0.1 0 0.1 0.062l0.806 0.6 c-0.243 0.442-0.579 0.802-1.006 1.072c-0.427 0.271-0.953 0.456-1.578 0.551c-0.573 0.088-1.103 0.068-1.586-0.058 c-0.484-0.126-0.91-0.337-1.279-0.633c-0.368-0.296-0.674-0.666-0.914-1.112c-0.241-0.445-0.404-0.944-0.489-1.498 c-0.085-0.562-0.067-1.095 0.055-1.596c0.121-0.501 0.329-0.949 0.625-1.345c0.295-0.395 0.67-0.725 1.125-0.986 c0.454-0.264 0.974-0.441 1.558-0.53c0.283-0.043 0.554-0.058 0.812-0.047c0.258 0 0.5 0 0.7 0.1 c0.231 0.1 0.4 0.1 0.6 0.224c0.202 0.1 0.4 0.2 0.6 0.333l-0.471 0.883c-0.03 0.054-0.068 0.105-0.114 0.2 c-0.047 0.048-0.115 0.08-0.209 0.094c-0.062 0.01-0.123 0.004-0.183-0.015c-0.06-0.021-0.123-0.045-0.191-0.075 c-0.068-0.029-0.144-0.063-0.225-0.098c-0.081-0.036-0.176-0.065-0.284-0.09c-0.107-0.024-0.231-0.039-0.373-0.047 c-0.141-0.007-0.302 0.004-0.485 0.032c-0.317 0.049-0.6 0.148-0.845 0.301c-0.246 0.153-0.447 0.348-0.603 0.6 c-0.157 0.238-0.265 0.513-0.326 0.826c-0.06 0.313-0.062 0.655-0.005 1.024c0.059 0.4 0.2 0.7 0.3 1 c0.152 0.3 0.3 0.5 0.5 0.693c0.213 0.2 0.4 0.3 0.7 0.373c0.258 0.1 0.5 0.1 0.8 0 c0.159-0.024 0.303-0.055 0.432-0.091s0.246-0.08 0.354-0.136c0.106-0.055 0.206-0.12 0.298-0.196 c0.094-0.075 0.185-0.167 0.274-0.271c0.036-0.042 0.077-0.077 0.122-0.107C234.654 131.5 234.7 131.5 234.8 131.5z" class="style3"/><path d="M241.12 124.803l0.212 1.39l-2.125 0.323l0.938 6.161l-1.752 0.268l-0.938-6.161l-2.124 0.323l-0.212-1.39 L241.12 124.803z" class="style3"/><path d="M244.913 131.952l-1.762 0.269l-1.149-7.551l1.762-0.269L244.913 131.952z" class="style3"/><path d="M244.541 124.282l1.409-0.214c0.152-0.023 0.281-0.008 0.4 0.047c0.107 0.1 0.2 0.1 0.2 0.2 l2.077 3.819c0.093 0.2 0.2 0.3 0.3 0.545c0.1 0.2 0.2 0.4 0.3 0.623c0.014-0.234 0.036-0.461 0.068-0.678 c0.033-0.218 0.066-0.419 0.103-0.604l0.835-4.264c0.02-0.102 0.073-0.2 0.161-0.292c0.089-0.094 0.206-0.151 0.352-0.174 l1.419-0.216l-1.875 8.012l-1.586 0.241L244.541 124.282z" class="style3"/><path d="M257.662 122.284l0.205 1.348l-3.1 0.472l0.269 1.762l2.374-0.361l0.197 1.296l-2.374 0.361l0.274 1.8 l3.099-0.472l0.205 1.348l-4.86 0.74l-1.15-7.551L257.662 122.284z" class="style3"/></g></svg>